<svg width="16" height="16" viewBox="0 0 16 16" fill="none" xmlns="http://www.w3.org/2000/svg">
<path d="M7.99456 9.76646C7.64451 9.76677 7.30227 9.66309 7.01125 9.46857C6.72023 9.27405 6.49355 8.99746 6.35999 8.6739C6.22642 8.35034 6.19198 7.9944 6.26105 7.65123C6.33011 7.30807 6.49956 6.99316 6.74789 6.74646C6.79473 6.70006 6.85025 6.66334 6.91128 6.63839C6.97231 6.61345 7.03765 6.60077 7.10358 6.60108C7.16951 6.60139 7.23473 6.61468 7.29553 6.6402C7.35632 6.66571 7.41149 6.70295 7.45789 6.74979C7.50429 6.79663 7.54101 6.85215 7.56595 6.91318C7.5909 6.97421 7.60358 7.03955 7.60327 7.10548C7.60296 7.17141 7.58967 7.23664 7.56415 7.29743C7.53863 7.35822 7.50139 7.41339 7.45456 7.45979C7.38264 7.53011 7.32553 7.61412 7.2866 7.70686C7.24767 7.79961 7.22771 7.89921 7.22789 7.99979C7.21903 8.15813 7.25991 8.31527 7.34483 8.44921C7.42974 8.58315 7.55442 8.68717 7.70141 8.74669C7.8484 8.80622 8.01033 8.81828 8.16451 8.78118C8.31869 8.74408 8.45741 8.65967 8.56122 8.53979C8.65611 8.44575 8.7843 8.39299 8.91789 8.39299C9.05148 8.39299 9.17967 8.44575 9.27456 8.53979C9.36702 8.6355 9.4187 8.76338 9.4187 8.89646C9.4187 9.02954 9.36702 9.15742 9.27456 9.25313C9.10607 9.41953 8.90608 9.55065 8.68629 9.63879C8.4665 9.72694 8.23133 9.77034 7.99456 9.76646Z" fill="#2054D2"/>
<path d="M14.828 7.99984C14.828 9.81215 14.1081 11.5502 12.8266 12.8317C11.5451 14.1132 9.80702 14.8332 7.99471 14.8332C6.1824 14.8332 4.44431 14.1132 3.16281 12.8317C1.88132 11.5502 1.16138 9.81215 1.16138 7.99984C1.16138 6.18752 1.88132 4.44944 3.16281 3.16794C4.44431 1.88644 6.1824 1.1665 7.99471 1.1665C8.12732 1.1665 8.2545 1.21918 8.34826 1.31295C8.44203 1.40672 8.49471 1.5339 8.49471 1.6665V4.19984C8.49298 4.33191 8.43975 4.45808 8.34635 4.55148C8.25296 4.64488 8.12678 4.69811 7.99471 4.69984C7.3418 4.69534 6.70277 4.88821 6.16138 5.25317C5.61693 5.614 5.19234 6.12888 4.9418 6.73208C4.69125 7.33528 4.62612 7.99945 4.75471 8.63984C4.96383 9.39956 5.43533 10.0606 6.08555 10.5057C6.73576 10.9509 7.52263 11.1513 8.30655 11.0713C9.09046 10.9914 9.82072 10.6364 10.3677 10.0692C10.9148 9.50207 11.2432 8.75946 11.2947 7.97317C11.2938 7.90726 11.3061 7.84184 11.3309 7.78077C11.3558 7.71971 11.3925 7.66423 11.4392 7.61762C11.4858 7.57101 11.5412 7.53421 11.6023 7.5094C11.6634 7.48459 11.7288 7.47227 11.7947 7.47317H14.328C14.396 7.47307 14.4633 7.48684 14.5258 7.51361C14.5882 7.54039 14.6446 7.57962 14.6914 7.62892C14.7382 7.67821 14.7744 7.73652 14.7979 7.8003C14.8214 7.86407 14.8317 7.93197 14.828 7.99984Z" fill="#2054D2"/>
<path d="M14.5881 4.08646C14.5707 4.21616 14.5176 4.33849 14.4348 4.43979L12.9881 5.88646C12.7824 6.09303 12.5279 6.24436 12.2481 6.32646C12.084 6.37685 11.9131 6.40159 11.7414 6.39979C11.6239 6.41022 11.5057 6.41022 11.3881 6.39979L10.5014 6.22646L8.98145 7.75313C8.88586 7.84403 8.75998 7.89628 8.62811 7.8998C8.49555 7.89968 8.36846 7.84692 8.27478 7.75313C8.22761 7.70716 8.19012 7.65222 8.16452 7.59154C8.13892 7.53085 8.12573 7.46566 8.12573 7.3998C8.12573 7.33393 8.13892 7.26874 8.16452 7.20805C8.19012 7.14737 8.22761 7.09242 8.27478 7.04646L9.80145 5.51313L9.62145 4.63313C9.56765 4.34948 9.58135 4.05716 9.66145 3.77979C9.74354 3.50005 9.89488 3.24553 10.1014 3.03979L11.5348 1.60646C11.6333 1.51687 11.7563 1.45882 11.8881 1.43979C12.0114 1.42193 12.1373 1.4429 12.2481 1.49979C12.3581 1.55575 12.4504 1.64114 12.5148 1.74646C12.5799 1.86431 12.6078 1.99912 12.5948 2.13313L12.3814 3.63979L13.8814 3.43313C14.007 3.4208 14.1334 3.44667 14.244 3.50733C14.3546 3.56799 14.4443 3.66063 14.5014 3.77313C14.5557 3.86882 14.5855 3.97647 14.5881 4.08646Z" fill="#2054D2"/>
</svg>
