<svg width="16" height="16" viewBox="0 0 16 16" fill="none" xmlns="http://www.w3.org/2000/svg">
<path d="M3.30005 10.8423C3.30005 10.8423 2.16472 12.5356 2.82872 13.199C3.49205 13.863 5.18539 12.7276 5.18539 12.7276" stroke="#2054D2" stroke-width="2" stroke-linecap="round" stroke-linejoin="round"/>
<path fill-rule="evenodd" clip-rule="evenodd" d="M13.6707 2.35714C13.7503 2.43679 13.8084 2.53529 13.8397 2.64348C13.8709 2.75166 13.8742 2.86599 13.8493 2.97581L13.638 3.91048C13.3876 5.01511 12.8297 6.02631 12.0287 6.82715L8.93268 9.92314C9.61734 10.7711 9.83934 11.5765 9.66601 12.3445C9.48534 13.1445 8.89268 13.7351 8.52468 14.1025L8.48468 14.1425C8.41302 14.214 8.32601 14.2683 8.23024 14.3012C8.13448 14.3341 8.03247 14.3448 7.93197 14.3324C7.83147 14.32 7.73512 14.2848 7.65022 14.2296C7.56533 14.1744 7.49412 14.1006 7.44201 14.0138L6.11335 11.7971C6.08535 11.7506 6.05177 11.7076 6.01335 11.6691L4.30001 9.95714L3.79334 9.65314L6.09935 7.09115L6.10401 7.09448L9.20001 3.99981C10.001 3.19871 11.0125 2.64075 12.1173 2.39048L13.052 2.17848C13.1619 2.15367 13.2763 2.15711 13.3844 2.18847C13.4926 2.21983 13.5911 2.27742 13.6707 2.35714ZM5.54801 6.70781C4.90201 6.33115 4.28135 6.22648 3.68335 6.36115C2.88335 6.54248 2.29268 7.13448 1.92534 7.50314L1.88534 7.54248C1.81379 7.61413 1.75951 7.70115 1.7266 7.79691C1.6937 7.89268 1.68305 7.99468 1.69545 8.09518C1.70785 8.19568 1.74298 8.29204 1.79818 8.37693C1.85338 8.46183 1.92719 8.53303 2.01401 8.58514L3.21134 9.30381L5.54801 6.70781Z" fill="#2054D2"/>
</svg>
