<svg width="18" height="18" viewBox="0 0 18 18" fill="none" xmlns="http://www.w3.org/2000/svg">
<path d="M9 7.5C9.41421 7.5 9.75 7.16421 9.75 6.75C9.75 6.33579 9.41421 6 9 6C8.58579 6 8.25 6.33579 8.25 6.75C8.25 7.16421 8.58579 7.5 9 7.5Z" stroke="#121212" stroke-width="1.4" stroke-linecap="round" stroke-linejoin="round"/>
<path d="M14.25 7.5C14.6642 7.5 15 7.16421 15 6.75C15 6.33579 14.6642 6 14.25 6C13.8358 6 13.5 6.33579 13.5 6.75C13.5 7.16421 13.8358 7.5 14.25 7.5Z" stroke="#121212" stroke-width="1.4" stroke-linecap="round" stroke-linejoin="round"/>
<path d="M3.75 7.5C4.16421 7.5 4.5 7.16421 4.5 6.75C4.5 6.33579 4.16421 6 3.75 6C3.33579 6 3 6.33579 3 6.75C3 7.16421 3.33579 7.5 3.75 7.5Z" stroke="#121212" stroke-width="1.4" stroke-linecap="round" stroke-linejoin="round"/>
<path d="M9 12C9.41421 12 9.75 11.6642 9.75 11.25C9.75 10.8358 9.41421 10.5 9 10.5C8.58579 10.5 8.25 10.8358 8.25 11.25C8.25 11.6642 8.58579 12 9 12Z" stroke="#121212" stroke-width="1.4" stroke-linecap="round" stroke-linejoin="round"/>
<path d="M14.25 12C14.6642 12 15 11.6642 15 11.25C15 10.8358 14.6642 10.5 14.25 10.5C13.8358 10.5 13.5 10.8358 13.5 11.25C13.5 11.6642 13.8358 12 14.25 12Z" stroke="#121212" stroke-width="1.4" stroke-linecap="round" stroke-linejoin="round"/>
<path d="M3.75 12C4.16421 12 4.5 11.6642 4.5 11.25C4.5 10.8358 4.16421 10.5 3.75 10.5C3.33579 10.5 3 10.8358 3 11.25C3 11.6642 3.33579 12 3.75 12Z" stroke="#121212" stroke-width="1.4" stroke-linecap="round" stroke-linejoin="round"/>
</svg>
