<svg width="48" height="48" viewBox="0 0 48 48" fill="none" xmlns="http://www.w3.org/2000/svg">
<rect width="48" height="48" rx="4" fill="#CCEAFF"/>
<path d="M26.409 28.317C26.5443 28.317 26.6517 28.3567 26.731 28.436C26.8103 28.5153 26.85 28.618 26.85 28.744V29.5H20.158V29.073C20.158 28.9843 20.1767 28.8933 20.214 28.8C20.2513 28.7067 20.3097 28.6203 20.389 28.541L23.602 25.314C23.868 25.0433 24.1107 24.7843 24.33 24.537C24.5493 24.285 24.736 24.033 24.89 23.781C25.044 23.529 25.163 23.2747 25.247 23.018C25.331 22.7567 25.373 22.479 25.373 22.185C25.373 21.891 25.3263 21.6343 25.233 21.415C25.1397 21.191 25.0113 21.0067 24.848 20.862C24.6893 20.7173 24.5003 20.61 24.281 20.54C24.0617 20.4653 23.826 20.428 23.574 20.428C23.3173 20.428 23.0817 20.4653 22.867 20.54C22.6523 20.6147 22.461 20.7197 22.293 20.855C22.1297 20.9857 21.992 21.142 21.88 21.324C21.768 21.506 21.6887 21.7067 21.642 21.926C21.586 22.0893 21.509 22.199 21.411 22.255C21.3177 22.3063 21.1847 22.3203 21.012 22.297L20.361 22.185C20.4263 21.7277 20.5523 21.324 20.739 20.974C20.9303 20.6193 21.1683 20.323 21.453 20.085C21.7423 19.847 22.0713 19.6673 22.44 19.546C22.8087 19.42 23.2077 19.357 23.637 19.357C24.0617 19.357 24.4583 19.42 24.827 19.546C25.1957 19.672 25.5153 19.8563 25.786 20.099C26.0567 20.337 26.269 20.6287 26.423 20.974C26.577 21.3193 26.654 21.7113 26.654 22.15C26.654 22.5233 26.598 22.871 26.486 23.193C26.374 23.5103 26.2223 23.8137 26.031 24.103C25.8397 24.3923 25.618 24.6747 25.366 24.95C25.1187 25.2253 24.855 25.503 24.575 25.783L21.929 28.485C22.1157 28.4337 22.3047 28.394 22.496 28.366C22.6873 28.3333 22.8717 28.317 23.049 28.317H26.409Z" fill="black"/>
</svg>
