<svg width="103" height="15" viewBox="0 0 103 15" fill="none" xmlns="http://www.w3.org/2000/svg">
<path d="M9.48763 9.272C9.60496 9.272 9.70896 9.31733 9.79963 9.408L10.6476 10.328C10.1783 10.9093 9.59963 11.3547 8.91163 11.664C8.22896 11.9733 7.40763 12.128 6.44763 12.128C5.58896 12.128 4.81563 11.9813 4.12763 11.688C3.44496 11.3947 2.86096 10.9867 2.37563 10.464C1.89029 9.94133 1.51696 9.31733 1.25563 8.592C0.999627 7.86667 0.871627 7.07467 0.871627 6.216C0.871627 5.34667 1.01029 4.552 1.28763 3.832C1.56496 3.10667 1.95429 2.48267 2.45563 1.96C2.96229 1.43733 3.56496 1.032 4.26363 0.743999C4.96229 0.450666 5.73563 0.304 6.58363 0.304C7.42629 0.304 8.17296 0.442666 8.82363 0.719999C9.47963 0.997333 10.037 1.36 10.4956 1.808L9.77563 2.808C9.73296 2.872 9.67696 2.928 9.60763 2.976C9.54363 3.024 9.45296 3.048 9.33563 3.048C9.25563 3.048 9.17296 3.02667 9.08763 2.984C9.00229 2.936 8.90896 2.88 8.80763 2.816C8.70629 2.74667 8.58896 2.672 8.45563 2.592C8.32229 2.512 8.16763 2.44 7.99163 2.376C7.81563 2.30667 7.61029 2.25067 7.37563 2.208C7.14629 2.16 6.87963 2.136 6.57563 2.136C6.05829 2.136 5.58363 2.22933 5.15163 2.416C4.72496 2.59733 4.35696 2.864 4.04763 3.216C3.73829 3.56267 3.49829 3.98933 3.32763 4.496C3.15696 4.99733 3.07163 5.57067 3.07163 6.216C3.07163 6.86667 3.16229 7.44533 3.34363 7.952C3.53029 8.45867 3.78096 8.88533 4.09563 9.232C4.41029 9.57867 4.78096 9.84533 5.20763 10.032C5.63429 10.2133 6.09296 10.304 6.58363 10.304C6.87696 10.304 7.14096 10.288 7.37563 10.256C7.61563 10.224 7.83429 10.1733 8.03163 10.104C8.23429 10.0347 8.42363 9.94667 8.59963 9.84C8.78096 9.728 8.95963 9.592 9.13563 9.432C9.18896 9.384 9.24496 9.34667 9.30363 9.32C9.36229 9.288 9.42363 9.272 9.48763 9.272ZM14.6018 2.144V5.568H18.9378V7.288H14.6018V12H12.4418V0.431999H19.7378V2.144H14.6018ZM32.7469 6.216C32.7469 7.064 32.6055 7.85067 32.3229 8.576C32.0455 9.296 31.6509 9.92 31.1389 10.448C30.6269 10.976 30.0109 11.3893 29.2909 11.688C28.5709 11.9813 27.7709 12.128 26.8909 12.128C26.0162 12.128 25.2189 11.9813 24.4989 11.688C23.7789 11.3893 23.1602 10.976 22.6429 10.448C22.1309 9.92 21.7335 9.296 21.4509 8.576C21.1682 7.85067 21.0269 7.064 21.0269 6.216C21.0269 5.368 21.1682 4.584 21.4509 3.864C21.7335 3.13867 22.1309 2.512 22.6429 1.984C23.1602 1.456 23.7789 1.04533 24.4989 0.752C25.2189 0.453333 26.0162 0.304 26.8909 0.304C27.4775 0.304 28.0295 0.373333 28.5469 0.511999C29.0642 0.645333 29.5389 0.837333 29.9709 1.088C30.4029 1.33333 30.7895 1.63467 31.1309 1.992C31.4775 2.344 31.7709 2.73867 32.0109 3.176C32.2509 3.61333 32.4322 4.088 32.5549 4.6C32.6829 5.112 32.7469 5.65067 32.7469 6.216ZM30.5469 6.216C30.5469 5.58133 30.4615 5.01333 30.2909 4.512C30.1202 4.00533 29.8775 3.576 29.5629 3.224C29.2482 2.872 28.8642 2.60267 28.4109 2.416C27.9629 2.22933 27.4562 2.136 26.8909 2.136C26.3255 2.136 25.8162 2.22933 25.3629 2.416C24.9149 2.60267 24.5309 2.872 24.2109 3.224C23.8962 3.576 23.6535 4.00533 23.4829 4.512C23.3122 5.01333 23.2269 5.58133 23.2269 6.216C23.2269 6.85067 23.3122 7.42133 23.4829 7.928C23.6535 8.42933 23.8962 8.856 24.2109 9.208C24.5309 9.55467 24.9149 9.82133 25.3629 10.008C25.8162 10.1947 26.3255 10.288 26.8909 10.288C27.4562 10.288 27.9629 10.1947 28.4109 10.008C28.8642 9.82133 29.2482 9.55467 29.5629 9.208C29.8775 8.856 30.1202 8.42933 30.2909 7.928C30.4615 7.42133 30.5469 6.85067 30.5469 6.216ZM44.7481 7.632L43.3401 3.784C43.2708 3.61333 43.1988 3.41067 43.1241 3.176C43.0495 2.94133 42.9748 2.688 42.9001 2.416C42.8308 2.688 42.7588 2.944 42.6841 3.184C42.6095 3.41867 42.5375 3.624 42.4681 3.8L41.0681 7.632H44.7481ZM48.5481 12H46.8841C46.6975 12 46.5455 11.9547 46.4281 11.864C46.3108 11.768 46.2228 11.6507 46.1641 11.512L45.3001 9.152H40.5081L39.6441 11.512C39.6015 11.6347 39.5188 11.7467 39.3961 11.848C39.2735 11.9493 39.1215 12 38.9401 12H37.2601L41.8121 0.431999H44.0041L48.5481 12ZM54.7336 5.888C54.5096 5.616 54.2643 5.424 53.9976 5.312C53.7363 5.2 53.4536 5.144 53.1496 5.144C52.851 5.144 52.5816 5.2 52.3416 5.312C52.1016 5.424 51.8963 5.59467 51.7256 5.824C51.555 6.048 51.4243 6.336 51.3336 6.688C51.243 7.03467 51.1976 7.44533 51.1976 7.92C51.1976 8.4 51.235 8.808 51.3096 9.144C51.3896 9.47467 51.5016 9.74667 51.6456 9.96C51.7896 10.168 51.9656 10.32 52.1736 10.416C52.3816 10.5067 52.6136 10.552 52.8696 10.552C53.2803 10.552 53.6296 10.4667 53.9176 10.296C54.2056 10.1253 54.4776 9.88267 54.7336 9.568V5.888ZM56.7096 0.112V12H55.5016C55.2403 12 55.075 11.88 55.0056 11.64L54.8376 10.848C54.507 11.2267 54.1256 11.5333 53.6936 11.768C53.267 12.0027 52.7683 12.12 52.1976 12.12C51.7496 12.12 51.339 12.0267 50.9656 11.84C50.5923 11.6533 50.2696 11.384 49.9976 11.032C49.731 10.6747 49.523 10.2347 49.3736 9.712C49.2296 9.18933 49.1576 8.592 49.1576 7.92C49.1576 7.312 49.2403 6.74667 49.4056 6.224C49.571 5.70133 49.8083 5.248 50.1176 4.864C50.427 4.48 50.7976 4.18133 51.2296 3.968C51.6616 3.74933 52.147 3.64 52.6856 3.64C53.1443 3.64 53.5363 3.712 53.8616 3.856C54.187 4 54.4776 4.19467 54.7336 4.44V0.112H56.7096ZM66.3798 3.792L63.1238 12H61.3317L58.0757 3.792H59.7077C59.8571 3.792 59.9797 3.82667 60.0757 3.896C60.1771 3.96533 60.2438 4.05333 60.2757 4.16L61.8598 8.544C61.9451 8.8 62.0198 9.05067 62.0838 9.296C62.1478 9.54133 62.2037 9.78667 62.2517 10.032C62.3051 9.78667 62.3637 9.54133 62.4278 9.296C62.4917 9.05067 62.5691 8.8 62.6597 8.544L64.2758 4.16C64.3131 4.05333 64.3797 3.96533 64.4757 3.896C64.5718 3.82667 64.6864 3.792 64.8198 3.792H66.3798ZM69.8009 3.792V12H67.8169V3.792H69.8009ZM70.0729 1.4C70.0729 1.57067 70.0382 1.73067 69.9689 1.88C69.8995 2.02933 69.8062 2.16 69.6889 2.272C69.5769 2.384 69.4435 2.47467 69.2889 2.544C69.1342 2.608 68.9689 2.64 68.7929 2.64C68.6222 2.64 68.4595 2.608 68.3049 2.544C68.1555 2.47467 68.0249 2.384 67.9129 2.272C67.8009 2.16 67.7102 2.02933 67.6409 1.88C67.5769 1.73067 67.5449 1.57067 67.5449 1.4C67.5449 1.224 67.5769 1.05867 67.6409 0.903999C67.7102 0.749333 67.8009 0.616 67.9129 0.504C68.0249 0.392 68.1555 0.304 68.3049 0.24C68.4595 0.170666 68.6222 0.136 68.7929 0.136C68.9689 0.136 69.1342 0.170666 69.2889 0.24C69.4435 0.304 69.5769 0.392 69.6889 0.504C69.8062 0.616 69.8995 0.749333 69.9689 0.903999C70.0382 1.05867 70.0729 1.224 70.0729 1.4ZM77.1434 5.392C77.09 5.47733 77.034 5.53867 76.9754 5.576C76.9167 5.608 76.842 5.624 76.7514 5.624C76.6554 5.624 76.5514 5.59733 76.4394 5.544C76.3327 5.49067 76.2074 5.432 76.0634 5.368C75.9194 5.29867 75.754 5.23733 75.5674 5.184C75.386 5.13067 75.17 5.104 74.9194 5.104C74.53 5.104 74.2234 5.18667 73.9994 5.352C73.7807 5.51733 73.6714 5.73333 73.6714 6C73.6714 6.176 73.7274 6.32533 73.8394 6.448C73.9567 6.56533 74.1087 6.66933 74.2954 6.76C74.4874 6.85067 74.7034 6.93333 74.9434 7.008C75.1834 7.07733 75.426 7.15467 75.6714 7.24C75.922 7.32533 76.1674 7.424 76.4074 7.536C76.6474 7.64267 76.8607 7.78133 77.0474 7.952C77.2394 8.11733 77.3914 8.31733 77.5034 8.552C77.6207 8.78667 77.6794 9.06933 77.6794 9.4C77.6794 9.79467 77.6074 10.16 77.4634 10.496C77.3247 10.8267 77.1167 11.1147 76.8394 11.36C76.562 11.6 76.218 11.7893 75.8074 11.928C75.402 12.0613 74.9327 12.128 74.3994 12.128C74.1167 12.128 73.8394 12.1013 73.5674 12.048C73.3007 12 73.042 11.9307 72.7914 11.84C72.546 11.7493 72.3167 11.6427 72.1034 11.52C71.8954 11.3973 71.7114 11.264 71.5514 11.12L72.0074 10.368C72.066 10.2773 72.1354 10.208 72.2154 10.16C72.2954 10.112 72.3967 10.088 72.5194 10.088C72.642 10.088 72.7567 10.1227 72.8634 10.192C72.9754 10.2613 73.1034 10.336 73.2474 10.416C73.3914 10.496 73.5594 10.5707 73.7514 10.64C73.9487 10.7093 74.1967 10.744 74.4954 10.744C74.73 10.744 74.93 10.7173 75.0954 10.664C75.266 10.6053 75.4047 10.5307 75.5114 10.44C75.6234 10.3493 75.7034 10.2453 75.7514 10.128C75.8047 10.0053 75.8314 9.88 75.8314 9.752C75.8314 9.56 75.7727 9.40267 75.6554 9.28C75.5434 9.15733 75.3914 9.05067 75.1994 8.96C75.0127 8.86933 74.7967 8.78933 74.5514 8.72C74.3114 8.64533 74.0634 8.56533 73.8074 8.48C73.5567 8.39467 73.3087 8.296 73.0634 8.184C72.8234 8.06667 72.6074 7.92 72.4154 7.744C72.2287 7.568 72.0767 7.352 71.9594 7.096C71.8474 6.84 71.7914 6.53067 71.7914 6.168C71.7914 5.832 71.858 5.512 71.9914 5.208C72.1247 4.904 72.3194 4.64 72.5754 4.416C72.8367 4.18667 73.1594 4.00533 73.5434 3.872C73.9327 3.73333 74.3807 3.664 74.8874 3.664C75.4527 3.664 75.9674 3.75733 76.4314 3.944C76.8954 4.13067 77.282 4.376 77.5914 4.68L77.1434 5.392ZM83.1186 3.664C83.7266 3.664 84.2786 3.76267 84.7746 3.96C85.276 4.15733 85.7026 4.43733 86.0546 4.8C86.412 5.16267 86.6866 5.60533 86.8786 6.128C87.0706 6.65067 87.1666 7.23467 87.1666 7.88C87.1666 8.53067 87.0706 9.11733 86.8786 9.64C86.6866 10.1627 86.412 10.608 86.0546 10.976C85.7026 11.344 85.276 11.6267 84.7746 11.824C84.2786 12.0213 83.7266 12.12 83.1186 12.12C82.5053 12.12 81.948 12.0213 81.4466 11.824C80.9453 11.6267 80.516 11.344 80.1586 10.976C79.8066 10.608 79.532 10.1627 79.3346 9.64C79.1426 9.11733 79.0466 8.53067 79.0466 7.88C79.0466 7.23467 79.1426 6.65067 79.3346 6.128C79.532 5.60533 79.8066 5.16267 80.1586 4.8C80.516 4.43733 80.9453 4.15733 81.4466 3.96C81.948 3.76267 82.5053 3.664 83.1186 3.664ZM83.1186 10.6C83.8013 10.6 84.3053 10.3707 84.6306 9.912C84.9613 9.45333 85.1266 8.78133 85.1266 7.896C85.1266 7.01067 84.9613 6.336 84.6306 5.872C84.3053 5.408 83.8013 5.176 83.1186 5.176C82.4253 5.176 81.9106 5.41067 81.5746 5.88C81.244 6.344 81.0786 7.016 81.0786 7.896C81.0786 8.776 81.244 9.448 81.5746 9.912C81.9106 10.3707 82.4253 10.6 83.1186 10.6ZM90.8581 5.216C91.1141 4.72533 91.4181 4.34133 91.7701 4.064C92.1221 3.78133 92.5381 3.64 93.0181 3.64C93.3968 3.64 93.7008 3.72267 93.9301 3.888L93.8021 5.368C93.7755 5.464 93.7355 5.53333 93.6821 5.576C93.6341 5.61333 93.5675 5.632 93.4821 5.632C93.4021 5.632 93.2821 5.61867 93.1221 5.592C92.9675 5.56533 92.8155 5.552 92.6661 5.552C92.4475 5.552 92.2528 5.584 92.0821 5.648C91.9115 5.712 91.7568 5.80533 91.6181 5.928C91.4848 6.04533 91.3648 6.18933 91.2581 6.36C91.1568 6.53067 91.0608 6.72533 90.9701 6.944V12H88.9941V3.792H90.1541C90.3568 3.792 90.4981 3.82933 90.5781 3.904C90.6581 3.97333 90.7115 4.10133 90.7381 4.288L90.8581 5.216ZM102.739 3.792L98.2669 14.256C98.2082 14.3947 98.1309 14.4987 98.0349 14.568C97.9442 14.6427 97.8029 14.68 97.6109 14.68H96.1389L97.6749 11.384L94.3549 3.792H96.0909C96.2455 3.792 96.3655 3.82933 96.4509 3.904C96.5415 3.97867 96.6082 4.064 96.6509 4.16L98.3949 8.416C98.4535 8.56 98.5015 8.704 98.5389 8.848C98.5815 8.992 98.6215 9.13867 98.6589 9.288C98.7069 9.13867 98.7549 8.992 98.8029 8.848C98.8509 8.69867 98.9042 8.552 98.9629 8.408L100.611 4.16C100.654 4.05333 100.723 3.96533 100.819 3.896C100.92 3.82667 101.032 3.792 101.155 3.792H102.739Z" fill="#121212"/>
</svg>
