<svg width="64" height="64" viewBox="0 0 64 64" fill="none" xmlns="http://www.w3.org/2000/svg">
<path d="M0 8C0 4.22876 0 2.34315 1.17157 1.17157C2.34315 0 4.22876 0 8 0H56C59.7712 0 61.6569 0 62.8284 1.17157C64 2.34315 64 4.22876 64 8V56C64 59.7712 64 61.6569 62.8284 62.8284C61.6569 64 59.7712 64 56 64H8C4.22876 64 2.34315 64 1.17157 62.8284C0 61.6569 0 59.7712 0 56V8Z" fill="#EBF5FD"/>
<path d="M31.9999 23C30.7999 23 29.5999 23.6 28.9999 24.7C28.4011 24.5467 27.7729 24.5501 27.1759 24.71C26.5788 24.8699 26.0329 25.1808 25.5909 25.6128C25.1488 26.0449 24.8254 26.5834 24.6519 27.1767C24.4783 27.7699 24.4604 28.3978 24.5999 29C23.5999 29.6 22.8999 30.8 22.8999 32C22.8999 33.2 23.5999 34.4 24.5999 35C24.2999 36.2 24.5999 37.5 25.5999 38.4C26.3999 39.2 27.6999 39.6 28.8999 39.4C29.4999 40.4 30.6999 41 31.8999 41C33.0999 41 34.2999 40.4 34.8999 39.3C36.0999 39.6 37.3999 39.3 38.2999 38.3C39.0999 37.5 39.4999 36.3 39.2999 35C40.2999 34.4 40.8999 33.2 40.8999 32C40.8999 30.8 40.2999 29.6 39.1999 29C39.4999 27.8 39.1999 26.5 38.1999 25.6C37.7724 25.1779 37.2485 24.8663 36.6735 24.6921C36.0986 24.5178 35.4898 24.4862 34.8999 24.6C34.2999 23.6 33.0999 23 31.8999 23H31.9999Z" stroke="#3882B7" stroke-width="1.4" stroke-linecap="round" stroke-linejoin="round"/>
<path d="M29 32L31 34L35 30" stroke="#3882B7" stroke-width="1.4" stroke-linecap="round" stroke-linejoin="round"/>
</svg>
