<svg width="99" height="36" viewBox="0 0 99 36" fill="none" xmlns="http://www.w3.org/2000/svg">
<rect x="0.800049" y="1" width="97.4" height="34" rx="17" fill="#C0FBFF"/>
<rect x="0.800049" y="1" width="97.4" height="34" rx="17" stroke="#0C5A70"/>
<path d="M22 10.5H13C12.1716 10.5 11.5 11.1716 11.5 12V24C11.5 24.8284 12.1716 25.5 13 25.5H22C22.8284 25.5 23.5 24.8284 23.5 24V12C23.5 11.1716 22.8284 10.5 22 10.5Z" stroke="#0C5A70" stroke-width="1.4" stroke-linecap="round" stroke-linejoin="round"/>
<path d="M15.25 25.5V22.5H19.75V25.5" stroke="#0C5A70" stroke-width="1.4" stroke-linecap="round" stroke-linejoin="round"/>
<path d="M14.5 13.5H14.5075" stroke="#0C5A70" stroke-width="1.4" stroke-linecap="round" stroke-linejoin="round"/>
<path d="M20.5 13.5H20.5075" stroke="#0C5A70" stroke-width="1.4" stroke-linecap="round" stroke-linejoin="round"/>
<path d="M17.5 13.5H17.5075" stroke="#0C5A70" stroke-width="1.4" stroke-linecap="round" stroke-linejoin="round"/>
<path d="M17.5 16.5H17.5075" stroke="#1B1B1B" stroke-width="1.4" stroke-linecap="round" stroke-linejoin="round"/>
<path d="M17.5 19.5H17.5075" stroke="#1B1B1B" stroke-width="1.4" stroke-linecap="round" stroke-linejoin="round"/>
<path d="M20.5 16.5H20.5075" stroke="#1B1B1B" stroke-width="1.4" stroke-linecap="round" stroke-linejoin="round"/>
<path d="M20.5 19.5H20.5075" stroke="#1B1B1B" stroke-width="1.4" stroke-linecap="round" stroke-linejoin="round"/>
<path d="M14.5 16.5H14.5075" stroke="#1B1B1B" stroke-width="1.4" stroke-linecap="round" stroke-linejoin="round"/>
<path d="M14.5 19.5H14.5075" stroke="#1B1B1B" stroke-width="1.4" stroke-linecap="round" stroke-linejoin="round"/>
<path d="M41.526 21.074C41.602 21.074 41.668 21.104 41.724 21.164L42.282 21.77C41.93 22.194 41.498 22.522 40.986 22.754C40.474 22.982 39.862 23.096 39.15 23.096C38.518 23.096 37.946 22.988 37.434 22.772C36.926 22.552 36.492 22.248 36.132 21.86C35.772 21.468 35.494 21.002 35.298 20.462C35.106 19.922 35.01 19.328 35.01 18.68C35.01 18.032 35.112 17.438 35.316 16.898C35.524 16.354 35.814 15.888 36.186 15.5C36.562 15.108 37.01 14.804 37.53 14.588C38.054 14.372 38.63 14.264 39.258 14.264C39.882 14.264 40.432 14.366 40.908 14.57C41.388 14.77 41.804 15.038 42.156 15.374L41.694 16.028C41.662 16.072 41.624 16.11 41.58 16.142C41.536 16.174 41.476 16.19 41.4 16.19C41.32 16.19 41.228 16.154 41.124 16.082C41.024 16.006 40.894 15.924 40.734 15.836C40.578 15.744 40.38 15.662 40.14 15.59C39.904 15.514 39.608 15.476 39.252 15.476C38.84 15.476 38.462 15.548 38.118 15.692C37.774 15.836 37.478 16.046 37.23 16.322C36.982 16.598 36.788 16.934 36.648 17.33C36.512 17.726 36.444 18.176 36.444 18.68C36.444 19.188 36.516 19.642 36.66 20.042C36.804 20.438 37.002 20.774 37.254 21.05C37.506 21.322 37.802 21.53 38.142 21.674C38.482 21.818 38.848 21.89 39.24 21.89C39.48 21.89 39.694 21.878 39.882 21.854C40.074 21.826 40.25 21.784 40.41 21.728C40.57 21.668 40.72 21.594 40.86 21.506C41.004 21.418 41.146 21.31 41.286 21.182C41.366 21.11 41.446 21.074 41.526 21.074ZM46.0118 16.784C46.4638 16.784 46.8718 16.858 47.2358 17.006C47.6038 17.154 47.9158 17.364 48.1718 17.636C48.4318 17.908 48.6318 18.238 48.7718 18.626C48.9118 19.014 48.9818 19.45 48.9818 19.934C48.9818 20.418 48.9118 20.854 48.7718 21.242C48.6318 21.63 48.4318 21.962 48.1718 22.238C47.9158 22.51 47.6038 22.72 47.2358 22.868C46.8718 23.016 46.4638 23.09 46.0118 23.09C45.5558 23.09 45.1438 23.016 44.7758 22.868C44.4118 22.72 44.0998 22.51 43.8398 22.238C43.5798 21.962 43.3798 21.63 43.2398 21.242C43.0998 20.854 43.0298 20.418 43.0298 19.934C43.0298 19.45 43.0998 19.014 43.2398 18.626C43.3798 18.238 43.5798 17.908 43.8398 17.636C44.0998 17.364 44.4118 17.154 44.7758 17.006C45.1438 16.858 45.5558 16.784 46.0118 16.784ZM46.0118 22.082C46.5638 22.082 46.9738 21.898 47.2418 21.53C47.5138 21.158 47.6498 20.628 47.6498 19.94C47.6498 19.252 47.5138 18.722 47.2418 18.35C46.9738 17.974 46.5638 17.786 46.0118 17.786C45.4518 17.786 45.0358 17.974 44.7638 18.35C44.4918 18.722 44.3558 19.252 44.3558 19.94C44.3558 20.628 44.4918 21.158 44.7638 21.53C45.0358 21.898 45.4518 22.082 46.0118 22.082ZM51.6793 18.014C51.8713 17.626 52.1033 17.322 52.3753 17.102C52.6473 16.878 52.9733 16.766 53.3533 16.766C53.4853 16.766 53.6093 16.782 53.7253 16.814C53.8413 16.842 53.9453 16.886 54.0373 16.946L53.9473 17.918C53.9313 17.986 53.9053 18.034 53.8693 18.062C53.8373 18.086 53.7933 18.098 53.7373 18.098C53.6773 18.098 53.5913 18.088 53.4793 18.068C53.3673 18.044 53.2493 18.032 53.1253 18.032C52.9453 18.032 52.7853 18.058 52.6453 18.11C52.5093 18.162 52.3853 18.238 52.2733 18.338C52.1653 18.438 52.0693 18.56 51.9853 18.704C51.9013 18.848 51.8233 19.012 51.7513 19.196V23H50.4613V16.88H51.2113C51.3473 16.88 51.4413 16.906 51.4933 16.958C51.5453 17.006 51.5813 17.092 51.6013 17.216L51.6793 18.014ZM56.421 21.464C56.601 21.696 56.797 21.86 57.009 21.956C57.225 22.048 57.463 22.094 57.723 22.094C58.227 22.094 58.619 21.91 58.899 21.542C59.183 21.174 59.325 20.626 59.325 19.898C59.325 19.522 59.293 19.202 59.229 18.938C59.165 18.67 59.073 18.452 58.953 18.284C58.833 18.116 58.687 17.994 58.515 17.918C58.343 17.842 58.149 17.804 57.933 17.804C57.605 17.804 57.321 17.876 57.081 18.02C56.845 18.16 56.625 18.362 56.421 18.626V21.464ZM56.355 17.768C56.611 17.468 56.901 17.226 57.225 17.042C57.553 16.858 57.933 16.766 58.365 16.766C58.709 16.766 59.021 16.836 59.301 16.976C59.581 17.112 59.821 17.312 60.021 17.576C60.221 17.84 60.375 18.168 60.483 18.56C60.595 18.948 60.651 19.394 60.651 19.898C60.651 20.35 60.589 20.772 60.465 21.164C60.345 21.552 60.171 21.89 59.943 22.178C59.715 22.462 59.439 22.686 59.115 22.85C58.791 23.01 58.425 23.09 58.017 23.09C57.657 23.09 57.351 23.032 57.099 22.916C56.851 22.8 56.625 22.64 56.421 22.436V25.034H55.131V16.88H55.911C56.087 16.88 56.199 16.962 56.247 17.126L56.355 17.768ZM64.7904 16.784C65.2424 16.784 65.6504 16.858 66.0144 17.006C66.3824 17.154 66.6944 17.364 66.9504 17.636C67.2104 17.908 67.4104 18.238 67.5504 18.626C67.6904 19.014 67.7604 19.45 67.7604 19.934C67.7604 20.418 67.6904 20.854 67.5504 21.242C67.4104 21.63 67.2104 21.962 66.9504 22.238C66.6944 22.51 66.3824 22.72 66.0144 22.868C65.6504 23.016 65.2424 23.09 64.7904 23.09C64.3344 23.09 63.9224 23.016 63.5544 22.868C63.1904 22.72 62.8784 22.51 62.6184 22.238C62.3584 21.962 62.1584 21.63 62.0184 21.242C61.8784 20.854 61.8084 20.418 61.8084 19.934C61.8084 19.45 61.8784 19.014 62.0184 18.626C62.1584 18.238 62.3584 17.908 62.6184 17.636C62.8784 17.364 63.1904 17.154 63.5544 17.006C63.9224 16.858 64.3344 16.784 64.7904 16.784ZM64.7904 22.082C65.3424 22.082 65.7524 21.898 66.0204 21.53C66.2924 21.158 66.4284 20.628 66.4284 19.94C66.4284 19.252 66.2924 18.722 66.0204 18.35C65.7524 17.974 65.3424 17.786 64.7904 17.786C64.2304 17.786 63.8144 17.974 63.5424 18.35C63.2704 18.722 63.1344 19.252 63.1344 19.94C63.1344 20.628 63.2704 21.158 63.5424 21.53C63.8144 21.898 64.2304 22.082 64.7904 22.082ZM70.4579 18.014C70.6499 17.626 70.8819 17.322 71.1539 17.102C71.4259 16.878 71.7519 16.766 72.1319 16.766C72.2639 16.766 72.3879 16.782 72.5039 16.814C72.6199 16.842 72.7239 16.886 72.8159 16.946L72.7259 17.918C72.7099 17.986 72.6839 18.034 72.6479 18.062C72.6159 18.086 72.5719 18.098 72.5159 18.098C72.4559 18.098 72.3699 18.088 72.2579 18.068C72.1459 18.044 72.0279 18.032 71.9039 18.032C71.7239 18.032 71.5639 18.058 71.4239 18.11C71.2879 18.162 71.1639 18.238 71.0519 18.338C70.9439 18.438 70.8479 18.56 70.7639 18.704C70.6799 18.848 70.6019 19.012 70.5299 19.196V23H69.2399V16.88H69.9899C70.1259 16.88 70.2199 16.906 70.2719 16.958C70.3239 17.006 70.3599 17.092 70.3799 17.216L70.4579 18.014ZM77.0858 20.324C76.6258 20.34 76.2378 20.378 75.9218 20.438C75.6058 20.494 75.3498 20.568 75.1538 20.66C74.9578 20.748 74.8158 20.854 74.7278 20.978C74.6438 21.102 74.6018 21.238 74.6018 21.386C74.6018 21.53 74.6238 21.654 74.6678 21.758C74.7158 21.858 74.7798 21.942 74.8598 22.01C74.9438 22.074 75.0398 22.122 75.1478 22.154C75.2598 22.182 75.3818 22.196 75.5138 22.196C75.8498 22.196 76.1378 22.134 76.3778 22.01C76.6218 21.882 76.8578 21.698 77.0858 21.458V20.324ZM73.6658 17.732C74.3578 17.088 75.1818 16.766 76.1378 16.766C76.4898 16.766 76.8018 16.824 77.0738 16.94C77.3498 17.052 77.5798 17.212 77.7638 17.42C77.9518 17.628 78.0938 17.876 78.1898 18.164C78.2898 18.448 78.3398 18.764 78.3398 19.112V23H77.7638C77.6398 23 77.5458 22.982 77.4818 22.946C77.4178 22.906 77.3638 22.828 77.3198 22.712L77.1938 22.214C77.0378 22.354 76.8838 22.48 76.7318 22.592C76.5798 22.7 76.4218 22.792 76.2578 22.868C76.0978 22.944 75.9238 23 75.7358 23.036C75.5518 23.076 75.3478 23.096 75.1238 23.096C74.8758 23.096 74.6438 23.062 74.4278 22.994C74.2158 22.926 74.0318 22.824 73.8758 22.688C73.7198 22.548 73.5958 22.376 73.5038 22.172C73.4158 21.968 73.3718 21.728 73.3718 21.452C73.3718 21.216 73.4338 20.986 73.5578 20.762C73.6858 20.538 73.8938 20.338 74.1818 20.162C74.4738 19.982 74.8558 19.834 75.3278 19.718C75.8038 19.602 76.3898 19.536 77.0858 19.52V19.112C77.0858 18.672 76.9918 18.344 76.8038 18.128C76.6158 17.912 76.3398 17.804 75.9758 17.804C75.7278 17.804 75.5198 17.836 75.3518 17.9C75.1838 17.96 75.0378 18.026 74.9138 18.098C74.7898 18.17 74.6798 18.238 74.5838 18.302C74.4878 18.362 74.3858 18.392 74.2778 18.392C74.1898 18.392 74.1138 18.37 74.0498 18.326C73.9898 18.278 73.9398 18.22 73.8998 18.152L73.6658 17.732ZM81.971 23.096C81.463 23.096 81.071 22.954 80.795 22.67C80.523 22.382 80.387 21.978 80.387 21.458V17.894H79.715C79.643 17.894 79.581 17.872 79.529 17.828C79.477 17.78 79.451 17.71 79.451 17.618V17.096L80.441 16.952L80.723 15.182C80.743 15.114 80.777 15.06 80.825 15.02C80.873 14.976 80.937 14.954 81.017 14.954H81.677V16.964H83.375V17.894H81.677V21.368C81.677 21.588 81.731 21.756 81.839 21.872C81.947 21.988 82.091 22.046 82.271 22.046C82.371 22.046 82.457 22.034 82.529 22.01C82.601 21.982 82.663 21.954 82.715 21.926C82.767 21.894 82.811 21.866 82.847 21.842C82.887 21.814 82.925 21.8 82.961 21.8C83.033 21.8 83.091 21.84 83.135 21.92L83.519 22.55C83.319 22.726 83.083 22.862 82.811 22.958C82.539 23.05 82.259 23.096 81.971 23.096ZM88.5989 19.25C88.5989 19.034 88.5669 18.834 88.5029 18.65C88.4429 18.462 88.3529 18.3 88.2329 18.164C88.1129 18.024 87.9629 17.916 87.7829 17.84C87.6069 17.76 87.4029 17.72 87.1709 17.72C86.7029 17.72 86.3349 17.854 86.0669 18.122C85.7989 18.39 85.6289 18.766 85.5569 19.25H88.5989ZM85.5209 20.042C85.5369 20.39 85.5909 20.692 85.6829 20.948C85.7749 21.2 85.8969 21.41 86.0489 21.578C86.2049 21.746 86.3889 21.872 86.6009 21.956C86.8169 22.036 87.0569 22.076 87.3209 22.076C87.5729 22.076 87.7909 22.048 87.9749 21.992C88.1589 21.932 88.3189 21.868 88.4549 21.8C88.5909 21.728 88.7069 21.664 88.8029 21.608C88.8989 21.548 88.9869 21.518 89.0669 21.518C89.1709 21.518 89.2509 21.558 89.3069 21.638L89.6729 22.112C89.5209 22.292 89.3489 22.444 89.1569 22.568C88.9649 22.692 88.7609 22.794 88.5449 22.874C88.3289 22.95 88.1069 23.004 87.8789 23.036C87.6509 23.072 87.4289 23.09 87.2129 23.09C86.7889 23.09 86.3949 23.02 86.0309 22.88C85.6709 22.736 85.3569 22.526 85.0889 22.25C84.8249 21.974 84.6169 21.632 84.4649 21.224C84.3169 20.816 84.2429 20.346 84.2429 19.814C84.2429 19.39 84.3089 18.994 84.4409 18.626C84.5769 18.258 84.7689 17.938 85.0169 17.666C85.2689 17.394 85.5729 17.18 85.9289 17.024C86.2889 16.864 86.6949 16.784 87.1469 16.784C87.5229 16.784 87.8709 16.846 88.1909 16.97C88.5109 17.09 88.7869 17.268 89.0189 17.504C89.2509 17.74 89.4309 18.03 89.5589 18.374C89.6909 18.714 89.7569 19.102 89.7569 19.538C89.7569 19.738 89.7349 19.872 89.6909 19.94C89.6469 20.008 89.5669 20.042 89.4509 20.042H85.5209Z" fill="#0C5A70"/>
</svg>
