<svg width="159" height="32" viewBox="0 0 159 32" fill="none" xmlns="http://www.w3.org/2000/svg">
<rect x="1" y="1" width="157" height="30" rx="15" fill="#FFEDCD"/>
<rect x="1" y="1" width="157" height="30" rx="15" stroke="#BD7F0D"/>
<path d="M17.61 16.68C17.61 17.32 17.506 17.906 17.298 18.438C17.09 18.966 16.796 19.42 16.416 19.8C16.04 20.18 15.586 20.476 15.054 20.688C14.526 20.896 13.938 21 13.29 21H10.026V12.36H13.29C13.938 12.36 14.526 12.466 15.054 12.678C15.586 12.886 16.04 13.18 16.416 13.56C16.796 13.94 17.09 14.396 17.298 14.928C17.506 15.456 17.61 16.04 17.61 16.68ZM16.176 16.68C16.176 16.184 16.108 15.738 15.972 15.342C15.84 14.946 15.648 14.612 15.396 14.34C15.148 14.068 14.846 13.86 14.49 13.716C14.134 13.568 13.734 13.494 13.29 13.494H11.436V19.866H13.29C13.734 19.866 14.134 19.794 14.49 19.65C14.846 19.506 15.148 19.298 15.396 19.026C15.648 18.75 15.84 18.416 15.972 18.024C16.108 17.628 16.176 17.18 16.176 16.68ZM20.3934 14.88V21H19.1034V14.88H20.3934ZM20.6094 13.032C20.6094 13.148 20.5854 13.258 20.5374 13.362C20.4934 13.466 20.4314 13.558 20.3514 13.638C20.2714 13.714 20.1774 13.776 20.0694 13.824C19.9654 13.868 19.8534 13.89 19.7334 13.89C19.6174 13.89 19.5074 13.868 19.4034 13.824C19.3034 13.776 19.2154 13.714 19.1394 13.638C19.0634 13.558 19.0014 13.466 18.9534 13.362C18.9094 13.258 18.8874 13.148 18.8874 13.032C18.8874 12.912 18.9094 12.8 18.9534 12.696C19.0014 12.592 19.0634 12.502 19.1394 12.426C19.2154 12.346 19.3034 12.284 19.4034 12.24C19.5074 12.192 19.6174 12.168 19.7334 12.168C19.8534 12.168 19.9654 12.192 20.0694 12.24C20.1774 12.284 20.2714 12.346 20.3514 12.426C20.4314 12.502 20.4934 12.592 20.5374 12.696C20.5854 12.8 20.6094 12.912 20.6094 13.032ZM25.9083 15.99C25.8763 16.046 25.8403 16.086 25.8003 16.11C25.7603 16.134 25.7103 16.146 25.6503 16.146C25.5823 16.146 25.5083 16.126 25.4283 16.086C25.3483 16.042 25.2543 15.994 25.1463 15.942C25.0383 15.89 24.9103 15.844 24.7623 15.804C24.6183 15.76 24.4483 15.738 24.2523 15.738C24.0923 15.738 23.9463 15.758 23.8143 15.798C23.6863 15.834 23.5763 15.888 23.4843 15.96C23.3963 16.028 23.3283 16.11 23.2803 16.206C23.2323 16.298 23.2083 16.398 23.2083 16.506C23.2083 16.65 23.2523 16.77 23.3403 16.866C23.4283 16.962 23.5443 17.046 23.6883 17.118C23.8323 17.186 23.9963 17.248 24.1803 17.304C24.3643 17.36 24.5523 17.42 24.7443 17.484C24.9363 17.548 25.1243 17.622 25.3083 17.706C25.4923 17.79 25.6563 17.894 25.8003 18.018C25.9443 18.138 26.0603 18.286 26.1483 18.462C26.2363 18.634 26.2803 18.844 26.2803 19.092C26.2803 19.38 26.2283 19.646 26.1243 19.89C26.0203 20.134 25.8683 20.346 25.6683 20.526C25.4683 20.706 25.2183 20.846 24.9183 20.946C24.6223 21.046 24.2823 21.096 23.8983 21.096C23.6863 21.096 23.4803 21.076 23.2803 21.036C23.0843 21 22.8963 20.95 22.7163 20.886C22.5403 20.818 22.3743 20.738 22.2183 20.646C22.0663 20.554 21.9303 20.454 21.8103 20.346L22.1103 19.854C22.1463 19.794 22.1903 19.748 22.2423 19.716C22.2983 19.68 22.3663 19.662 22.4463 19.662C22.5303 19.662 22.6123 19.69 22.6923 19.746C22.7763 19.798 22.8723 19.856 22.9803 19.92C23.0923 19.984 23.2263 20.044 23.3823 20.1C23.5383 20.152 23.7323 20.178 23.9643 20.178C24.1563 20.178 24.3223 20.156 24.4623 20.112C24.6023 20.064 24.7183 20 24.8103 19.92C24.9023 19.84 24.9703 19.75 25.0143 19.65C25.0583 19.546 25.0803 19.436 25.0803 19.32C25.0803 19.164 25.0363 19.036 24.9483 18.936C24.8603 18.836 24.7423 18.75 24.5943 18.678C24.4503 18.606 24.2843 18.542 24.0963 18.486C23.9123 18.43 23.7243 18.37 23.5323 18.306C23.3403 18.242 23.1503 18.168 22.9623 18.084C22.7783 18 22.6123 17.894 22.4643 17.766C22.3203 17.634 22.2043 17.476 22.1163 17.292C22.0283 17.104 21.9843 16.876 21.9843 16.608C21.9843 16.364 22.0323 16.132 22.1283 15.912C22.2283 15.692 22.3723 15.498 22.5603 15.33C22.7523 15.162 22.9863 15.03 23.2623 14.934C23.5423 14.834 23.8643 14.784 24.2283 14.784C24.6403 14.784 25.0143 14.85 25.3503 14.982C25.6863 15.114 25.9683 15.294 26.1963 15.522L25.9083 15.99ZM32.0586 16.08C32.0186 16.132 31.9806 16.172 31.9446 16.2C31.9086 16.228 31.8566 16.242 31.7886 16.242C31.7206 16.242 31.6486 16.218 31.5726 16.17C31.5006 16.122 31.4126 16.07 31.3086 16.014C31.2086 15.954 31.0866 15.9 30.9426 15.852C30.7986 15.804 30.6186 15.78 30.4026 15.78C30.1226 15.78 29.8766 15.83 29.6646 15.93C29.4566 16.03 29.2806 16.174 29.1366 16.362C28.9966 16.546 28.8906 16.772 28.8186 17.04C28.7506 17.304 28.7166 17.602 28.7166 17.934C28.7166 18.278 28.7546 18.584 28.8306 18.852C28.9066 19.12 29.0146 19.346 29.1546 19.53C29.2986 19.714 29.4706 19.854 29.6706 19.95C29.8746 20.046 30.1026 20.094 30.3546 20.094C30.6026 20.094 30.8046 20.064 30.9606 20.004C31.1166 19.944 31.2466 19.878 31.3506 19.806C31.4546 19.734 31.5426 19.668 31.6146 19.608C31.6906 19.548 31.7706 19.518 31.8546 19.518C31.9586 19.518 32.0386 19.558 32.0946 19.638L32.4606 20.112C32.3126 20.292 32.1486 20.444 31.9686 20.568C31.7886 20.692 31.5986 20.794 31.3986 20.874C31.1986 20.95 30.9906 21.004 30.7746 21.036C30.5586 21.072 30.3406 21.09 30.1206 21.09C29.7406 21.09 29.3846 21.02 29.0526 20.88C28.7246 20.736 28.4366 20.53 28.1886 20.262C27.9446 19.99 27.7506 19.66 27.6066 19.272C27.4666 18.88 27.3966 18.434 27.3966 17.934C27.3966 17.482 27.4606 17.064 27.5886 16.68C27.7166 16.292 27.9026 15.958 28.1466 15.678C28.3946 15.398 28.7006 15.18 29.0646 15.024C29.4286 14.864 29.8486 14.784 30.3246 14.784C30.7686 14.784 31.1586 14.856 31.4946 15C31.8346 15.144 32.1366 15.348 32.4006 15.612L32.0586 16.08ZM36.2787 14.784C36.7307 14.784 37.1387 14.858 37.5027 15.006C37.8707 15.154 38.1827 15.364 38.4387 15.636C38.6987 15.908 38.8987 16.238 39.0387 16.626C39.1787 17.014 39.2487 17.45 39.2487 17.934C39.2487 18.418 39.1787 18.854 39.0387 19.242C38.8987 19.63 38.6987 19.962 38.4387 20.238C38.1827 20.51 37.8707 20.72 37.5027 20.868C37.1387 21.016 36.7307 21.09 36.2787 21.09C35.8227 21.09 35.4107 21.016 35.0427 20.868C34.6787 20.72 34.3667 20.51 34.1067 20.238C33.8467 19.962 33.6467 19.63 33.5067 19.242C33.3667 18.854 33.2967 18.418 33.2967 17.934C33.2967 17.45 33.3667 17.014 33.5067 16.626C33.6467 16.238 33.8467 15.908 34.1067 15.636C34.3667 15.364 34.6787 15.154 35.0427 15.006C35.4107 14.858 35.8227 14.784 36.2787 14.784ZM36.2787 20.082C36.8307 20.082 37.2407 19.898 37.5087 19.53C37.7807 19.158 37.9167 18.628 37.9167 17.94C37.9167 17.252 37.7807 16.722 37.5087 16.35C37.2407 15.974 36.8307 15.786 36.2787 15.786C35.7187 15.786 35.3027 15.974 35.0307 16.35C34.7587 16.722 34.6227 17.252 34.6227 17.94C34.6227 18.628 34.7587 19.158 35.0307 19.53C35.3027 19.898 35.7187 20.082 36.2787 20.082ZM45.9404 14.88L43.4804 21H42.3164L39.8564 14.88H40.9184C41.0184 14.88 41.1004 14.906 41.1644 14.958C41.2324 15.006 41.2764 15.064 41.2964 15.132L42.6524 18.696C42.7084 18.864 42.7584 19.03 42.8024 19.194C42.8464 19.358 42.8844 19.524 42.9164 19.692C42.9484 19.524 42.9864 19.36 43.0304 19.2C43.0784 19.036 43.1304 18.868 43.1864 18.696L44.5664 15.132C44.5904 15.06 44.6344 15 44.6984 14.952C44.7624 14.904 44.8404 14.88 44.9324 14.88H45.9404ZM50.9002 17.25C50.9002 17.034 50.8682 16.834 50.8042 16.65C50.7442 16.462 50.6542 16.3 50.5342 16.164C50.4142 16.024 50.2642 15.916 50.0842 15.84C49.9082 15.76 49.7042 15.72 49.4722 15.72C49.0042 15.72 48.6362 15.854 48.3682 16.122C48.1002 16.39 47.9302 16.766 47.8582 17.25H50.9002ZM47.8222 18.042C47.8382 18.39 47.8922 18.692 47.9842 18.948C48.0762 19.2 48.1982 19.41 48.3502 19.578C48.5062 19.746 48.6902 19.872 48.9022 19.956C49.1182 20.036 49.3582 20.076 49.6222 20.076C49.8742 20.076 50.0922 20.048 50.2762 19.992C50.4602 19.932 50.6202 19.868 50.7562 19.8C50.8922 19.728 51.0082 19.664 51.1042 19.608C51.2002 19.548 51.2882 19.518 51.3682 19.518C51.4722 19.518 51.5522 19.558 51.6082 19.638L51.9742 20.112C51.8222 20.292 51.6502 20.444 51.4582 20.568C51.2662 20.692 51.0622 20.794 50.8462 20.874C50.6302 20.95 50.4082 21.004 50.1802 21.036C49.9522 21.072 49.7302 21.09 49.5142 21.09C49.0902 21.09 48.6962 21.02 48.3322 20.88C47.9722 20.736 47.6582 20.526 47.3902 20.25C47.1262 19.974 46.9182 19.632 46.7662 19.224C46.6182 18.816 46.5442 18.346 46.5442 17.814C46.5442 17.39 46.6102 16.994 46.7422 16.626C46.8782 16.258 47.0702 15.938 47.3182 15.666C47.5702 15.394 47.8742 15.18 48.2302 15.024C48.5902 14.864 48.9962 14.784 49.4482 14.784C49.8242 14.784 50.1722 14.846 50.4922 14.97C50.8122 15.09 51.0882 15.268 51.3202 15.504C51.5522 15.74 51.7322 16.03 51.8602 16.374C51.9922 16.714 52.0582 17.102 52.0582 17.538C52.0582 17.738 52.0362 17.872 51.9922 17.94C51.9482 18.008 51.8682 18.042 51.7522 18.042H47.8222ZM54.7192 16.014C54.9112 15.626 55.1432 15.322 55.4152 15.102C55.6872 14.878 56.0132 14.766 56.3932 14.766C56.5252 14.766 56.6492 14.782 56.7652 14.814C56.8812 14.842 56.9852 14.886 57.0772 14.946L56.9872 15.918C56.9712 15.986 56.9452 16.034 56.9092 16.062C56.8772 16.086 56.8332 16.098 56.7772 16.098C56.7172 16.098 56.6312 16.088 56.5192 16.068C56.4072 16.044 56.2892 16.032 56.1652 16.032C55.9852 16.032 55.8252 16.058 55.6852 16.11C55.5492 16.162 55.4252 16.238 55.3132 16.338C55.2052 16.438 55.1092 16.56 55.0252 16.704C54.9412 16.848 54.8632 17.012 54.7912 17.196V21H53.5012V14.88H54.2512C54.3872 14.88 54.4812 14.906 54.5332 14.958C54.5852 15.006 54.6212 15.092 54.6412 15.216L54.7192 16.014ZM63.7873 14.784C64.2393 14.784 64.6473 14.858 65.0113 15.006C65.3793 15.154 65.6913 15.364 65.9473 15.636C66.2073 15.908 66.4073 16.238 66.5473 16.626C66.6873 17.014 66.7573 17.45 66.7573 17.934C66.7573 18.418 66.6873 18.854 66.5473 19.242C66.4073 19.63 66.2073 19.962 65.9473 20.238C65.6913 20.51 65.3793 20.72 65.0113 20.868C64.6473 21.016 64.2393 21.09 63.7873 21.09C63.3313 21.09 62.9193 21.016 62.5513 20.868C62.1873 20.72 61.8753 20.51 61.6153 20.238C61.3553 19.962 61.1553 19.63 61.0153 19.242C60.8753 18.854 60.8053 18.418 60.8053 17.934C60.8053 17.45 60.8753 17.014 61.0153 16.626C61.1553 16.238 61.3553 15.908 61.6153 15.636C61.8753 15.364 62.1873 15.154 62.5513 15.006C62.9193 14.858 63.3313 14.784 63.7873 14.784ZM63.7873 20.082C64.3393 20.082 64.7493 19.898 65.0173 19.53C65.2893 19.158 65.4253 18.628 65.4253 17.94C65.4253 17.252 65.2893 16.722 65.0173 16.35C64.7493 15.974 64.3393 15.786 63.7873 15.786C63.2273 15.786 62.8113 15.974 62.5393 16.35C62.2673 16.722 62.1313 17.252 62.1313 17.94C62.1313 18.628 62.2673 19.158 62.5393 19.53C62.8113 19.898 63.2273 20.082 63.7873 20.082ZM73.3968 14.88V21H72.6168C72.4448 21 72.3348 20.918 72.2868 20.754L72.1908 20.184C72.0628 20.32 71.9268 20.444 71.7828 20.556C71.6428 20.668 71.4928 20.764 71.3328 20.844C71.1728 20.924 71.0008 20.986 70.8168 21.03C70.6368 21.074 70.4428 21.096 70.2348 21.096C69.8988 21.096 69.6028 21.04 69.3468 20.928C69.0908 20.816 68.8748 20.658 68.6988 20.454C68.5268 20.25 68.3968 20.006 68.3088 19.722C68.2208 19.434 68.1768 19.118 68.1768 18.774V14.88H69.4668V18.774C69.4668 19.186 69.5608 19.506 69.7488 19.734C69.9408 19.962 70.2308 20.076 70.6188 20.076C70.9028 20.076 71.1668 20.012 71.4108 19.884C71.6588 19.752 71.8908 19.572 72.1068 19.344V14.88H73.3968ZM76.4213 16.014C76.6133 15.626 76.8453 15.322 77.1173 15.102C77.3893 14.878 77.7153 14.766 78.0953 14.766C78.2273 14.766 78.3513 14.782 78.4673 14.814C78.5833 14.842 78.6873 14.886 78.7793 14.946L78.6893 15.918C78.6733 15.986 78.6473 16.034 78.6113 16.062C78.5793 16.086 78.5353 16.098 78.4793 16.098C78.4193 16.098 78.3333 16.088 78.2213 16.068C78.1093 16.044 77.9913 16.032 77.8673 16.032C77.6873 16.032 77.5273 16.058 77.3873 16.11C77.2513 16.162 77.1273 16.238 77.0153 16.338C76.9073 16.438 76.8113 16.56 76.7273 16.704C76.6433 16.848 76.5653 17.012 76.4933 17.196V21H75.2033V14.88H75.9533C76.0893 14.88 76.1833 14.906 76.2353 14.958C76.2873 15.006 76.3233 15.092 76.3433 15.216L76.4213 16.014ZM84.1335 12.12V17.268H84.4095C84.4975 17.268 84.5695 17.256 84.6255 17.232C84.6815 17.208 84.7395 17.158 84.7995 17.082L86.5155 15.12C86.5755 15.04 86.6415 14.98 86.7135 14.94C86.7855 14.9 86.8775 14.88 86.9895 14.88H88.1595L86.0955 17.208C85.9755 17.364 85.8435 17.488 85.6995 17.58C85.7795 17.636 85.8495 17.7 85.9095 17.772C85.9695 17.84 86.0275 17.918 86.0835 18.006L88.2855 21H87.1335C87.0295 21 86.9395 20.984 86.8635 20.952C86.7915 20.916 86.7275 20.852 86.6715 20.76L84.9015 18.36C84.8415 18.268 84.7815 18.21 84.7215 18.186C84.6615 18.158 84.5715 18.144 84.4515 18.144H84.1335V21H82.8435V12.12H84.1335ZM93.0389 17.25C93.0389 17.034 93.0069 16.834 92.9429 16.65C92.8829 16.462 92.7929 16.3 92.6729 16.164C92.5529 16.024 92.4029 15.916 92.2229 15.84C92.0469 15.76 91.8429 15.72 91.6109 15.72C91.1429 15.72 90.7749 15.854 90.5069 16.122C90.2389 16.39 90.0689 16.766 89.9969 17.25H93.0389ZM89.9609 18.042C89.9769 18.39 90.0309 18.692 90.1229 18.948C90.2149 19.2 90.3369 19.41 90.4889 19.578C90.6449 19.746 90.8289 19.872 91.0409 19.956C91.2569 20.036 91.4969 20.076 91.7609 20.076C92.0129 20.076 92.2309 20.048 92.4149 19.992C92.5989 19.932 92.7589 19.868 92.8949 19.8C93.0309 19.728 93.1469 19.664 93.2429 19.608C93.3389 19.548 93.4269 19.518 93.5069 19.518C93.6109 19.518 93.6909 19.558 93.7469 19.638L94.1129 20.112C93.9609 20.292 93.7889 20.444 93.5969 20.568C93.4049 20.692 93.2009 20.794 92.9849 20.874C92.7689 20.95 92.5469 21.004 92.3189 21.036C92.0909 21.072 91.8689 21.09 91.6529 21.09C91.2289 21.09 90.8349 21.02 90.4709 20.88C90.1109 20.736 89.7969 20.526 89.5289 20.25C89.2649 19.974 89.0569 19.632 88.9049 19.224C88.7569 18.816 88.6829 18.346 88.6829 17.814C88.6829 17.39 88.7489 16.994 88.8809 16.626C89.0169 16.258 89.2089 15.938 89.4569 15.666C89.7089 15.394 90.0129 15.18 90.3689 15.024C90.7289 14.864 91.1349 14.784 91.5869 14.784C91.9629 14.784 92.3109 14.846 92.6309 14.97C92.9509 15.09 93.2269 15.268 93.4589 15.504C93.6909 15.74 93.8709 16.03 93.9989 16.374C94.1309 16.714 94.1969 17.102 94.1969 17.538C94.1969 17.738 94.1749 17.872 94.1309 17.94C94.0869 18.008 94.0069 18.042 93.8909 18.042H89.9609ZM100.906 14.88L97.5338 22.74C97.4898 22.832 97.4358 22.904 97.3718 22.956C97.3118 23.008 97.2178 23.034 97.0898 23.034H96.1358L97.2638 20.586L94.7678 14.88H95.8898C95.9978 14.88 96.0798 14.906 96.1358 14.958C96.1958 15.006 96.2398 15.064 96.2678 15.132L97.7258 18.606C97.7618 18.706 97.7938 18.806 97.8218 18.906C97.8538 19.002 97.8838 19.102 97.9118 19.206C97.9438 19.102 97.9758 19 98.0078 18.9C98.0398 18.8 98.0758 18.7 98.1158 18.6L99.5138 15.132C99.5418 15.06 99.5878 15 99.6518 14.952C99.7198 14.904 99.7938 14.88 99.8738 14.88H100.906ZM105.335 21V15.906L104.735 15.822C104.635 15.802 104.553 15.766 104.489 15.714C104.429 15.662 104.399 15.588 104.399 15.492V14.964H105.335V14.448C105.335 14.1 105.385 13.788 105.485 13.512C105.589 13.236 105.735 13.002 105.923 12.81C106.115 12.618 106.347 12.472 106.619 12.372C106.891 12.268 107.197 12.216 107.537 12.216C107.677 12.216 107.809 12.226 107.933 12.246C108.061 12.266 108.185 12.296 108.305 12.336L108.281 12.984C108.273 13.092 108.219 13.156 108.119 13.176C108.023 13.196 107.901 13.206 107.753 13.206C107.573 13.206 107.411 13.228 107.267 13.272C107.123 13.312 106.999 13.382 106.895 13.482C106.795 13.582 106.717 13.714 106.661 13.878C106.609 14.042 106.583 14.246 106.583 14.49V14.964H108.257V15.894H106.625V21H105.335ZM113.253 17.25C113.253 17.034 113.221 16.834 113.157 16.65C113.097 16.462 113.007 16.3 112.887 16.164C112.767 16.024 112.617 15.916 112.437 15.84C112.261 15.76 112.057 15.72 111.825 15.72C111.357 15.72 110.989 15.854 110.721 16.122C110.453 16.39 110.283 16.766 110.211 17.25H113.253ZM110.175 18.042C110.191 18.39 110.245 18.692 110.337 18.948C110.429 19.2 110.551 19.41 110.703 19.578C110.859 19.746 111.043 19.872 111.255 19.956C111.471 20.036 111.711 20.076 111.975 20.076C112.227 20.076 112.445 20.048 112.629 19.992C112.813 19.932 112.973 19.868 113.109 19.8C113.245 19.728 113.361 19.664 113.457 19.608C113.553 19.548 113.641 19.518 113.721 19.518C113.825 19.518 113.905 19.558 113.961 19.638L114.327 20.112C114.175 20.292 114.003 20.444 113.811 20.568C113.619 20.692 113.415 20.794 113.199 20.874C112.983 20.95 112.761 21.004 112.533 21.036C112.305 21.072 112.083 21.09 111.867 21.09C111.443 21.09 111.049 21.02 110.685 20.88C110.325 20.736 110.011 20.526 109.743 20.25C109.479 19.974 109.271 19.632 109.119 19.224C108.971 18.816 108.897 18.346 108.897 17.814C108.897 17.39 108.963 16.994 109.095 16.626C109.231 16.258 109.423 15.938 109.671 15.666C109.923 15.394 110.227 15.18 110.583 15.024C110.943 14.864 111.349 14.784 111.801 14.784C112.177 14.784 112.525 14.846 112.845 14.97C113.165 15.09 113.441 15.268 113.673 15.504C113.905 15.74 114.085 16.03 114.213 16.374C114.345 16.714 114.411 17.102 114.411 17.538C114.411 17.738 114.389 17.872 114.345 17.94C114.301 18.008 114.221 18.042 114.105 18.042H110.175ZM119.124 18.324C118.664 18.34 118.276 18.378 117.96 18.438C117.644 18.494 117.388 18.568 117.192 18.66C116.996 18.748 116.854 18.854 116.766 18.978C116.682 19.102 116.64 19.238 116.64 19.386C116.64 19.53 116.662 19.654 116.706 19.758C116.754 19.858 116.818 19.942 116.898 20.01C116.982 20.074 117.078 20.122 117.186 20.154C117.298 20.182 117.42 20.196 117.552 20.196C117.888 20.196 118.176 20.134 118.416 20.01C118.66 19.882 118.896 19.698 119.124 19.458V18.324ZM115.704 15.732C116.396 15.088 117.22 14.766 118.176 14.766C118.528 14.766 118.84 14.824 119.112 14.94C119.388 15.052 119.618 15.212 119.802 15.42C119.99 15.628 120.132 15.876 120.228 16.164C120.328 16.448 120.378 16.764 120.378 17.112V21H119.802C119.678 21 119.584 20.982 119.52 20.946C119.456 20.906 119.402 20.828 119.358 20.712L119.232 20.214C119.076 20.354 118.922 20.48 118.77 20.592C118.618 20.7 118.46 20.792 118.296 20.868C118.136 20.944 117.962 21 117.774 21.036C117.59 21.076 117.386 21.096 117.162 21.096C116.914 21.096 116.682 21.062 116.466 20.994C116.254 20.926 116.07 20.824 115.914 20.688C115.758 20.548 115.634 20.376 115.542 20.172C115.454 19.968 115.41 19.728 115.41 19.452C115.41 19.216 115.472 18.986 115.596 18.762C115.724 18.538 115.932 18.338 116.22 18.162C116.512 17.982 116.894 17.834 117.366 17.718C117.842 17.602 118.428 17.536 119.124 17.52V17.112C119.124 16.672 119.03 16.344 118.842 16.128C118.654 15.912 118.378 15.804 118.014 15.804C117.766 15.804 117.558 15.836 117.39 15.9C117.222 15.96 117.076 16.026 116.952 16.098C116.828 16.17 116.718 16.238 116.622 16.302C116.526 16.362 116.424 16.392 116.316 16.392C116.228 16.392 116.152 16.37 116.088 16.326C116.028 16.278 115.978 16.22 115.938 16.152L115.704 15.732ZM124.009 21.096C123.501 21.096 123.109 20.954 122.833 20.67C122.561 20.382 122.425 19.978 122.425 19.458V15.894H121.753C121.681 15.894 121.619 15.872 121.567 15.828C121.515 15.78 121.489 15.71 121.489 15.618V15.096L122.479 14.952L122.761 13.182C122.781 13.114 122.815 13.06 122.863 13.02C122.911 12.976 122.975 12.954 123.055 12.954H123.715V14.964H125.413V15.894H123.715V19.368C123.715 19.588 123.769 19.756 123.877 19.872C123.985 19.988 124.129 20.046 124.309 20.046C124.409 20.046 124.495 20.034 124.567 20.01C124.639 19.982 124.701 19.954 124.753 19.926C124.805 19.894 124.849 19.866 124.885 19.842C124.925 19.814 124.963 19.8 124.999 19.8C125.071 19.8 125.129 19.84 125.173 19.92L125.557 20.55C125.357 20.726 125.121 20.862 124.849 20.958C124.577 21.05 124.297 21.096 124.009 21.096ZM131.83 14.88V21H131.05C130.878 21 130.768 20.918 130.72 20.754L130.624 20.184C130.496 20.32 130.36 20.444 130.216 20.556C130.076 20.668 129.926 20.764 129.766 20.844C129.606 20.924 129.434 20.986 129.25 21.03C129.07 21.074 128.876 21.096 128.668 21.096C128.332 21.096 128.036 21.04 127.78 20.928C127.524 20.816 127.308 20.658 127.132 20.454C126.96 20.25 126.83 20.006 126.742 19.722C126.654 19.434 126.61 19.118 126.61 18.774V14.88H127.9V18.774C127.9 19.186 127.994 19.506 128.182 19.734C128.374 19.962 128.664 20.076 129.052 20.076C129.336 20.076 129.6 20.012 129.844 19.884C130.092 19.752 130.324 19.572 130.54 19.344V14.88H131.83ZM134.854 16.014C135.046 15.626 135.278 15.322 135.55 15.102C135.822 14.878 136.148 14.766 136.528 14.766C136.66 14.766 136.784 14.782 136.9 14.814C137.016 14.842 137.12 14.886 137.212 14.946L137.122 15.918C137.106 15.986 137.08 16.034 137.044 16.062C137.012 16.086 136.968 16.098 136.912 16.098C136.852 16.098 136.766 16.088 136.654 16.068C136.542 16.044 136.424 16.032 136.3 16.032C136.12 16.032 135.96 16.058 135.82 16.11C135.684 16.162 135.56 16.238 135.448 16.338C135.34 16.438 135.244 16.56 135.16 16.704C135.076 16.848 134.998 17.012 134.926 17.196V21H133.636V14.88H134.386C134.522 14.88 134.616 14.906 134.668 14.958C134.72 15.006 134.756 15.092 134.776 15.216L134.854 16.014ZM142.109 17.25C142.109 17.034 142.077 16.834 142.013 16.65C141.953 16.462 141.863 16.3 141.743 16.164C141.623 16.024 141.473 15.916 141.293 15.84C141.117 15.76 140.913 15.72 140.681 15.72C140.213 15.72 139.845 15.854 139.577 16.122C139.309 16.39 139.139 16.766 139.067 17.25H142.109ZM139.031 18.042C139.047 18.39 139.101 18.692 139.193 18.948C139.285 19.2 139.407 19.41 139.559 19.578C139.715 19.746 139.899 19.872 140.111 19.956C140.327 20.036 140.567 20.076 140.831 20.076C141.083 20.076 141.301 20.048 141.485 19.992C141.669 19.932 141.829 19.868 141.965 19.8C142.101 19.728 142.217 19.664 142.313 19.608C142.409 19.548 142.497 19.518 142.577 19.518C142.681 19.518 142.761 19.558 142.817 19.638L143.183 20.112C143.031 20.292 142.859 20.444 142.667 20.568C142.475 20.692 142.271 20.794 142.055 20.874C141.839 20.95 141.617 21.004 141.389 21.036C141.161 21.072 140.939 21.09 140.723 21.09C140.299 21.09 139.905 21.02 139.541 20.88C139.181 20.736 138.867 20.526 138.599 20.25C138.335 19.974 138.127 19.632 137.975 19.224C137.827 18.816 137.753 18.346 137.753 17.814C137.753 17.39 137.819 16.994 137.951 16.626C138.087 16.258 138.279 15.938 138.527 15.666C138.779 15.394 139.083 15.18 139.439 15.024C139.799 14.864 140.205 14.784 140.657 14.784C141.033 14.784 141.381 14.846 141.701 14.97C142.021 15.09 142.297 15.268 142.529 15.504C142.761 15.74 142.941 16.03 143.069 16.374C143.201 16.714 143.267 17.102 143.267 17.538C143.267 17.738 143.245 17.872 143.201 17.94C143.157 18.008 143.077 18.042 142.961 18.042H139.031ZM148.364 15.99C148.332 16.046 148.296 16.086 148.256 16.11C148.216 16.134 148.166 16.146 148.106 16.146C148.038 16.146 147.964 16.126 147.884 16.086C147.804 16.042 147.71 15.994 147.602 15.942C147.494 15.89 147.366 15.844 147.218 15.804C147.074 15.76 146.904 15.738 146.708 15.738C146.548 15.738 146.402 15.758 146.27 15.798C146.142 15.834 146.032 15.888 145.94 15.96C145.852 16.028 145.784 16.11 145.736 16.206C145.688 16.298 145.664 16.398 145.664 16.506C145.664 16.65 145.708 16.77 145.796 16.866C145.884 16.962 146 17.046 146.144 17.118C146.288 17.186 146.452 17.248 146.636 17.304C146.82 17.36 147.008 17.42 147.2 17.484C147.392 17.548 147.58 17.622 147.764 17.706C147.948 17.79 148.112 17.894 148.256 18.018C148.4 18.138 148.516 18.286 148.604 18.462C148.692 18.634 148.736 18.844 148.736 19.092C148.736 19.38 148.684 19.646 148.58 19.89C148.476 20.134 148.324 20.346 148.124 20.526C147.924 20.706 147.674 20.846 147.374 20.946C147.078 21.046 146.738 21.096 146.354 21.096C146.142 21.096 145.936 21.076 145.736 21.036C145.54 21 145.352 20.95 145.172 20.886C144.996 20.818 144.83 20.738 144.674 20.646C144.522 20.554 144.386 20.454 144.266 20.346L144.566 19.854C144.602 19.794 144.646 19.748 144.698 19.716C144.754 19.68 144.822 19.662 144.902 19.662C144.986 19.662 145.068 19.69 145.148 19.746C145.232 19.798 145.328 19.856 145.436 19.92C145.548 19.984 145.682 20.044 145.838 20.1C145.994 20.152 146.188 20.178 146.42 20.178C146.612 20.178 146.778 20.156 146.918 20.112C147.058 20.064 147.174 20 147.266 19.92C147.358 19.84 147.426 19.75 147.47 19.65C147.514 19.546 147.536 19.436 147.536 19.32C147.536 19.164 147.492 19.036 147.404 18.936C147.316 18.836 147.198 18.75 147.05 18.678C146.906 18.606 146.74 18.542 146.552 18.486C146.368 18.43 146.18 18.37 145.988 18.306C145.796 18.242 145.606 18.168 145.418 18.084C145.234 18 145.068 17.894 144.92 17.766C144.776 17.634 144.66 17.476 144.572 17.292C144.484 17.104 144.44 16.876 144.44 16.608C144.44 16.364 144.488 16.132 144.584 15.912C144.684 15.692 144.828 15.498 145.016 15.33C145.208 15.162 145.442 15.03 145.718 14.934C145.998 14.834 146.32 14.784 146.684 14.784C147.096 14.784 147.47 14.85 147.806 14.982C148.142 15.114 148.424 15.294 148.652 15.522L148.364 15.99Z" fill="#BD7F0D"/>
</svg>
