<svg width="40" height="40" viewBox="0 0 40 40" fill="none" xmlns="http://www.w3.org/2000/svg">
<rect width="40" height="40" rx="4" fill="#EBF5FD"/>
<path d="M23 29V25C23 24.4696 23.2107 23.9609 23.5858 23.5858C23.9609 23.2107 24.4696 23 25 23H29" stroke="#3882B7" stroke-width="1.4" stroke-linecap="round" stroke-linejoin="round"/>
<path d="M15 12V14C15.2157 14.6135 15.6249 15.1402 16.166 15.501C16.7071 15.8617 17.3507 16.0368 18 16C18.5304 16 19.0391 16.2107 19.4142 16.5858C19.7893 16.9609 20 17.4696 20 18C20 18.5304 20.2107 19.0391 20.5858 19.4142C20.9609 19.7893 21.4696 20 22 20C22.5304 20 23.0391 19.7893 23.4142 19.4142C23.7893 19.0391 24 18.5304 24 18C24 17.4696 24.2107 16.9609 24.5858 16.5858C24.9609 16.2107 25.4696 16 26 16H29" stroke="#3882B7" stroke-width="1.4" stroke-linecap="round" stroke-linejoin="round"/>
<path d="M11 19H13C13.5304 19 14.0391 19.2107 14.4142 19.5858C14.7893 19.9609 15 20.4696 15 21V22C15 22.5304 15.2107 23.0391 15.5858 23.4142C15.9609 23.7893 16.4696 24 17 24C17.5304 24 18.0391 24.2107 18.4142 24.5858C18.7893 24.9609 19 25.4696 19 26V30" stroke="#3882B7" stroke-width="1.4" stroke-linecap="round" stroke-linejoin="round"/>
<path d="M20 30C25.5228 30 30 25.5228 30 20C30 14.4772 25.5228 10 20 10C14.4772 10 10 14.4772 10 20C10 25.5228 14.4772 30 20 30Z" stroke="#3882B7" stroke-width="1.4" stroke-linecap="round" stroke-linejoin="round"/>
</svg>
