<svg width="290" height="268" viewBox="0 0 290 268" fill="none" xmlns="http://www.w3.org/2000/svg">
<g clip-path="url(#clip0_16_11104)">
<rect width="290" height="268" rx="16" fill="#EBF5FD"/>
<path d="M29.448 61.87H26.669V64.803H25.444V61.87H22.679V60.736H25.444V57.81H26.669V60.736H29.448V61.87ZM37.2891 64.579C37.4524 64.579 37.5808 64.628 37.6741 64.726C37.7674 64.8193 37.8141 64.9407 37.8141 65.09V66H30.9961V65.489C30.9961 65.3863 31.0171 65.279 31.0591 65.167C31.1011 65.055 31.1688 64.9523 31.2621 64.859L34.3981 61.716C34.6641 61.45 34.8998 61.1957 35.1051 60.953C35.3151 60.7103 35.4924 60.4677 35.6371 60.225C35.7864 59.9823 35.8984 59.7373 35.9731 59.49C36.0524 59.238 36.0921 58.9743 36.0921 58.699C36.0921 58.433 36.0501 58.1997 35.9661 57.999C35.8868 57.7937 35.7748 57.6257 35.6301 57.495C35.4901 57.3597 35.3198 57.2593 35.1191 57.194C34.9231 57.124 34.7061 57.089 34.4681 57.089C34.2394 57.089 34.0271 57.1217 33.8311 57.187C33.6398 57.2523 33.4671 57.3433 33.3131 57.46C33.1638 57.5767 33.0378 57.7167 32.9351 57.88C32.8371 58.0387 32.7648 58.2137 32.7181 58.405C32.6481 58.5963 32.5571 58.7247 32.4451 58.79C32.3378 58.8553 32.1791 58.8693 31.9691 58.832L31.1781 58.692C31.2481 58.216 31.3788 57.7983 31.5701 57.439C31.7661 57.0797 32.0111 56.781 32.3051 56.543C32.5991 56.3003 32.9351 56.1183 33.3131 55.997C33.6958 55.871 34.1088 55.808 34.5521 55.808C35.0001 55.808 35.4108 55.8757 35.7841 56.011C36.1621 56.1417 36.4864 56.3307 36.7571 56.578C37.0324 56.8207 37.2471 57.117 37.4011 57.467C37.5551 57.817 37.6321 58.2113 37.6321 58.65C37.6321 59.0233 37.5761 59.3687 37.4641 59.686C37.3568 60.0033 37.2098 60.3067 37.0231 60.596C36.8364 60.8853 36.6171 61.1677 36.3651 61.443C36.1178 61.7137 35.8564 61.989 35.5811 62.269L33.1451 64.761C33.3458 64.705 33.5464 64.6607 33.7471 64.628C33.9524 64.5953 34.1461 64.579 34.3281 64.579H37.2891ZM41.4972 59.644C41.7399 59.5927 41.9709 59.5553 42.1902 59.532C42.4142 59.5087 42.6289 59.497 42.8342 59.497C43.3615 59.497 43.8259 59.5763 44.2272 59.735C44.6332 59.889 44.9715 60.1037 45.2422 60.379C45.5175 60.6543 45.7229 60.9787 45.8582 61.352C45.9982 61.7207 46.0682 62.122 46.0682 62.556C46.0682 63.0927 45.9749 63.5803 45.7882 64.019C45.6015 64.4577 45.3425 64.8333 45.0112 65.146C44.6799 65.454 44.2879 65.692 43.8352 65.86C43.3872 66.028 42.9019 66.112 42.3792 66.112C42.0712 66.112 41.7772 66.0817 41.4972 66.021C41.2219 65.9603 40.9629 65.8787 40.7202 65.776C40.4775 65.6687 40.2535 65.5473 40.0482 65.412C39.8429 65.272 39.6585 65.1273 39.4952 64.978L39.9572 64.334C40.0552 64.194 40.1859 64.124 40.3492 64.124C40.4519 64.124 40.5639 64.1613 40.6852 64.236C40.8065 64.3107 40.9465 64.3923 41.1052 64.481C41.2685 64.565 41.4599 64.6443 41.6792 64.719C41.8985 64.7937 42.1599 64.831 42.4632 64.831C42.7945 64.831 43.0909 64.7773 43.3522 64.67C43.6135 64.5627 43.8329 64.4133 44.0102 64.222C44.1922 64.026 44.3299 63.7927 44.4232 63.522C44.5165 63.2513 44.5632 62.955 44.5632 62.633C44.5632 62.339 44.5189 62.0753 44.4302 61.842C44.3462 61.6087 44.2179 61.4103 44.0452 61.247C43.8772 61.0837 43.6649 60.96 43.4082 60.876C43.1515 60.7873 42.8552 60.743 42.5192 60.743C42.2719 60.743 42.0175 60.764 41.7562 60.806C41.4995 60.848 41.2382 60.9133 40.9722 61.002L40.0342 60.736L40.8602 55.92H45.7392V56.571C45.7392 56.7857 45.6715 56.9607 45.5362 57.096C45.4009 57.2313 45.1745 57.299 44.8572 57.299H41.9032L41.4972 59.644ZM47.8893 65.132C47.8893 64.9967 47.9126 64.8707 47.9593 64.754C48.0106 64.6327 48.0783 64.5277 48.1623 64.439C48.2509 64.3503 48.3536 64.2803 48.4703 64.229C48.5916 64.1777 48.7199 64.152 48.8553 64.152C48.9906 64.152 49.1166 64.1777 49.2333 64.229C49.3546 64.2803 49.4596 64.3503 49.5483 64.439C49.6369 64.5277 49.7069 64.6327 49.7583 64.754C49.8096 64.8707 49.8353 64.9967 49.8353 65.132C49.8353 65.272 49.8096 65.4003 49.7583 65.517C49.7069 65.6337 49.6369 65.7363 49.5483 65.825C49.4596 65.9137 49.3546 65.9813 49.2333 66.028C49.1166 66.0793 48.9906 66.105 48.8553 66.105C48.7199 66.105 48.5916 66.0793 48.4703 66.028C48.3536 65.9813 48.2509 65.9137 48.1623 65.825C48.0783 65.7363 48.0106 65.6337 47.9593 65.517C47.9126 65.4003 47.8893 65.272 47.8893 65.132ZM53.4869 59.644C53.7295 59.5927 53.9605 59.5553 54.1799 59.532C54.4039 59.5087 54.6185 59.497 54.8239 59.497C55.3512 59.497 55.8155 59.5763 56.2169 59.735C56.6229 59.889 56.9612 60.1037 57.2319 60.379C57.5072 60.6543 57.7125 60.9787 57.8479 61.352C57.9879 61.7207 58.0579 62.122 58.0579 62.556C58.0579 63.0927 57.9645 63.5803 57.7779 64.019C57.5912 64.4577 57.3322 64.8333 57.0009 65.146C56.6695 65.454 56.2775 65.692 55.8249 65.86C55.3769 66.028 54.8915 66.112 54.3689 66.112C54.0609 66.112 53.7669 66.0817 53.4869 66.021C53.2115 65.9603 52.9525 65.8787 52.7099 65.776C52.4672 65.6687 52.2432 65.5473 52.0379 65.412C51.8325 65.272 51.6482 65.1273 51.4849 64.978L51.9469 64.334C52.0449 64.194 52.1755 64.124 52.3389 64.124C52.4415 64.124 52.5535 64.1613 52.6749 64.236C52.7962 64.3107 52.9362 64.3923 53.0949 64.481C53.2582 64.565 53.4495 64.6443 53.6689 64.719C53.8882 64.7937 54.1495 64.831 54.4529 64.831C54.7842 64.831 55.0805 64.7773 55.3419 64.67C55.6032 64.5627 55.8225 64.4133 55.9999 64.222C56.1819 64.026 56.3195 63.7927 56.4129 63.522C56.5062 63.2513 56.5529 62.955 56.5529 62.633C56.5529 62.339 56.5085 62.0753 56.4199 61.842C56.3359 61.6087 56.2075 61.4103 56.0349 61.247C55.8669 61.0837 55.6545 60.96 55.3979 60.876C55.1412 60.7873 54.8449 60.743 54.5089 60.743C54.2615 60.743 54.0072 60.764 53.7459 60.806C53.4892 60.848 53.2279 60.9133 52.9619 61.002L52.0239 60.736L52.8499 55.92H57.7289V56.571C57.7289 56.7857 57.6612 56.9607 57.5259 57.096C57.3905 57.2313 57.1642 57.299 56.8469 57.299H53.8929L53.4869 59.644ZM64.331 58.356C64.331 58.7433 64.268 59.091 64.142 59.399C64.0206 59.707 63.855 59.9707 63.645 60.19C63.435 60.4047 63.1923 60.5703 62.917 60.687C62.6416 60.799 62.3523 60.855 62.049 60.855C61.7223 60.855 61.419 60.799 61.139 60.687C60.8636 60.5703 60.6233 60.4047 60.418 60.19C60.2173 59.9707 60.0586 59.707 59.942 59.399C59.8253 59.091 59.767 58.7433 59.767 58.356C59.767 57.9593 59.8253 57.6047 59.942 57.292C60.0586 56.9747 60.2173 56.7087 60.418 56.494C60.6233 56.2747 60.8636 56.1067 61.139 55.99C61.419 55.8733 61.7223 55.815 62.049 55.815C62.3756 55.815 62.6766 55.8733 62.952 55.99C63.232 56.1067 63.4723 56.2747 63.673 56.494C63.8783 56.7087 64.0393 56.9747 64.156 57.292C64.2726 57.6047 64.331 57.9593 64.331 58.356ZM63.169 58.356C63.169 58.0713 63.1386 57.831 63.078 57.635C63.022 57.4343 62.9426 57.2733 62.84 57.152C62.742 57.026 62.623 56.9373 62.483 56.886C62.3476 56.83 62.203 56.802 62.049 56.802C61.8903 56.802 61.7433 56.83 61.608 56.886C61.4726 56.9373 61.356 57.026 61.258 57.152C61.16 57.2733 61.083 57.4343 61.027 57.635C60.971 57.831 60.943 58.0713 60.943 58.356C60.943 58.636 60.971 58.8717 61.027 59.063C61.083 59.2543 61.16 59.4107 61.258 59.532C61.356 59.6487 61.4726 59.7327 61.608 59.784C61.7433 59.8353 61.8903 59.861 62.049 59.861C62.203 59.861 62.3476 59.8353 62.483 59.784C62.623 59.7327 62.742 59.6487 62.84 59.532C62.9426 59.4107 63.022 59.2543 63.078 59.063C63.1386 58.8717 63.169 58.636 63.169 58.356ZM67.789 56.165C67.8403 56.0997 67.901 56.0437 67.971 55.997C68.0456 55.9457 68.1483 55.92 68.279 55.92H69.364L61.937 65.769C61.8856 65.8343 61.8226 65.8903 61.748 65.937C61.6733 65.979 61.5823 66 61.475 66H60.355L67.789 56.165ZM69.973 63.627C69.973 64.0143 69.91 64.362 69.784 64.67C69.658 64.978 69.49 65.2393 69.28 65.454C69.07 65.6687 68.8273 65.8343 68.552 65.951C68.2766 66.063 67.9873 66.119 67.684 66.119C67.3573 66.119 67.054 66.063 66.774 65.951C66.4986 65.8343 66.2583 65.6687 66.053 65.454C65.8523 65.2393 65.6936 64.978 65.577 64.67C65.465 64.362 65.409 64.0143 65.409 63.627C65.409 63.2303 65.465 62.8757 65.577 62.563C65.6936 62.2457 65.8523 61.9773 66.053 61.758C66.2583 61.5387 66.4986 61.373 66.774 61.261C67.054 61.1443 67.3573 61.086 67.684 61.086C68.0106 61.086 68.314 61.1443 68.594 61.261C68.874 61.373 69.1143 61.5387 69.315 61.758C69.5203 61.9773 69.6813 62.2457 69.798 62.563C69.9146 62.8757 69.973 63.2303 69.973 63.627ZM68.811 63.627C68.811 63.3423 68.7806 63.102 68.72 62.906C68.664 62.7053 68.5846 62.5443 68.482 62.423C68.3793 62.297 68.258 62.2083 68.118 62.157C67.9826 62.101 67.838 62.073 67.684 62.073C67.53 62.073 67.3853 62.101 67.25 62.157C67.1146 62.2083 66.9956 62.297 66.893 62.423C66.795 62.5443 66.718 62.7053 66.662 62.906C66.606 63.102 66.578 63.3423 66.578 63.627C66.578 63.907 66.606 64.1427 66.662 64.334C66.718 64.5253 66.795 64.6817 66.893 64.803C66.9956 64.9197 67.1146 65.0037 67.25 65.055C67.3853 65.1063 67.53 65.132 67.684 65.132C67.838 65.132 67.9826 65.1063 68.118 65.055C68.258 65.0037 68.3793 64.9197 68.482 64.803C68.5846 64.6817 68.664 64.5253 68.72 64.334C68.7806 64.1427 68.811 63.907 68.811 63.627Z" fill="#121212"/>
<path d="M25.91 105H23.77V90.64H25.91V105ZM31.1273 96.25C31.3473 96.0167 31.5773 95.8033 31.8173 95.61C32.0573 95.4167 32.3107 95.2533 32.5773 95.12C32.8507 94.98 33.1407 94.8733 33.4473 94.8C33.7607 94.72 34.094 94.68 34.4473 94.68C35.0073 94.68 35.4973 94.7733 35.9173 94.96C36.344 95.1467 36.7007 95.41 36.9873 95.75C37.274 96.0833 37.4907 96.4867 37.6373 96.96C37.784 97.4333 37.8573 97.9567 37.8573 98.53V105H35.8973V98.53C35.8973 97.8033 35.7307 97.24 35.3973 96.84C35.064 96.4333 34.554 96.23 33.8673 96.23C33.3673 96.23 32.8973 96.35 32.4573 96.59C32.024 96.8233 31.6207 97.1433 31.2473 97.55V105H29.2973V94.84H30.4673C30.7407 94.84 30.9107 94.97 30.9773 95.23L31.1273 96.25ZM48.0087 96.74C47.9487 96.8133 47.8887 96.8733 47.8287 96.92C47.7754 96.96 47.6954 96.98 47.5887 96.98C47.4821 96.98 47.3687 96.94 47.2487 96.86C47.1354 96.7733 46.9887 96.6833 46.8087 96.59C46.6354 96.49 46.4221 96.4 46.1687 96.32C45.9221 96.2333 45.6154 96.19 45.2487 96.19C44.7687 96.19 44.3454 96.2767 43.9787 96.45C43.6121 96.6233 43.3054 96.87 43.0587 97.19C42.8187 97.51 42.6354 97.9 42.5087 98.36C42.3821 98.82 42.3187 99.3367 42.3187 99.91C42.3187 100.503 42.3854 101.033 42.5187 101.5C42.6521 101.96 42.8421 102.35 43.0887 102.67C43.3354 102.983 43.6354 103.223 43.9887 103.39C44.3421 103.55 44.7354 103.63 45.1687 103.63C45.5887 103.63 45.9354 103.58 46.2087 103.48C46.4821 103.373 46.7087 103.26 46.8887 103.14C47.0687 103.02 47.2187 102.91 47.3387 102.81C47.4587 102.703 47.5821 102.65 47.7087 102.65C47.8687 102.65 47.9921 102.71 48.0787 102.83L48.6387 103.55C48.4054 103.837 48.1421 104.08 47.8487 104.28C47.5621 104.48 47.2554 104.643 46.9287 104.77C46.6021 104.897 46.2587 104.99 45.8987 105.05C45.5454 105.11 45.1854 105.14 44.8187 105.14C44.1854 105.14 43.5921 105.023 43.0387 104.79C42.4921 104.557 42.0154 104.217 41.6087 103.77C41.2087 103.323 40.8921 102.777 40.6587 102.13C40.4254 101.477 40.3087 100.737 40.3087 99.91C40.3087 99.1567 40.4121 98.46 40.6187 97.82C40.8321 97.18 41.1421 96.63 41.5487 96.17C41.9621 95.7033 42.4687 95.34 43.0687 95.08C43.6687 94.8133 44.3554 94.68 45.1287 94.68C45.8554 94.68 46.4954 94.7967 47.0487 95.03C47.6021 95.2633 48.0954 95.5933 48.5287 96.02L48.0087 96.74ZM52.6991 96.79C53.0257 96.1233 53.4191 95.6 53.8791 95.22C54.3391 94.84 54.8924 94.65 55.5391 94.65C55.7591 94.65 55.9657 94.6767 56.1591 94.73C56.3591 94.7767 56.5324 94.85 56.6791 94.95L56.5491 96.42C56.5024 96.6 56.3924 96.69 56.2191 96.69C56.1257 96.69 55.9857 96.6733 55.7991 96.64C55.6124 96.6 55.4124 96.58 55.1991 96.58C54.8857 96.58 54.6091 96.6267 54.3691 96.72C54.1291 96.8067 53.9124 96.94 53.7191 97.12C53.5324 97.2933 53.3657 97.51 53.2191 97.77C53.0724 98.0233 52.9357 98.3133 52.8091 98.64V105H50.8591V94.84H51.9791C52.1924 94.84 52.3357 94.88 52.4091 94.96C52.4891 95.0333 52.5457 95.1667 52.5791 95.36L52.6991 96.79ZM64.9422 98.79C64.9422 98.4033 64.8855 98.0467 64.7722 97.72C64.6655 97.3933 64.5055 97.11 64.2922 96.87C64.0789 96.63 63.8189 96.4433 63.5122 96.31C63.2055 96.1767 62.8522 96.11 62.4522 96.11C61.6322 96.11 60.9855 96.3467 60.5122 96.82C60.0455 97.2933 59.7489 97.95 59.6222 98.79H64.9422ZM66.5522 103.55C66.3122 103.83 66.0355 104.073 65.7222 104.28C65.4089 104.48 65.0755 104.643 64.7222 104.77C64.3689 104.897 64.0022 104.99 63.6222 105.05C63.2489 105.11 62.8789 105.14 62.5122 105.14C61.8122 105.14 61.1622 105.023 60.5622 104.79C59.9689 104.55 59.4522 104.203 59.0122 103.75C58.5789 103.29 58.2389 102.723 57.9922 102.05C57.7522 101.37 57.6322 100.59 57.6322 99.71C57.6322 99.0033 57.7422 98.3467 57.9622 97.74C58.1822 97.1267 58.4955 96.5933 58.9022 96.14C59.3155 95.6867 59.8189 95.33 60.4122 95.07C61.0055 94.81 61.6722 94.68 62.4122 94.68C63.0322 94.68 63.6022 94.7833 64.1222 94.99C64.6489 95.19 65.1022 95.4833 65.4822 95.87C65.8622 96.2567 66.1589 96.7333 66.3722 97.3C66.5922 97.8667 66.7022 98.5133 66.7022 99.24C66.7022 99.54 66.6689 99.7433 66.6022 99.85C66.5355 99.95 66.4122 100 66.2322 100H59.5722C59.5922 100.607 59.6789 101.137 59.8322 101.59C59.9855 102.037 60.1955 102.41 60.4622 102.71C60.7355 103.01 61.0589 103.233 61.4322 103.38C61.8055 103.527 62.2222 103.6 62.6822 103.6C63.1155 103.6 63.4889 103.55 63.8022 103.45C64.1222 103.35 64.3955 103.243 64.6222 103.13C64.8555 103.01 65.0489 102.9 65.2022 102.8C65.3622 102.7 65.5022 102.65 65.6222 102.65C65.7822 102.65 65.9055 102.71 65.9922 102.83L66.5522 103.55ZM74.6581 100.49C73.8648 100.517 73.1915 100.58 72.6381 100.68C72.0848 100.773 71.6348 100.9 71.2881 101.06C70.9415 101.22 70.6915 101.41 70.5381 101.63C70.3848 101.843 70.3081 102.083 70.3081 102.35C70.3081 102.603 70.3481 102.823 70.4281 103.01C70.5148 103.19 70.6281 103.34 70.7681 103.46C70.9148 103.573 71.0848 103.657 71.2781 103.71C71.4715 103.763 71.6815 103.79 71.9081 103.79C72.2081 103.79 72.4815 103.76 72.7281 103.7C72.9815 103.64 73.2181 103.557 73.4381 103.45C73.6581 103.337 73.8681 103.2 74.0681 103.04C74.2681 102.88 74.4648 102.697 74.6581 102.49V100.49ZM68.9381 96.26C69.5048 95.72 70.1181 95.3167 70.7781 95.05C71.4448 94.7833 72.1748 94.65 72.9681 94.65C73.5481 94.65 74.0615 94.7467 74.5081 94.94C74.9548 95.1267 75.3315 95.39 75.6381 95.73C75.9448 96.07 76.1748 96.4767 76.3281 96.95C76.4881 97.4233 76.5681 97.9467 76.5681 98.52V105H75.6981C75.5048 105 75.3581 104.97 75.2581 104.91C75.1581 104.843 75.0781 104.723 75.0181 104.55L74.8081 103.66C74.5481 103.9 74.2915 104.113 74.0381 104.3C73.7848 104.48 73.5181 104.637 73.2381 104.77C72.9648 104.897 72.6715 104.993 72.3581 105.06C72.0448 105.127 71.6981 105.16 71.3181 105.16C70.9181 105.16 70.5415 105.107 70.1881 105C69.8415 104.887 69.5381 104.717 69.2781 104.49C69.0181 104.263 68.8115 103.98 68.6581 103.64C68.5115 103.3 68.4381 102.903 68.4381 102.45C68.4381 102.05 68.5448 101.667 68.7581 101.3C68.9781 100.927 69.3315 100.593 69.8181 100.3C70.3115 100.007 70.9515 99.7667 71.7381 99.58C72.5315 99.3933 73.5048 99.2867 74.6581 99.26V98.52C74.6581 97.7533 74.4948 97.18 74.1681 96.8C73.8415 96.42 73.3615 96.23 72.7281 96.23C72.3015 96.23 71.9415 96.2833 71.6481 96.39C71.3615 96.4967 71.1115 96.6167 70.8981 96.75C70.6915 96.8767 70.5081 96.9933 70.3481 97.1C70.1948 97.2067 70.0348 97.26 69.8681 97.26C69.7348 97.26 69.6181 97.2233 69.5181 97.15C69.4248 97.0767 69.3481 96.99 69.2881 96.89L68.9381 96.26ZM85.5686 96.59C85.5153 96.6767 85.4586 96.74 85.3986 96.78C85.3386 96.8133 85.2619 96.83 85.1686 96.83C85.0619 96.83 84.9419 96.7933 84.8086 96.72C84.6819 96.6467 84.5253 96.5667 84.3386 96.48C84.1586 96.3933 83.9453 96.3133 83.6986 96.24C83.4519 96.1667 83.1586 96.13 82.8186 96.13C82.5386 96.13 82.2819 96.1667 82.0486 96.24C81.8219 96.3067 81.6286 96.4033 81.4686 96.53C81.3086 96.65 81.1853 96.7967 81.0986 96.97C81.0119 97.1367 80.9686 97.3167 80.9686 97.51C80.9686 97.7633 81.0419 97.9733 81.1886 98.14C81.3419 98.3067 81.5386 98.45 81.7786 98.57C82.0253 98.69 82.3019 98.8 82.6086 98.9C82.9219 98.9933 83.2386 99.0933 83.5586 99.2C83.8853 99.3067 84.2019 99.43 84.5086 99.57C84.8219 99.7033 85.0986 99.8733 85.3386 100.08C85.5853 100.28 85.7819 100.523 85.9286 100.81C86.0819 101.097 86.1586 101.447 86.1586 101.86C86.1586 102.333 86.0719 102.773 85.8986 103.18C85.7319 103.58 85.4819 103.927 85.1486 104.22C84.8219 104.513 84.4153 104.743 83.9286 104.91C83.4419 105.077 82.8853 105.16 82.2586 105.16C81.5586 105.16 80.9119 105.043 80.3186 104.81C79.7253 104.577 79.2286 104.28 78.8286 103.92L79.2886 103.17C79.3419 103.077 79.4086 103.007 79.4886 102.96C79.5686 102.907 79.6753 102.88 79.8086 102.88C79.9353 102.88 80.0653 102.927 80.1986 103.02C80.3319 103.113 80.4919 103.217 80.6786 103.33C80.8653 103.437 81.0919 103.537 81.3586 103.63C81.6253 103.717 81.9586 103.76 82.3586 103.76C82.6919 103.76 82.9819 103.72 83.2286 103.64C83.4753 103.553 83.6786 103.44 83.8386 103.3C84.0053 103.153 84.1286 102.987 84.2086 102.8C84.2886 102.613 84.3286 102.417 84.3286 102.21C84.3286 101.943 84.2519 101.723 84.0986 101.55C83.9519 101.37 83.7553 101.217 83.5086 101.09C83.2686 100.963 82.9919 100.853 82.6786 100.76C82.3653 100.667 82.0453 100.567 81.7186 100.46C81.3919 100.353 81.0719 100.23 80.7586 100.09C80.4453 99.95 80.1653 99.7733 79.9186 99.56C79.6786 99.3467 79.4819 99.0867 79.3286 98.78C79.1819 98.4733 79.1086 98.1 79.1086 97.66C79.1086 97.2667 79.1886 96.89 79.3486 96.53C79.5153 96.17 79.7519 95.8533 80.0586 95.58C80.3719 95.3067 80.7553 95.09 81.2086 94.93C81.6686 94.7633 82.1919 94.68 82.7786 94.68C83.4519 94.68 84.0586 94.7867 84.5986 95C85.1453 95.2133 85.6119 95.5067 85.9986 95.88L85.5686 96.59ZM95.4 98.79C95.4 98.4033 95.3433 98.0467 95.23 97.72C95.1233 97.3933 94.9633 97.11 94.75 96.87C94.5367 96.63 94.2767 96.4433 93.97 96.31C93.6633 96.1767 93.31 96.11 92.91 96.11C92.09 96.11 91.4433 96.3467 90.97 96.82C90.5033 97.2933 90.2067 97.95 90.08 98.79H95.4ZM97.01 103.55C96.77 103.83 96.4933 104.073 96.18 104.28C95.8667 104.48 95.5333 104.643 95.18 104.77C94.8267 104.897 94.46 104.99 94.08 105.05C93.7067 105.11 93.3367 105.14 92.97 105.14C92.27 105.14 91.62 105.023 91.02 104.79C90.4267 104.55 89.91 104.203 89.47 103.75C89.0367 103.29 88.6967 102.723 88.45 102.05C88.21 101.37 88.09 100.59 88.09 99.71C88.09 99.0033 88.2 98.3467 88.42 97.74C88.64 97.1267 88.9533 96.5933 89.36 96.14C89.7733 95.6867 90.2767 95.33 90.87 95.07C91.4633 94.81 92.13 94.68 92.87 94.68C93.49 94.68 94.06 94.7833 94.58 94.99C95.1067 95.19 95.56 95.4833 95.94 95.87C96.32 96.2567 96.6167 96.7333 96.83 97.3C97.05 97.8667 97.16 98.5133 97.16 99.24C97.16 99.54 97.1267 99.7433 97.06 99.85C96.9933 99.95 96.87 100 96.69 100H90.03C90.05 100.607 90.1367 101.137 90.29 101.59C90.4433 102.037 90.6533 102.41 90.92 102.71C91.1933 103.01 91.5167 103.233 91.89 103.38C92.2633 103.527 92.68 103.6 93.14 103.6C93.5733 103.6 93.9467 103.55 94.26 103.45C94.58 103.35 94.8533 103.243 95.08 103.13C95.3133 103.01 95.5067 102.9 95.66 102.8C95.82 102.7 95.96 102.65 96.08 102.65C96.24 102.65 96.3633 102.71 96.45 102.83L97.01 103.55ZM107.155 94.84V105H105.205V94.84H107.155ZM107.525 91.7C107.525 91.88 107.488 92.0533 107.415 92.22C107.341 92.38 107.241 92.5233 107.115 92.65C106.995 92.77 106.851 92.8667 106.685 92.94C106.518 93.0067 106.345 93.04 106.165 93.04C105.985 93.04 105.815 93.0067 105.655 92.94C105.495 92.8667 105.351 92.77 105.225 92.65C105.105 92.5233 105.008 92.38 104.935 92.22C104.868 92.0533 104.835 91.88 104.835 91.7C104.835 91.5133 104.868 91.34 104.935 91.18C105.008 91.0133 105.105 90.87 105.225 90.75C105.351 90.6233 105.495 90.5267 105.655 90.46C105.815 90.3867 105.985 90.35 106.165 90.35C106.345 90.35 106.518 90.3867 106.685 90.46C106.851 90.5267 106.995 90.6233 107.115 90.75C107.241 90.87 107.341 91.0133 107.415 91.18C107.488 91.34 107.525 91.5133 107.525 91.7ZM112.208 96.25C112.428 96.0167 112.658 95.8033 112.898 95.61C113.138 95.4167 113.391 95.2533 113.658 95.12C113.931 94.98 114.221 94.8733 114.528 94.8C114.841 94.72 115.174 94.68 115.528 94.68C116.088 94.68 116.578 94.7733 116.998 94.96C117.424 95.1467 117.781 95.41 118.068 95.75C118.354 96.0833 118.571 96.4867 118.718 96.96C118.864 97.4333 118.938 97.9567 118.938 98.53V105H116.978V98.53C116.978 97.8033 116.811 97.24 116.478 96.84C116.144 96.4333 115.634 96.23 114.948 96.23C114.448 96.23 113.978 96.35 113.538 96.59C113.104 96.8233 112.701 97.1433 112.328 97.55V105H110.378V94.84H111.548C111.821 94.84 111.991 94.97 112.058 95.23L112.208 96.25ZM30.49 120.74C30.43 120.813 30.37 120.873 30.31 120.92C30.2567 120.96 30.1767 120.98 30.07 120.98C29.9633 120.98 29.85 120.94 29.73 120.86C29.6167 120.773 29.47 120.683 29.29 120.59C29.1167 120.49 28.9033 120.4 28.65 120.32C28.4033 120.233 28.0967 120.19 27.73 120.19C27.25 120.19 26.8267 120.277 26.46 120.45C26.0933 120.623 25.7867 120.87 25.54 121.19C25.3 121.51 25.1167 121.9 24.99 122.36C24.8633 122.82 24.8 123.337 24.8 123.91C24.8 124.503 24.8667 125.033 25 125.5C25.1333 125.96 25.3233 126.35 25.57 126.67C25.8167 126.983 26.1167 127.223 26.47 127.39C26.8233 127.55 27.2167 127.63 27.65 127.63C28.07 127.63 28.4167 127.58 28.69 127.48C28.9633 127.373 29.19 127.26 29.37 127.14C29.55 127.02 29.7 126.91 29.82 126.81C29.94 126.703 30.0633 126.65 30.19 126.65C30.35 126.65 30.4733 126.71 30.56 126.83L31.12 127.55C30.8867 127.837 30.6233 128.08 30.33 128.28C30.0433 128.48 29.7367 128.643 29.41 128.77C29.0833 128.897 28.74 128.99 28.38 129.05C28.0267 129.11 27.6667 129.14 27.3 129.14C26.6667 129.14 26.0733 129.023 25.52 128.79C24.9733 128.557 24.4967 128.217 24.09 127.77C23.69 127.323 23.3733 126.777 23.14 126.13C22.9067 125.477 22.79 124.737 22.79 123.91C22.79 123.157 22.8933 122.46 23.1 121.82C23.3133 121.18 23.6233 120.63 24.03 120.17C24.4433 119.703 24.95 119.34 25.55 119.08C26.15 118.813 26.8367 118.68 27.61 118.68C28.3367 118.68 28.9767 118.797 29.53 119.03C30.0833 119.263 30.5767 119.593 31.01 120.02L30.49 120.74ZM37.4945 118.68C38.2412 118.68 38.9145 118.803 39.5145 119.05C40.1212 119.29 40.6345 119.64 41.0545 120.1C41.4812 120.553 41.8079 121.103 42.0345 121.75C42.2612 122.39 42.3745 123.11 42.3745 123.91C42.3745 124.71 42.2612 125.433 42.0345 126.08C41.8079 126.727 41.4812 127.277 41.0545 127.73C40.6345 128.183 40.1212 128.533 39.5145 128.78C38.9145 129.02 38.2412 129.14 37.4945 129.14C36.7412 129.14 36.0612 129.02 35.4545 128.78C34.8545 128.533 34.3412 128.183 33.9145 127.73C33.4879 127.277 33.1579 126.727 32.9245 126.08C32.6979 125.433 32.5845 124.71 32.5845 123.91C32.5845 123.11 32.6979 122.39 32.9245 121.75C33.1579 121.103 33.4879 120.553 33.9145 120.1C34.3412 119.64 34.8545 119.29 35.4545 119.05C36.0612 118.803 36.7412 118.68 37.4945 118.68ZM37.4945 127.62C38.4545 127.62 39.1712 127.297 39.6445 126.65C40.1179 126.003 40.3545 125.093 40.3545 123.92C40.3545 122.747 40.1179 121.837 39.6445 121.19C39.1712 120.537 38.4545 120.21 37.4945 120.21C36.5212 120.21 35.7945 120.537 35.3145 121.19C34.8412 121.837 34.6045 122.747 34.6045 123.92C34.6045 125.093 34.8412 126.003 35.3145 126.65C35.7945 127.297 36.5212 127.62 37.4945 127.62ZM44.9512 129V118.84H46.1212C46.3946 118.84 46.5646 118.97 46.6312 119.23L46.7712 120.2C47.1446 119.753 47.5579 119.39 48.0112 119.11C48.4712 118.823 49.0079 118.68 49.6212 118.68C50.2946 118.68 50.8412 118.867 51.2612 119.24C51.6812 119.607 51.9879 120.107 52.1812 120.74C52.3279 120.38 52.5179 120.07 52.7512 119.81C52.9846 119.55 53.2446 119.337 53.5312 119.17C53.8179 119.003 54.1213 118.88 54.4413 118.8C54.7679 118.72 55.0979 118.68 55.4312 118.68C55.9712 118.68 56.4512 118.767 56.8713 118.94C57.2979 119.107 57.6579 119.353 57.9512 119.68C58.2446 120.007 58.4679 120.41 58.6212 120.89C58.7746 121.37 58.8512 121.917 58.8512 122.53V129H56.8913V122.53C56.8913 121.77 56.7246 121.197 56.3912 120.81C56.0646 120.423 55.5846 120.23 54.9513 120.23C54.6712 120.23 54.4046 120.28 54.1512 120.38C53.8979 120.473 53.6746 120.617 53.4812 120.81C53.2946 121.003 53.1446 121.243 53.0312 121.53C52.9246 121.817 52.8712 122.15 52.8712 122.53V129H50.9112V122.53C50.9112 121.743 50.7546 121.163 50.4412 120.79C50.1279 120.417 49.6679 120.23 49.0612 120.23C48.6412 120.23 48.2512 120.34 47.8912 120.56C47.5312 120.78 47.2012 121.08 46.9012 121.46V129H44.9512ZM63.8247 126.5C64.1447 126.92 64.488 127.213 64.8547 127.38C65.228 127.547 65.6447 127.63 66.1047 127.63C66.998 127.63 67.688 127.31 68.1747 126.67C68.668 126.023 68.9147 125.083 68.9147 123.85C68.9147 123.203 68.858 122.653 68.7447 122.2C68.638 121.74 68.478 121.367 68.2647 121.08C68.058 120.787 67.8014 120.573 67.4947 120.44C67.188 120.3 66.8414 120.23 66.4547 120.23C65.888 120.23 65.3947 120.357 64.9747 120.61C64.5614 120.863 64.178 121.223 63.8247 121.69V126.5ZM63.7247 120.36C63.938 120.107 64.1647 119.877 64.4047 119.67C64.6514 119.457 64.9147 119.277 65.1947 119.13C65.4747 118.977 65.7714 118.86 66.0847 118.78C66.4047 118.693 66.7447 118.65 67.1047 118.65C67.6847 118.65 68.208 118.763 68.6747 118.99C69.148 119.217 69.5514 119.55 69.8847 119.99C70.218 120.43 70.4747 120.973 70.6547 121.62C70.8414 122.267 70.9347 123.01 70.9347 123.85C70.9347 124.603 70.8314 125.303 70.6247 125.95C70.4247 126.59 70.1347 127.147 69.7547 127.62C69.3814 128.093 68.9214 128.467 68.3747 128.74C67.8347 129.007 67.2247 129.14 66.5447 129.14C65.938 129.14 65.418 129.04 64.9847 128.84C64.5514 128.64 64.1647 128.36 63.8247 128V132.41H61.8747V118.84H63.0447C63.318 118.84 63.488 118.97 63.5547 119.23L63.7247 120.36ZM78.9847 124.49C78.1914 124.517 77.518 124.58 76.9647 124.68C76.4114 124.773 75.9614 124.9 75.6147 125.06C75.268 125.22 75.018 125.41 74.8647 125.63C74.7114 125.843 74.6347 126.083 74.6347 126.35C74.6347 126.603 74.6747 126.823 74.7547 127.01C74.8414 127.19 74.9547 127.34 75.0947 127.46C75.2414 127.573 75.4114 127.657 75.6047 127.71C75.798 127.763 76.008 127.79 76.2347 127.79C76.5347 127.79 76.808 127.76 77.0547 127.7C77.308 127.64 77.5447 127.557 77.7647 127.45C77.9847 127.337 78.1947 127.2 78.3947 127.04C78.5947 126.88 78.7914 126.697 78.9847 126.49V124.49ZM73.2647 120.26C73.8314 119.72 74.4447 119.317 75.1047 119.05C75.7714 118.783 76.5014 118.65 77.2947 118.65C77.8747 118.65 78.388 118.747 78.8347 118.94C79.2814 119.127 79.658 119.39 79.9647 119.73C80.2714 120.07 80.5014 120.477 80.6547 120.95C80.8147 121.423 80.8947 121.947 80.8947 122.52V129H80.0247C79.8314 129 79.6847 128.97 79.5847 128.91C79.4847 128.843 79.4047 128.723 79.3447 128.55L79.1347 127.66C78.8747 127.9 78.618 128.113 78.3647 128.3C78.1114 128.48 77.8447 128.637 77.5647 128.77C77.2914 128.897 76.998 128.993 76.6847 129.06C76.3714 129.127 76.0247 129.16 75.6447 129.16C75.2447 129.16 74.868 129.107 74.5147 129C74.168 128.887 73.8647 128.717 73.6047 128.49C73.3447 128.263 73.138 127.98 72.9847 127.64C72.838 127.3 72.7647 126.903 72.7647 126.45C72.7647 126.05 72.8714 125.667 73.0847 125.3C73.3047 124.927 73.658 124.593 74.1447 124.3C74.638 124.007 75.278 123.767 76.0647 123.58C76.858 123.393 77.8314 123.287 78.9847 123.26V122.52C78.9847 121.753 78.8214 121.18 78.4947 120.8C78.168 120.42 77.688 120.23 77.0547 120.23C76.628 120.23 76.268 120.283 75.9747 120.39C75.688 120.497 75.438 120.617 75.2247 120.75C75.018 120.877 74.8347 120.993 74.6747 121.1C74.5214 121.207 74.3614 121.26 74.1947 121.26C74.0614 121.26 73.9447 121.223 73.8447 121.15C73.7514 121.077 73.6747 120.99 73.6147 120.89L73.2647 120.26ZM85.7352 120.25C85.9552 120.017 86.1852 119.803 86.4252 119.61C86.6652 119.417 86.9185 119.253 87.1852 119.12C87.4585 118.98 87.7485 118.873 88.0552 118.8C88.3685 118.72 88.7018 118.68 89.0552 118.68C89.6152 118.68 90.1052 118.773 90.5252 118.96C90.9518 119.147 91.3085 119.41 91.5952 119.75C91.8818 120.083 92.0985 120.487 92.2452 120.96C92.3918 121.433 92.4652 121.957 92.4652 122.53V129H90.5052V122.53C90.5052 121.803 90.3385 121.24 90.0052 120.84C89.6718 120.433 89.1618 120.23 88.4752 120.23C87.9752 120.23 87.5052 120.35 87.0652 120.59C86.6318 120.823 86.2285 121.143 85.8552 121.55V129H83.9052V118.84H85.0752C85.3485 118.84 85.5185 118.97 85.5852 119.23L85.7352 120.25ZM104.123 118.84L98.4827 131.95C98.4227 132.097 98.3427 132.21 98.2427 132.29C98.1427 132.37 97.996 132.41 97.8027 132.41H96.3527L98.2127 128.36L94.0427 118.84H95.7427C95.9093 118.84 96.0393 118.88 96.1327 118.96C96.226 119.04 96.2927 119.13 96.3327 119.23L98.9127 125.33C98.966 125.483 99.016 125.64 99.0627 125.8C99.116 125.953 99.1593 126.107 99.1927 126.26C99.2393 126.1 99.2893 125.943 99.3427 125.79C99.396 125.63 99.4527 125.473 99.5127 125.32L102.003 119.23C102.049 119.117 102.123 119.023 102.223 118.95C102.323 118.877 102.436 118.84 102.563 118.84H104.123ZM107.344 113.68C107.637 114.167 107.834 114.68 107.934 115.22C108.04 115.753 108.054 116.283 107.974 116.81C107.894 117.33 107.72 117.833 107.454 118.32C107.187 118.8 106.834 119.23 106.394 119.61L105.794 119.23C105.68 119.157 105.63 119.07 105.644 118.97C105.657 118.863 105.694 118.78 105.754 118.72C105.92 118.52 106.064 118.273 106.184 117.98C106.31 117.68 106.394 117.357 106.434 117.01C106.474 116.657 106.46 116.293 106.394 115.92C106.327 115.547 106.187 115.18 105.974 114.82C105.88 114.667 105.854 114.53 105.894 114.41C105.934 114.29 106.02 114.203 106.154 114.15L107.344 113.68ZM116.251 120.59C116.198 120.677 116.141 120.74 116.081 120.78C116.021 120.813 115.945 120.83 115.851 120.83C115.745 120.83 115.625 120.793 115.491 120.72C115.365 120.647 115.208 120.567 115.021 120.48C114.841 120.393 114.628 120.313 114.381 120.24C114.135 120.167 113.841 120.13 113.501 120.13C113.221 120.13 112.965 120.167 112.731 120.24C112.505 120.307 112.311 120.403 112.151 120.53C111.991 120.65 111.868 120.797 111.781 120.97C111.695 121.137 111.651 121.317 111.651 121.51C111.651 121.763 111.725 121.973 111.871 122.14C112.025 122.307 112.221 122.45 112.461 122.57C112.708 122.69 112.985 122.8 113.291 122.9C113.605 122.993 113.921 123.093 114.241 123.2C114.568 123.307 114.885 123.43 115.191 123.57C115.505 123.703 115.781 123.873 116.021 124.08C116.268 124.28 116.465 124.523 116.611 124.81C116.765 125.097 116.841 125.447 116.841 125.86C116.841 126.333 116.755 126.773 116.581 127.18C116.415 127.58 116.165 127.927 115.831 128.22C115.505 128.513 115.098 128.743 114.611 128.91C114.125 129.077 113.568 129.16 112.941 129.16C112.241 129.16 111.595 129.043 111.001 128.81C110.408 128.577 109.911 128.28 109.511 127.92L109.971 127.17C110.025 127.077 110.091 127.007 110.171 126.96C110.251 126.907 110.358 126.88 110.491 126.88C110.618 126.88 110.748 126.927 110.881 127.02C111.015 127.113 111.175 127.217 111.361 127.33C111.548 127.437 111.775 127.537 112.041 127.63C112.308 127.717 112.641 127.76 113.041 127.76C113.375 127.76 113.665 127.72 113.911 127.64C114.158 127.553 114.361 127.44 114.521 127.3C114.688 127.153 114.811 126.987 114.891 126.8C114.971 126.613 115.011 126.417 115.011 126.21C115.011 125.943 114.935 125.723 114.781 125.55C114.635 125.37 114.438 125.217 114.191 125.09C113.951 124.963 113.675 124.853 113.361 124.76C113.048 124.667 112.728 124.567 112.401 124.46C112.075 124.353 111.755 124.23 111.441 124.09C111.128 123.95 110.848 123.773 110.601 123.56C110.361 123.347 110.165 123.087 110.011 122.78C109.865 122.473 109.791 122.1 109.791 121.66C109.791 121.267 109.871 120.89 110.031 120.53C110.198 120.17 110.435 119.853 110.741 119.58C111.055 119.307 111.438 119.09 111.891 118.93C112.351 118.763 112.875 118.68 113.461 118.68C114.135 118.68 114.741 118.787 115.281 119C115.828 119.213 116.295 119.507 116.681 119.88L116.251 120.59ZM134.396 116.42H129.836V129H127.716V116.42H123.136V114.64H134.396V116.42ZM138.37 118.68C139.116 118.68 139.79 118.803 140.39 119.05C140.996 119.29 141.51 119.64 141.93 120.1C142.356 120.553 142.683 121.103 142.91 121.75C143.136 122.39 143.25 123.11 143.25 123.91C143.25 124.71 143.136 125.433 142.91 126.08C142.683 126.727 142.356 127.277 141.93 127.73C141.51 128.183 140.996 128.533 140.39 128.78C139.79 129.02 139.116 129.14 138.37 129.14C137.616 129.14 136.936 129.02 136.33 128.78C135.73 128.533 135.216 128.183 134.79 127.73C134.363 127.277 134.033 126.727 133.8 126.08C133.573 125.433 133.46 124.71 133.46 123.91C133.46 123.11 133.573 122.39 133.8 121.75C134.033 121.103 134.363 120.553 134.79 120.1C135.216 119.64 135.73 119.29 136.33 119.05C136.936 118.803 137.616 118.68 138.37 118.68ZM138.37 127.62C139.33 127.62 140.046 127.297 140.52 126.65C140.993 126.003 141.23 125.093 141.23 123.92C141.23 122.747 140.993 121.837 140.52 121.19C140.046 120.537 139.33 120.21 138.37 120.21C137.396 120.21 136.67 120.537 136.19 121.19C135.716 121.837 135.48 122.747 135.48 123.92C135.48 125.093 135.716 126.003 136.19 126.65C136.67 127.297 137.396 127.62 138.37 127.62ZM148.811 129.16C147.991 129.16 147.358 128.93 146.911 128.47C146.471 128.01 146.251 127.353 146.251 126.5V120.42H145.071C144.958 120.42 144.861 120.387 144.781 120.32C144.708 120.247 144.671 120.14 144.671 120V119.21L146.321 118.98L146.761 115.95C146.788 115.837 146.838 115.75 146.911 115.69C146.991 115.623 147.091 115.59 147.211 115.59H148.201V119H151.081V120.42H148.201V126.37C148.201 126.77 148.298 127.07 148.491 127.27C148.691 127.463 148.944 127.56 149.251 127.56C149.431 127.56 149.584 127.537 149.711 127.49C149.844 127.443 149.958 127.393 150.051 127.34C150.144 127.28 150.224 127.227 150.291 127.18C150.358 127.133 150.418 127.11 150.471 127.11C150.538 127.11 150.588 127.127 150.621 127.16C150.661 127.187 150.701 127.233 150.741 127.3L151.321 128.24C151.001 128.533 150.621 128.76 150.181 128.92C149.741 129.08 149.284 129.16 148.811 129.16ZM158.737 124.49C157.944 124.517 157.27 124.58 156.717 124.68C156.164 124.773 155.714 124.9 155.367 125.06C155.02 125.22 154.77 125.41 154.617 125.63C154.464 125.843 154.387 126.083 154.387 126.35C154.387 126.603 154.427 126.823 154.507 127.01C154.594 127.19 154.707 127.34 154.847 127.46C154.994 127.573 155.164 127.657 155.357 127.71C155.55 127.763 155.76 127.79 155.987 127.79C156.287 127.79 156.56 127.76 156.807 127.7C157.06 127.64 157.297 127.557 157.517 127.45C157.737 127.337 157.947 127.2 158.147 127.04C158.347 126.88 158.544 126.697 158.737 126.49V124.49ZM153.017 120.26C153.584 119.72 154.197 119.317 154.857 119.05C155.524 118.783 156.254 118.65 157.047 118.65C157.627 118.65 158.14 118.747 158.587 118.94C159.034 119.127 159.41 119.39 159.717 119.73C160.024 120.07 160.254 120.477 160.407 120.95C160.567 121.423 160.647 121.947 160.647 122.52V129H159.777C159.584 129 159.437 128.97 159.337 128.91C159.237 128.843 159.157 128.723 159.097 128.55L158.887 127.66C158.627 127.9 158.37 128.113 158.117 128.3C157.864 128.48 157.597 128.637 157.317 128.77C157.044 128.897 156.75 128.993 156.437 129.06C156.124 129.127 155.777 129.16 155.397 129.16C154.997 129.16 154.62 129.107 154.267 129C153.92 128.887 153.617 128.717 153.357 128.49C153.097 128.263 152.89 127.98 152.737 127.64C152.59 127.3 152.517 126.903 152.517 126.45C152.517 126.05 152.624 125.667 152.837 125.3C153.057 124.927 153.41 124.593 153.897 124.3C154.39 124.007 155.03 123.767 155.817 123.58C156.61 123.393 157.584 123.287 158.737 123.26V122.52C158.737 121.753 158.574 121.18 158.247 120.8C157.92 120.42 157.44 120.23 156.807 120.23C156.38 120.23 156.02 120.283 155.727 120.39C155.44 120.497 155.19 120.617 154.977 120.75C154.77 120.877 154.587 120.993 154.427 121.1C154.274 121.207 154.114 121.26 153.947 121.26C153.814 121.26 153.697 121.223 153.597 121.15C153.504 121.077 153.427 120.99 153.367 120.89L153.017 120.26ZM165.658 114.24V129H163.698V114.24H165.658ZM177.871 123.93C178.218 123.93 178.521 123.883 178.781 123.79C179.048 123.697 179.268 123.567 179.441 123.4C179.621 123.227 179.755 123.02 179.841 122.78C179.935 122.54 179.981 122.277 179.981 121.99C179.981 121.403 179.801 120.937 179.441 120.59C179.088 120.237 178.565 120.06 177.871 120.06C177.185 120.06 176.661 120.237 176.301 120.59C175.948 120.937 175.771 121.403 175.771 121.99C175.771 122.277 175.815 122.54 175.901 122.78C175.995 123.013 176.128 123.217 176.301 123.39C176.481 123.557 176.701 123.69 176.961 123.79C177.228 123.883 177.531 123.93 177.871 123.93ZM180.981 129.53C180.981 129.29 180.915 129.1 180.781 128.96C180.648 128.813 180.465 128.7 180.231 128.62C180.005 128.533 179.738 128.473 179.431 128.44C179.125 128.4 178.801 128.37 178.461 128.35C178.128 128.33 177.785 128.313 177.431 128.3C177.078 128.28 176.738 128.247 176.411 128.2C176.065 128.373 175.778 128.583 175.551 128.83C175.331 129.077 175.221 129.367 175.221 129.7C175.221 129.913 175.275 130.113 175.381 130.3C175.495 130.487 175.665 130.647 175.891 130.78C176.125 130.92 176.415 131.027 176.761 131.1C177.115 131.18 177.535 131.22 178.021 131.22C178.501 131.22 178.925 131.177 179.291 131.09C179.658 131.01 179.965 130.893 180.211 130.74C180.465 130.593 180.655 130.417 180.781 130.21C180.915 130.003 180.981 129.777 180.981 129.53ZM182.961 119.22V119.95C182.961 120.19 182.811 120.34 182.511 120.4L181.421 120.56C181.515 120.767 181.588 120.987 181.641 121.22C181.695 121.447 181.721 121.687 181.721 121.94C181.721 122.44 181.625 122.893 181.431 123.3C181.238 123.7 180.971 124.043 180.631 124.33C180.291 124.617 179.885 124.837 179.411 124.99C178.945 125.143 178.431 125.22 177.871 125.22C177.411 125.22 176.981 125.17 176.581 125.07C176.381 125.19 176.228 125.323 176.121 125.47C176.021 125.61 175.971 125.75 175.971 125.89C175.971 126.123 176.068 126.297 176.261 126.41C176.461 126.523 176.718 126.607 177.031 126.66C177.351 126.707 177.715 126.737 178.121 126.75C178.535 126.763 178.951 126.787 179.371 126.82C179.798 126.847 180.215 126.9 180.621 126.98C181.035 127.053 181.398 127.177 181.711 127.35C182.031 127.517 182.288 127.75 182.481 128.05C182.681 128.343 182.781 128.727 182.781 129.2C182.781 129.64 182.671 130.067 182.451 130.48C182.238 130.893 181.925 131.26 181.511 131.58C181.098 131.9 180.595 132.157 180.001 132.35C179.408 132.543 178.735 132.64 177.981 132.64C177.228 132.64 176.571 132.567 176.011 132.42C175.458 132.273 174.995 132.077 174.621 131.83C174.255 131.583 173.978 131.297 173.791 130.97C173.611 130.643 173.521 130.303 173.521 129.95C173.521 129.457 173.675 129.04 173.981 128.7C174.288 128.353 174.711 128.083 175.251 127.89C174.958 127.757 174.725 127.577 174.551 127.35C174.378 127.117 174.291 126.81 174.291 126.43C174.291 126.283 174.318 126.133 174.371 125.98C174.425 125.82 174.505 125.663 174.611 125.51C174.725 125.35 174.861 125.2 175.021 125.06C175.188 124.92 175.378 124.793 175.591 124.68C175.091 124.4 174.698 124.03 174.411 123.57C174.125 123.103 173.981 122.56 173.981 121.94C173.981 121.44 174.078 120.99 174.271 120.59C174.465 120.19 174.731 119.847 175.071 119.56C175.418 119.273 175.828 119.053 176.301 118.9C176.781 118.747 177.305 118.67 177.871 118.67C178.751 118.67 179.508 118.853 180.141 119.22H182.961ZM186.99 120.79C187.317 120.123 187.71 119.6 188.17 119.22C188.63 118.84 189.184 118.65 189.83 118.65C190.05 118.65 190.257 118.677 190.45 118.73C190.65 118.777 190.824 118.85 190.97 118.95L190.84 120.42C190.794 120.6 190.684 120.69 190.51 120.69C190.417 120.69 190.277 120.673 190.09 120.64C189.904 120.6 189.704 120.58 189.49 120.58C189.177 120.58 188.9 120.627 188.66 120.72C188.42 120.807 188.204 120.94 188.01 121.12C187.824 121.293 187.657 121.51 187.51 121.77C187.364 122.023 187.227 122.313 187.1 122.64V129H185.15V118.84H186.27C186.484 118.84 186.627 118.88 186.7 118.96C186.78 119.033 186.837 119.167 186.87 119.36L186.99 120.79ZM196.834 118.68C197.58 118.68 198.254 118.803 198.854 119.05C199.46 119.29 199.974 119.64 200.394 120.1C200.82 120.553 201.147 121.103 201.374 121.75C201.6 122.39 201.714 123.11 201.714 123.91C201.714 124.71 201.6 125.433 201.374 126.08C201.147 126.727 200.82 127.277 200.394 127.73C199.974 128.183 199.46 128.533 198.854 128.78C198.254 129.02 197.58 129.14 196.834 129.14C196.08 129.14 195.4 129.02 194.794 128.78C194.194 128.533 193.68 128.183 193.254 127.73C192.827 127.277 192.497 126.727 192.264 126.08C192.037 125.433 191.924 124.71 191.924 123.91C191.924 123.11 192.037 122.39 192.264 121.75C192.497 121.103 192.827 120.553 193.254 120.1C193.68 119.64 194.194 119.29 194.794 119.05C195.4 118.803 196.08 118.68 196.834 118.68ZM196.834 127.62C197.794 127.62 198.51 127.297 198.984 126.65C199.457 126.003 199.694 125.093 199.694 123.92C199.694 122.747 199.457 121.837 198.984 121.19C198.51 120.537 197.794 120.21 196.834 120.21C195.86 120.21 195.134 120.537 194.654 121.19C194.18 121.837 193.944 122.747 193.944 123.92C193.944 125.093 194.18 126.003 194.654 126.65C195.134 127.297 195.86 127.62 196.834 127.62ZM210.28 120.59C210.227 120.677 210.17 120.74 210.11 120.78C210.05 120.813 209.974 120.83 209.88 120.83C209.774 120.83 209.654 120.793 209.52 120.72C209.394 120.647 209.237 120.567 209.05 120.48C208.87 120.393 208.657 120.313 208.41 120.24C208.164 120.167 207.87 120.13 207.53 120.13C207.25 120.13 206.994 120.167 206.76 120.24C206.534 120.307 206.34 120.403 206.18 120.53C206.02 120.65 205.897 120.797 205.81 120.97C205.724 121.137 205.68 121.317 205.68 121.51C205.68 121.763 205.754 121.973 205.9 122.14C206.054 122.307 206.25 122.45 206.49 122.57C206.737 122.69 207.014 122.8 207.32 122.9C207.634 122.993 207.95 123.093 208.27 123.2C208.597 123.307 208.914 123.43 209.22 123.57C209.534 123.703 209.81 123.873 210.05 124.08C210.297 124.28 210.494 124.523 210.64 124.81C210.794 125.097 210.87 125.447 210.87 125.86C210.87 126.333 210.784 126.773 210.61 127.18C210.444 127.58 210.194 127.927 209.86 128.22C209.534 128.513 209.127 128.743 208.64 128.91C208.154 129.077 207.597 129.16 206.97 129.16C206.27 129.16 205.624 129.043 205.03 128.81C204.437 128.577 203.94 128.28 203.54 127.92L204 127.17C204.054 127.077 204.12 127.007 204.2 126.96C204.28 126.907 204.387 126.88 204.52 126.88C204.647 126.88 204.777 126.927 204.91 127.02C205.044 127.113 205.204 127.217 205.39 127.33C205.577 127.437 205.804 127.537 206.07 127.63C206.337 127.717 206.67 127.76 207.07 127.76C207.404 127.76 207.694 127.72 207.94 127.64C208.187 127.553 208.39 127.44 208.55 127.3C208.717 127.153 208.84 126.987 208.92 126.8C209 126.613 209.04 126.417 209.04 126.21C209.04 125.943 208.964 125.723 208.81 125.55C208.664 125.37 208.467 125.217 208.22 125.09C207.98 124.963 207.704 124.853 207.39 124.76C207.077 124.667 206.757 124.567 206.43 124.46C206.104 124.353 205.784 124.23 205.47 124.09C205.157 123.95 204.877 123.773 204.63 123.56C204.39 123.347 204.194 123.087 204.04 122.78C203.894 122.473 203.82 122.1 203.82 121.66C203.82 121.267 203.9 120.89 204.06 120.53C204.227 120.17 204.464 119.853 204.77 119.58C205.084 119.307 205.467 119.09 205.92 118.93C206.38 118.763 206.904 118.68 207.49 118.68C208.164 118.68 208.77 118.787 209.31 119C209.857 119.213 210.324 119.507 210.71 119.88L210.28 120.59ZM219.372 120.59C219.318 120.677 219.262 120.74 219.202 120.78C219.142 120.813 219.065 120.83 218.972 120.83C218.865 120.83 218.745 120.793 218.612 120.72C218.485 120.647 218.328 120.567 218.142 120.48C217.962 120.393 217.748 120.313 217.502 120.24C217.255 120.167 216.962 120.13 216.622 120.13C216.342 120.13 216.085 120.167 215.852 120.24C215.625 120.307 215.432 120.403 215.272 120.53C215.112 120.65 214.988 120.797 214.902 120.97C214.815 121.137 214.772 121.317 214.772 121.51C214.772 121.763 214.845 121.973 214.992 122.14C215.145 122.307 215.342 122.45 215.582 122.57C215.828 122.69 216.105 122.8 216.412 122.9C216.725 122.993 217.042 123.093 217.362 123.2C217.688 123.307 218.005 123.43 218.312 123.57C218.625 123.703 218.902 123.873 219.142 124.08C219.388 124.28 219.585 124.523 219.732 124.81C219.885 125.097 219.962 125.447 219.962 125.86C219.962 126.333 219.875 126.773 219.702 127.18C219.535 127.58 219.285 127.927 218.952 128.22C218.625 128.513 218.218 128.743 217.732 128.91C217.245 129.077 216.688 129.16 216.062 129.16C215.362 129.16 214.715 129.043 214.122 128.81C213.528 128.577 213.032 128.28 212.632 127.92L213.092 127.17C213.145 127.077 213.212 127.007 213.292 126.96C213.372 126.907 213.478 126.88 213.612 126.88C213.738 126.88 213.868 126.927 214.002 127.02C214.135 127.113 214.295 127.217 214.482 127.33C214.668 127.437 214.895 127.537 215.162 127.63C215.428 127.717 215.762 127.76 216.162 127.76C216.495 127.76 216.785 127.72 217.032 127.64C217.278 127.553 217.482 127.44 217.642 127.3C217.808 127.153 217.932 126.987 218.012 126.8C218.092 126.613 218.132 126.417 218.132 126.21C218.132 125.943 218.055 125.723 217.902 125.55C217.755 125.37 217.558 125.217 217.312 125.09C217.072 124.963 216.795 124.853 216.482 124.76C216.168 124.667 215.848 124.567 215.522 124.46C215.195 124.353 214.875 124.23 214.562 124.09C214.248 123.95 213.968 123.773 213.722 123.56C213.482 123.347 213.285 123.087 213.132 122.78C212.985 122.473 212.912 122.1 212.912 121.66C212.912 121.267 212.992 120.89 213.152 120.53C213.318 120.17 213.555 119.853 213.862 119.58C214.175 119.307 214.558 119.09 215.012 118.93C215.472 118.763 215.995 118.68 216.582 118.68C217.255 118.68 217.862 118.787 218.402 119C218.948 119.213 219.415 119.507 219.802 119.88L219.372 120.59ZM25.32 150.5C25.64 150.92 25.9833 151.213 26.35 151.38C26.7233 151.547 27.14 151.63 27.6 151.63C28.4933 151.63 29.1833 151.31 29.67 150.67C30.1633 150.023 30.41 149.083 30.41 147.85C30.41 147.203 30.3533 146.653 30.24 146.2C30.1333 145.74 29.9733 145.367 29.76 145.08C29.5533 144.787 29.2967 144.573 28.99 144.44C28.6833 144.3 28.3367 144.23 27.95 144.23C27.3833 144.23 26.89 144.357 26.47 144.61C26.0567 144.863 25.6733 145.223 25.32 145.69V150.5ZM25.22 144.36C25.4333 144.107 25.66 143.877 25.9 143.67C26.1467 143.457 26.41 143.277 26.69 143.13C26.97 142.977 27.2667 142.86 27.58 142.78C27.9 142.693 28.24 142.65 28.6 142.65C29.18 142.65 29.7033 142.763 30.17 142.99C30.6433 143.217 31.0467 143.55 31.38 143.99C31.7133 144.43 31.97 144.973 32.15 145.62C32.3367 146.267 32.43 147.01 32.43 147.85C32.43 148.603 32.3267 149.303 32.12 149.95C31.92 150.59 31.63 151.147 31.25 151.62C30.8767 152.093 30.4167 152.467 29.87 152.74C29.33 153.007 28.72 153.14 28.04 153.14C27.4333 153.14 26.9133 153.04 26.48 152.84C26.0467 152.64 25.66 152.36 25.32 152V156.41H23.37V142.84H24.54C24.8133 142.84 24.9833 142.97 25.05 143.23L25.22 144.36ZM36.86 144.79C37.1867 144.123 37.58 143.6 38.04 143.22C38.5 142.84 39.0533 142.65 39.7 142.65C39.92 142.65 40.1267 142.677 40.32 142.73C40.52 142.777 40.6933 142.85 40.84 142.95L40.71 144.42C40.6633 144.6 40.5533 144.69 40.38 144.69C40.2867 144.69 40.1467 144.673 39.96 144.64C39.7733 144.6 39.5733 144.58 39.36 144.58C39.0467 144.58 38.77 144.627 38.53 144.72C38.29 144.807 38.0733 144.94 37.88 145.12C37.6933 145.293 37.5267 145.51 37.38 145.77C37.2333 146.023 37.0967 146.313 36.97 146.64V153H35.02V142.84H36.14C36.3533 142.84 36.4967 142.88 36.57 142.96C36.65 143.033 36.7067 143.167 36.74 143.36L36.86 144.79ZM46.7031 142.68C47.4498 142.68 48.1231 142.803 48.7231 143.05C49.3298 143.29 49.8431 143.64 50.2631 144.1C50.6898 144.553 51.0165 145.103 51.2431 145.75C51.4698 146.39 51.5831 147.11 51.5831 147.91C51.5831 148.71 51.4698 149.433 51.2431 150.08C51.0165 150.727 50.6898 151.277 50.2631 151.73C49.8431 152.183 49.3298 152.533 48.7231 152.78C48.1231 153.02 47.4498 153.14 46.7031 153.14C45.9498 153.14 45.2698 153.02 44.6631 152.78C44.0631 152.533 43.5498 152.183 43.1231 151.73C42.6965 151.277 42.3665 150.727 42.1331 150.08C41.9065 149.433 41.7931 148.71 41.7931 147.91C41.7931 147.11 41.9065 146.39 42.1331 145.75C42.3665 145.103 42.6965 144.553 43.1231 144.1C43.5498 143.64 44.0631 143.29 44.6631 143.05C45.2698 142.803 45.9498 142.68 46.7031 142.68ZM46.7031 151.62C47.6631 151.62 48.3798 151.297 48.8531 150.65C49.3265 150.003 49.5631 149.093 49.5631 147.92C49.5631 146.747 49.3265 145.837 48.8531 145.19C48.3798 144.537 47.6631 144.21 46.7031 144.21C45.7298 144.21 45.0031 144.537 44.5231 145.19C44.0498 145.837 43.8131 146.747 43.8131 147.92C43.8131 149.093 44.0498 150.003 44.5231 150.65C45.0031 151.297 45.7298 151.62 46.7031 151.62ZM54.6055 153V144.44L53.5455 144.31C53.3921 144.277 53.2655 144.223 53.1655 144.15C53.0721 144.07 53.0255 143.957 53.0255 143.81V143H54.6055V142.51C54.6055 141.89 54.7021 141.32 54.8955 140.8C55.0955 140.273 55.3921 139.82 55.7855 139.44C56.1855 139.06 56.6788 138.767 57.2655 138.56C57.8588 138.347 58.5521 138.24 59.3455 138.24C59.5988 138.24 59.8655 138.257 60.1455 138.29C60.4255 138.323 60.6621 138.373 60.8555 138.44L60.7855 139.46C60.7721 139.593 60.6888 139.663 60.5355 139.67C60.3821 139.677 60.1688 139.68 59.8955 139.68C59.2888 139.68 58.7721 139.74 58.3455 139.86C57.9188 139.98 57.5688 140.16 57.2955 140.4C57.0221 140.64 56.8221 140.943 56.6955 141.31C56.5688 141.67 56.5055 142.09 56.5055 142.57V143H62.6855V153H60.7255V144.42H56.5655V153H54.6055ZM69.0875 153.16C68.2675 153.16 67.6342 152.93 67.1875 152.47C66.7475 152.01 66.5275 151.353 66.5275 150.5V144.42H65.3475C65.2342 144.42 65.1375 144.387 65.0575 144.32C64.9842 144.247 64.9475 144.14 64.9475 144V143.21L66.5975 142.98L67.0375 139.95C67.0642 139.837 67.1142 139.75 67.1875 139.69C67.2675 139.623 67.3675 139.59 67.4875 139.59H68.4775V143H71.3575V144.42H68.4775V150.37C68.4775 150.77 68.5742 151.07 68.7675 151.27C68.9675 151.463 69.2208 151.56 69.5275 151.56C69.7075 151.56 69.8608 151.537 69.9875 151.49C70.1208 151.443 70.2342 151.393 70.3275 151.34C70.4208 151.28 70.5008 151.227 70.5675 151.18C70.6342 151.133 70.6942 151.11 70.7475 151.11C70.8142 151.11 70.8642 151.127 70.8975 151.16C70.9375 151.187 70.9775 151.233 71.0175 151.3L71.5975 152.24C71.2775 152.533 70.8975 152.76 70.4575 152.92C70.0175 153.08 69.5608 153.16 69.0875 153.16Z" fill="#121212"/>
<path fill-rule="evenodd" clip-rule="evenodd" d="M-21 231.754L-17.83 235.275C-14.66 238.795 -8.58417 245.836 -2.24417 242.316C3.83167 238.795 10.1717 224.713 16.2475 226.473C22.5875 228.234 28.6633 245.836 35.0033 245.836C41.0792 245.836 47.4192 228.234 53.495 217.672C59.835 207.111 65.9108 203.59 72.2508 200.07C78.3267 196.549 84.6667 193.029 91.0067 200.07C97.0825 207.111 103.422 224.713 109.498 237.035C115.838 249.357 121.914 256.398 128.254 252.877C134.33 249.357 140.67 235.275 146.746 231.754C153.086 228.234 159.162 235.275 165.502 228.234C171.577 221.193 177.917 200.07 183.993 196.549C190.333 193.029 196.673 207.111 202.749 219.432C209.089 231.754 215.165 242.316 221.505 249.357C227.581 256.398 233.921 259.918 239.997 252.877C246.337 245.836 252.412 228.234 258.752 224.713C264.828 221.193 271.168 231.754 277.244 231.754C283.584 231.754 289.66 221.193 292.83 215.912L296 210.631V274H292.83C289.66 274 283.584 274 277.244 274C271.168 274 264.828 274 258.752 274C252.412 274 246.337 274 239.997 274C233.921 274 227.581 274 221.505 274C215.165 274 209.089 274 202.749 274C196.673 274 190.333 274 183.993 274C177.917 274 171.577 274 165.502 274C159.162 274 153.086 274 146.746 274C140.67 274 134.33 274 128.254 274C121.914 274 115.838 274 109.498 274C103.422 274 97.0825 274 91.0067 274C84.6667 274 78.3267 274 72.2508 274C65.9108 274 59.835 274 53.495 274C47.4192 274 41.0792 274 35.0033 274C28.6633 274 22.5875 274 16.2475 274C10.1717 274 3.83167 274 -2.24417 274C-8.58417 274 -14.66 274 -17.83 274H-21V231.754Z" stroke="#0099FF" stroke-width="3"/>
<circle cx="186" cy="197" r="4" fill="#EBF5FD" stroke="#8ACBFF" stroke-width="2"/>
<line x1="186.5" y1="205" x2="186.5" y2="260" stroke="#B9B9B9" stroke-dasharray="3 3"/>
<rect x="158.5" y="171.5" width="54" height="17" rx="8.5" fill="#EBF5FD"/>
<rect x="158.5" y="171.5" width="54" height="17" rx="8.5" stroke="#54BE1B"/>
<path d="M166.659 182.452C166.835 182.436 166.99 182.399 167.123 182.34C167.256 182.279 167.368 182.201 167.459 182.108C167.552 182.015 167.622 181.907 167.667 181.784C167.715 181.659 167.739 181.521 167.739 181.372C167.739 181.239 167.714 181.124 167.663 181.028C167.615 180.932 167.548 180.849 167.463 180.78C167.378 180.708 167.278 180.648 167.163 180.6C167.048 180.549 166.926 180.503 166.795 180.46L166.659 182.452ZM166.527 177.828C166.354 177.844 166.203 177.879 166.075 177.932C165.95 177.985 165.846 178.052 165.763 178.132C165.68 178.212 165.619 178.303 165.579 178.404C165.539 178.503 165.519 178.607 165.519 178.716C165.519 178.844 165.542 178.956 165.587 179.052C165.632 179.145 165.695 179.228 165.775 179.3C165.855 179.372 165.948 179.435 166.055 179.488C166.162 179.541 166.278 179.589 166.403 179.632L166.527 177.828ZM166.843 179.772C167.035 179.833 167.224 179.899 167.411 179.968C167.598 180.037 167.766 180.127 167.915 180.236C168.064 180.345 168.184 180.483 168.275 180.648C168.368 180.811 168.415 181.015 168.415 181.26C168.415 181.5 168.375 181.725 168.295 181.936C168.215 182.147 168.098 182.332 167.943 182.492C167.791 182.652 167.603 182.783 167.379 182.884C167.158 182.983 166.904 183.041 166.619 183.06L166.571 183.76C166.568 183.811 166.548 183.855 166.511 183.892C166.474 183.932 166.427 183.952 166.371 183.952H166.107L166.167 183.052C165.844 183.02 165.55 182.94 165.283 182.812C165.019 182.681 164.791 182.516 164.599 182.316L164.815 181.988C164.836 181.959 164.863 181.935 164.895 181.916C164.927 181.897 164.962 181.888 164.999 181.888C165.05 181.888 165.107 181.913 165.171 181.964C165.235 182.015 165.314 182.072 165.407 182.136C165.503 182.2 165.615 182.263 165.743 182.324C165.874 182.385 166.03 182.427 166.211 182.448L166.355 180.324C166.168 180.268 165.984 180.205 165.803 180.136C165.624 180.067 165.463 179.975 165.319 179.86C165.178 179.745 165.063 179.603 164.975 179.432C164.89 179.261 164.847 179.047 164.847 178.788C164.847 178.593 164.884 178.404 164.959 178.22C165.036 178.033 165.148 177.868 165.295 177.724C165.442 177.58 165.622 177.463 165.835 177.372C166.048 177.279 166.292 177.227 166.567 177.216L166.607 176.64C166.61 176.589 166.628 176.544 166.663 176.504C166.7 176.464 166.748 176.444 166.807 176.444H167.071L167.019 177.232C167.296 177.267 167.536 177.339 167.739 177.448C167.944 177.557 168.126 177.691 168.283 177.848L168.111 178.112C168.058 178.192 167.996 178.232 167.927 178.232C167.89 178.232 167.843 178.216 167.787 178.184C167.734 178.149 167.668 178.109 167.591 178.064C167.516 178.019 167.427 177.975 167.323 177.932C167.222 177.889 167.106 177.857 166.975 177.836L166.843 179.772ZM172.662 179.432C172.961 179.368 173.236 179.336 173.486 179.336C173.785 179.336 174.049 179.38 174.278 179.468C174.508 179.556 174.698 179.677 174.85 179.832C175.005 179.987 175.121 180.169 175.198 180.38C175.278 180.591 175.318 180.82 175.318 181.068C175.318 181.372 175.265 181.647 175.158 181.892C175.054 182.137 174.909 182.348 174.722 182.524C174.538 182.697 174.321 182.831 174.07 182.924C173.82 183.017 173.549 183.064 173.258 183.064C173.09 183.064 172.929 183.047 172.774 183.012C172.62 182.98 172.474 182.936 172.338 182.88C172.205 182.824 172.081 182.76 171.966 182.688C171.852 182.616 171.75 182.54 171.662 182.46L171.882 182.156C171.93 182.087 171.993 182.052 172.07 182.052C172.124 182.052 172.184 182.073 172.25 182.116C172.317 182.156 172.398 182.201 172.494 182.252C172.59 182.303 172.702 182.349 172.83 182.392C172.961 182.432 173.116 182.452 173.294 182.452C173.494 182.452 173.674 182.42 173.834 182.356C173.994 182.292 174.132 182.201 174.246 182.084C174.361 181.964 174.449 181.821 174.51 181.656C174.572 181.491 174.602 181.305 174.602 181.1C174.602 180.921 174.576 180.76 174.522 180.616C174.472 180.472 174.393 180.349 174.286 180.248C174.182 180.147 174.052 180.068 173.894 180.012C173.737 179.956 173.553 179.928 173.342 179.928C173.198 179.928 173.048 179.94 172.89 179.964C172.736 179.988 172.577 180.027 172.414 180.08L171.966 179.948L172.426 177.268H175.142V177.58C175.142 177.681 175.11 177.765 175.046 177.832C174.985 177.896 174.878 177.928 174.726 177.928H172.926L172.662 179.432ZM176.535 183.968C176.514 183.949 176.499 183.932 176.491 183.916C176.483 183.9 176.479 183.88 176.479 183.856C176.479 183.837 176.484 183.819 176.495 183.8C176.508 183.781 176.523 183.764 176.539 183.748C176.566 183.719 176.599 183.68 176.639 183.632C176.682 183.584 176.724 183.527 176.767 183.46C176.81 183.396 176.848 183.324 176.883 183.244C176.92 183.167 176.947 183.084 176.963 182.996C176.955 182.999 176.946 183 176.935 183C176.927 183 176.919 183 176.911 183C176.772 183 176.659 182.955 176.571 182.864C176.486 182.771 176.443 182.652 176.443 182.508C176.443 182.383 176.486 182.276 176.571 182.188C176.659 182.1 176.775 182.056 176.919 182.056C176.999 182.056 177.07 182.071 177.131 182.1C177.192 182.129 177.243 182.171 177.283 182.224C177.326 182.275 177.358 182.335 177.379 182.404C177.4 182.471 177.411 182.544 177.411 182.624C177.411 182.744 177.394 182.869 177.359 183C177.327 183.128 177.278 183.255 177.211 183.38C177.147 183.508 177.068 183.632 176.975 183.752C176.882 183.872 176.775 183.983 176.655 184.084L176.535 183.968ZM182.388 180.136C182.388 180.637 182.333 181.072 182.224 181.44C182.117 181.805 181.97 182.108 181.784 182.348C181.597 182.588 181.376 182.767 181.12 182.884C180.866 183.001 180.594 183.06 180.304 183.06C180.01 183.06 179.737 183.001 179.484 182.884C179.233 182.767 179.014 182.588 178.828 182.348C178.641 182.108 178.494 181.805 178.388 181.44C178.281 181.072 178.228 180.637 178.228 180.136C178.228 179.635 178.281 179.2 178.388 178.832C178.494 178.464 178.641 178.16 178.828 177.92C179.014 177.677 179.233 177.497 179.484 177.38C179.737 177.263 180.01 177.204 180.304 177.204C180.594 177.204 180.866 177.263 181.12 177.38C181.376 177.497 181.597 177.677 181.784 177.92C181.97 178.16 182.117 178.464 182.224 178.832C182.333 179.2 182.388 179.635 182.388 180.136ZM181.648 180.136C181.648 179.699 181.61 179.332 181.536 179.036C181.464 178.737 181.365 178.497 181.24 178.316C181.117 178.135 180.974 178.005 180.812 177.928C180.649 177.848 180.48 177.808 180.304 177.808C180.128 177.808 179.958 177.848 179.796 177.928C179.633 178.005 179.49 178.135 179.368 178.316C179.245 178.497 179.146 178.737 179.072 179.036C179 179.332 178.964 179.699 178.964 180.136C178.964 180.573 179 180.94 179.072 181.236C179.146 181.532 179.245 181.771 179.368 181.952C179.49 182.133 179.633 182.264 179.796 182.344C179.958 182.421 180.128 182.46 180.304 182.46C180.48 182.46 180.649 182.421 180.812 182.344C180.974 182.264 181.117 182.133 181.24 181.952C181.365 181.771 181.464 181.532 181.536 181.236C181.61 180.94 181.648 180.573 181.648 180.136ZM187.188 180.136C187.188 180.637 187.133 181.072 187.024 181.44C186.917 181.805 186.771 182.108 186.584 182.348C186.397 182.588 186.176 182.767 185.92 182.884C185.667 183.001 185.395 183.06 185.104 183.06C184.811 183.06 184.537 183.001 184.284 182.884C184.033 182.767 183.815 182.588 183.628 182.348C183.441 182.108 183.295 181.805 183.188 181.44C183.081 181.072 183.028 180.637 183.028 180.136C183.028 179.635 183.081 179.2 183.188 178.832C183.295 178.464 183.441 178.16 183.628 177.92C183.815 177.677 184.033 177.497 184.284 177.38C184.537 177.263 184.811 177.204 185.104 177.204C185.395 177.204 185.667 177.263 185.92 177.38C186.176 177.497 186.397 177.677 186.584 177.92C186.771 178.16 186.917 178.464 187.024 178.832C187.133 179.2 187.188 179.635 187.188 180.136ZM186.448 180.136C186.448 179.699 186.411 179.332 186.336 179.036C186.264 178.737 186.165 178.497 186.04 178.316C185.917 178.135 185.775 178.005 185.612 177.928C185.449 177.848 185.28 177.808 185.104 177.808C184.928 177.808 184.759 177.848 184.596 177.928C184.433 178.005 184.291 178.135 184.168 178.316C184.045 178.497 183.947 178.737 183.872 179.036C183.8 179.332 183.764 179.699 183.764 180.136C183.764 180.573 183.8 180.94 183.872 181.236C183.947 181.532 184.045 181.771 184.168 181.952C184.291 182.133 184.433 182.264 184.596 182.344C184.759 182.421 184.928 182.46 185.104 182.46C185.28 182.46 185.449 182.421 185.612 182.344C185.775 182.264 185.917 182.133 186.04 181.952C186.165 181.771 186.264 181.532 186.336 181.236C186.411 180.94 186.448 180.573 186.448 180.136ZM191.989 180.136C191.989 180.637 191.934 181.072 191.825 181.44C191.718 181.805 191.571 182.108 191.385 182.348C191.198 182.588 190.977 182.767 190.721 182.884C190.467 183.001 190.195 183.06 189.905 183.06C189.611 183.06 189.338 183.001 189.085 182.884C188.834 182.767 188.615 182.588 188.429 182.348C188.242 182.108 188.095 181.805 187.989 181.44C187.882 181.072 187.829 180.637 187.829 180.136C187.829 179.635 187.882 179.2 187.989 178.832C188.095 178.464 188.242 178.16 188.429 177.92C188.615 177.677 188.834 177.497 189.085 177.38C189.338 177.263 189.611 177.204 189.905 177.204C190.195 177.204 190.467 177.263 190.721 177.38C190.977 177.497 191.198 177.677 191.385 177.92C191.571 178.16 191.718 178.464 191.825 178.832C191.934 179.2 191.989 179.635 191.989 180.136ZM191.249 180.136C191.249 179.699 191.211 179.332 191.137 179.036C191.065 178.737 190.966 178.497 190.841 178.316C190.718 178.135 190.575 178.005 190.413 177.928C190.25 177.848 190.081 177.808 189.905 177.808C189.729 177.808 189.559 177.848 189.397 177.928C189.234 178.005 189.091 178.135 188.969 178.316C188.846 178.497 188.747 178.737 188.673 179.036C188.601 179.332 188.565 179.699 188.565 180.136C188.565 180.573 188.601 180.94 188.673 181.236C188.747 181.532 188.846 181.771 188.969 181.952C189.091 182.133 189.234 182.264 189.397 182.344C189.559 182.421 189.729 182.46 189.905 182.46C190.081 182.46 190.25 182.421 190.413 182.344C190.575 182.264 190.718 182.133 190.841 181.952C190.966 181.771 191.065 181.532 191.137 181.236C191.211 180.94 191.249 180.573 191.249 180.136ZM192.909 183.968C192.888 183.949 192.873 183.932 192.865 183.916C192.857 183.9 192.853 183.88 192.853 183.856C192.853 183.837 192.859 183.819 192.869 183.8C192.883 183.781 192.897 183.764 192.913 183.748C192.94 183.719 192.973 183.68 193.013 183.632C193.056 183.584 193.099 183.527 193.141 183.46C193.184 183.396 193.223 183.324 193.257 183.244C193.295 183.167 193.321 183.084 193.337 182.996C193.329 182.999 193.32 183 193.309 183C193.301 183 193.293 183 193.285 183C193.147 183 193.033 182.955 192.945 182.864C192.86 182.771 192.817 182.652 192.817 182.508C192.817 182.383 192.86 182.276 192.945 182.188C193.033 182.1 193.149 182.056 193.293 182.056C193.373 182.056 193.444 182.071 193.505 182.1C193.567 182.129 193.617 182.171 193.657 182.224C193.7 182.275 193.732 182.335 193.753 182.404C193.775 182.471 193.785 182.544 193.785 182.624C193.785 182.744 193.768 182.869 193.733 183C193.701 183.128 193.652 183.255 193.585 183.38C193.521 183.508 193.443 183.632 193.349 183.752C193.256 183.872 193.149 183.983 193.029 184.084L192.909 183.968ZM198.762 180.136C198.762 180.637 198.707 181.072 198.598 181.44C198.491 181.805 198.345 182.108 198.158 182.348C197.971 182.588 197.75 182.767 197.494 182.884C197.241 183.001 196.969 183.06 196.678 183.06C196.385 183.06 196.111 183.001 195.858 182.884C195.607 182.767 195.389 182.588 195.202 182.348C195.015 182.108 194.869 181.805 194.762 181.44C194.655 181.072 194.602 180.637 194.602 180.136C194.602 179.635 194.655 179.2 194.762 178.832C194.869 178.464 195.015 178.16 195.202 177.92C195.389 177.677 195.607 177.497 195.858 177.38C196.111 177.263 196.385 177.204 196.678 177.204C196.969 177.204 197.241 177.263 197.494 177.38C197.75 177.497 197.971 177.677 198.158 177.92C198.345 178.16 198.491 178.464 198.598 178.832C198.707 179.2 198.762 179.635 198.762 180.136ZM198.022 180.136C198.022 179.699 197.985 179.332 197.91 179.036C197.838 178.737 197.739 178.497 197.614 178.316C197.491 178.135 197.349 178.005 197.186 177.928C197.023 177.848 196.854 177.808 196.678 177.808C196.502 177.808 196.333 177.848 196.17 177.928C196.007 178.005 195.865 178.135 195.742 178.316C195.619 178.497 195.521 178.737 195.446 179.036C195.374 179.332 195.338 179.699 195.338 180.136C195.338 180.573 195.374 180.94 195.446 181.236C195.521 181.532 195.619 181.771 195.742 181.952C195.865 182.133 196.007 182.264 196.17 182.344C196.333 182.421 196.502 182.46 196.678 182.46C196.854 182.46 197.023 182.421 197.186 182.344C197.349 182.264 197.491 182.133 197.614 181.952C197.739 181.771 197.838 181.532 197.91 181.236C197.985 180.94 198.022 180.573 198.022 180.136ZM203.562 180.136C203.562 180.637 203.508 181.072 203.398 181.44C203.292 181.805 203.145 182.108 202.958 182.348C202.772 182.588 202.55 182.767 202.294 182.884C202.041 183.001 201.769 183.06 201.478 183.06C201.185 183.06 200.912 183.001 200.658 182.884C200.408 182.767 200.189 182.588 200.002 182.348C199.816 182.108 199.669 181.805 199.562 181.44C199.456 181.072 199.402 180.637 199.402 180.136C199.402 179.635 199.456 179.2 199.562 178.832C199.669 178.464 199.816 178.16 200.002 177.92C200.189 177.677 200.408 177.497 200.658 177.38C200.912 177.263 201.185 177.204 201.478 177.204C201.769 177.204 202.041 177.263 202.294 177.38C202.55 177.497 202.772 177.677 202.958 177.92C203.145 178.16 203.292 178.464 203.398 178.832C203.508 179.2 203.562 179.635 203.562 180.136ZM202.822 180.136C202.822 179.699 202.785 179.332 202.71 179.036C202.638 178.737 202.54 178.497 202.414 178.316C202.292 178.135 202.149 178.005 201.986 177.928C201.824 177.848 201.654 177.808 201.478 177.808C201.302 177.808 201.133 177.848 200.97 177.928C200.808 178.005 200.665 178.135 200.542 178.316C200.42 178.497 200.321 178.737 200.246 179.036C200.174 179.332 200.138 179.699 200.138 180.136C200.138 180.573 200.174 180.94 200.246 181.236C200.321 181.532 200.42 181.771 200.542 181.952C200.665 182.133 200.808 182.264 200.97 182.344C201.133 182.421 201.302 182.46 201.478 182.46C201.654 182.46 201.824 182.421 201.986 182.344C202.149 182.264 202.292 182.133 202.414 181.952C202.54 181.771 202.638 181.532 202.71 181.236C202.785 180.94 202.822 180.573 202.822 180.136ZM208.363 180.136C208.363 180.637 208.308 181.072 208.199 181.44C208.092 181.805 207.946 182.108 207.759 182.348C207.572 182.588 207.351 182.767 207.095 182.884C206.842 183.001 206.57 183.06 206.279 183.06C205.986 183.06 205.712 183.001 205.459 182.884C205.208 182.767 204.99 182.588 204.803 182.348C204.616 182.108 204.47 181.805 204.363 181.44C204.256 181.072 204.203 180.637 204.203 180.136C204.203 179.635 204.256 179.2 204.363 178.832C204.47 178.464 204.616 178.16 204.803 177.92C204.99 177.677 205.208 177.497 205.459 177.38C205.712 177.263 205.986 177.204 206.279 177.204C206.57 177.204 206.842 177.263 207.095 177.38C207.351 177.497 207.572 177.677 207.759 177.92C207.946 178.16 208.092 178.464 208.199 178.832C208.308 179.2 208.363 179.635 208.363 180.136ZM207.623 180.136C207.623 179.699 207.586 179.332 207.511 179.036C207.439 178.737 207.34 178.497 207.215 178.316C207.092 178.135 206.95 178.005 206.787 177.928C206.624 177.848 206.455 177.808 206.279 177.808C206.103 177.808 205.934 177.848 205.771 177.928C205.608 178.005 205.466 178.135 205.343 178.316C205.22 178.497 205.122 178.737 205.047 179.036C204.975 179.332 204.939 179.699 204.939 180.136C204.939 180.573 204.975 180.94 205.047 181.236C205.122 181.532 205.22 181.771 205.343 181.952C205.466 182.133 205.608 182.264 205.771 182.344C205.934 182.421 206.103 182.46 206.279 182.46C206.455 182.46 206.624 182.421 206.787 182.344C206.95 182.264 207.092 182.133 207.215 181.952C207.34 181.771 207.439 181.532 207.511 181.236C207.586 180.94 207.623 180.573 207.623 180.136Z" fill="#54BE1B"/>
</g>
<defs>
<clipPath id="clip0_16_11104">
<rect width="290" height="268" rx="16" fill="white"/>
</clipPath>
</defs>
</svg>
