<svg width="99" height="36" viewBox="0 0 99 36" fill="none" xmlns="http://www.w3.org/2000/svg">
<rect x="1" y="1" width="97.4" height="34" rx="17" fill="#FFE4E4"/>
<rect x="1" y="1" width="97.4" height="34" rx="17" stroke="#C4191C"/>
<path d="M21.45 24.75V23.25C21.45 22.4544 21.1339 21.6913 20.5713 21.1287C20.0087 20.5661 19.2456 20.25 18.45 20.25H13.95C13.1543 20.25 12.3912 20.5661 11.8286 21.1287C11.266 21.6913 10.95 22.4544 10.95 23.25V24.75" stroke="#C3191C" stroke-width="1.4" stroke-linecap="round" stroke-linejoin="round"/>
<path d="M16.2 17.25C17.8568 17.25 19.2 15.9069 19.2 14.25C19.2 12.5931 17.8568 11.25 16.2 11.25C14.5431 11.25 13.2 12.5931 13.2 14.25C13.2 15.9069 14.5431 17.25 16.2 17.25Z" stroke="#C3191C" stroke-width="1.4" stroke-linecap="round" stroke-linejoin="round"/>
<path d="M35.33 16.88V23H34.04V16.88H35.33ZM35.546 15.032C35.546 15.148 35.522 15.258 35.474 15.362C35.43 15.466 35.368 15.558 35.288 15.638C35.208 15.714 35.114 15.776 35.006 15.824C34.902 15.868 34.79 15.89 34.67 15.89C34.554 15.89 34.444 15.868 34.34 15.824C34.24 15.776 34.152 15.714 34.076 15.638C34 15.558 33.938 15.466 33.89 15.362C33.846 15.258 33.824 15.148 33.824 15.032C33.824 14.912 33.846 14.8 33.89 14.696C33.938 14.592 34 14.502 34.076 14.426C34.152 14.346 34.24 14.284 34.34 14.24C34.444 14.192 34.554 14.168 34.67 14.168C34.79 14.168 34.902 14.192 35.006 14.24C35.114 14.284 35.208 14.346 35.288 14.426C35.368 14.502 35.43 14.592 35.474 14.696C35.522 14.8 35.546 14.912 35.546 15.032ZM38.3968 17.69C38.5288 17.554 38.6648 17.432 38.8048 17.324C38.9488 17.212 39.1008 17.116 39.2608 17.036C39.4208 16.956 39.5908 16.894 39.7708 16.85C39.9508 16.806 40.1468 16.784 40.3588 16.784C40.6948 16.784 40.9888 16.84 41.2408 16.952C41.4968 17.064 41.7108 17.222 41.8828 17.426C42.0588 17.63 42.1908 17.876 42.2788 18.164C42.3668 18.448 42.4108 18.762 42.4108 19.106V23H41.1268V19.106C41.1268 18.694 41.0308 18.374 40.8388 18.146C40.6508 17.918 40.3628 17.804 39.9748 17.804C39.6868 17.804 39.4188 17.87 39.1708 18.002C38.9268 18.134 38.6968 18.314 38.4808 18.542V23H37.1908V16.88H37.9708C38.1468 16.88 38.2588 16.962 38.3068 17.126L38.3968 17.69ZM48.0634 18.386C47.8834 18.154 47.6854 17.992 47.4694 17.9C47.2534 17.808 47.0194 17.762 46.7674 17.762C46.2634 17.762 45.8694 17.948 45.5854 18.32C45.3014 18.688 45.1594 19.234 45.1594 19.958C45.1594 20.334 45.1914 20.656 45.2554 20.924C45.3194 21.188 45.4114 21.404 45.5314 21.572C45.6514 21.74 45.7974 21.862 45.9694 21.938C46.1414 22.014 46.3354 22.052 46.5514 22.052C46.8794 22.052 47.1614 21.982 47.3974 21.842C47.6374 21.698 47.8594 21.496 48.0634 21.236V18.386ZM49.3534 14.12V23H48.5734C48.4014 23 48.2914 22.918 48.2434 22.754L48.1294 22.088C47.8734 22.388 47.5814 22.63 47.2534 22.814C46.9294 22.998 46.5514 23.09 46.1194 23.09C45.7754 23.09 45.4634 23.022 45.1834 22.886C44.9034 22.746 44.6634 22.544 44.4634 22.28C44.2634 22.016 44.1074 21.69 43.9954 21.302C43.8874 20.91 43.8334 20.462 43.8334 19.958C43.8334 19.502 43.8934 19.08 44.0134 18.692C44.1374 18.304 44.3134 17.968 44.5414 17.684C44.7694 17.396 45.0454 17.172 45.3694 17.012C45.6974 16.848 46.0634 16.766 46.4674 16.766C46.8274 16.766 47.1334 16.824 47.3854 16.94C47.6374 17.052 47.8634 17.21 48.0634 17.414V14.12H49.3534ZM52.5148 16.88V23H51.2248V16.88H52.5148ZM52.7308 15.032C52.7308 15.148 52.7068 15.258 52.6588 15.362C52.6148 15.466 52.5528 15.558 52.4728 15.638C52.3928 15.714 52.2988 15.776 52.1908 15.824C52.0868 15.868 51.9748 15.89 51.8548 15.89C51.7388 15.89 51.6288 15.868 51.5248 15.824C51.4248 15.776 51.3368 15.714 51.2608 15.638C51.1848 15.558 51.1228 15.466 51.0748 15.362C51.0308 15.258 51.0088 15.148 51.0088 15.032C51.0088 14.912 51.0308 14.8 51.0748 14.696C51.1228 14.592 51.1848 14.502 51.2608 14.426C51.3368 14.346 51.4248 14.284 51.5248 14.24C51.6288 14.192 51.7388 14.168 51.8548 14.168C51.9748 14.168 52.0868 14.192 52.1908 14.24C52.2988 14.284 52.3928 14.346 52.4728 14.426C52.5528 14.502 52.6148 14.592 52.6588 14.696C52.7068 14.8 52.7308 14.912 52.7308 15.032ZM59.7636 16.88L57.3036 23H56.1396L53.6796 16.88H54.7416C54.8416 16.88 54.9236 16.906 54.9876 16.958C55.0556 17.006 55.0996 17.064 55.1196 17.132L56.4756 20.696C56.5316 20.864 56.5816 21.03 56.6256 21.194C56.6696 21.358 56.7076 21.524 56.7396 21.692C56.7716 21.524 56.8096 21.36 56.8536 21.2C56.9016 21.036 56.9536 20.868 57.0096 20.696L58.3896 17.132C58.4136 17.06 58.4576 17 58.5216 16.952C58.5856 16.904 58.6636 16.88 58.7556 16.88H59.7636ZM62.2292 16.88V23H60.9392V16.88H62.2292ZM62.4452 15.032C62.4452 15.148 62.4212 15.258 62.3732 15.362C62.3292 15.466 62.2672 15.558 62.1872 15.638C62.1072 15.714 62.0132 15.776 61.9052 15.824C61.8012 15.868 61.6892 15.89 61.5692 15.89C61.4532 15.89 61.3432 15.868 61.2392 15.824C61.1392 15.776 61.0512 15.714 60.9752 15.638C60.8992 15.558 60.8372 15.466 60.7892 15.362C60.7452 15.258 60.7232 15.148 60.7232 15.032C60.7232 14.912 60.7452 14.8 60.7892 14.696C60.8372 14.592 60.8992 14.502 60.9752 14.426C61.0512 14.346 61.1392 14.284 61.2392 14.24C61.3432 14.192 61.4532 14.168 61.5692 14.168C61.6892 14.168 61.8012 14.192 61.9052 14.24C62.0132 14.284 62.1072 14.346 62.1872 14.426C62.2672 14.502 62.3292 14.592 62.3732 14.696C62.4212 14.8 62.4452 14.912 62.4452 15.032ZM67.996 18.386C67.816 18.154 67.618 17.992 67.402 17.9C67.186 17.808 66.952 17.762 66.7 17.762C66.196 17.762 65.802 17.948 65.518 18.32C65.234 18.688 65.092 19.234 65.092 19.958C65.092 20.334 65.124 20.656 65.188 20.924C65.252 21.188 65.344 21.404 65.464 21.572C65.584 21.74 65.73 21.862 65.902 21.938C66.074 22.014 66.268 22.052 66.484 22.052C66.812 22.052 67.094 21.982 67.33 21.842C67.57 21.698 67.792 21.496 67.996 21.236V18.386ZM69.286 14.12V23H68.506C68.334 23 68.224 22.918 68.176 22.754L68.062 22.088C67.806 22.388 67.514 22.63 67.186 22.814C66.862 22.998 66.484 23.09 66.052 23.09C65.708 23.09 65.396 23.022 65.116 22.886C64.836 22.746 64.596 22.544 64.396 22.28C64.196 22.016 64.04 21.69 63.928 21.302C63.82 20.91 63.766 20.462 63.766 19.958C63.766 19.502 63.826 19.08 63.946 18.692C64.07 18.304 64.246 17.968 64.474 17.684C64.702 17.396 64.978 17.172 65.302 17.012C65.63 16.848 65.996 16.766 66.4 16.766C66.76 16.766 67.066 16.824 67.318 16.94C67.57 17.052 67.796 17.21 67.996 17.414V14.12H69.286ZM76.2635 16.88V23H75.4835C75.3115 23 75.2015 22.918 75.1535 22.754L75.0575 22.184C74.9295 22.32 74.7935 22.444 74.6495 22.556C74.5095 22.668 74.3595 22.764 74.1995 22.844C74.0395 22.924 73.8675 22.986 73.6835 23.03C73.5035 23.074 73.3095 23.096 73.1015 23.096C72.7655 23.096 72.4695 23.04 72.2135 22.928C71.9575 22.816 71.7415 22.658 71.5655 22.454C71.3935 22.25 71.2635 22.006 71.1755 21.722C71.0875 21.434 71.0435 21.118 71.0435 20.774V16.88H72.3335V20.774C72.3335 21.186 72.4275 21.506 72.6155 21.734C72.8075 21.962 73.0975 22.076 73.4855 22.076C73.7695 22.076 74.0335 22.012 74.2775 21.884C74.5255 21.752 74.7575 21.572 74.9735 21.344V16.88H76.2635ZM81.34 20.324C80.88 20.34 80.492 20.378 80.176 20.438C79.86 20.494 79.604 20.568 79.408 20.66C79.212 20.748 79.07 20.854 78.982 20.978C78.898 21.102 78.856 21.238 78.856 21.386C78.856 21.53 78.878 21.654 78.922 21.758C78.97 21.858 79.034 21.942 79.114 22.01C79.198 22.074 79.294 22.122 79.402 22.154C79.514 22.182 79.636 22.196 79.768 22.196C80.104 22.196 80.392 22.134 80.632 22.01C80.876 21.882 81.112 21.698 81.34 21.458V20.324ZM77.92 17.732C78.612 17.088 79.436 16.766 80.392 16.766C80.744 16.766 81.056 16.824 81.328 16.94C81.604 17.052 81.834 17.212 82.018 17.42C82.206 17.628 82.348 17.876 82.444 18.164C82.544 18.448 82.594 18.764 82.594 19.112V23H82.018C81.894 23 81.8 22.982 81.736 22.946C81.672 22.906 81.618 22.828 81.574 22.712L81.448 22.214C81.292 22.354 81.138 22.48 80.986 22.592C80.834 22.7 80.676 22.792 80.512 22.868C80.352 22.944 80.178 23 79.99 23.036C79.806 23.076 79.602 23.096 79.378 23.096C79.13 23.096 78.898 23.062 78.682 22.994C78.47 22.926 78.286 22.824 78.13 22.688C77.974 22.548 77.85 22.376 77.758 22.172C77.67 21.968 77.626 21.728 77.626 21.452C77.626 21.216 77.688 20.986 77.812 20.762C77.94 20.538 78.148 20.338 78.436 20.162C78.728 19.982 79.11 19.834 79.582 19.718C80.058 19.602 80.644 19.536 81.34 19.52V19.112C81.34 18.672 81.246 18.344 81.058 18.128C80.87 17.912 80.594 17.804 80.23 17.804C79.982 17.804 79.774 17.836 79.606 17.9C79.438 17.96 79.292 18.026 79.168 18.098C79.044 18.17 78.934 18.238 78.838 18.302C78.742 18.362 78.64 18.392 78.532 18.392C78.444 18.392 78.368 18.37 78.304 18.326C78.244 18.278 78.194 18.22 78.154 18.152L77.92 17.732ZM85.6592 14.12V23H84.3692V14.12H85.6592ZM91.1454 17.99C91.1134 18.046 91.0774 18.086 91.0374 18.11C90.9974 18.134 90.9474 18.146 90.8874 18.146C90.8194 18.146 90.7454 18.126 90.6654 18.086C90.5854 18.042 90.4914 17.994 90.3834 17.942C90.2754 17.89 90.1474 17.844 89.9994 17.804C89.8554 17.76 89.6854 17.738 89.4894 17.738C89.3294 17.738 89.1834 17.758 89.0514 17.798C88.9234 17.834 88.8134 17.888 88.7214 17.96C88.6334 18.028 88.5654 18.11 88.5174 18.206C88.4694 18.298 88.4454 18.398 88.4454 18.506C88.4454 18.65 88.4894 18.77 88.5774 18.866C88.6654 18.962 88.7814 19.046 88.9254 19.118C89.0694 19.186 89.2334 19.248 89.4174 19.304C89.6014 19.36 89.7894 19.42 89.9814 19.484C90.1734 19.548 90.3614 19.622 90.5454 19.706C90.7294 19.79 90.8934 19.894 91.0374 20.018C91.1814 20.138 91.2974 20.286 91.3854 20.462C91.4734 20.634 91.5174 20.844 91.5174 21.092C91.5174 21.38 91.4654 21.646 91.3614 21.89C91.2574 22.134 91.1054 22.346 90.9054 22.526C90.7054 22.706 90.4554 22.846 90.1554 22.946C89.8594 23.046 89.5194 23.096 89.1354 23.096C88.9234 23.096 88.7174 23.076 88.5174 23.036C88.3214 23 88.1334 22.95 87.9534 22.886C87.7774 22.818 87.6114 22.738 87.4554 22.646C87.3034 22.554 87.1674 22.454 87.0474 22.346L87.3474 21.854C87.3834 21.794 87.4274 21.748 87.4794 21.716C87.5354 21.68 87.6034 21.662 87.6834 21.662C87.7674 21.662 87.8494 21.69 87.9294 21.746C88.0134 21.798 88.1094 21.856 88.2174 21.92C88.3294 21.984 88.4634 22.044 88.6194 22.1C88.7754 22.152 88.9694 22.178 89.2014 22.178C89.3934 22.178 89.5594 22.156 89.6994 22.112C89.8394 22.064 89.9554 22 90.0474 21.92C90.1394 21.84 90.2074 21.75 90.2514 21.65C90.2954 21.546 90.3174 21.436 90.3174 21.32C90.3174 21.164 90.2734 21.036 90.1854 20.936C90.0974 20.836 89.9794 20.75 89.8314 20.678C89.6874 20.606 89.5214 20.542 89.3334 20.486C89.1494 20.43 88.9614 20.37 88.7694 20.306C88.5774 20.242 88.3874 20.168 88.1994 20.084C88.0154 20 87.8494 19.894 87.7014 19.766C87.5574 19.634 87.4414 19.476 87.3534 19.292C87.2654 19.104 87.2214 18.876 87.2214 18.608C87.2214 18.364 87.2694 18.132 87.3654 17.912C87.4654 17.692 87.6094 17.498 87.7974 17.33C87.9894 17.162 88.2234 17.03 88.4994 16.934C88.7794 16.834 89.1014 16.784 89.4654 16.784C89.8774 16.784 90.2514 16.85 90.5874 16.982C90.9234 17.114 91.2054 17.294 91.4334 17.522L91.1454 17.99Z" fill="#C3191C"/>
</svg>
