<svg width="148" height="52" viewBox="0 0 148 52" fill="none" xmlns="http://www.w3.org/2000/svg">
<rect x="0.5" y="6" width="40" height="40" rx="20" fill="#EBF5FD"/>
<path d="M20.5 36C26.0228 36 30.5 31.5228 30.5 26C30.5 20.4772 26.0228 16 20.5 16C14.9772 16 10.5 20.4772 10.5 26C10.5 31.5228 14.9772 36 20.5 36Z" stroke="#3882B7" stroke-width="1.4" stroke-linecap="round" stroke-linejoin="round"/>
<path d="M18.5 22L24.5 26L18.5 30V22Z" stroke="#3882B7" stroke-width="1.4" stroke-linecap="round" stroke-linejoin="round"/>
<path d="M58.5141 21.42L54.4261 31.5H52.9491L48.8611 21.42H50.1701C50.3148 21.42 50.4315 21.4573 50.5201 21.532C50.6088 21.602 50.6765 21.6907 50.7231 21.798L53.3201 28.371C53.4601 28.7397 53.5885 29.1643 53.7051 29.645C53.7565 29.407 53.8101 29.1807 53.8661 28.966C53.9268 28.7513 53.9921 28.553 54.0621 28.371L56.6521 21.798C56.6895 21.7047 56.7548 21.6183 56.8481 21.539C56.9415 21.4597 57.0581 21.42 57.1981 21.42H58.5141ZM61.2585 24.36V31.5H59.7535V24.36H61.2585ZM61.5105 22.204C61.5105 22.3393 61.4825 22.4677 61.4265 22.589C61.3751 22.7103 61.3028 22.8177 61.2095 22.911C61.1161 22.9997 61.0065 23.072 60.8805 23.128C60.7591 23.1793 60.6285 23.205 60.4885 23.205C60.3531 23.205 60.2248 23.1793 60.1035 23.128C59.9868 23.072 59.8841 22.9997 59.7955 22.911C59.7068 22.8177 59.6345 22.7103 59.5785 22.589C59.5271 22.4677 59.5015 22.3393 59.5015 22.204C59.5015 22.064 59.5271 21.9333 59.5785 21.812C59.6345 21.6907 59.7068 21.5857 59.7955 21.497C59.8841 21.4037 59.9868 21.3313 60.1035 21.28C60.2248 21.224 60.3531 21.196 60.4885 21.196C60.6285 21.196 60.7591 21.224 60.8805 21.28C61.0065 21.3313 61.1161 21.4037 61.2095 21.497C61.3028 21.5857 61.3751 21.6907 61.4265 21.812C61.4825 21.9333 61.5105 22.064 61.5105 22.204ZM68.1125 27.125C68.1125 26.873 68.0751 26.6397 68.0005 26.425C67.9305 26.2057 67.8255 26.0167 67.6855 25.858C67.5455 25.6947 67.3705 25.5687 67.1605 25.48C66.9551 25.3867 66.7171 25.34 66.4465 25.34C65.9005 25.34 65.4711 25.4963 65.1585 25.809C64.8458 26.1217 64.6475 26.5603 64.5635 27.125H68.1125ZM64.5215 28.049C64.5401 28.455 64.6031 28.8073 64.7105 29.106C64.8178 29.4 64.9601 29.645 65.1375 29.841C65.3195 30.037 65.5341 30.184 65.7815 30.282C66.0335 30.3753 66.3135 30.422 66.6215 30.422C66.9155 30.422 67.1698 30.3893 67.3845 30.324C67.5991 30.254 67.7858 30.1793 67.9445 30.1C68.1031 30.016 68.2385 29.9413 68.3505 29.876C68.4625 29.806 68.5651 29.771 68.6585 29.771C68.7798 29.771 68.8731 29.8177 68.9385 29.911L69.3655 30.464C69.1881 30.674 68.9875 30.8513 68.7635 30.996C68.5395 31.1407 68.3015 31.2597 68.0495 31.353C67.7975 31.4417 67.5385 31.5047 67.2725 31.542C67.0065 31.584 66.7475 31.605 66.4955 31.605C66.0008 31.605 65.5411 31.5233 65.1165 31.36C64.6965 31.192 64.3301 30.947 64.0175 30.625C63.7095 30.303 63.4668 29.904 63.2895 29.428C63.1168 28.952 63.0305 28.4037 63.0305 27.783C63.0305 27.2883 63.1075 26.8263 63.2615 26.397C63.4201 25.9677 63.6441 25.5943 63.9335 25.277C64.2275 24.9597 64.5821 24.71 64.9975 24.528C65.4175 24.3413 65.8911 24.248 66.4185 24.248C66.8571 24.248 67.2631 24.3203 67.6365 24.465C68.0098 24.605 68.3318 24.8127 68.6025 25.088C68.8731 25.3633 69.0831 25.7017 69.2325 26.103C69.3865 26.4997 69.4635 26.9523 69.4635 27.461C69.4635 27.6943 69.4378 27.8507 69.3865 27.93C69.3351 28.0093 69.2418 28.049 69.1065 28.049H64.5215ZM81.0959 24.36L78.8069 31.5H77.6099C77.4699 31.5 77.3719 31.409 77.3159 31.227L75.8949 26.782C75.8576 26.656 75.8226 26.53 75.7899 26.404C75.7619 26.278 75.7363 26.1543 75.7129 26.033C75.6616 26.285 75.5986 26.537 75.5239 26.789L74.0819 31.227C74.0306 31.409 73.9209 31.5 73.7529 31.5H72.6119L70.3229 24.36H71.5129C71.6296 24.36 71.7253 24.3903 71.7999 24.451C71.8793 24.507 71.9306 24.5747 71.9539 24.654L73.1439 28.812C73.1906 29.0033 73.2303 29.19 73.2629 29.372C73.3003 29.5493 73.3329 29.7267 73.3609 29.904C73.4076 29.7267 73.4566 29.5493 73.5079 29.372C73.5593 29.19 73.6129 29.0033 73.6689 28.812L75.0059 24.633C75.0293 24.549 75.0759 24.4813 75.1459 24.43C75.2206 24.374 75.3093 24.346 75.4119 24.346H76.0699C76.1773 24.346 76.2683 24.374 76.3429 24.43C76.4176 24.4813 76.4666 24.549 76.4899 24.633L77.7919 28.812C77.8479 29.0033 77.8993 29.19 77.9459 29.372C77.9973 29.554 78.0439 29.736 78.0859 29.918C78.1186 29.7407 78.1536 29.561 78.1909 29.379C78.2283 29.197 78.2726 29.008 78.3239 28.812L79.5349 24.654C79.5629 24.57 79.6143 24.5 79.6889 24.444C79.7636 24.388 79.8546 24.36 79.9619 24.36H81.0959ZM87.4861 21.14V31.5H85.9811V21.14H87.4861ZM91.1917 24.36V31.5H89.6867V24.36H91.1917ZM91.4437 22.204C91.4437 22.3393 91.4157 22.4677 91.3597 22.589C91.3083 22.7103 91.236 22.8177 91.1427 22.911C91.0493 22.9997 90.9397 23.072 90.8137 23.128C90.6923 23.1793 90.5617 23.205 90.4217 23.205C90.2863 23.205 90.158 23.1793 90.0367 23.128C89.92 23.072 89.8173 22.9997 89.7287 22.911C89.64 22.8177 89.5677 22.7103 89.5117 22.589C89.4603 22.4677 89.4347 22.3393 89.4347 22.204C89.4347 22.064 89.4603 21.9333 89.5117 21.812C89.5677 21.6907 89.64 21.5857 89.7287 21.497C89.8173 21.4037 89.92 21.3313 90.0367 21.28C90.158 21.224 90.2863 21.196 90.4217 21.196C90.5617 21.196 90.6923 21.224 90.8137 21.28C90.9397 21.3313 91.0493 21.4037 91.1427 21.497C91.236 21.5857 91.3083 21.6907 91.3597 21.812C91.4157 21.9333 91.4437 22.064 91.4437 22.204ZM99.6487 24.36L96.7787 31.5H95.4207L92.5507 24.36H93.7897C93.9063 24.36 94.002 24.3903 94.0767 24.451C94.156 24.507 94.2073 24.5747 94.2307 24.654L95.8127 28.812C95.878 29.008 95.9363 29.2017 95.9877 29.393C96.039 29.5843 96.0833 29.778 96.1207 29.974C96.158 29.778 96.2023 29.5867 96.2537 29.4C96.3097 29.2087 96.3703 29.0127 96.4357 28.812L98.0457 24.654C98.0737 24.57 98.125 24.5 98.1997 24.444C98.2743 24.388 98.3653 24.36 98.4727 24.36H99.6487ZM105.435 27.125C105.435 26.873 105.398 26.6397 105.323 26.425C105.253 26.2057 105.148 26.0167 105.008 25.858C104.868 25.6947 104.693 25.5687 104.483 25.48C104.278 25.3867 104.04 25.34 103.769 25.34C103.223 25.34 102.794 25.4963 102.481 25.809C102.168 26.1217 101.97 26.5603 101.886 27.125H105.435ZM101.844 28.049C101.863 28.455 101.926 28.8073 102.033 29.106C102.14 29.4 102.283 29.645 102.46 29.841C102.642 30.037 102.857 30.184 103.104 30.282C103.356 30.3753 103.636 30.422 103.944 30.422C104.238 30.422 104.492 30.3893 104.707 30.324C104.922 30.254 105.108 30.1793 105.267 30.1C105.426 30.016 105.561 29.9413 105.673 29.876C105.785 29.806 105.888 29.771 105.981 29.771C106.102 29.771 106.196 29.8177 106.261 29.911L106.688 30.464C106.511 30.674 106.31 30.8513 106.086 30.996C105.862 31.1407 105.624 31.2597 105.372 31.353C105.12 31.4417 104.861 31.5047 104.595 31.542C104.329 31.584 104.07 31.605 103.818 31.605C103.323 31.605 102.864 31.5233 102.439 31.36C102.019 31.192 101.653 30.947 101.34 30.625C101.032 30.303 100.789 29.904 100.612 29.428C100.439 28.952 100.353 28.4037 100.353 27.783C100.353 27.2883 100.43 26.8263 100.584 26.397C100.743 25.9677 100.967 25.5943 101.256 25.277C101.55 24.9597 101.905 24.71 102.32 24.528C102.74 24.3413 103.214 24.248 103.741 24.248C104.18 24.248 104.586 24.3203 104.959 24.465C105.332 24.605 105.654 24.8127 105.925 25.088C106.196 25.3633 106.406 25.7017 106.555 26.103C106.709 26.4997 106.786 26.9523 106.786 27.461C106.786 27.6943 106.76 27.8507 106.709 27.93C106.658 28.0093 106.564 28.049 106.429 28.049H101.844ZM116.793 26.117C116.583 25.8463 116.352 25.6573 116.1 25.55C115.848 25.4427 115.575 25.389 115.281 25.389C114.693 25.389 114.233 25.606 113.902 26.04C113.571 26.4693 113.405 27.1063 113.405 27.951C113.405 28.3897 113.442 28.7653 113.517 29.078C113.592 29.386 113.699 29.638 113.839 29.834C113.979 30.03 114.149 30.1723 114.35 30.261C114.551 30.3497 114.777 30.394 115.029 30.394C115.412 30.394 115.741 30.3123 116.016 30.149C116.296 29.981 116.555 29.7453 116.793 29.442V26.117ZM118.298 21.14V31.5H117.388C117.187 31.5 117.059 31.4043 117.003 31.213L116.87 30.436C116.571 30.786 116.231 31.0683 115.848 31.283C115.47 31.4977 115.029 31.605 114.525 31.605C114.124 31.605 113.76 31.5257 113.433 31.367C113.106 31.2037 112.826 30.968 112.593 30.66C112.36 30.352 112.178 29.9717 112.047 29.519C111.921 29.0617 111.858 28.539 111.858 27.951C111.858 27.419 111.928 26.9267 112.068 26.474C112.213 26.0213 112.418 25.6293 112.684 25.298C112.95 24.962 113.272 24.7007 113.65 24.514C114.033 24.3227 114.46 24.227 114.931 24.227C115.351 24.227 115.708 24.2947 116.002 24.43C116.296 24.5607 116.56 24.745 116.793 24.983V21.14H118.298ZM125.101 27.125C125.101 26.873 125.064 26.6397 124.989 26.425C124.919 26.2057 124.814 26.0167 124.674 25.858C124.534 25.6947 124.359 25.5687 124.149 25.48C123.944 25.3867 123.706 25.34 123.435 25.34C122.889 25.34 122.46 25.4963 122.147 25.809C121.835 26.1217 121.636 26.5603 121.552 27.125H125.101ZM121.51 28.049C121.529 28.455 121.592 28.8073 121.699 29.106C121.807 29.4 121.949 29.645 122.126 29.841C122.308 30.037 122.523 30.184 122.77 30.282C123.022 30.3753 123.302 30.422 123.61 30.422C123.904 30.422 124.159 30.3893 124.373 30.324C124.588 30.254 124.775 30.1793 124.933 30.1C125.092 30.016 125.227 29.9413 125.339 29.876C125.451 29.806 125.554 29.771 125.647 29.771C125.769 29.771 125.862 29.8177 125.927 29.911L126.354 30.464C126.177 30.674 125.976 30.8513 125.752 30.996C125.528 31.1407 125.29 31.2597 125.038 31.353C124.786 31.4417 124.527 31.5047 124.261 31.542C123.995 31.584 123.736 31.605 123.484 31.605C122.99 31.605 122.53 31.5233 122.105 31.36C121.685 31.192 121.319 30.947 121.006 30.625C120.698 30.303 120.456 29.904 120.278 29.428C120.106 28.952 120.019 28.4037 120.019 27.783C120.019 27.2883 120.096 26.8263 120.25 26.397C120.409 25.9677 120.633 25.5943 120.922 25.277C121.216 24.9597 121.571 24.71 121.986 24.528C122.406 24.3413 122.88 24.248 123.407 24.248C123.846 24.248 124.252 24.3203 124.625 24.465C124.999 24.605 125.321 24.8127 125.591 25.088C125.862 25.3633 126.072 25.7017 126.221 26.103C126.375 26.4997 126.452 26.9523 126.452 27.461C126.452 27.6943 126.427 27.8507 126.375 27.93C126.324 28.0093 126.231 28.049 126.095 28.049H121.51ZM128.136 31.5V24.36H129.046C129.251 24.36 129.382 24.4557 129.438 24.647L129.536 25.27C129.666 25.1207 129.802 24.9853 129.942 24.864C130.082 24.738 130.231 24.6307 130.39 24.542C130.553 24.4487 130.726 24.3763 130.908 24.325C131.094 24.2737 131.295 24.248 131.51 24.248C131.738 24.248 131.948 24.2807 132.14 24.346C132.331 24.4113 132.499 24.5047 132.644 24.626C132.793 24.7473 132.921 24.8943 133.029 25.067C133.136 25.2397 133.225 25.4333 133.295 25.648C133.402 25.4007 133.537 25.1883 133.701 25.011C133.864 24.8337 134.046 24.689 134.247 24.577C134.447 24.465 134.66 24.3833 134.884 24.332C135.112 24.276 135.343 24.248 135.577 24.248C135.959 24.248 136.3 24.3087 136.599 24.43C136.902 24.5513 137.156 24.7287 137.362 24.962C137.572 25.1907 137.73 25.473 137.838 25.809C137.945 26.145 137.999 26.5277 137.999 26.957V31.5H136.494V26.957C136.494 26.453 136.384 26.075 136.165 25.823C135.95 25.5663 135.63 25.438 135.206 25.438C135.014 25.438 134.835 25.4707 134.667 25.536C134.499 25.6013 134.352 25.697 134.226 25.823C134.1 25.949 133.999 26.1077 133.925 26.299C133.855 26.4857 133.82 26.705 133.82 26.957V31.5H132.315V26.957C132.315 26.4343 132.21 26.0517 132 25.809C131.79 25.5617 131.482 25.438 131.076 25.438C130.796 25.438 130.537 25.5103 130.299 25.655C130.061 25.795 129.841 25.9887 129.641 26.236V31.5H128.136ZM143.124 24.248C143.651 24.248 144.127 24.3343 144.552 24.507C144.981 24.6797 145.345 24.9247 145.644 25.242C145.947 25.5593 146.18 25.9443 146.344 26.397C146.507 26.8497 146.589 27.3583 146.589 27.923C146.589 28.4877 146.507 28.9963 146.344 29.449C146.18 29.9017 145.947 30.289 145.644 30.611C145.345 30.9283 144.981 31.1733 144.552 31.346C144.127 31.5187 143.651 31.605 143.124 31.605C142.592 31.605 142.111 31.5187 141.682 31.346C141.257 31.1733 140.893 30.9283 140.59 30.611C140.286 30.289 140.053 29.9017 139.89 29.449C139.726 28.9963 139.645 28.4877 139.645 27.923C139.645 27.3583 139.726 26.8497 139.89 26.397C140.053 25.9443 140.286 25.5593 140.59 25.242C140.893 24.9247 141.257 24.6797 141.682 24.507C142.111 24.3343 142.592 24.248 143.124 24.248ZM143.124 30.429C143.768 30.429 144.246 30.2143 144.559 29.785C144.876 29.351 145.035 28.7327 145.035 27.93C145.035 27.1273 144.876 26.509 144.559 26.075C144.246 25.6363 143.768 25.417 143.124 25.417C142.47 25.417 141.985 25.6363 141.668 26.075C141.35 26.509 141.192 27.1273 141.192 27.93C141.192 28.7327 141.35 29.351 141.668 29.785C141.985 30.2143 142.47 30.429 143.124 30.429Z" fill="#121212"/>
</svg>
