<svg width="1232" height="120" viewBox="0 0 1232 120" fill="none" xmlns="http://www.w3.org/2000/svg">
<rect width="1232" height="120" rx="12" fill="#F7F7F7"/>
<path d="M458.736 66.864C458.939 66.864 459.115 66.944 459.264 67.104L460.752 68.72C459.813 69.8507 458.661 70.7253 457.296 71.344C455.931 71.952 454.299 72.256 452.4 72.256C450.715 72.256 449.189 71.968 447.824 71.392C446.469 70.8053 445.312 69.9947 444.352 68.96C443.392 67.9147 442.651 66.672 442.128 65.232C441.616 63.792 441.36 62.208 441.36 60.48C441.36 58.752 441.632 57.168 442.176 55.728C442.731 54.2773 443.504 53.0347 444.496 52C445.499 50.9547 446.693 50.144 448.08 49.568C449.477 48.992 451.013 48.704 452.688 48.704C454.352 48.704 455.819 48.976 457.088 49.52C458.368 50.0533 459.477 50.768 460.416 51.664L459.184 53.408C459.099 53.5253 458.997 53.6267 458.88 53.712C458.763 53.7973 458.603 53.84 458.4 53.84C458.187 53.84 457.941 53.744 457.664 53.552C457.397 53.3493 457.051 53.1307 456.624 52.896C456.208 52.6507 455.68 52.432 455.04 52.24C454.411 52.0373 453.621 51.936 452.672 51.936C451.573 51.936 450.565 52.128 449.648 52.512C448.731 52.896 447.941 53.456 447.28 54.192C446.619 54.928 446.101 55.824 445.728 56.88C445.365 57.936 445.184 59.136 445.184 60.48C445.184 61.8347 445.376 63.0453 445.76 64.112C446.144 65.168 446.672 66.064 447.344 66.8C448.016 67.5253 448.805 68.08 449.712 68.464C450.619 68.848 451.595 69.04 452.64 69.04C453.28 69.04 453.851 69.008 454.352 68.944C454.864 68.8693 455.333 68.7573 455.76 68.608C456.187 68.448 456.587 68.2507 456.96 68.016C457.344 67.7813 457.723 67.4933 458.096 67.152C458.309 66.96 458.523 66.864 458.736 66.864ZM467.49 48.32V72H464.05V48.32H467.49ZM475.96 55.68V72H472.52V55.68H475.96ZM476.536 50.752C476.536 51.0613 476.472 51.3547 476.344 51.632C476.227 51.9093 476.061 52.1547 475.848 52.368C475.635 52.5707 475.384 52.736 475.096 52.864C474.819 52.9813 474.52 53.04 474.2 53.04C473.891 53.04 473.597 52.9813 473.32 52.864C473.053 52.736 472.819 52.5707 472.616 52.368C472.413 52.1547 472.248 51.9093 472.12 51.632C472.003 51.3547 471.944 51.0613 471.944 50.752C471.944 50.432 472.003 50.1333 472.12 49.856C472.248 49.5787 472.413 49.3387 472.616 49.136C472.819 48.9227 473.053 48.7573 473.32 48.64C473.597 48.512 473.891 48.448 474.2 48.448C474.52 48.448 474.819 48.512 475.096 48.64C475.384 48.7573 475.635 48.9227 475.848 49.136C476.061 49.3387 476.227 49.5787 476.344 49.856C476.472 50.1333 476.536 50.432 476.536 50.752ZM491.626 62C491.626 61.424 491.541 60.8907 491.37 60.4C491.21 59.8987 490.97 59.4667 490.65 59.104C490.33 58.7307 489.93 58.4427 489.45 58.24C488.981 58.0267 488.437 57.92 487.818 57.92C486.57 57.92 485.589 58.2773 484.874 58.992C484.16 59.7067 483.706 60.7093 483.514 62H491.626ZM483.418 64.112C483.461 65.04 483.605 65.8453 483.85 66.528C484.096 67.2 484.421 67.76 484.826 68.208C485.242 68.656 485.733 68.992 486.298 69.216C486.874 69.4293 487.514 69.536 488.218 69.536C488.89 69.536 489.472 69.4613 489.962 69.312C490.453 69.152 490.88 68.9813 491.242 68.8C491.605 68.608 491.914 68.4373 492.17 68.288C492.426 68.128 492.661 68.048 492.874 68.048C493.152 68.048 493.365 68.1547 493.514 68.368L494.49 69.632C494.085 70.112 493.626 70.5173 493.114 70.848C492.602 71.1787 492.058 71.4507 491.482 71.664C490.906 71.8667 490.314 72.0107 489.706 72.096C489.098 72.192 488.506 72.24 487.93 72.24C486.8 72.24 485.749 72.0533 484.778 71.68C483.818 71.296 482.981 70.736 482.266 70C481.562 69.264 481.008 68.352 480.602 67.264C480.208 66.176 480.01 64.9227 480.01 63.504C480.01 62.3733 480.186 61.3173 480.538 60.336C480.901 59.3547 481.413 58.5013 482.074 57.776C482.746 57.0507 483.557 56.48 484.506 56.064C485.466 55.6373 486.549 55.424 487.754 55.424C488.757 55.424 489.685 55.5893 490.538 55.92C491.392 56.24 492.128 56.7147 492.746 57.344C493.365 57.9733 493.845 58.7467 494.186 59.664C494.538 60.5707 494.714 61.6053 494.714 62.768C494.714 63.3013 494.656 63.6587 494.538 63.84C494.421 64.0213 494.208 64.112 493.898 64.112H483.418ZM501.778 57.84C502.13 57.4773 502.493 57.152 502.866 56.864C503.25 56.5653 503.656 56.3093 504.082 56.096C504.509 55.8827 504.962 55.7173 505.442 55.6C505.922 55.4827 506.445 55.424 507.01 55.424C507.906 55.424 508.69 55.5733 509.362 55.872C510.045 56.1707 510.616 56.592 511.074 57.136C511.544 57.68 511.896 58.336 512.13 59.104C512.365 59.8613 512.482 60.6987 512.482 61.616V72H509.058V61.616C509.058 60.5173 508.802 59.664 508.29 59.056C507.789 58.448 507.021 58.144 505.986 58.144C505.218 58.144 504.504 58.32 503.842 58.672C503.192 59.024 502.578 59.504 502.002 60.112V72H498.562V55.68H500.642C501.112 55.68 501.41 55.8987 501.538 56.336L501.778 57.84ZM522.153 72.256C520.798 72.256 519.753 71.8773 519.017 71.12C518.292 70.352 517.929 69.2747 517.929 67.888V58.384H516.137C515.945 58.384 515.78 58.3253 515.641 58.208C515.502 58.08 515.433 57.8933 515.433 57.648V56.256L518.073 55.872L518.825 51.152C518.878 50.9707 518.969 50.8267 519.097 50.72C519.225 50.6027 519.396 50.544 519.609 50.544H521.369V55.904H525.897V58.384H521.369V67.648C521.369 68.2347 521.513 68.6827 521.801 68.992C522.089 69.3013 522.473 69.456 522.953 69.456C523.22 69.456 523.449 69.424 523.641 69.36C523.833 69.2853 523.998 69.2107 524.137 69.136C524.276 69.0507 524.393 68.976 524.489 68.912C524.596 68.8373 524.697 68.8 524.793 68.8C524.985 68.8 525.14 68.9067 525.257 69.12L526.281 70.8C525.748 71.2693 525.118 71.632 524.393 71.888C523.668 72.1333 522.921 72.256 522.153 72.256ZM538.992 58.64C538.907 58.7893 538.811 58.896 538.704 58.96C538.598 59.024 538.464 59.056 538.304 59.056C538.123 59.056 537.926 59.0027 537.712 58.896C537.499 58.7787 537.248 58.6507 536.96 58.512C536.672 58.3733 536.331 58.2507 535.936 58.144C535.552 58.0267 535.099 57.968 534.576 57.968C534.15 57.968 533.76 58.0213 533.408 58.128C533.067 58.224 532.774 58.368 532.528 58.56C532.294 58.7413 532.112 58.96 531.984 59.216C531.856 59.4613 531.792 59.728 531.792 60.016C531.792 60.4 531.91 60.72 532.144 60.976C532.379 61.232 532.688 61.456 533.072 61.648C533.456 61.8293 533.894 61.9947 534.384 62.144C534.875 62.2933 535.376 62.4533 535.888 62.624C536.4 62.7947 536.902 62.992 537.392 63.216C537.883 63.44 538.32 63.7173 538.704 64.048C539.088 64.368 539.398 64.7627 539.632 65.232C539.867 65.6907 539.984 66.2507 539.984 66.912C539.984 67.68 539.846 68.3893 539.568 69.04C539.291 69.6907 538.886 70.256 538.352 70.736C537.819 71.216 537.152 71.5893 536.352 71.856C535.563 72.1227 534.656 72.256 533.632 72.256C533.067 72.256 532.518 72.2027 531.984 72.096C531.462 72 530.96 71.8667 530.48 71.696C530.011 71.5147 529.568 71.3013 529.152 71.056C528.747 70.8107 528.384 70.544 528.064 70.256L528.864 68.944C528.96 68.784 529.078 68.6613 529.216 68.576C529.366 68.48 529.547 68.432 529.76 68.432C529.984 68.432 530.203 68.5067 530.416 68.656C530.64 68.7947 530.896 68.9493 531.184 69.12C531.483 69.2907 531.84 69.4507 532.256 69.6C532.672 69.7387 533.19 69.808 533.808 69.808C534.32 69.808 534.763 69.7493 535.136 69.632C535.51 69.504 535.819 69.3333 536.064 69.12C536.31 68.9067 536.491 68.6667 536.608 68.4C536.726 68.1227 536.784 67.8293 536.784 67.52C536.784 67.104 536.667 66.7627 536.432 66.496C536.198 66.2293 535.883 66 535.488 65.808C535.104 65.616 534.662 65.4453 534.16 65.296C533.67 65.1467 533.168 64.9867 532.656 64.816C532.144 64.6453 531.638 64.448 531.136 64.224C530.646 64 530.203 63.7173 529.808 63.376C529.424 63.024 529.115 62.6027 528.88 62.112C528.646 61.6107 528.528 61.0027 528.528 60.288C528.528 59.6373 528.656 59.0187 528.912 58.432C529.179 57.8453 529.563 57.328 530.064 56.88C530.576 56.432 531.2 56.08 531.936 55.824C532.683 55.5573 533.542 55.424 534.512 55.424C535.611 55.424 536.608 55.6 537.504 55.952C538.4 56.304 539.152 56.784 539.76 57.392L538.992 58.64ZM555.97 48.32V72H552.53V48.32H555.97ZM567.912 55.424C569.117 55.424 570.205 55.6213 571.176 56.016C572.157 56.4107 572.989 56.9707 573.672 57.696C574.365 58.4213 574.899 59.3013 575.272 60.336C575.645 61.3707 575.832 62.5333 575.832 63.824C575.832 65.1147 575.645 66.2773 575.272 67.312C574.899 68.3467 574.365 69.232 573.672 69.968C572.989 70.6933 572.157 71.2533 571.176 71.648C570.205 72.0427 569.117 72.24 567.912 72.24C566.696 72.24 565.597 72.0427 564.616 71.648C563.645 71.2533 562.813 70.6933 562.12 69.968C561.427 69.232 560.893 68.3467 560.52 67.312C560.147 66.2773 559.96 65.1147 559.96 63.824C559.96 62.5333 560.147 61.3707 560.52 60.336C560.893 59.3013 561.427 58.4213 562.12 57.696C562.813 56.9707 563.645 56.4107 564.616 56.016C565.597 55.6213 566.696 55.424 567.912 55.424ZM567.912 69.552C569.384 69.552 570.477 69.0613 571.192 68.08C571.917 67.088 572.28 65.6747 572.28 63.84C572.28 62.0053 571.917 60.592 571.192 59.6C570.477 58.5973 569.384 58.096 567.912 58.096C566.419 58.096 565.309 58.5973 564.584 59.6C563.859 60.592 563.496 62.0053 563.496 63.84C563.496 65.6747 563.859 67.088 564.584 68.08C565.309 69.0613 566.419 69.552 567.912 69.552ZM585.476 63.696C586.543 63.696 587.343 63.424 587.876 62.88C588.41 62.336 588.676 61.6267 588.676 60.752C588.676 59.856 588.41 59.1467 587.876 58.624C587.343 58.1013 586.543 57.84 585.476 57.84C584.42 57.84 583.62 58.1013 583.076 58.624C582.543 59.1467 582.276 59.856 582.276 60.752C582.276 61.1787 582.346 61.5733 582.484 61.936C582.623 62.2987 582.826 62.6133 583.092 62.88C583.359 63.136 583.69 63.3387 584.084 63.488C584.49 63.6267 584.954 63.696 585.476 63.696ZM590.26 72.8C590.26 72.4373 590.154 72.1493 589.94 71.936C589.738 71.712 589.46 71.5413 589.108 71.424C588.756 71.296 588.346 71.2053 587.876 71.152C587.407 71.088 586.906 71.0453 586.372 71.024C585.85 70.992 585.311 70.9653 584.756 70.944C584.212 70.912 583.684 70.8587 583.172 70.784C582.66 71.0507 582.239 71.3707 581.908 71.744C581.588 72.1173 581.428 72.5493 581.428 73.04C581.428 73.36 581.508 73.6587 581.668 73.936C581.839 74.2133 582.095 74.4533 582.436 74.656C582.788 74.8587 583.231 75.0187 583.764 75.136C584.308 75.2533 584.959 75.312 585.716 75.312C587.231 75.312 588.367 75.0773 589.124 74.608C589.882 74.1387 590.26 73.536 590.26 72.8ZM593.716 56.272V57.552C593.716 57.9787 593.46 58.24 592.948 58.336L591.316 58.608C591.594 59.2267 591.732 59.9147 591.732 60.672C591.732 61.472 591.572 62.1973 591.252 62.848C590.943 63.4987 590.511 64.0533 589.956 64.512C589.402 64.9707 588.74 65.3227 587.972 65.568C587.204 65.8133 586.372 65.936 585.476 65.936C585.135 65.936 584.799 65.92 584.468 65.888C584.148 65.8453 583.834 65.792 583.524 65.728C583.215 65.9093 582.986 66.1013 582.836 66.304C582.687 66.5067 582.612 66.7147 582.612 66.928C582.612 67.28 582.767 67.5413 583.076 67.712C583.386 67.8827 583.791 68.0053 584.292 68.08C584.804 68.1547 585.386 68.2027 586.036 68.224C586.687 68.2453 587.348 68.2827 588.02 68.336C588.692 68.3893 589.354 68.48 590.004 68.608C590.655 68.7253 591.231 68.928 591.732 69.216C592.244 69.4933 592.655 69.872 592.964 70.352C593.274 70.832 593.428 71.456 593.428 72.224C593.428 72.928 593.252 73.616 592.9 74.288C592.548 74.96 592.036 75.5573 591.364 76.08C590.703 76.6027 589.892 77.0187 588.932 77.328C587.972 77.648 586.879 77.808 585.652 77.808C584.436 77.808 583.375 77.6907 582.468 77.456C581.572 77.2213 580.82 76.9013 580.212 76.496C579.615 76.1013 579.167 75.6427 578.868 75.12C578.58 74.5973 578.436 74.0533 578.436 73.488C578.436 72.72 578.676 72.064 579.156 71.52C579.647 70.976 580.308 70.5493 581.14 70.24C580.692 70.0267 580.33 69.7333 580.052 69.36C579.786 68.9867 579.652 68.496 579.652 67.888C579.652 67.408 579.828 66.9067 580.18 66.384C580.532 65.8613 581.06 65.4187 581.764 65.056C580.954 64.608 580.314 64.016 579.844 63.28C579.375 62.5333 579.14 61.664 579.14 60.672C579.14 59.8613 579.295 59.1307 579.604 58.48C579.924 57.8293 580.367 57.2747 580.932 56.816C581.498 56.3573 582.164 56.0053 582.932 55.76C583.711 55.5147 584.559 55.392 585.476 55.392C586.884 55.392 588.111 55.6853 589.156 56.272H593.716ZM603.848 55.424C605.054 55.424 606.142 55.6213 607.112 56.016C608.094 56.4107 608.926 56.9707 609.608 57.696C610.302 58.4213 610.835 59.3013 611.208 60.336C611.582 61.3707 611.768 62.5333 611.768 63.824C611.768 65.1147 611.582 66.2773 611.208 67.312C610.835 68.3467 610.302 69.232 609.608 69.968C608.926 70.6933 608.094 71.2533 607.112 71.648C606.142 72.0427 605.054 72.24 603.848 72.24C602.632 72.24 601.534 72.0427 600.552 71.648C599.582 71.2533 598.75 70.6933 598.056 69.968C597.363 69.232 596.83 68.3467 596.456 67.312C596.083 66.2773 595.896 65.1147 595.896 63.824C595.896 62.5333 596.083 61.3707 596.456 60.336C596.83 59.3013 597.363 58.4213 598.056 57.696C598.75 56.9707 599.582 56.4107 600.552 56.016C601.534 55.6213 602.632 55.424 603.848 55.424ZM603.848 69.552C605.32 69.552 606.414 69.0613 607.128 68.08C607.854 67.088 608.216 65.6747 608.216 63.84C608.216 62.0053 607.854 60.592 607.128 59.6C606.414 58.5973 605.32 58.096 603.848 58.096C602.355 58.096 601.246 58.5973 600.52 59.6C599.795 60.592 599.432 62.0053 599.432 63.84C599.432 65.6747 599.795 67.088 600.52 68.08C601.246 69.0613 602.355 69.552 603.848 69.552ZM646.594 55.68L641.362 72H638.626C638.306 72 638.082 71.792 637.954 71.376L634.706 61.216C634.621 60.928 634.541 60.64 634.466 60.352C634.402 60.064 634.343 59.7813 634.29 59.504C634.173 60.08 634.029 60.656 633.858 61.232L630.562 71.376C630.445 71.792 630.194 72 629.81 72H627.202L621.97 55.68H624.69C624.957 55.68 625.175 55.7493 625.346 55.888C625.527 56.016 625.645 56.1707 625.698 56.352L628.418 65.856C628.525 66.2933 628.615 66.72 628.69 67.136C628.775 67.5413 628.85 67.9467 628.914 68.352C629.021 67.9467 629.133 67.5413 629.25 67.136C629.367 66.72 629.49 66.2933 629.618 65.856L632.674 56.304C632.727 56.112 632.834 55.9573 632.994 55.84C633.165 55.712 633.367 55.648 633.602 55.648H635.106C635.351 55.648 635.559 55.712 635.73 55.84C635.901 55.9573 636.013 56.112 636.066 56.304L639.042 65.856C639.17 66.2933 639.287 66.72 639.394 67.136C639.511 67.552 639.618 67.968 639.714 68.384C639.789 67.9787 639.869 67.568 639.954 67.152C640.039 66.736 640.141 66.304 640.258 65.856L643.026 56.352C643.09 56.16 643.207 56 643.378 55.872C643.549 55.744 643.757 55.68 644.002 55.68H646.594ZM653.328 55.68V72H649.888V55.68H653.328ZM653.904 50.752C653.904 51.0613 653.84 51.3547 653.712 51.632C653.594 51.9093 653.429 52.1547 653.216 52.368C653.002 52.5707 652.752 52.736 652.464 52.864C652.186 52.9813 651.888 53.04 651.568 53.04C651.258 53.04 650.965 52.9813 650.688 52.864C650.421 52.736 650.186 52.5707 649.984 52.368C649.781 52.1547 649.616 51.9093 649.488 51.632C649.37 51.3547 649.312 51.0613 649.312 50.752C649.312 50.432 649.37 50.1333 649.488 49.856C649.616 49.5787 649.781 49.3387 649.984 49.136C650.186 48.9227 650.421 48.7573 650.688 48.64C650.965 48.512 651.258 48.448 651.568 48.448C651.888 48.448 652.186 48.512 652.464 48.64C652.752 48.7573 653.002 48.9227 653.216 49.136C653.429 49.3387 653.594 49.5787 653.712 49.856C653.84 50.1333 653.904 50.432 653.904 50.752ZM661.794 48.32V72H658.354V48.32H661.794ZM670.184 48.32V72H666.744V48.32H670.184ZM689.503 63.696C690.569 63.696 691.369 63.424 691.903 62.88C692.436 62.336 692.703 61.6267 692.703 60.752C692.703 59.856 692.436 59.1467 691.903 58.624C691.369 58.1013 690.569 57.84 689.503 57.84C688.447 57.84 687.647 58.1013 687.103 58.624C686.569 59.1467 686.303 59.856 686.303 60.752C686.303 61.1787 686.372 61.5733 686.511 61.936C686.649 62.2987 686.852 62.6133 687.119 62.88C687.385 63.136 687.716 63.3387 688.111 63.488C688.516 63.6267 688.98 63.696 689.503 63.696ZM694.287 72.8C694.287 72.4373 694.18 72.1493 693.967 71.936C693.764 71.712 693.487 71.5413 693.135 71.424C692.783 71.296 692.372 71.2053 691.903 71.152C691.433 71.088 690.932 71.0453 690.399 71.024C689.876 70.992 689.337 70.9653 688.783 70.944C688.239 70.912 687.711 70.8587 687.199 70.784C686.687 71.0507 686.265 71.3707 685.935 71.744C685.615 72.1173 685.455 72.5493 685.455 73.04C685.455 73.36 685.535 73.6587 685.695 73.936C685.865 74.2133 686.121 74.4533 686.463 74.656C686.815 74.8587 687.257 75.0187 687.791 75.136C688.335 75.2533 688.985 75.312 689.743 75.312C691.257 75.312 692.393 75.0773 693.151 74.608C693.908 74.1387 694.287 73.536 694.287 72.8ZM697.743 56.272V57.552C697.743 57.9787 697.487 58.24 696.975 58.336L695.343 58.608C695.62 59.2267 695.759 59.9147 695.759 60.672C695.759 61.472 695.599 62.1973 695.279 62.848C694.969 63.4987 694.537 64.0533 693.983 64.512C693.428 64.9707 692.767 65.3227 691.999 65.568C691.231 65.8133 690.399 65.936 689.503 65.936C689.161 65.936 688.825 65.92 688.495 65.888C688.175 65.8453 687.86 65.792 687.551 65.728C687.241 65.9093 687.012 66.1013 686.863 66.304C686.713 66.5067 686.639 66.7147 686.639 66.928C686.639 67.28 686.793 67.5413 687.103 67.712C687.412 67.8827 687.817 68.0053 688.319 68.08C688.831 68.1547 689.412 68.2027 690.063 68.224C690.713 68.2453 691.375 68.2827 692.047 68.336C692.719 68.3893 693.38 68.48 694.031 68.608C694.681 68.7253 695.257 68.928 695.759 69.216C696.271 69.4933 696.681 69.872 696.991 70.352C697.3 70.832 697.455 71.456 697.455 72.224C697.455 72.928 697.279 73.616 696.927 74.288C696.575 74.96 696.063 75.5573 695.391 76.08C694.729 76.6027 693.919 77.0187 692.959 77.328C691.999 77.648 690.905 77.808 689.679 77.808C688.463 77.808 687.401 77.6907 686.495 77.456C685.599 77.2213 684.847 76.9013 684.239 76.496C683.641 76.1013 683.193 75.6427 682.895 75.12C682.607 74.5973 682.463 74.0533 682.463 73.488C682.463 72.72 682.703 72.064 683.183 71.52C683.673 70.976 684.335 70.5493 685.167 70.24C684.719 70.0267 684.356 69.7333 684.079 69.36C683.812 68.9867 683.679 68.496 683.679 67.888C683.679 67.408 683.855 66.9067 684.207 66.384C684.559 65.8613 685.087 65.4187 685.791 65.056C684.98 64.608 684.34 64.016 683.871 63.28C683.401 62.5333 683.167 61.664 683.167 60.672C683.167 59.8613 683.321 59.1307 683.631 58.48C683.951 57.8293 684.393 57.2747 684.959 56.816C685.524 56.3573 686.191 56.0053 686.959 55.76C687.737 55.5147 688.585 55.392 689.503 55.392C690.911 55.392 692.137 55.6853 693.183 56.272H697.743ZM707.875 55.424C709.08 55.424 710.168 55.6213 711.139 56.016C712.12 56.4107 712.952 56.9707 713.635 57.696C714.328 58.4213 714.861 59.3013 715.235 60.336C715.608 61.3707 715.795 62.5333 715.795 63.824C715.795 65.1147 715.608 66.2773 715.235 67.312C714.861 68.3467 714.328 69.232 713.635 69.968C712.952 70.6933 712.12 71.2533 711.139 71.648C710.168 72.0427 709.08 72.24 707.875 72.24C706.659 72.24 705.56 72.0427 704.579 71.648C703.608 71.2533 702.776 70.6933 702.083 69.968C701.389 69.232 700.856 68.3467 700.483 67.312C700.109 66.2773 699.923 65.1147 699.923 63.824C699.923 62.5333 700.109 61.3707 700.483 60.336C700.856 59.3013 701.389 58.4213 702.083 57.696C702.776 56.9707 703.608 56.4107 704.579 56.016C705.56 55.6213 706.659 55.424 707.875 55.424ZM707.875 69.552C709.347 69.552 710.44 69.0613 711.155 68.08C711.88 67.088 712.243 65.6747 712.243 63.84C712.243 62.0053 711.88 60.592 711.155 59.6C710.44 58.5973 709.347 58.096 707.875 58.096C706.381 58.096 705.272 58.5973 704.547 59.6C703.821 60.592 703.459 62.0053 703.459 63.84C703.459 65.6747 703.821 67.088 704.547 68.08C705.272 69.0613 706.381 69.552 707.875 69.552ZM731.789 57.616C732.461 56.9547 733.197 56.4267 733.997 56.032C734.797 55.6267 735.73 55.424 736.797 55.424C737.693 55.424 738.477 55.5733 739.149 55.872C739.831 56.1707 740.402 56.592 740.861 57.136C741.33 57.68 741.682 58.336 741.917 59.104C742.151 59.8613 742.269 60.6987 742.269 61.616V72H738.845V61.616C738.845 60.5173 738.589 59.664 738.077 59.056C737.575 58.448 736.807 58.144 735.773 58.144C735.005 58.144 734.29 58.32 733.629 58.672C732.978 59.024 732.365 59.504 731.789 60.112V72H728.349V48.32H731.789V57.616ZM757.63 62C757.63 61.424 757.545 60.8907 757.374 60.4C757.214 59.8987 756.974 59.4667 756.654 59.104C756.334 58.7307 755.934 58.4427 755.454 58.24C754.985 58.0267 754.441 57.92 753.822 57.92C752.574 57.92 751.593 58.2773 750.878 58.992C750.163 59.7067 749.71 60.7093 749.518 62H757.63ZM749.422 64.112C749.465 65.04 749.609 65.8453 749.854 66.528C750.099 67.2 750.425 67.76 750.83 68.208C751.246 68.656 751.737 68.992 752.302 69.216C752.878 69.4293 753.518 69.536 754.222 69.536C754.894 69.536 755.475 69.4613 755.966 69.312C756.457 69.152 756.883 68.9813 757.246 68.8C757.609 68.608 757.918 68.4373 758.174 68.288C758.43 68.128 758.665 68.048 758.878 68.048C759.155 68.048 759.369 68.1547 759.518 68.368L760.494 69.632C760.089 70.112 759.63 70.5173 759.118 70.848C758.606 71.1787 758.062 71.4507 757.486 71.664C756.91 71.8667 756.318 72.0107 755.71 72.096C755.102 72.192 754.51 72.24 753.934 72.24C752.803 72.24 751.753 72.0533 750.782 71.68C749.822 71.296 748.985 70.736 748.27 70C747.566 69.264 747.011 68.352 746.606 67.264C746.211 66.176 746.014 64.9227 746.014 63.504C746.014 62.3733 746.19 61.3173 746.542 60.336C746.905 59.3547 747.417 58.5013 748.078 57.776C748.75 57.0507 749.561 56.48 750.51 56.064C751.47 55.6373 752.553 55.424 753.758 55.424C754.761 55.424 755.689 55.5893 756.542 55.92C757.395 56.24 758.131 56.7147 758.75 57.344C759.369 57.9733 759.849 58.7467 760.19 59.664C760.542 60.5707 760.718 61.6053 760.718 62.768C760.718 63.3013 760.659 63.6587 760.542 63.84C760.425 64.0213 760.211 64.112 759.902 64.112H749.422ZM767.814 58.704C768.326 57.6693 768.945 56.8587 769.67 56.272C770.395 55.6747 771.265 55.376 772.278 55.376C772.63 55.376 772.961 55.4187 773.27 55.504C773.579 55.5787 773.857 55.696 774.102 55.856L773.862 58.448C773.819 58.6293 773.75 58.7573 773.654 58.832C773.569 58.896 773.451 58.928 773.302 58.928C773.142 58.928 772.913 58.9013 772.614 58.848C772.315 58.784 772.001 58.752 771.67 58.752C771.19 58.752 770.763 58.8213 770.39 58.96C770.027 59.0987 769.697 59.3013 769.398 59.568C769.11 59.8347 768.854 60.16 768.63 60.544C768.406 60.928 768.198 61.3653 768.006 61.856V72H764.566V55.68H766.566C766.929 55.68 767.179 55.7493 767.318 55.888C767.457 56.016 767.553 56.2453 767.606 56.576L767.814 58.704ZM787.16 62C787.16 61.424 787.075 60.8907 786.904 60.4C786.744 59.8987 786.504 59.4667 786.184 59.104C785.864 58.7307 785.464 58.4427 784.984 58.24C784.515 58.0267 783.971 57.92 783.352 57.92C782.104 57.92 781.123 58.2773 780.408 58.992C779.693 59.7067 779.24 60.7093 779.048 62H787.16ZM778.952 64.112C778.995 65.04 779.139 65.8453 779.384 66.528C779.629 67.2 779.955 67.76 780.36 68.208C780.776 68.656 781.267 68.992 781.832 69.216C782.408 69.4293 783.048 69.536 783.752 69.536C784.424 69.536 785.005 69.4613 785.496 69.312C785.987 69.152 786.413 68.9813 786.776 68.8C787.139 68.608 787.448 68.4373 787.704 68.288C787.96 68.128 788.195 68.048 788.408 68.048C788.685 68.048 788.899 68.1547 789.048 68.368L790.024 69.632C789.619 70.112 789.16 70.5173 788.648 70.848C788.136 71.1787 787.592 71.4507 787.016 71.664C786.44 71.8667 785.848 72.0107 785.24 72.096C784.632 72.192 784.04 72.24 783.464 72.24C782.333 72.24 781.283 72.0533 780.312 71.68C779.352 71.296 778.515 70.736 777.8 70C777.096 69.264 776.541 68.352 776.136 67.264C775.741 66.176 775.544 64.9227 775.544 63.504C775.544 62.3733 775.72 61.3173 776.072 60.336C776.435 59.3547 776.947 58.5013 777.608 57.776C778.28 57.0507 779.091 56.48 780.04 56.064C781 55.6373 782.083 55.424 783.288 55.424C784.291 55.424 785.219 55.5893 786.072 55.92C786.925 56.24 787.661 56.7147 788.28 57.344C788.899 57.9733 789.379 58.7467 789.72 59.664C790.072 60.5707 790.248 61.6053 790.248 62.768C790.248 63.3013 790.189 63.6587 790.072 63.84C789.955 64.0213 789.741 64.112 789.432 64.112H778.952Z" fill="black"/>
</svg>
