<svg width="19" height="18" viewBox="0 0 19 18" fill="none" xmlns="http://www.w3.org/2000/svg">
<path d="M15.5 5.25H3.5C2.67157 5.25 2 5.92157 2 6.75V14.25C2 15.0784 2.67157 15.75 3.5 15.75H15.5C16.3284 15.75 17 15.0784 17 14.25V6.75C17 5.92157 16.3284 5.25 15.5 5.25Z" stroke="#121212" stroke-width="1.4" stroke-linecap="round" stroke-linejoin="round"/>
<path d="M12.5 15.75V3.75C12.5 3.35218 12.342 2.97064 12.0607 2.68934C11.7794 2.40804 11.3978 2.25 11 2.25H8C7.60218 2.25 7.22064 2.40804 6.93934 2.68934C6.65804 2.97064 6.5 3.35218 6.5 3.75V15.75" stroke="#121212" stroke-width="1.4" stroke-linecap="round" stroke-linejoin="round"/>
</svg>
