<svg width="110" height="32" viewBox="0 0 110 32" fill="none" xmlns="http://www.w3.org/2000/svg">
<rect x="1" y="1" width="108" height="30" rx="15" fill="#E9EEFB"/>
<rect x="1" y="1" width="108" height="30" rx="15" stroke="#C7D4F4"/>
<path d="M17.5496 12.36V21H16.8356C16.7276 21 16.6356 20.982 16.5596 20.946C16.4836 20.906 16.4116 20.842 16.3436 20.754L11.5976 14.658C11.6096 14.774 11.6176 14.89 11.6216 15.006C11.6296 15.118 11.6336 15.222 11.6336 15.318V21H10.3976V12.36H11.1296C11.1896 12.36 11.2396 12.364 11.2796 12.372C11.3236 12.376 11.3636 12.386 11.3996 12.402C11.4356 12.418 11.4696 12.442 11.5016 12.474C11.5336 12.506 11.5676 12.546 11.6036 12.594L16.3556 18.696C16.3436 18.572 16.3336 18.45 16.3256 18.33C16.3216 18.21 16.3196 18.098 16.3196 17.994V12.36H17.5496ZM23.4351 17.25C23.4351 17.034 23.4031 16.834 23.3391 16.65C23.2791 16.462 23.1891 16.3 23.0691 16.164C22.9491 16.024 22.7991 15.916 22.6191 15.84C22.4431 15.76 22.2391 15.72 22.0071 15.72C21.5391 15.72 21.1711 15.854 20.9031 16.122C20.6351 16.39 20.4651 16.766 20.3931 17.25H23.4351ZM20.3571 18.042C20.3731 18.39 20.4271 18.692 20.5191 18.948C20.6111 19.2 20.7331 19.41 20.8851 19.578C21.0411 19.746 21.2251 19.872 21.4371 19.956C21.6531 20.036 21.8931 20.076 22.1571 20.076C22.4091 20.076 22.6271 20.048 22.8111 19.992C22.9951 19.932 23.1551 19.868 23.2911 19.8C23.4271 19.728 23.5431 19.664 23.6391 19.608C23.7351 19.548 23.8231 19.518 23.9031 19.518C24.0071 19.518 24.0871 19.558 24.1431 19.638L24.5091 20.112C24.3571 20.292 24.1851 20.444 23.9931 20.568C23.8011 20.692 23.5971 20.794 23.3811 20.874C23.1651 20.95 22.9431 21.004 22.7151 21.036C22.4871 21.072 22.2651 21.09 22.0491 21.09C21.6251 21.09 21.2311 21.02 20.8671 20.88C20.5071 20.736 20.1931 20.526 19.9251 20.25C19.6611 19.974 19.4531 19.632 19.3011 19.224C19.1531 18.816 19.0791 18.346 19.0791 17.814C19.0791 17.39 19.1451 16.994 19.2771 16.626C19.4131 16.258 19.6051 15.938 19.8531 15.666C20.1051 15.394 20.4091 15.18 20.7651 15.024C21.1251 14.864 21.5311 14.784 21.9831 14.784C22.3591 14.784 22.7071 14.846 23.0271 14.97C23.3471 15.09 23.6231 15.268 23.8551 15.504C24.0871 15.74 24.2671 16.03 24.3951 16.374C24.5271 16.714 24.5931 17.102 24.5931 17.538C24.5931 17.738 24.5711 17.872 24.5271 17.94C24.4831 18.008 24.4031 18.042 24.2871 18.042H20.3571ZM30.0501 17.25C30.0501 17.034 30.0181 16.834 29.9541 16.65C29.8941 16.462 29.8041 16.3 29.6841 16.164C29.5641 16.024 29.4141 15.916 29.2341 15.84C29.0581 15.76 28.8541 15.72 28.6221 15.72C28.1541 15.72 27.7861 15.854 27.5181 16.122C27.2501 16.39 27.0801 16.766 27.0081 17.25H30.0501ZM26.9721 18.042C26.9881 18.39 27.0421 18.692 27.1341 18.948C27.2261 19.2 27.3481 19.41 27.5001 19.578C27.6561 19.746 27.8401 19.872 28.0521 19.956C28.2681 20.036 28.5081 20.076 28.7721 20.076C29.0241 20.076 29.2421 20.048 29.4261 19.992C29.6101 19.932 29.7701 19.868 29.9061 19.8C30.0421 19.728 30.1581 19.664 30.2541 19.608C30.3501 19.548 30.4381 19.518 30.5181 19.518C30.6221 19.518 30.7021 19.558 30.7581 19.638L31.1241 20.112C30.9721 20.292 30.8001 20.444 30.6081 20.568C30.4161 20.692 30.2121 20.794 29.9961 20.874C29.7801 20.95 29.5581 21.004 29.3301 21.036C29.1021 21.072 28.8801 21.09 28.6641 21.09C28.2401 21.09 27.8461 21.02 27.4821 20.88C27.1221 20.736 26.8081 20.526 26.5401 20.25C26.2761 19.974 26.0681 19.632 25.9161 19.224C25.7681 18.816 25.6941 18.346 25.6941 17.814C25.6941 17.39 25.7601 16.994 25.8921 16.626C26.0281 16.258 26.2201 15.938 26.4681 15.666C26.7201 15.394 27.0241 15.18 27.3801 15.024C27.7401 14.864 28.1461 14.784 28.5981 14.784C28.9741 14.784 29.3221 14.846 29.6421 14.97C29.9621 15.09 30.2381 15.268 30.4701 15.504C30.7021 15.74 30.8821 16.03 31.0101 16.374C31.1421 16.714 31.2081 17.102 31.2081 17.538C31.2081 17.738 31.1861 17.872 31.1421 17.94C31.0981 18.008 31.0181 18.042 30.9021 18.042H26.9721ZM36.5571 16.386C36.3771 16.154 36.1791 15.992 35.9631 15.9C35.7471 15.808 35.5131 15.762 35.2611 15.762C34.7571 15.762 34.3631 15.948 34.0791 16.32C33.7951 16.688 33.6531 17.234 33.6531 17.958C33.6531 18.334 33.6851 18.656 33.7491 18.924C33.8131 19.188 33.9051 19.404 34.0251 19.572C34.1451 19.74 34.2911 19.862 34.4631 19.938C34.6351 20.014 34.8291 20.052 35.0451 20.052C35.3731 20.052 35.6551 19.982 35.8911 19.842C36.1311 19.698 36.3531 19.496 36.5571 19.236V16.386ZM37.8471 12.12V21H37.0671C36.8951 21 36.7851 20.918 36.7371 20.754L36.6231 20.088C36.3671 20.388 36.0751 20.63 35.7471 20.814C35.4231 20.998 35.0451 21.09 34.6131 21.09C34.2691 21.09 33.9571 21.022 33.6771 20.886C33.3971 20.746 33.1571 20.544 32.9571 20.28C32.7571 20.016 32.6011 19.69 32.4891 19.302C32.3811 18.91 32.3271 18.462 32.3271 17.958C32.3271 17.502 32.3871 17.08 32.5071 16.692C32.6311 16.304 32.8071 15.968 33.0351 15.684C33.2631 15.396 33.5391 15.172 33.8631 15.012C34.1911 14.848 34.5571 14.766 34.9611 14.766C35.3211 14.766 35.6271 14.824 35.8791 14.94C36.1311 15.052 36.3571 15.21 36.5571 15.414V12.12H37.8471ZM43.6785 17.25C43.6785 17.034 43.6465 16.834 43.5825 16.65C43.5225 16.462 43.4325 16.3 43.3125 16.164C43.1925 16.024 43.0425 15.916 42.8625 15.84C42.6865 15.76 42.4825 15.72 42.2505 15.72C41.7825 15.72 41.4145 15.854 41.1465 16.122C40.8785 16.39 40.7085 16.766 40.6365 17.25H43.6785ZM40.6005 18.042C40.6165 18.39 40.6705 18.692 40.7625 18.948C40.8545 19.2 40.9765 19.41 41.1285 19.578C41.2845 19.746 41.4685 19.872 41.6805 19.956C41.8965 20.036 42.1365 20.076 42.4005 20.076C42.6525 20.076 42.8705 20.048 43.0545 19.992C43.2385 19.932 43.3985 19.868 43.5345 19.8C43.6705 19.728 43.7865 19.664 43.8825 19.608C43.9785 19.548 44.0665 19.518 44.1465 19.518C44.2505 19.518 44.3305 19.558 44.3865 19.638L44.7525 20.112C44.6005 20.292 44.4285 20.444 44.2365 20.568C44.0445 20.692 43.8405 20.794 43.6245 20.874C43.4085 20.95 43.1865 21.004 42.9585 21.036C42.7305 21.072 42.5085 21.09 42.2925 21.09C41.8685 21.09 41.4745 21.02 41.1105 20.88C40.7505 20.736 40.4365 20.526 40.1685 20.25C39.9045 19.974 39.6965 19.632 39.5445 19.224C39.3965 18.816 39.3225 18.346 39.3225 17.814C39.3225 17.39 39.3885 16.994 39.5205 16.626C39.6565 16.258 39.8485 15.938 40.0965 15.666C40.3485 15.394 40.6525 15.18 41.0085 15.024C41.3685 14.864 41.7745 14.784 42.2265 14.784C42.6025 14.784 42.9505 14.846 43.2705 14.97C43.5905 15.09 43.8665 15.268 44.0985 15.504C44.3305 15.74 44.5105 16.03 44.6385 16.374C44.7705 16.714 44.8365 17.102 44.8365 17.538C44.8365 17.738 44.8145 17.872 44.7705 17.94C44.7265 18.008 44.6465 18.042 44.5305 18.042H40.6005ZM50.1855 16.386C50.0055 16.154 49.8075 15.992 49.5915 15.9C49.3755 15.808 49.1415 15.762 48.8895 15.762C48.3855 15.762 47.9915 15.948 47.7075 16.32C47.4235 16.688 47.2815 17.234 47.2815 17.958C47.2815 18.334 47.3135 18.656 47.3775 18.924C47.4415 19.188 47.5335 19.404 47.6535 19.572C47.7735 19.74 47.9195 19.862 48.0915 19.938C48.2635 20.014 48.4575 20.052 48.6735 20.052C49.0015 20.052 49.2835 19.982 49.5195 19.842C49.7595 19.698 49.9815 19.496 50.1855 19.236V16.386ZM51.4755 12.12V21H50.6955C50.5235 21 50.4135 20.918 50.3655 20.754L50.2515 20.088C49.9955 20.388 49.7035 20.63 49.3755 20.814C49.0515 20.998 48.6735 21.09 48.2415 21.09C47.8975 21.09 47.5855 21.022 47.3055 20.886C47.0255 20.746 46.7855 20.544 46.5855 20.28C46.3855 20.016 46.2295 19.69 46.1175 19.302C46.0095 18.91 45.9555 18.462 45.9555 17.958C45.9555 17.502 46.0155 17.08 46.1355 16.692C46.2595 16.304 46.4355 15.968 46.6635 15.684C46.8915 15.396 47.1675 15.172 47.4915 15.012C47.8195 14.848 48.1855 14.766 48.5895 14.766C48.9495 14.766 49.2555 14.824 49.5075 14.94C49.7595 15.052 49.9855 15.21 50.1855 15.414V12.12H51.4755ZM59.7912 18.324C59.3312 18.34 58.9432 18.378 58.6272 18.438C58.3112 18.494 58.0552 18.568 57.8592 18.66C57.6632 18.748 57.5212 18.854 57.4332 18.978C57.3492 19.102 57.3072 19.238 57.3072 19.386C57.3072 19.53 57.3292 19.654 57.3732 19.758C57.4212 19.858 57.4852 19.942 57.5652 20.01C57.6492 20.074 57.7452 20.122 57.8532 20.154C57.9652 20.182 58.0872 20.196 58.2192 20.196C58.5552 20.196 58.8432 20.134 59.0832 20.01C59.3272 19.882 59.5632 19.698 59.7912 19.458V18.324ZM56.3712 15.732C57.0632 15.088 57.8872 14.766 58.8432 14.766C59.1952 14.766 59.5072 14.824 59.7792 14.94C60.0552 15.052 60.2852 15.212 60.4692 15.42C60.6572 15.628 60.7992 15.876 60.8952 16.164C60.9952 16.448 61.0452 16.764 61.0452 17.112V21H60.4692C60.3452 21 60.2512 20.982 60.1872 20.946C60.1232 20.906 60.0692 20.828 60.0252 20.712L59.8992 20.214C59.7432 20.354 59.5892 20.48 59.4372 20.592C59.2852 20.7 59.1272 20.792 58.9632 20.868C58.8032 20.944 58.6292 21 58.4412 21.036C58.2572 21.076 58.0532 21.096 57.8292 21.096C57.5812 21.096 57.3492 21.062 57.1332 20.994C56.9212 20.926 56.7372 20.824 56.5812 20.688C56.4252 20.548 56.3012 20.376 56.2092 20.172C56.1212 19.968 56.0772 19.728 56.0772 19.452C56.0772 19.216 56.1392 18.986 56.2632 18.762C56.3912 18.538 56.5992 18.338 56.8872 18.162C57.1792 17.982 57.5612 17.834 58.0332 17.718C58.5092 17.602 59.0952 17.536 59.7912 17.52V17.112C59.7912 16.672 59.6972 16.344 59.5092 16.128C59.3212 15.912 59.0452 15.804 58.6812 15.804C58.4332 15.804 58.2252 15.836 58.0572 15.9C57.8892 15.96 57.7432 16.026 57.6192 16.098C57.4952 16.17 57.3852 16.238 57.2892 16.302C57.1932 16.362 57.0912 16.392 56.9832 16.392C56.8952 16.392 56.8192 16.37 56.7552 16.326C56.6952 16.278 56.6452 16.22 56.6052 16.152L56.3712 15.732ZM64.0024 15.69C64.1344 15.554 64.2704 15.432 64.4104 15.324C64.5544 15.212 64.7064 15.116 64.8664 15.036C65.0264 14.956 65.1964 14.894 65.3764 14.85C65.5564 14.806 65.7524 14.784 65.9644 14.784C66.3004 14.784 66.5944 14.84 66.8464 14.952C67.1024 15.064 67.3164 15.222 67.4884 15.426C67.6644 15.63 67.7964 15.876 67.8844 16.164C67.9724 16.448 68.0164 16.762 68.0164 17.106V21H66.7324V17.106C66.7324 16.694 66.6364 16.374 66.4444 16.146C66.2564 15.918 65.9684 15.804 65.5804 15.804C65.2924 15.804 65.0244 15.87 64.7764 16.002C64.5324 16.134 64.3024 16.314 64.0864 16.542V21H62.7964V14.88H63.5764C63.7524 14.88 63.8644 14.962 63.9124 15.126L64.0024 15.69ZM73.417 15.99C73.385 16.046 73.349 16.086 73.309 16.11C73.269 16.134 73.219 16.146 73.159 16.146C73.091 16.146 73.017 16.126 72.937 16.086C72.857 16.042 72.763 15.994 72.655 15.942C72.547 15.89 72.419 15.844 72.271 15.804C72.127 15.76 71.957 15.738 71.761 15.738C71.601 15.738 71.455 15.758 71.323 15.798C71.195 15.834 71.085 15.888 70.993 15.96C70.905 16.028 70.837 16.11 70.789 16.206C70.741 16.298 70.717 16.398 70.717 16.506C70.717 16.65 70.761 16.77 70.849 16.866C70.937 16.962 71.053 17.046 71.197 17.118C71.341 17.186 71.505 17.248 71.689 17.304C71.873 17.36 72.061 17.42 72.253 17.484C72.445 17.548 72.633 17.622 72.817 17.706C73.001 17.79 73.165 17.894 73.309 18.018C73.453 18.138 73.569 18.286 73.657 18.462C73.745 18.634 73.789 18.844 73.789 19.092C73.789 19.38 73.737 19.646 73.633 19.89C73.529 20.134 73.377 20.346 73.177 20.526C72.977 20.706 72.727 20.846 72.427 20.946C72.131 21.046 71.791 21.096 71.407 21.096C71.195 21.096 70.989 21.076 70.789 21.036C70.593 21 70.405 20.95 70.225 20.886C70.049 20.818 69.883 20.738 69.727 20.646C69.575 20.554 69.439 20.454 69.319 20.346L69.619 19.854C69.655 19.794 69.699 19.748 69.751 19.716C69.807 19.68 69.875 19.662 69.955 19.662C70.039 19.662 70.121 19.69 70.201 19.746C70.285 19.798 70.381 19.856 70.489 19.92C70.601 19.984 70.735 20.044 70.891 20.1C71.047 20.152 71.241 20.178 71.473 20.178C71.665 20.178 71.831 20.156 71.971 20.112C72.111 20.064 72.227 20 72.319 19.92C72.411 19.84 72.479 19.75 72.523 19.65C72.567 19.546 72.589 19.436 72.589 19.32C72.589 19.164 72.545 19.036 72.457 18.936C72.369 18.836 72.251 18.75 72.103 18.678C71.959 18.606 71.793 18.542 71.605 18.486C71.421 18.43 71.233 18.37 71.041 18.306C70.849 18.242 70.659 18.168 70.471 18.084C70.287 18 70.121 17.894 69.973 17.766C69.829 17.634 69.713 17.476 69.625 17.292C69.537 17.104 69.493 16.876 69.493 16.608C69.493 16.364 69.541 16.132 69.637 15.912C69.737 15.692 69.881 15.498 70.069 15.33C70.261 15.162 70.495 15.03 70.771 14.934C71.051 14.834 71.373 14.784 71.737 14.784C72.149 14.784 72.523 14.85 72.859 14.982C73.195 15.114 73.477 15.294 73.705 15.522L73.417 15.99ZM83.8392 14.88L81.8772 21H80.8512C80.7312 21 80.6472 20.922 80.5992 20.766L79.3812 16.956C79.3492 16.848 79.3192 16.74 79.2912 16.632C79.2672 16.524 79.2452 16.418 79.2252 16.314C79.1812 16.53 79.1272 16.746 79.0632 16.962L77.8272 20.766C77.7832 20.922 77.6892 21 77.5452 21H76.5672L74.6052 14.88H75.6252C75.7252 14.88 75.8072 14.906 75.8712 14.958C75.9392 15.006 75.9832 15.064 76.0032 15.132L77.0232 18.696C77.0632 18.86 77.0972 19.02 77.1252 19.176C77.1572 19.328 77.1852 19.48 77.2092 19.632C77.2492 19.48 77.2912 19.328 77.3352 19.176C77.3792 19.02 77.4252 18.86 77.4732 18.696L78.6192 15.114C78.6392 15.042 78.6792 14.984 78.7392 14.94C78.8032 14.892 78.8792 14.868 78.9672 14.868H79.5312C79.6232 14.868 79.7012 14.892 79.7652 14.94C79.8292 14.984 79.8712 15.042 79.8912 15.114L81.0072 18.696C81.0552 18.86 81.0992 19.02 81.1392 19.176C81.1832 19.332 81.2232 19.488 81.2592 19.644C81.2872 19.492 81.3172 19.338 81.3492 19.182C81.3812 19.026 81.4192 18.864 81.4632 18.696L82.5012 15.132C82.5252 15.06 82.5692 15 82.6332 14.952C82.6972 14.904 82.7752 14.88 82.8672 14.88H83.8392ZM88.9405 17.25C88.9405 17.034 88.9085 16.834 88.8445 16.65C88.7845 16.462 88.6945 16.3 88.5745 16.164C88.4545 16.024 88.3045 15.916 88.1245 15.84C87.9485 15.76 87.7445 15.72 87.5125 15.72C87.0445 15.72 86.6765 15.854 86.4085 16.122C86.1405 16.39 85.9705 16.766 85.8985 17.25H88.9405ZM85.8625 18.042C85.8785 18.39 85.9325 18.692 86.0245 18.948C86.1165 19.2 86.2385 19.41 86.3905 19.578C86.5465 19.746 86.7305 19.872 86.9425 19.956C87.1585 20.036 87.3985 20.076 87.6625 20.076C87.9145 20.076 88.1325 20.048 88.3165 19.992C88.5005 19.932 88.6605 19.868 88.7965 19.8C88.9325 19.728 89.0485 19.664 89.1445 19.608C89.2405 19.548 89.3285 19.518 89.4085 19.518C89.5125 19.518 89.5925 19.558 89.6485 19.638L90.0145 20.112C89.8625 20.292 89.6905 20.444 89.4985 20.568C89.3065 20.692 89.1025 20.794 88.8865 20.874C88.6705 20.95 88.4485 21.004 88.2205 21.036C87.9925 21.072 87.7705 21.09 87.5545 21.09C87.1305 21.09 86.7365 21.02 86.3725 20.88C86.0125 20.736 85.6985 20.526 85.4305 20.25C85.1665 19.974 84.9585 19.632 84.8065 19.224C84.6585 18.816 84.5845 18.346 84.5845 17.814C84.5845 17.39 84.6505 16.994 84.7825 16.626C84.9185 16.258 85.1105 15.938 85.3585 15.666C85.6105 15.394 85.9145 15.18 86.2705 15.024C86.6305 14.864 87.0365 14.784 87.4885 14.784C87.8645 14.784 88.2125 14.846 88.5325 14.97C88.8525 15.09 89.1285 15.268 89.3605 15.504C89.5925 15.74 89.7725 16.03 89.9005 16.374C90.0325 16.714 90.0985 17.102 90.0985 17.538C90.0985 17.738 90.0765 17.872 90.0325 17.94C89.9885 18.008 89.9085 18.042 89.7925 18.042H85.8625ZM92.7595 16.014C92.9515 15.626 93.1835 15.322 93.4555 15.102C93.7275 14.878 94.0535 14.766 94.4335 14.766C94.5655 14.766 94.6895 14.782 94.8055 14.814C94.9215 14.842 95.0255 14.886 95.1175 14.946L95.0275 15.918C95.0115 15.986 94.9855 16.034 94.9495 16.062C94.9175 16.086 94.8735 16.098 94.8175 16.098C94.7575 16.098 94.6715 16.088 94.5595 16.068C94.4475 16.044 94.3295 16.032 94.2055 16.032C94.0255 16.032 93.8655 16.058 93.7255 16.11C93.5895 16.162 93.4655 16.238 93.3535 16.338C93.2455 16.438 93.1495 16.56 93.0655 16.704C92.9815 16.848 92.9035 17.012 92.8315 17.196V21H91.5415V14.88H92.2915C92.4275 14.88 92.5215 14.906 92.5735 14.958C92.6255 15.006 92.6615 15.092 92.6815 15.216L92.7595 16.014ZM99.8301 15.99C99.7981 16.046 99.7621 16.086 99.7221 16.11C99.6821 16.134 99.6321 16.146 99.5721 16.146C99.5041 16.146 99.4301 16.126 99.3501 16.086C99.2701 16.042 99.1761 15.994 99.0681 15.942C98.9601 15.89 98.8321 15.844 98.6841 15.804C98.5401 15.76 98.3701 15.738 98.1741 15.738C98.0141 15.738 97.8681 15.758 97.7361 15.798C97.6081 15.834 97.4981 15.888 97.4061 15.96C97.3181 16.028 97.2501 16.11 97.2021 16.206C97.1541 16.298 97.1301 16.398 97.1301 16.506C97.1301 16.65 97.1741 16.77 97.2621 16.866C97.3501 16.962 97.4661 17.046 97.6101 17.118C97.7541 17.186 97.9181 17.248 98.1021 17.304C98.2861 17.36 98.4741 17.42 98.6661 17.484C98.8581 17.548 99.0461 17.622 99.2301 17.706C99.4141 17.79 99.5781 17.894 99.7221 18.018C99.8661 18.138 99.9821 18.286 100.07 18.462C100.158 18.634 100.202 18.844 100.202 19.092C100.202 19.38 100.15 19.646 100.046 19.89C99.9421 20.134 99.7901 20.346 99.5901 20.526C99.3901 20.706 99.1401 20.846 98.8401 20.946C98.5441 21.046 98.2041 21.096 97.8201 21.096C97.6081 21.096 97.4021 21.076 97.2021 21.036C97.0061 21 96.8181 20.95 96.6381 20.886C96.4621 20.818 96.2961 20.738 96.1401 20.646C95.9881 20.554 95.8521 20.454 95.7321 20.346L96.0321 19.854C96.0681 19.794 96.1121 19.748 96.1641 19.716C96.2201 19.68 96.2881 19.662 96.3681 19.662C96.4521 19.662 96.5341 19.69 96.6141 19.746C96.6981 19.798 96.7941 19.856 96.9021 19.92C97.0141 19.984 97.1481 20.044 97.3041 20.1C97.4601 20.152 97.6541 20.178 97.8861 20.178C98.0781 20.178 98.2441 20.156 98.3841 20.112C98.5241 20.064 98.6401 20 98.7321 19.92C98.8241 19.84 98.8921 19.75 98.9361 19.65C98.9801 19.546 99.0021 19.436 99.0021 19.32C99.0021 19.164 98.9581 19.036 98.8701 18.936C98.7821 18.836 98.6641 18.75 98.5161 18.678C98.3721 18.606 98.2061 18.542 98.0181 18.486C97.8341 18.43 97.6461 18.37 97.4541 18.306C97.2621 18.242 97.0721 18.168 96.8841 18.084C96.7001 18 96.5341 17.894 96.3861 17.766C96.2421 17.634 96.1261 17.476 96.0381 17.292C95.9501 17.104 95.9061 16.876 95.9061 16.608C95.9061 16.364 95.9541 16.132 96.0501 15.912C96.1501 15.692 96.2941 15.498 96.4821 15.33C96.6741 15.162 96.9081 15.03 97.1841 14.934C97.4641 14.834 97.7861 14.784 98.1501 14.784C98.5621 14.784 98.9361 14.85 99.2721 14.982C99.6081 15.114 99.8901 15.294 100.118 15.522L99.8301 15.99Z" fill="#2054D2"/>
</svg>
