<svg width="87" height="32" viewBox="0 0 87 32" fill="none" xmlns="http://www.w3.org/2000/svg">
<rect x="1" y="1" width="85" height="30" rx="15" fill="#FFEDCD"/>
<rect x="1" y="1" width="85" height="30" rx="15" stroke="#BD7F0D"/>
<path d="M18.144 16.68C18.144 17.32 18.04 17.91 17.832 18.45C17.624 18.99 17.33 19.456 16.95 19.848C16.574 20.236 16.12 20.54 15.588 20.76C15.06 20.98 14.472 21.09 13.824 21.09C13.18 21.09 12.592 20.98 12.06 20.76C11.532 20.54 11.078 20.236 10.698 19.848C10.318 19.456 10.024 18.99 9.816 18.45C9.608 17.91 9.504 17.32 9.504 16.68C9.504 16.04 9.608 15.45 9.816 14.91C10.024 14.37 10.318 13.904 10.698 13.512C11.078 13.12 11.532 12.814 12.06 12.594C12.592 12.374 13.18 12.264 13.824 12.264C14.472 12.264 15.06 12.374 15.588 12.594C16.12 12.814 16.574 13.12 16.95 13.512C17.33 13.904 17.624 14.37 17.832 14.91C18.04 15.45 18.144 16.04 18.144 16.68ZM16.71 16.68C16.71 16.184 16.642 15.738 16.506 15.342C16.374 14.946 16.182 14.61 15.93 14.334C15.682 14.058 15.38 13.846 15.024 13.698C14.668 13.55 14.268 13.476 13.824 13.476C13.384 13.476 12.986 13.55 12.63 13.698C12.274 13.846 11.97 14.058 11.718 14.334C11.466 14.61 11.272 14.946 11.136 15.342C11 15.738 10.932 16.184 10.932 16.68C10.932 17.18 11 17.628 11.136 18.024C11.272 18.42 11.466 18.756 11.718 19.032C11.97 19.304 12.274 19.514 12.63 19.662C12.986 19.806 13.384 19.878 13.824 19.878C14.268 19.878 14.668 19.806 15.024 19.662C15.38 19.514 15.682 19.304 15.93 19.032C16.182 18.756 16.374 18.42 16.506 18.024C16.642 17.628 16.71 17.18 16.71 16.68ZM24.7602 14.88V21H23.9802C23.8082 21 23.6982 20.918 23.6502 20.754L23.5542 20.184C23.4262 20.32 23.2902 20.444 23.1462 20.556C23.0062 20.668 22.8562 20.764 22.6962 20.844C22.5362 20.924 22.3642 20.986 22.1802 21.03C22.0002 21.074 21.8062 21.096 21.5982 21.096C21.2622 21.096 20.9662 21.04 20.7102 20.928C20.4542 20.816 20.2382 20.658 20.0622 20.454C19.8902 20.25 19.7602 20.006 19.6722 19.722C19.5842 19.434 19.5402 19.118 19.5402 18.774V14.88H20.8302V18.774C20.8302 19.186 20.9242 19.506 21.1122 19.734C21.3042 19.962 21.5942 20.076 21.9822 20.076C22.2662 20.076 22.5302 20.012 22.7742 19.884C23.0222 19.752 23.2542 19.572 23.4702 19.344V14.88H24.7602ZM27.7848 16.014C27.9768 15.626 28.2088 15.322 28.4808 15.102C28.7528 14.878 29.0788 14.766 29.4588 14.766C29.5908 14.766 29.7148 14.782 29.8308 14.814C29.9468 14.842 30.0508 14.886 30.1428 14.946L30.0528 15.918C30.0368 15.986 30.0108 16.034 29.9748 16.062C29.9428 16.086 29.8988 16.098 29.8428 16.098C29.7828 16.098 29.6968 16.088 29.5848 16.068C29.4728 16.044 29.3548 16.032 29.2308 16.032C29.0508 16.032 28.8908 16.058 28.7508 16.11C28.6148 16.162 28.4908 16.238 28.3788 16.338C28.2708 16.438 28.1748 16.56 28.0908 16.704C28.0068 16.848 27.9288 17.012 27.8568 17.196V21H26.5668V14.88H27.3168C27.4528 14.88 27.5468 14.906 27.5988 14.958C27.6508 15.006 27.6868 15.092 27.7068 15.216L27.7848 16.014ZM37.8609 15.99C37.8289 16.046 37.7929 16.086 37.7529 16.11C37.7129 16.134 37.6629 16.146 37.6029 16.146C37.5349 16.146 37.4609 16.126 37.3809 16.086C37.3009 16.042 37.2069 15.994 37.0989 15.942C36.9909 15.89 36.8629 15.844 36.7149 15.804C36.5709 15.76 36.4009 15.738 36.2049 15.738C36.0449 15.738 35.8989 15.758 35.7669 15.798C35.6389 15.834 35.5289 15.888 35.4369 15.96C35.3489 16.028 35.2809 16.11 35.2329 16.206C35.1849 16.298 35.1609 16.398 35.1609 16.506C35.1609 16.65 35.2049 16.77 35.2929 16.866C35.3809 16.962 35.4969 17.046 35.6409 17.118C35.7849 17.186 35.9489 17.248 36.1329 17.304C36.3169 17.36 36.5049 17.42 36.6969 17.484C36.8889 17.548 37.0769 17.622 37.2609 17.706C37.4449 17.79 37.6089 17.894 37.7529 18.018C37.8969 18.138 38.0129 18.286 38.1009 18.462C38.1889 18.634 38.2329 18.844 38.2329 19.092C38.2329 19.38 38.1809 19.646 38.0769 19.89C37.9729 20.134 37.8209 20.346 37.6209 20.526C37.4209 20.706 37.1709 20.846 36.8709 20.946C36.5749 21.046 36.2349 21.096 35.8509 21.096C35.6389 21.096 35.4329 21.076 35.2329 21.036C35.0369 21 34.8489 20.95 34.6689 20.886C34.4929 20.818 34.3269 20.738 34.1709 20.646C34.0189 20.554 33.8829 20.454 33.7629 20.346L34.0629 19.854C34.0989 19.794 34.1429 19.748 34.1949 19.716C34.2509 19.68 34.3189 19.662 34.3989 19.662C34.4829 19.662 34.5649 19.69 34.6449 19.746C34.7289 19.798 34.8249 19.856 34.9329 19.92C35.0449 19.984 35.1789 20.044 35.3349 20.1C35.4909 20.152 35.6849 20.178 35.9169 20.178C36.1089 20.178 36.2749 20.156 36.4149 20.112C36.5549 20.064 36.6709 20 36.7629 19.92C36.8549 19.84 36.9229 19.75 36.9669 19.65C37.0109 19.546 37.0329 19.436 37.0329 19.32C37.0329 19.164 36.9889 19.036 36.9009 18.936C36.8129 18.836 36.6949 18.75 36.5469 18.678C36.4029 18.606 36.2369 18.542 36.0489 18.486C35.8649 18.43 35.6769 18.37 35.4849 18.306C35.2929 18.242 35.1029 18.168 34.9149 18.084C34.7309 18 34.5649 17.894 34.4169 17.766C34.2729 17.634 34.1569 17.476 34.0689 17.292C33.9809 17.104 33.9369 16.876 33.9369 16.608C33.9369 16.364 33.9849 16.132 34.0809 15.912C34.1809 15.692 34.3249 15.498 34.5129 15.33C34.7049 15.162 34.9389 15.03 35.2149 14.934C35.4949 14.834 35.8169 14.784 36.1809 14.784C36.5929 14.784 36.9669 14.85 37.3029 14.982C37.6389 15.114 37.9209 15.294 38.1489 15.522L37.8609 15.99ZM43.6992 17.25C43.6992 17.034 43.6672 16.834 43.6032 16.65C43.5432 16.462 43.4532 16.3 43.3332 16.164C43.2132 16.024 43.0632 15.916 42.8832 15.84C42.7072 15.76 42.5032 15.72 42.2712 15.72C41.8032 15.72 41.4352 15.854 41.1672 16.122C40.8992 16.39 40.7292 16.766 40.6572 17.25H43.6992ZM40.6212 18.042C40.6372 18.39 40.6912 18.692 40.7832 18.948C40.8752 19.2 40.9972 19.41 41.1492 19.578C41.3052 19.746 41.4892 19.872 41.7012 19.956C41.9172 20.036 42.1572 20.076 42.4212 20.076C42.6732 20.076 42.8912 20.048 43.0752 19.992C43.2592 19.932 43.4192 19.868 43.5552 19.8C43.6912 19.728 43.8072 19.664 43.9032 19.608C43.9992 19.548 44.0872 19.518 44.1672 19.518C44.2712 19.518 44.3512 19.558 44.4072 19.638L44.7732 20.112C44.6212 20.292 44.4492 20.444 44.2572 20.568C44.0652 20.692 43.8612 20.794 43.6452 20.874C43.4292 20.95 43.2072 21.004 42.9792 21.036C42.7512 21.072 42.5292 21.09 42.3132 21.09C41.8892 21.09 41.4952 21.02 41.1312 20.88C40.7712 20.736 40.4572 20.526 40.1892 20.25C39.9252 19.974 39.7172 19.632 39.5652 19.224C39.4172 18.816 39.3432 18.346 39.3432 17.814C39.3432 17.39 39.4092 16.994 39.5412 16.626C39.6772 16.258 39.8692 15.938 40.1172 15.666C40.3692 15.394 40.6732 15.18 41.0292 15.024C41.3892 14.864 41.7952 14.784 42.2472 14.784C42.6232 14.784 42.9712 14.846 43.2912 14.97C43.6112 15.09 43.8872 15.268 44.1192 15.504C44.3512 15.74 44.5312 16.03 44.6592 16.374C44.7912 16.714 44.8572 17.102 44.8572 17.538C44.8572 17.738 44.8352 17.872 44.7912 17.94C44.7472 18.008 44.6672 18.042 44.5512 18.042H40.6212ZM47.5182 16.014C47.7102 15.626 47.9422 15.322 48.2142 15.102C48.4862 14.878 48.8122 14.766 49.1922 14.766C49.3242 14.766 49.4482 14.782 49.5642 14.814C49.6802 14.842 49.7842 14.886 49.8762 14.946L49.7862 15.918C49.7702 15.986 49.7442 16.034 49.7082 16.062C49.6762 16.086 49.6322 16.098 49.5762 16.098C49.5162 16.098 49.4302 16.088 49.3182 16.068C49.2062 16.044 49.0882 16.032 48.9642 16.032C48.7842 16.032 48.6242 16.058 48.4842 16.11C48.3482 16.162 48.2242 16.238 48.1122 16.338C48.0042 16.438 47.9082 16.56 47.8242 16.704C47.7402 16.848 47.6622 17.012 47.5902 17.196V21H46.3002V14.88H47.0502C47.1862 14.88 47.2802 14.906 47.3322 14.958C47.3842 15.006 47.4202 15.092 47.4402 15.216L47.5182 16.014ZM56.3579 14.88L53.8979 21H52.7339L50.2739 14.88H51.3359C51.4359 14.88 51.5179 14.906 51.5819 14.958C51.6499 15.006 51.6939 15.064 51.7139 15.132L53.0699 18.696C53.1259 18.864 53.1759 19.03 53.2199 19.194C53.2639 19.358 53.3019 19.524 53.3339 19.692C53.3659 19.524 53.4039 19.36 53.4479 19.2C53.4959 19.036 53.5479 18.868 53.6039 18.696L54.9839 15.132C55.0079 15.06 55.0519 15 55.1159 14.952C55.1799 14.904 55.2579 14.88 55.3499 14.88H56.3579ZM58.8234 14.88V21H57.5334V14.88H58.8234ZM59.0394 13.032C59.0394 13.148 59.0154 13.258 58.9674 13.362C58.9234 13.466 58.8614 13.558 58.7814 13.638C58.7014 13.714 58.6074 13.776 58.4994 13.824C58.3954 13.868 58.2834 13.89 58.1634 13.89C58.0474 13.89 57.9374 13.868 57.8334 13.824C57.7334 13.776 57.6454 13.714 57.5694 13.638C57.4934 13.558 57.4314 13.466 57.3834 13.362C57.3394 13.258 57.3174 13.148 57.3174 13.032C57.3174 12.912 57.3394 12.8 57.3834 12.696C57.4314 12.592 57.4934 12.502 57.5694 12.426C57.6454 12.346 57.7334 12.284 57.8334 12.24C57.9374 12.192 58.0474 12.168 58.1634 12.168C58.2834 12.168 58.3954 12.192 58.4994 12.24C58.6074 12.284 58.7014 12.346 58.7814 12.426C58.8614 12.502 58.9234 12.592 58.9674 12.696C59.0154 12.8 59.0394 12.912 59.0394 13.032ZM65.0103 16.08C64.9703 16.132 64.9323 16.172 64.8963 16.2C64.8603 16.228 64.8083 16.242 64.7403 16.242C64.6723 16.242 64.6003 16.218 64.5243 16.17C64.4523 16.122 64.3643 16.07 64.2603 16.014C64.1603 15.954 64.0383 15.9 63.8943 15.852C63.7503 15.804 63.5703 15.78 63.3543 15.78C63.0743 15.78 62.8283 15.83 62.6163 15.93C62.4083 16.03 62.2323 16.174 62.0883 16.362C61.9483 16.546 61.8423 16.772 61.7703 17.04C61.7023 17.304 61.6683 17.602 61.6683 17.934C61.6683 18.278 61.7063 18.584 61.7823 18.852C61.8583 19.12 61.9663 19.346 62.1063 19.53C62.2503 19.714 62.4223 19.854 62.6223 19.95C62.8263 20.046 63.0543 20.094 63.3063 20.094C63.5543 20.094 63.7563 20.064 63.9123 20.004C64.0683 19.944 64.1983 19.878 64.3023 19.806C64.4063 19.734 64.4943 19.668 64.5663 19.608C64.6423 19.548 64.7223 19.518 64.8063 19.518C64.9103 19.518 64.9903 19.558 65.0463 19.638L65.4123 20.112C65.2643 20.292 65.1003 20.444 64.9203 20.568C64.7403 20.692 64.5503 20.794 64.3503 20.874C64.1503 20.95 63.9423 21.004 63.7263 21.036C63.5103 21.072 63.2923 21.09 63.0723 21.09C62.6923 21.09 62.3363 21.02 62.0043 20.88C61.6763 20.736 61.3883 20.53 61.1403 20.262C60.8963 19.99 60.7023 19.66 60.5583 19.272C60.4183 18.88 60.3483 18.434 60.3483 17.934C60.3483 17.482 60.4123 17.064 60.5403 16.68C60.6683 16.292 60.8543 15.958 61.0983 15.678C61.3463 15.398 61.6523 15.18 62.0163 15.024C62.3803 14.864 62.8003 14.784 63.2763 14.784C63.7203 14.784 64.1103 14.856 64.4463 15C64.7863 15.144 65.0883 15.348 65.3523 15.612L65.0103 16.08ZM70.5984 17.25C70.5984 17.034 70.5664 16.834 70.5024 16.65C70.4424 16.462 70.3524 16.3 70.2324 16.164C70.1124 16.024 69.9624 15.916 69.7824 15.84C69.6064 15.76 69.4024 15.72 69.1704 15.72C68.7024 15.72 68.3344 15.854 68.0664 16.122C67.7984 16.39 67.6284 16.766 67.5564 17.25H70.5984ZM67.5204 18.042C67.5364 18.39 67.5904 18.692 67.6824 18.948C67.7744 19.2 67.8964 19.41 68.0484 19.578C68.2044 19.746 68.3884 19.872 68.6004 19.956C68.8164 20.036 69.0564 20.076 69.3204 20.076C69.5724 20.076 69.7904 20.048 69.9744 19.992C70.1584 19.932 70.3184 19.868 70.4544 19.8C70.5904 19.728 70.7064 19.664 70.8024 19.608C70.8984 19.548 70.9864 19.518 71.0664 19.518C71.1704 19.518 71.2504 19.558 71.3064 19.638L71.6724 20.112C71.5204 20.292 71.3484 20.444 71.1564 20.568C70.9644 20.692 70.7604 20.794 70.5444 20.874C70.3284 20.95 70.1064 21.004 69.8784 21.036C69.6504 21.072 69.4284 21.09 69.2124 21.09C68.7884 21.09 68.3944 21.02 68.0304 20.88C67.6704 20.736 67.3564 20.526 67.0884 20.25C66.8244 19.974 66.6164 19.632 66.4644 19.224C66.3164 18.816 66.2424 18.346 66.2424 17.814C66.2424 17.39 66.3084 16.994 66.4404 16.626C66.5764 16.258 66.7684 15.938 67.0164 15.666C67.2684 15.394 67.5724 15.18 67.9284 15.024C68.2884 14.864 68.6944 14.784 69.1464 14.784C69.5224 14.784 69.8704 14.846 70.1904 14.97C70.5104 15.09 70.7864 15.268 71.0184 15.504C71.2504 15.74 71.4304 16.03 71.5584 16.374C71.6904 16.714 71.7564 17.102 71.7564 17.538C71.7564 17.738 71.7344 17.872 71.6904 17.94C71.6464 18.008 71.5664 18.042 71.4504 18.042H67.5204ZM76.8534 15.99C76.8214 16.046 76.7854 16.086 76.7454 16.11C76.7054 16.134 76.6554 16.146 76.5954 16.146C76.5274 16.146 76.4534 16.126 76.3734 16.086C76.2934 16.042 76.1994 15.994 76.0914 15.942C75.9834 15.89 75.8554 15.844 75.7074 15.804C75.5634 15.76 75.3934 15.738 75.1974 15.738C75.0374 15.738 74.8914 15.758 74.7594 15.798C74.6314 15.834 74.5214 15.888 74.4294 15.96C74.3414 16.028 74.2734 16.11 74.2254 16.206C74.1774 16.298 74.1534 16.398 74.1534 16.506C74.1534 16.65 74.1974 16.77 74.2854 16.866C74.3734 16.962 74.4894 17.046 74.6334 17.118C74.7774 17.186 74.9414 17.248 75.1254 17.304C75.3094 17.36 75.4974 17.42 75.6894 17.484C75.8814 17.548 76.0694 17.622 76.2534 17.706C76.4374 17.79 76.6014 17.894 76.7454 18.018C76.8894 18.138 77.0054 18.286 77.0934 18.462C77.1814 18.634 77.2254 18.844 77.2254 19.092C77.2254 19.38 77.1734 19.646 77.0694 19.89C76.9654 20.134 76.8134 20.346 76.6134 20.526C76.4134 20.706 76.1634 20.846 75.8634 20.946C75.5674 21.046 75.2274 21.096 74.8434 21.096C74.6314 21.096 74.4254 21.076 74.2254 21.036C74.0294 21 73.8414 20.95 73.6614 20.886C73.4854 20.818 73.3194 20.738 73.1634 20.646C73.0114 20.554 72.8754 20.454 72.7554 20.346L73.0554 19.854C73.0914 19.794 73.1354 19.748 73.1874 19.716C73.2434 19.68 73.3114 19.662 73.3914 19.662C73.4754 19.662 73.5574 19.69 73.6374 19.746C73.7214 19.798 73.8174 19.856 73.9254 19.92C74.0374 19.984 74.1714 20.044 74.3274 20.1C74.4834 20.152 74.6774 20.178 74.9094 20.178C75.1014 20.178 75.2674 20.156 75.4074 20.112C75.5474 20.064 75.6634 20 75.7554 19.92C75.8474 19.84 75.9154 19.75 75.9594 19.65C76.0034 19.546 76.0254 19.436 76.0254 19.32C76.0254 19.164 75.9814 19.036 75.8934 18.936C75.8054 18.836 75.6874 18.75 75.5394 18.678C75.3954 18.606 75.2294 18.542 75.0414 18.486C74.8574 18.43 74.6694 18.37 74.4774 18.306C74.2854 18.242 74.0954 18.168 73.9074 18.084C73.7234 18 73.5574 17.894 73.4094 17.766C73.2654 17.634 73.1494 17.476 73.0614 17.292C72.9734 17.104 72.9294 16.876 72.9294 16.608C72.9294 16.364 72.9774 16.132 73.0734 15.912C73.1734 15.692 73.3174 15.498 73.5054 15.33C73.6974 15.162 73.9314 15.03 74.2074 14.934C74.4874 14.834 74.8094 14.784 75.1734 14.784C75.5854 14.784 75.9594 14.85 76.2954 14.982C76.6314 15.114 76.9134 15.294 77.1414 15.522L76.8534 15.99Z" fill="#BD7F0D"/>
</svg>
