<svg width="86" height="32" viewBox="0 0 86 32" fill="none" xmlns="http://www.w3.org/2000/svg">
<rect x="1" y="1" width="84" height="30" rx="15" fill="#FFEDCD"/>
<rect x="1" y="1" width="84" height="30" rx="15" stroke="#BD7F0D"/>
<path d="M18.4655 16.68C18.4655 17.32 18.3615 17.91 18.1535 18.45C17.9455 18.99 17.6515 19.456 17.2715 19.848C16.8955 20.236 16.4415 20.54 15.9095 20.76C15.3815 20.98 14.7935 21.09 14.1455 21.09C13.5015 21.09 12.9135 20.98 12.3815 20.76C11.8535 20.54 11.3995 20.236 11.0195 19.848C10.6395 19.456 10.3455 18.99 10.1375 18.45C9.92948 17.91 9.82548 17.32 9.82548 16.68C9.82548 16.04 9.92948 15.45 10.1375 14.91C10.3455 14.37 10.6395 13.904 11.0195 13.512C11.3995 13.12 11.8535 12.814 12.3815 12.594C12.9135 12.374 13.5015 12.264 14.1455 12.264C14.7935 12.264 15.3815 12.374 15.9095 12.594C16.4415 12.814 16.8955 13.12 17.2715 13.512C17.6515 13.904 17.9455 14.37 18.1535 14.91C18.3615 15.45 18.4655 16.04 18.4655 16.68ZM17.0315 16.68C17.0315 16.184 16.9635 15.738 16.8275 15.342C16.6955 14.946 16.5035 14.61 16.2515 14.334C16.0035 14.058 15.7015 13.846 15.3455 13.698C14.9895 13.55 14.5895 13.476 14.1455 13.476C13.7055 13.476 13.3075 13.55 12.9515 13.698C12.5955 13.846 12.2915 14.058 12.0395 14.334C11.7875 14.61 11.5935 14.946 11.4575 15.342C11.3215 15.738 11.2535 16.184 11.2535 16.68C11.2535 17.18 11.3215 17.628 11.4575 18.024C11.5935 18.42 11.7875 18.756 12.0395 19.032C12.2915 19.304 12.5955 19.514 12.9515 19.662C13.3075 19.806 13.7055 19.878 14.1455 19.878C14.5895 19.878 14.9895 19.806 15.3455 19.662C15.7015 19.514 16.0035 19.304 16.2515 19.032C16.5035 18.756 16.6955 18.42 16.8275 18.024C16.9635 17.628 17.0315 17.18 17.0315 16.68ZM25.0817 14.88V21H24.3017C24.1297 21 24.0197 20.918 23.9717 20.754L23.8757 20.184C23.7477 20.32 23.6117 20.444 23.4677 20.556C23.3277 20.668 23.1777 20.764 23.0177 20.844C22.8577 20.924 22.6857 20.986 22.5017 21.03C22.3217 21.074 22.1277 21.096 21.9197 21.096C21.5837 21.096 21.2877 21.04 21.0317 20.928C20.7757 20.816 20.5597 20.658 20.3837 20.454C20.2117 20.25 20.0817 20.006 19.9937 19.722C19.9057 19.434 19.8617 19.118 19.8617 18.774V14.88H21.1517V18.774C21.1517 19.186 21.2457 19.506 21.4337 19.734C21.6257 19.962 21.9157 20.076 22.3037 20.076C22.5877 20.076 22.8517 20.012 23.0957 19.884C23.3437 19.752 23.5757 19.572 23.7917 19.344V14.88H25.0817ZM28.1063 16.014C28.2983 15.626 28.5303 15.322 28.8023 15.102C29.0743 14.878 29.4003 14.766 29.7803 14.766C29.9123 14.766 30.0363 14.782 30.1523 14.814C30.2683 14.842 30.3723 14.886 30.4643 14.946L30.3743 15.918C30.3583 15.986 30.3323 16.034 30.2963 16.062C30.2643 16.086 30.2203 16.098 30.1643 16.098C30.1043 16.098 30.0183 16.088 29.9063 16.068C29.7943 16.044 29.6763 16.032 29.5523 16.032C29.3723 16.032 29.2123 16.058 29.0723 16.11C28.9363 16.162 28.8123 16.238 28.7003 16.338C28.5923 16.438 28.4963 16.56 28.4123 16.704C28.3283 16.848 28.2503 17.012 28.1783 17.196V21H26.8883V14.88H27.6383C27.7743 14.88 27.8683 14.906 27.9203 14.958C27.9723 15.006 28.0083 15.092 28.0283 15.216L28.1063 16.014ZM35.8184 19.464C35.9984 19.696 36.1944 19.86 36.4064 19.956C36.6224 20.048 36.8604 20.094 37.1204 20.094C37.6244 20.094 38.0164 19.91 38.2964 19.542C38.5804 19.174 38.7224 18.626 38.7224 17.898C38.7224 17.522 38.6904 17.202 38.6264 16.938C38.5624 16.67 38.4704 16.452 38.3504 16.284C38.2304 16.116 38.0844 15.994 37.9124 15.918C37.7404 15.842 37.5464 15.804 37.3304 15.804C37.0024 15.804 36.7184 15.876 36.4784 16.02C36.2424 16.16 36.0224 16.362 35.8184 16.626V19.464ZM35.7524 15.768C36.0084 15.468 36.2984 15.226 36.6224 15.042C36.9504 14.858 37.3304 14.766 37.7624 14.766C38.1064 14.766 38.4184 14.836 38.6984 14.976C38.9784 15.112 39.2184 15.312 39.4184 15.576C39.6184 15.84 39.7724 16.168 39.8804 16.56C39.9924 16.948 40.0484 17.394 40.0484 17.898C40.0484 18.35 39.9864 18.772 39.8624 19.164C39.7424 19.552 39.5684 19.89 39.3404 20.178C39.1124 20.462 38.8364 20.686 38.5124 20.85C38.1884 21.01 37.8224 21.09 37.4144 21.09C37.0544 21.09 36.7484 21.032 36.4964 20.916C36.2484 20.8 36.0224 20.64 35.8184 20.436V23.034H34.5284V14.88H35.3084C35.4844 14.88 35.5964 14.962 35.6444 15.126L35.7524 15.768ZM42.7599 16.014C42.9519 15.626 43.1839 15.322 43.4559 15.102C43.7279 14.878 44.0539 14.766 44.4339 14.766C44.5659 14.766 44.6899 14.782 44.8059 14.814C44.9219 14.842 45.0259 14.886 45.1179 14.946L45.0279 15.918C45.0119 15.986 44.9859 16.034 44.9499 16.062C44.9179 16.086 44.8739 16.098 44.8179 16.098C44.7579 16.098 44.6719 16.088 44.5599 16.068C44.4479 16.044 44.3299 16.032 44.2059 16.032C44.0259 16.032 43.8659 16.058 43.7259 16.11C43.5899 16.162 43.4659 16.238 43.3539 16.338C43.2459 16.438 43.1499 16.56 43.0659 16.704C42.9819 16.848 42.9039 17.012 42.8319 17.196V21H41.5419V14.88H42.2919C42.4279 14.88 42.5219 14.906 42.5739 14.958C42.6259 15.006 42.6619 15.092 42.6819 15.216L42.7599 16.014ZM48.6466 14.784C49.0986 14.784 49.5066 14.858 49.8706 15.006C50.2386 15.154 50.5506 15.364 50.8066 15.636C51.0666 15.908 51.2666 16.238 51.4066 16.626C51.5466 17.014 51.6166 17.45 51.6166 17.934C51.6166 18.418 51.5466 18.854 51.4066 19.242C51.2666 19.63 51.0666 19.962 50.8066 20.238C50.5506 20.51 50.2386 20.72 49.8706 20.868C49.5066 21.016 49.0986 21.09 48.6466 21.09C48.1906 21.09 47.7786 21.016 47.4106 20.868C47.0466 20.72 46.7346 20.51 46.4746 20.238C46.2146 19.962 46.0146 19.63 45.8746 19.242C45.7346 18.854 45.6646 18.418 45.6646 17.934C45.6646 17.45 45.7346 17.014 45.8746 16.626C46.0146 16.238 46.2146 15.908 46.4746 15.636C46.7346 15.364 47.0466 15.154 47.4106 15.006C47.7786 14.858 48.1906 14.784 48.6466 14.784ZM48.6466 20.082C49.1986 20.082 49.6086 19.898 49.8766 19.53C50.1486 19.158 50.2846 18.628 50.2846 17.94C50.2846 17.252 50.1486 16.722 49.8766 16.35C49.6086 15.974 49.1986 15.786 48.6466 15.786C48.0866 15.786 47.6706 15.974 47.3986 16.35C47.1266 16.722 46.9906 17.252 46.9906 17.94C46.9906 18.628 47.1266 19.158 47.3986 19.53C47.6706 19.898 48.0866 20.082 48.6466 20.082ZM57.0021 16.386C56.8221 16.154 56.6241 15.992 56.4081 15.9C56.1921 15.808 55.9581 15.762 55.7061 15.762C55.2021 15.762 54.8081 15.948 54.5241 16.32C54.2401 16.688 54.0981 17.234 54.0981 17.958C54.0981 18.334 54.1301 18.656 54.1941 18.924C54.2581 19.188 54.3501 19.404 54.4701 19.572C54.5901 19.74 54.7361 19.862 54.9081 19.938C55.0801 20.014 55.2741 20.052 55.4901 20.052C55.8181 20.052 56.1001 19.982 56.3361 19.842C56.5761 19.698 56.7981 19.496 57.0021 19.236V16.386ZM58.2921 12.12V21H57.5121C57.3401 21 57.2301 20.918 57.1821 20.754L57.0681 20.088C56.8121 20.388 56.5201 20.63 56.1921 20.814C55.8681 20.998 55.4901 21.09 55.0581 21.09C54.7141 21.09 54.4021 21.022 54.1221 20.886C53.8421 20.746 53.6021 20.544 53.4021 20.28C53.2021 20.016 53.0461 19.69 52.9341 19.302C52.8261 18.91 52.7721 18.462 52.7721 17.958C52.7721 17.502 52.8321 17.08 52.9521 16.692C53.0761 16.304 53.2521 15.968 53.4801 15.684C53.7081 15.396 53.9841 15.172 54.3081 15.012C54.6361 14.848 55.0021 14.766 55.4061 14.766C55.7661 14.766 56.0721 14.824 56.3241 14.94C56.5761 15.052 56.8021 15.21 57.0021 15.414V12.12H58.2921ZM65.2695 14.88V21H64.4895C64.3175 21 64.2075 20.918 64.1595 20.754L64.0635 20.184C63.9355 20.32 63.7995 20.444 63.6555 20.556C63.5155 20.668 63.3655 20.764 63.2055 20.844C63.0455 20.924 62.8735 20.986 62.6895 21.03C62.5095 21.074 62.3155 21.096 62.1075 21.096C61.7715 21.096 61.4755 21.04 61.2195 20.928C60.9635 20.816 60.7475 20.658 60.5715 20.454C60.3995 20.25 60.2695 20.006 60.1815 19.722C60.0935 19.434 60.0495 19.118 60.0495 18.774V14.88H61.3395V18.774C61.3395 19.186 61.4335 19.506 61.6215 19.734C61.8135 19.962 62.1035 20.076 62.4915 20.076C62.7755 20.076 63.0395 20.012 63.2835 19.884C63.5315 19.752 63.7635 19.572 63.9795 19.344V14.88H65.2695ZM71.4021 16.08C71.3621 16.132 71.3241 16.172 71.2881 16.2C71.2521 16.228 71.2001 16.242 71.1321 16.242C71.0641 16.242 70.9921 16.218 70.9161 16.17C70.8441 16.122 70.7561 16.07 70.6521 16.014C70.5521 15.954 70.4301 15.9 70.2861 15.852C70.1421 15.804 69.9621 15.78 69.7461 15.78C69.4661 15.78 69.2201 15.83 69.0081 15.93C68.8001 16.03 68.6241 16.174 68.4801 16.362C68.3401 16.546 68.2341 16.772 68.1621 17.04C68.0941 17.304 68.0601 17.602 68.0601 17.934C68.0601 18.278 68.0981 18.584 68.1741 18.852C68.2501 19.12 68.3581 19.346 68.4981 19.53C68.6421 19.714 68.8141 19.854 69.0141 19.95C69.2181 20.046 69.4461 20.094 69.6981 20.094C69.9461 20.094 70.1481 20.064 70.3041 20.004C70.4601 19.944 70.5901 19.878 70.6941 19.806C70.7981 19.734 70.8861 19.668 70.9581 19.608C71.0341 19.548 71.1141 19.518 71.1981 19.518C71.3021 19.518 71.3821 19.558 71.4381 19.638L71.8041 20.112C71.6561 20.292 71.4921 20.444 71.3121 20.568C71.1321 20.692 70.9421 20.794 70.7421 20.874C70.5421 20.95 70.3341 21.004 70.1181 21.036C69.9021 21.072 69.6841 21.09 69.4641 21.09C69.0841 21.09 68.7281 21.02 68.3961 20.88C68.0681 20.736 67.7801 20.53 67.5321 20.262C67.2881 19.99 67.0941 19.66 66.9501 19.272C66.8101 18.88 66.7401 18.434 66.7401 17.934C66.7401 17.482 66.8041 17.064 66.9321 16.68C67.0601 16.292 67.2461 15.958 67.4901 15.678C67.7381 15.398 68.0441 15.18 68.4081 15.024C68.7721 14.864 69.1921 14.784 69.6681 14.784C70.1121 14.784 70.5021 14.856 70.8381 15C71.1781 15.144 71.4801 15.348 71.7441 15.612L71.4021 16.08ZM75.0437 21.096C74.5357 21.096 74.1437 20.954 73.8677 20.67C73.5957 20.382 73.4597 19.978 73.4597 19.458V15.894H72.7877C72.7157 15.894 72.6537 15.872 72.6017 15.828C72.5497 15.78 72.5237 15.71 72.5237 15.618V15.096L73.5137 14.952L73.7957 13.182C73.8157 13.114 73.8497 13.06 73.8977 13.02C73.9457 12.976 74.0097 12.954 74.0897 12.954H74.7497V14.964H76.4477V15.894H74.7497V19.368C74.7497 19.588 74.8037 19.756 74.9117 19.872C75.0197 19.988 75.1637 20.046 75.3437 20.046C75.4437 20.046 75.5297 20.034 75.6017 20.01C75.6737 19.982 75.7357 19.954 75.7877 19.926C75.8397 19.894 75.8837 19.866 75.9197 19.842C75.9597 19.814 75.9977 19.8 76.0337 19.8C76.1057 19.8 76.1637 19.84 76.2077 19.92L76.5917 20.55C76.3917 20.726 76.1557 20.862 75.8837 20.958C75.6117 21.05 75.3317 21.096 75.0437 21.096Z" fill="#BD7F0D"/>
</svg>
