<svg width="18" height="18" viewBox="0 0 18 18" fill="none" xmlns="http://www.w3.org/2000/svg">
<path d="M10.5 14.925V12H12.75C13.1478 12 13.5294 11.842 13.8107 11.5607C14.092 11.2794 14.25 10.8978 14.25 10.5V9H3.75V10.5C3.75 11.325 4.425 12 5.25 12H7.5V14.925C7.5 15.3228 7.65804 15.7044 7.93934 15.9857C8.22064 16.267 8.60218 16.425 9 16.425C9.39782 16.425 9.77936 16.267 10.0607 15.9857C10.342 15.7044 10.5 15.3228 10.5 14.925Z" stroke="#121212" stroke-width="1.4" stroke-linecap="round" stroke-linejoin="round"/>
<path d="M4.5 9V1.5H13.5V9" stroke="#121212" stroke-width="1.4" stroke-linecap="round" stroke-linejoin="round"/>
<path d="M10.5 1.5V4.5" stroke="#1B1B1B" stroke-width="1.4" stroke-linecap="round" stroke-linejoin="round"/>
<path d="M7.5 1.5V3" stroke="#1B1B1B" stroke-width="1.4" stroke-linecap="round" stroke-linejoin="round"/>
</svg>
