<svg width="64" height="64" viewBox="0 0 64 64" fill="none" xmlns="http://www.w3.org/2000/svg">
<path d="M0 8C0 4.22876 0 2.34315 1.17157 1.17157C2.34315 0 4.22876 0 8 0H56C59.7712 0 61.6569 0 62.8284 1.17157C64 2.34315 64 4.22876 64 8V56C64 59.7712 64 61.6569 62.8284 62.8284C61.6569 64 59.7712 64 56 64H8C4.22876 64 2.34315 64 1.17157 62.8284C0 61.6569 0 59.7712 0 56V8Z" fill="#EBF5FD"/>
<path d="M36 41V39C36 37.9391 35.5786 36.9217 34.8284 36.1716C34.0783 35.4214 33.0609 35 32 35H26C24.9391 35 23.9217 35.4214 23.1716 36.1716C22.4214 36.9217 22 37.9391 22 39V41" stroke="#3882B7" stroke-width="1.4" stroke-linecap="round" stroke-linejoin="round"/>
<path d="M29 31C31.2091 31 33 29.2091 33 27C33 24.7909 31.2091 23 29 23C26.7909 23 25 24.7909 25 27C25 29.2091 26.7909 31 29 31Z" stroke="#3882B7" stroke-width="1.4" stroke-linecap="round" stroke-linejoin="round"/>
<path d="M42 41V39C41.9993 38.1137 41.7044 37.2528 41.1614 36.5523C40.6184 35.8519 39.8581 35.3516 39 35.13" stroke="#3882B7" stroke-width="1.4" stroke-linecap="round" stroke-linejoin="round"/>
<path d="M36 23.13C36.8604 23.3503 37.623 23.8507 38.1676 24.5523C38.7122 25.2539 39.0078 26.1168 39.0078 27.005C39.0078 27.8932 38.7122 28.7561 38.1676 29.4577C37.623 30.1593 36.8604 30.6597 36 30.88" stroke="#3882B7" stroke-width="1.4" stroke-linecap="round" stroke-linejoin="round"/>
</svg>
