<svg width="100" height="36" viewBox="0 0 100 36" fill="none" xmlns="http://www.w3.org/2000/svg">
<rect x="1.3999" y="1" width="97.4" height="34" rx="17" fill="#E7FFCA"/>
<rect x="1.3999" y="1" width="97.4" height="34" rx="17" stroke="#008000"/>
<path d="M26.0999 10.5L23.8499 13.5V24C23.8499 24.3978 24.0079 24.7794 24.2892 25.0607C24.5705 25.342 24.952 25.5 25.3499 25.5H35.8499C36.2477 25.5 36.6292 25.342 36.9105 25.0607C37.1918 24.7794 37.3499 24.3978 37.3499 24V13.5L35.0999 10.5H26.0999Z" stroke="#008000" stroke-width="1.4" stroke-linecap="round" stroke-linejoin="round"/>
<path d="M23.8499 13.5H37.3499" stroke="#008000" stroke-width="1.4" stroke-linecap="round" stroke-linejoin="round"/>
<path d="M33.5999 16.5C33.5999 17.2956 33.2838 18.0587 32.7212 18.6213C32.1586 19.1839 31.3955 19.5 30.5999 19.5C29.8042 19.5 29.0411 19.1839 28.4785 18.6213C27.9159 18.0587 27.5999 17.2956 27.5999 16.5" stroke="#008000" stroke-width="1.4" stroke-linecap="round" stroke-linejoin="round"/>
<path d="M53.1439 15.836C53.0999 15.908 53.0539 15.962 53.0059 15.998C52.9579 16.03 52.8979 16.046 52.8259 16.046C52.7499 16.046 52.6639 16.014 52.5679 15.95C52.4759 15.886 52.3599 15.816 52.2199 15.74C52.0839 15.66 51.9219 15.588 51.7339 15.524C51.5459 15.456 51.3219 15.422 51.0619 15.422C50.8219 15.422 50.6099 15.452 50.4259 15.512C50.2459 15.572 50.0939 15.656 49.9699 15.764C49.8459 15.872 49.7519 16 49.6879 16.148C49.6279 16.292 49.5979 16.45 49.5979 16.622C49.5979 16.842 49.6559 17.026 49.7719 17.174C49.8879 17.318 50.0399 17.442 50.2279 17.546C50.4199 17.65 50.6379 17.742 50.8819 17.822C51.1259 17.898 51.3739 17.98 51.6259 18.068C51.8819 18.156 52.1319 18.256 52.3759 18.368C52.6199 18.48 52.8359 18.622 53.0239 18.794C53.2159 18.966 53.3699 19.176 53.4859 19.424C53.6019 19.672 53.6599 19.974 53.6599 20.33C53.6599 20.714 53.5939 21.074 53.4619 21.41C53.3299 21.746 53.1379 22.04 52.8859 22.292C52.6379 22.54 52.3299 22.736 51.9619 22.88C51.5979 23.024 51.1819 23.096 50.7139 23.096C50.4379 23.096 50.1679 23.068 49.9039 23.012C49.6439 22.96 49.3939 22.886 49.1539 22.79C48.9179 22.69 48.6959 22.57 48.4879 22.43C48.2799 22.29 48.0939 22.134 47.9299 21.962L48.3379 21.29C48.3739 21.234 48.4199 21.19 48.4759 21.158C48.5319 21.126 48.5939 21.11 48.6619 21.11C48.7539 21.11 48.8559 21.154 48.9679 21.242C49.0799 21.326 49.2139 21.42 49.3699 21.524C49.5299 21.624 49.7219 21.718 49.9459 21.806C50.1699 21.89 50.4379 21.932 50.7499 21.932C51.2579 21.932 51.6499 21.808 51.9259 21.56C52.2059 21.312 52.3459 20.97 52.3459 20.534C52.3459 20.29 52.2879 20.092 52.1719 19.94C52.0559 19.784 51.9019 19.654 51.7099 19.55C51.5219 19.446 51.3059 19.358 51.0619 19.286C50.8179 19.214 50.5699 19.138 50.3179 19.058C50.0659 18.974 49.8179 18.878 49.5739 18.77C49.3299 18.658 49.1119 18.514 48.9199 18.338C48.7319 18.158 48.5799 17.938 48.4639 17.678C48.3479 17.414 48.2899 17.086 48.2899 16.694C48.2899 16.382 48.3499 16.08 48.4699 15.788C48.5939 15.496 48.7719 15.238 49.0039 15.014C49.2399 14.786 49.5299 14.604 49.8739 14.468C50.2179 14.332 50.6099 14.264 51.0499 14.264C51.5459 14.264 51.9999 14.342 52.4119 14.498C52.8279 14.654 53.1859 14.876 53.4859 15.164L53.1439 15.836ZM64.6086 14.36V23H63.3726V17.078C63.3726 16.982 63.3746 16.878 63.3786 16.766C63.3866 16.65 63.3966 16.534 63.4086 16.418L60.6306 21.548C60.5226 21.76 60.3566 21.866 60.1326 21.866H59.9346C59.7066 21.866 59.5406 21.76 59.4366 21.548L56.6166 16.406C56.6286 16.522 56.6366 16.638 56.6406 16.754C56.6486 16.87 56.6526 16.978 56.6526 17.078V23H55.4166V14.36H56.4666C56.5906 14.36 56.6866 14.372 56.7546 14.396C56.8226 14.416 56.8846 14.482 56.9406 14.594L59.7126 19.616C59.7726 19.732 59.8286 19.852 59.8806 19.976C59.9366 20.096 59.9866 20.22 60.0306 20.348C60.0786 20.22 60.1286 20.094 60.1806 19.97C60.2366 19.842 60.2946 19.72 60.3546 19.604L63.0846 14.594C63.1406 14.482 63.2026 14.416 63.2706 14.396C63.3386 14.372 63.4346 14.36 63.5586 14.36H64.6086ZM72.2889 21.866L72.2829 23H66.8949V14.36H72.2829V15.494H68.3049V18.098H71.4849V19.196H68.3049V21.866H72.2889ZM77.3692 17.99C77.3372 18.046 77.3012 18.086 77.2612 18.11C77.2212 18.134 77.1712 18.146 77.1112 18.146C77.0432 18.146 76.9692 18.126 76.8892 18.086C76.8092 18.042 76.7152 17.994 76.6072 17.942C76.4992 17.89 76.3712 17.844 76.2232 17.804C76.0792 17.76 75.9092 17.738 75.7132 17.738C75.5532 17.738 75.4072 17.758 75.2752 17.798C75.1472 17.834 75.0372 17.888 74.9452 17.96C74.8572 18.028 74.7892 18.11 74.7412 18.206C74.6932 18.298 74.6692 18.398 74.6692 18.506C74.6692 18.65 74.7132 18.77 74.8012 18.866C74.8892 18.962 75.0052 19.046 75.1492 19.118C75.2932 19.186 75.4572 19.248 75.6412 19.304C75.8252 19.36 76.0132 19.42 76.2052 19.484C76.3972 19.548 76.5852 19.622 76.7692 19.706C76.9532 19.79 77.1172 19.894 77.2612 20.018C77.4052 20.138 77.5212 20.286 77.6092 20.462C77.6972 20.634 77.7412 20.844 77.7412 21.092C77.7412 21.38 77.6892 21.646 77.5852 21.89C77.4812 22.134 77.3292 22.346 77.1292 22.526C76.9292 22.706 76.6792 22.846 76.3792 22.946C76.0832 23.046 75.7432 23.096 75.3592 23.096C75.1472 23.096 74.9412 23.076 74.7412 23.036C74.5452 23 74.3572 22.95 74.1772 22.886C74.0012 22.818 73.8352 22.738 73.6792 22.646C73.5272 22.554 73.3912 22.454 73.2712 22.346L73.5712 21.854C73.6072 21.794 73.6512 21.748 73.7032 21.716C73.7592 21.68 73.8272 21.662 73.9072 21.662C73.9912 21.662 74.0732 21.69 74.1532 21.746C74.2372 21.798 74.3332 21.856 74.4412 21.92C74.5532 21.984 74.6872 22.044 74.8432 22.1C74.9992 22.152 75.1932 22.178 75.4252 22.178C75.6172 22.178 75.7832 22.156 75.9232 22.112C76.0632 22.064 76.1792 22 76.2712 21.92C76.3632 21.84 76.4312 21.75 76.4752 21.65C76.5192 21.546 76.5412 21.436 76.5412 21.32C76.5412 21.164 76.4972 21.036 76.4092 20.936C76.3212 20.836 76.2032 20.75 76.0552 20.678C75.9112 20.606 75.7452 20.542 75.5572 20.486C75.3732 20.43 75.1852 20.37 74.9932 20.306C74.8012 20.242 74.6112 20.168 74.4232 20.084C74.2392 20 74.0732 19.894 73.9252 19.766C73.7812 19.634 73.6652 19.476 73.5772 19.292C73.4892 19.104 73.4452 18.876 73.4452 18.608C73.4452 18.364 73.4932 18.132 73.5892 17.912C73.6892 17.692 73.8332 17.498 74.0212 17.33C74.2132 17.162 74.4472 17.03 74.7232 16.934C75.0032 16.834 75.3252 16.784 75.6892 16.784C76.1012 16.784 76.4752 16.85 76.8112 16.982C77.1472 17.114 77.4292 17.294 77.6572 17.522L77.3692 17.99Z" fill="#008000"/>
</svg>
