<svg width="100" height="36" viewBox="0 0 100 36" fill="none" xmlns="http://www.w3.org/2000/svg">
<rect x="1.19995" y="1" width="97.4" height="34" rx="17" fill="#FBC7FE"/>
<rect x="1.19995" y="1" width="97.4" height="34" rx="17" stroke="#79157E"/>
<g clip-path="url(#clip0_16_11096)">
<path d="M10.6499 24H21.1499M8.3999 12L10.6499 21H21.1499L23.3999 12L18.8999 17.25L15.8999 12L12.8999 17.25L8.3999 12Z" stroke="#79157E" stroke-width="1.4" stroke-linecap="round" stroke-linejoin="round"/>
</g>
<path d="M38.4439 15.836C38.3999 15.908 38.3539 15.962 38.3059 15.998C38.2579 16.03 38.1979 16.046 38.1259 16.046C38.0499 16.046 37.9639 16.014 37.8679 15.95C37.7759 15.886 37.6599 15.816 37.5199 15.74C37.3839 15.66 37.2219 15.588 37.0339 15.524C36.8459 15.456 36.6219 15.422 36.3619 15.422C36.1219 15.422 35.9099 15.452 35.7259 15.512C35.5459 15.572 35.3939 15.656 35.2699 15.764C35.1459 15.872 35.0519 16 34.9879 16.148C34.9279 16.292 34.8979 16.45 34.8979 16.622C34.8979 16.842 34.9559 17.026 35.0719 17.174C35.1879 17.318 35.3399 17.442 35.5279 17.546C35.7199 17.65 35.9379 17.742 36.1819 17.822C36.4259 17.898 36.6739 17.98 36.9259 18.068C37.1819 18.156 37.4319 18.256 37.6759 18.368C37.9199 18.48 38.1359 18.622 38.3239 18.794C38.5159 18.966 38.6699 19.176 38.7859 19.424C38.9019 19.672 38.9599 19.974 38.9599 20.33C38.9599 20.714 38.8939 21.074 38.7619 21.41C38.6299 21.746 38.4379 22.04 38.1859 22.292C37.9379 22.54 37.6299 22.736 37.2619 22.88C36.8979 23.024 36.4819 23.096 36.0139 23.096C35.7379 23.096 35.4679 23.068 35.2039 23.012C34.9439 22.96 34.6939 22.886 34.4539 22.79C34.2179 22.69 33.9959 22.57 33.7879 22.43C33.5799 22.29 33.3939 22.134 33.2299 21.962L33.6379 21.29C33.6739 21.234 33.7199 21.19 33.7759 21.158C33.8319 21.126 33.8939 21.11 33.9619 21.11C34.0539 21.11 34.1559 21.154 34.2679 21.242C34.3799 21.326 34.5139 21.42 34.6699 21.524C34.8299 21.624 35.0219 21.718 35.2459 21.806C35.4699 21.89 35.7379 21.932 36.0499 21.932C36.5579 21.932 36.9499 21.808 37.2259 21.56C37.5059 21.312 37.6459 20.97 37.6459 20.534C37.6459 20.29 37.5879 20.092 37.4719 19.94C37.3559 19.784 37.2019 19.654 37.0099 19.55C36.8219 19.446 36.6059 19.358 36.3619 19.286C36.1179 19.214 35.8699 19.138 35.6179 19.058C35.3659 18.974 35.1179 18.878 34.8739 18.77C34.6299 18.658 34.4119 18.514 34.2199 18.338C34.0319 18.158 33.8799 17.938 33.7639 17.678C33.6479 17.414 33.5899 17.086 33.5899 16.694C33.5899 16.382 33.6499 16.08 33.7699 15.788C33.8939 15.496 34.0719 15.238 34.3039 15.014C34.5399 14.786 34.8299 14.604 35.1739 14.468C35.5179 14.332 35.9099 14.264 36.3499 14.264C36.8459 14.264 37.2999 14.342 37.7119 14.498C38.1279 14.654 38.4859 14.876 38.7859 15.164L38.4439 15.836ZM43.0992 16.784C43.5512 16.784 43.9592 16.858 44.3232 17.006C44.6912 17.154 45.0032 17.364 45.2592 17.636C45.5192 17.908 45.7192 18.238 45.8592 18.626C45.9992 19.014 46.0692 19.45 46.0692 19.934C46.0692 20.418 45.9992 20.854 45.8592 21.242C45.7192 21.63 45.5192 21.962 45.2592 22.238C45.0032 22.51 44.6912 22.72 44.3232 22.868C43.9592 23.016 43.5512 23.09 43.0992 23.09C42.6432 23.09 42.2312 23.016 41.8632 22.868C41.4992 22.72 41.1872 22.51 40.9272 22.238C40.6672 21.962 40.4672 21.63 40.3272 21.242C40.1872 20.854 40.1172 20.418 40.1172 19.934C40.1172 19.45 40.1872 19.014 40.3272 18.626C40.4672 18.238 40.6672 17.908 40.9272 17.636C41.1872 17.364 41.4992 17.154 41.8632 17.006C42.2312 16.858 42.6432 16.784 43.0992 16.784ZM43.0992 22.082C43.6512 22.082 44.0612 21.898 44.3292 21.53C44.6012 21.158 44.7372 20.628 44.7372 19.94C44.7372 19.252 44.6012 18.722 44.3292 18.35C44.0612 17.974 43.6512 17.786 43.0992 17.786C42.5392 17.786 42.1232 17.974 41.8512 18.35C41.5792 18.722 41.4432 19.252 41.4432 19.94C41.4432 20.628 41.5792 21.158 41.8512 21.53C42.1232 21.898 42.5392 22.082 43.0992 22.082ZM52.7609 16.88L50.3009 23H49.1369L46.6769 16.88H47.7389C47.8389 16.88 47.9209 16.906 47.9849 16.958C48.0529 17.006 48.0969 17.064 48.1169 17.132L49.4729 20.696C49.5289 20.864 49.5789 21.03 49.6229 21.194C49.6669 21.358 49.7049 21.524 49.7369 21.692C49.7689 21.524 49.8069 21.36 49.8509 21.2C49.8989 21.036 49.9509 20.868 50.0069 20.696L51.3869 17.132C51.4109 17.06 51.4549 17 51.5189 16.952C51.5829 16.904 51.6609 16.88 51.7529 16.88H52.7609ZM57.7207 19.25C57.7207 19.034 57.6887 18.834 57.6247 18.65C57.5647 18.462 57.4747 18.3 57.3547 18.164C57.2347 18.024 57.0847 17.916 56.9047 17.84C56.7287 17.76 56.5247 17.72 56.2927 17.72C55.8247 17.72 55.4567 17.854 55.1887 18.122C54.9207 18.39 54.7507 18.766 54.6787 19.25H57.7207ZM54.6427 20.042C54.6587 20.39 54.7127 20.692 54.8047 20.948C54.8967 21.2 55.0187 21.41 55.1707 21.578C55.3267 21.746 55.5107 21.872 55.7227 21.956C55.9387 22.036 56.1787 22.076 56.4427 22.076C56.6947 22.076 56.9127 22.048 57.0967 21.992C57.2807 21.932 57.4407 21.868 57.5767 21.8C57.7127 21.728 57.8287 21.664 57.9247 21.608C58.0207 21.548 58.1087 21.518 58.1887 21.518C58.2927 21.518 58.3727 21.558 58.4287 21.638L58.7947 22.112C58.6427 22.292 58.4707 22.444 58.2787 22.568C58.0867 22.692 57.8827 22.794 57.6667 22.874C57.4507 22.95 57.2287 23.004 57.0007 23.036C56.7727 23.072 56.5507 23.09 56.3347 23.09C55.9107 23.09 55.5167 23.02 55.1527 22.88C54.7927 22.736 54.4787 22.526 54.2107 22.25C53.9467 21.974 53.7387 21.632 53.5867 21.224C53.4387 20.816 53.3647 20.346 53.3647 19.814C53.3647 19.39 53.4307 18.994 53.5627 18.626C53.6987 18.258 53.8907 17.938 54.1387 17.666C54.3907 17.394 54.6947 17.18 55.0507 17.024C55.4107 16.864 55.8167 16.784 56.2687 16.784C56.6447 16.784 56.9927 16.846 57.3127 16.97C57.6327 17.09 57.9087 17.268 58.1407 17.504C58.3727 17.74 58.5527 18.03 58.6807 18.374C58.8127 18.714 58.8787 19.102 58.8787 19.538C58.8787 19.738 58.8567 19.872 58.8127 19.94C58.7687 20.008 58.6887 20.042 58.5727 20.042H54.6427ZM61.5397 18.014C61.7317 17.626 61.9637 17.322 62.2357 17.102C62.5077 16.878 62.8337 16.766 63.2137 16.766C63.3457 16.766 63.4697 16.782 63.5857 16.814C63.7017 16.842 63.8057 16.886 63.8977 16.946L63.8077 17.918C63.7917 17.986 63.7657 18.034 63.7297 18.062C63.6977 18.086 63.6537 18.098 63.5977 18.098C63.5377 18.098 63.4517 18.088 63.3397 18.068C63.2277 18.044 63.1097 18.032 62.9857 18.032C62.8057 18.032 62.6457 18.058 62.5057 18.11C62.3697 18.162 62.2457 18.238 62.1337 18.338C62.0257 18.438 61.9297 18.56 61.8457 18.704C61.7617 18.848 61.6837 19.012 61.6117 19.196V23H60.3217V16.88H61.0717C61.2077 16.88 61.3017 16.906 61.3537 16.958C61.4057 17.006 61.4417 17.092 61.4617 17.216L61.5397 18.014ZM68.7944 19.25C68.7944 19.034 68.7624 18.834 68.6984 18.65C68.6384 18.462 68.5484 18.3 68.4284 18.164C68.3084 18.024 68.1584 17.916 67.9784 17.84C67.8024 17.76 67.5984 17.72 67.3664 17.72C66.8984 17.72 66.5304 17.854 66.2624 18.122C65.9944 18.39 65.8244 18.766 65.7524 19.25H68.7944ZM65.7164 20.042C65.7324 20.39 65.7864 20.692 65.8784 20.948C65.9704 21.2 66.0924 21.41 66.2444 21.578C66.4004 21.746 66.5844 21.872 66.7964 21.956C67.0124 22.036 67.2524 22.076 67.5164 22.076C67.7684 22.076 67.9864 22.048 68.1704 21.992C68.3544 21.932 68.5144 21.868 68.6504 21.8C68.7864 21.728 68.9024 21.664 68.9984 21.608C69.0944 21.548 69.1824 21.518 69.2624 21.518C69.3664 21.518 69.4464 21.558 69.5024 21.638L69.8684 22.112C69.7164 22.292 69.5444 22.444 69.3524 22.568C69.1604 22.692 68.9564 22.794 68.7404 22.874C68.5244 22.95 68.3024 23.004 68.0744 23.036C67.8464 23.072 67.6244 23.09 67.4084 23.09C66.9844 23.09 66.5904 23.02 66.2264 22.88C65.8664 22.736 65.5524 22.526 65.2844 22.25C65.0204 21.974 64.8124 21.632 64.6604 21.224C64.5124 20.816 64.4384 20.346 64.4384 19.814C64.4384 19.39 64.5044 18.994 64.6364 18.626C64.7724 18.258 64.9644 17.938 65.2124 17.666C65.4644 17.394 65.7684 17.18 66.1244 17.024C66.4844 16.864 66.8904 16.784 67.3424 16.784C67.7184 16.784 68.0664 16.846 68.3864 16.97C68.7064 17.09 68.9824 17.268 69.2144 17.504C69.4464 17.74 69.6264 18.03 69.7544 18.374C69.8864 18.714 69.9524 19.102 69.9524 19.538C69.9524 19.738 69.9304 19.872 69.8864 19.94C69.8424 20.008 69.7624 20.042 69.6464 20.042H65.7164ZM72.7394 16.88V23H71.4494V16.88H72.7394ZM72.9554 15.032C72.9554 15.148 72.9314 15.258 72.8834 15.362C72.8394 15.466 72.7774 15.558 72.6974 15.638C72.6174 15.714 72.5234 15.776 72.4154 15.824C72.3114 15.868 72.1994 15.89 72.0794 15.89C71.9634 15.89 71.8534 15.868 71.7494 15.824C71.6494 15.776 71.5614 15.714 71.4854 15.638C71.4094 15.558 71.3474 15.466 71.2994 15.362C71.2554 15.258 71.2334 15.148 71.2334 15.032C71.2334 14.912 71.2554 14.8 71.2994 14.696C71.3474 14.592 71.4094 14.502 71.4854 14.426C71.5614 14.346 71.6494 14.284 71.7494 14.24C71.8534 14.192 71.9634 14.168 72.0794 14.168C72.1994 14.168 72.3114 14.192 72.4154 14.24C72.5234 14.284 72.6174 14.346 72.6974 14.426C72.7774 14.502 72.8394 14.592 72.8834 14.696C72.9314 14.8 72.9554 14.912 72.9554 15.032ZM76.7843 19.886C77.1843 19.886 77.4843 19.784 77.6843 19.58C77.8843 19.376 77.9843 19.11 77.9843 18.782C77.9843 18.446 77.8843 18.18 77.6843 17.984C77.4843 17.788 77.1843 17.69 76.7843 17.69C76.3883 17.69 76.0883 17.788 75.8843 17.984C75.6843 18.18 75.5843 18.446 75.5843 18.782C75.5843 18.942 75.6103 19.09 75.6623 19.226C75.7143 19.362 75.7903 19.48 75.8903 19.58C75.9903 19.676 76.1143 19.752 76.2623 19.808C76.4143 19.86 76.5883 19.886 76.7843 19.886ZM78.5783 23.3C78.5783 23.164 78.5383 23.056 78.4583 22.976C78.3823 22.892 78.2783 22.828 78.1463 22.784C78.0143 22.736 77.8603 22.702 77.6843 22.682C77.5083 22.658 77.3203 22.642 77.1203 22.634C76.9243 22.622 76.7223 22.612 76.5143 22.604C76.3103 22.592 76.1123 22.572 75.9203 22.544C75.7283 22.644 75.5703 22.764 75.4463 22.904C75.3263 23.044 75.2663 23.206 75.2663 23.39C75.2663 23.51 75.2963 23.622 75.3563 23.726C75.4203 23.83 75.5163 23.92 75.6443 23.996C75.7763 24.072 75.9423 24.132 76.1423 24.176C76.3463 24.22 76.5903 24.242 76.8743 24.242C77.4423 24.242 77.8683 24.154 78.1523 23.978C78.4363 23.802 78.5783 23.576 78.5783 23.3ZM79.8743 17.102V17.582C79.8743 17.742 79.7783 17.84 79.5863 17.876L78.9743 17.978C79.0783 18.21 79.1303 18.468 79.1303 18.752C79.1303 19.052 79.0703 19.324 78.9503 19.568C78.8343 19.812 78.6723 20.02 78.4643 20.192C78.2563 20.364 78.0083 20.496 77.7203 20.588C77.4323 20.68 77.1203 20.726 76.7843 20.726C76.6563 20.726 76.5303 20.72 76.4063 20.708C76.2863 20.692 76.1683 20.672 76.0523 20.648C75.9363 20.716 75.8503 20.788 75.7943 20.864C75.7383 20.94 75.7103 21.018 75.7103 21.098C75.7103 21.23 75.7683 21.328 75.8843 21.392C76.0003 21.456 76.1523 21.502 76.3403 21.53C76.5323 21.558 76.7503 21.576 76.9943 21.584C77.2383 21.592 77.4863 21.606 77.7383 21.626C77.9903 21.646 78.2383 21.68 78.4823 21.728C78.7263 21.772 78.9423 21.848 79.1303 21.956C79.3223 22.06 79.4763 22.202 79.5923 22.382C79.7083 22.562 79.7663 22.796 79.7663 23.084C79.7663 23.348 79.7003 23.606 79.5683 23.858C79.4363 24.11 79.2443 24.334 78.9923 24.53C78.7443 24.726 78.4403 24.882 78.0803 24.998C77.7203 25.118 77.3103 25.178 76.8503 25.178C76.3943 25.178 75.9963 25.134 75.6563 25.046C75.3203 24.958 75.0383 24.838 74.8103 24.686C74.5863 24.538 74.4183 24.366 74.3063 24.17C74.1983 23.974 74.1443 23.77 74.1443 23.558C74.1443 23.27 74.2343 23.024 74.4143 22.82C74.5983 22.616 74.8463 22.456 75.1583 22.34C74.9903 22.26 74.8543 22.15 74.7503 22.01C74.6503 21.87 74.6003 21.686 74.6003 21.458C74.6003 21.278 74.6663 21.09 74.7983 20.894C74.9303 20.698 75.1283 20.532 75.3923 20.396C75.0883 20.228 74.8483 20.006 74.6723 19.73C74.4963 19.45 74.4083 19.124 74.4083 18.752C74.4083 18.448 74.4663 18.174 74.5823 17.93C74.7023 17.686 74.8683 17.478 75.0803 17.306C75.2923 17.134 75.5423 17.002 75.8303 16.91C76.1223 16.818 76.4403 16.772 76.7843 16.772C77.3123 16.772 77.7723 16.882 78.1643 17.102H79.8743ZM82.3392 17.69C82.4712 17.554 82.6072 17.432 82.7472 17.324C82.8912 17.212 83.0432 17.116 83.2032 17.036C83.3632 16.956 83.5332 16.894 83.7132 16.85C83.8932 16.806 84.0892 16.784 84.3012 16.784C84.6372 16.784 84.9312 16.84 85.1832 16.952C85.4392 17.064 85.6532 17.222 85.8252 17.426C86.0012 17.63 86.1332 17.876 86.2212 18.164C86.3092 18.448 86.3532 18.762 86.3532 19.106V23H85.0692V19.106C85.0692 18.694 84.9732 18.374 84.7812 18.146C84.5932 17.918 84.3052 17.804 83.9172 17.804C83.6292 17.804 83.3612 17.87 83.1132 18.002C82.8692 18.134 82.6392 18.314 82.4232 18.542V23H81.1332V16.88H81.9132C82.0892 16.88 82.2012 16.962 82.2492 17.126L82.3392 17.69ZM91.7538 17.99C91.7218 18.046 91.6858 18.086 91.6458 18.11C91.6058 18.134 91.5558 18.146 91.4958 18.146C91.4278 18.146 91.3538 18.126 91.2738 18.086C91.1938 18.042 91.0998 17.994 90.9918 17.942C90.8838 17.89 90.7558 17.844 90.6078 17.804C90.4638 17.76 90.2938 17.738 90.0978 17.738C89.9378 17.738 89.7918 17.758 89.6598 17.798C89.5318 17.834 89.4218 17.888 89.3298 17.96C89.2418 18.028 89.1738 18.11 89.1258 18.206C89.0778 18.298 89.0538 18.398 89.0538 18.506C89.0538 18.65 89.0978 18.77 89.1858 18.866C89.2738 18.962 89.3898 19.046 89.5338 19.118C89.6778 19.186 89.8418 19.248 90.0258 19.304C90.2098 19.36 90.3978 19.42 90.5898 19.484C90.7818 19.548 90.9698 19.622 91.1538 19.706C91.3378 19.79 91.5018 19.894 91.6458 20.018C91.7898 20.138 91.9058 20.286 91.9938 20.462C92.0818 20.634 92.1258 20.844 92.1258 21.092C92.1258 21.38 92.0738 21.646 91.9698 21.89C91.8658 22.134 91.7138 22.346 91.5138 22.526C91.3138 22.706 91.0638 22.846 90.7638 22.946C90.4678 23.046 90.1278 23.096 89.7438 23.096C89.5318 23.096 89.3258 23.076 89.1258 23.036C88.9298 23 88.7418 22.95 88.5618 22.886C88.3858 22.818 88.2198 22.738 88.0638 22.646C87.9118 22.554 87.7758 22.454 87.6558 22.346L87.9558 21.854C87.9918 21.794 88.0358 21.748 88.0878 21.716C88.1438 21.68 88.2118 21.662 88.2918 21.662C88.3758 21.662 88.4578 21.69 88.5378 21.746C88.6218 21.798 88.7178 21.856 88.8258 21.92C88.9378 21.984 89.0718 22.044 89.2278 22.1C89.3838 22.152 89.5778 22.178 89.8098 22.178C90.0018 22.178 90.1678 22.156 90.3078 22.112C90.4478 22.064 90.5638 22 90.6558 21.92C90.7478 21.84 90.8158 21.75 90.8598 21.65C90.9038 21.546 90.9258 21.436 90.9258 21.32C90.9258 21.164 90.8818 21.036 90.7938 20.936C90.7058 20.836 90.5878 20.75 90.4398 20.678C90.2958 20.606 90.1298 20.542 89.9418 20.486C89.7578 20.43 89.5698 20.37 89.3778 20.306C89.1858 20.242 88.9958 20.168 88.8078 20.084C88.6238 20 88.4578 19.894 88.3098 19.766C88.1658 19.634 88.0498 19.476 87.9618 19.292C87.8738 19.104 87.8298 18.876 87.8298 18.608C87.8298 18.364 87.8778 18.132 87.9738 17.912C88.0738 17.692 88.2178 17.498 88.4058 17.33C88.5978 17.162 88.8318 17.03 89.1078 16.934C89.3878 16.834 89.7098 16.784 90.0738 16.784C90.4858 16.784 90.8598 16.85 91.1958 16.982C91.5318 17.114 91.8138 17.294 92.0418 17.522L91.7538 17.99Z" fill="#79157E"/>
<defs>
<clipPath id="clip0_16_11096">
<rect width="18" height="18" fill="white" transform="translate(6.8999 9)"/>
</clipPath>
</defs>
</svg>
