<svg width="99" height="36" viewBox="0 0 99 36" fill="none" xmlns="http://www.w3.org/2000/svg">
<rect x="1" y="1" width="97.4" height="34" rx="17" fill="#FFEDCD"/>
<rect x="1" y="1" width="97.4" height="34" rx="17" stroke="#BD7F0D"/>
<path d="M27.2 21.735H22.7075C21.8825 21.735 21.245 22.44 20.8475 23.16C20.5328 23.7504 20.0298 24.2187 19.4184 24.4905C18.807 24.7622 18.1224 24.8218 17.4733 24.6597C16.8241 24.4977 16.2478 24.1233 15.8359 23.596C15.424 23.0688 15.2002 22.419 15.2 21.75C15.2075 21.225 15.35 20.7 15.6275 20.25" stroke="#BD7F0D" stroke-width="1.4" stroke-linecap="round" stroke-linejoin="round"/>
<path d="M18.2 21.75L20.5475 17.415C20.945 16.6875 20.6225 15.78 20.1725 15.09C19.9601 14.7503 19.8179 14.3716 19.7542 13.976C19.6906 13.5805 19.7068 13.1763 19.8019 12.7871C19.8971 12.398 20.0692 12.0318 20.3081 11.7103C20.547 11.3887 20.848 11.1182 21.1931 10.9149C21.5382 10.7115 21.9206 10.5793 22.3177 10.5261C22.7147 10.4729 23.1184 10.4997 23.505 10.6051C23.8915 10.7104 24.253 10.8921 24.5681 11.1394C24.8833 11.3867 25.1457 11.6946 25.34 12.045" stroke="#BD7F0D" stroke-width="1.4" stroke-linecap="round" stroke-linejoin="round"/>
<path d="M22.7 13.5L25.0475 17.7975C25.445 18.525 26.375 18.75 27.2 18.75C27.9956 18.75 28.7587 19.0661 29.3213 19.6287C29.8839 20.1913 30.2 20.9544 30.2 21.75C30.2 22.5456 29.8839 23.3087 29.3213 23.8713C28.7587 24.4339 27.9956 24.75 27.2 24.75" stroke="#BD7F0D" stroke-width="1.4" stroke-linecap="round" stroke-linejoin="round"/>
<path d="M45.244 15.836C45.2 15.908 45.154 15.962 45.106 15.998C45.058 16.03 44.998 16.046 44.926 16.046C44.85 16.046 44.764 16.014 44.668 15.95C44.576 15.886 44.46 15.816 44.32 15.74C44.184 15.66 44.022 15.588 43.834 15.524C43.646 15.456 43.422 15.422 43.162 15.422C42.922 15.422 42.71 15.452 42.526 15.512C42.346 15.572 42.194 15.656 42.07 15.764C41.946 15.872 41.852 16 41.788 16.148C41.728 16.292 41.698 16.45 41.698 16.622C41.698 16.842 41.756 17.026 41.872 17.174C41.988 17.318 42.14 17.442 42.328 17.546C42.52 17.65 42.738 17.742 42.982 17.822C43.226 17.898 43.474 17.98 43.726 18.068C43.982 18.156 44.232 18.256 44.476 18.368C44.72 18.48 44.936 18.622 45.124 18.794C45.316 18.966 45.47 19.176 45.586 19.424C45.702 19.672 45.76 19.974 45.76 20.33C45.76 20.714 45.694 21.074 45.562 21.41C45.43 21.746 45.238 22.04 44.986 22.292C44.738 22.54 44.43 22.736 44.062 22.88C43.698 23.024 43.282 23.096 42.814 23.096C42.538 23.096 42.268 23.068 42.004 23.012C41.744 22.96 41.494 22.886 41.254 22.79C41.018 22.69 40.796 22.57 40.588 22.43C40.38 22.29 40.194 22.134 40.03 21.962L40.438 21.29C40.474 21.234 40.52 21.19 40.576 21.158C40.632 21.126 40.694 21.11 40.762 21.11C40.854 21.11 40.956 21.154 41.068 21.242C41.18 21.326 41.314 21.42 41.47 21.524C41.63 21.624 41.822 21.718 42.046 21.806C42.27 21.89 42.538 21.932 42.85 21.932C43.358 21.932 43.75 21.808 44.026 21.56C44.306 21.312 44.446 20.97 44.446 20.534C44.446 20.29 44.388 20.092 44.272 19.94C44.156 19.784 44.002 19.654 43.81 19.55C43.622 19.446 43.406 19.358 43.162 19.286C42.918 19.214 42.67 19.138 42.418 19.058C42.166 18.974 41.918 18.878 41.674 18.77C41.43 18.658 41.212 18.514 41.02 18.338C40.832 18.158 40.68 17.938 40.564 17.678C40.448 17.414 40.39 17.086 40.39 16.694C40.39 16.382 40.45 16.08 40.57 15.788C40.694 15.496 40.872 15.238 41.104 15.014C41.34 14.786 41.63 14.604 41.974 14.468C42.318 14.332 42.71 14.264 43.15 14.264C43.646 14.264 44.1 14.342 44.512 14.498C44.928 14.654 45.286 14.876 45.586 15.164L45.244 15.836ZM48.9692 23.096C48.4612 23.096 48.0692 22.954 47.7932 22.67C47.5212 22.382 47.3852 21.978 47.3852 21.458V17.894H46.7132C46.6412 17.894 46.5792 17.872 46.5272 17.828C46.4752 17.78 46.4492 17.71 46.4492 17.618V17.096L47.4392 16.952L47.7212 15.182C47.7412 15.114 47.7752 15.06 47.8232 15.02C47.8712 14.976 47.9352 14.954 48.0152 14.954H48.6752V16.964H50.3732V17.894H48.6752V21.368C48.6752 21.588 48.7292 21.756 48.8372 21.872C48.9452 21.988 49.0892 22.046 49.2692 22.046C49.3692 22.046 49.4552 22.034 49.5272 22.01C49.5992 21.982 49.6612 21.954 49.7132 21.926C49.7652 21.894 49.8092 21.866 49.8452 21.842C49.8852 21.814 49.9232 21.8 49.9592 21.8C50.0312 21.8 50.0892 21.84 50.1332 21.92L50.5172 22.55C50.3172 22.726 50.0812 22.862 49.8092 22.958C49.5372 23.05 49.2572 23.096 48.9692 23.096ZM54.9 20.324C54.44 20.34 54.052 20.378 53.736 20.438C53.42 20.494 53.164 20.568 52.968 20.66C52.772 20.748 52.63 20.854 52.542 20.978C52.458 21.102 52.416 21.238 52.416 21.386C52.416 21.53 52.438 21.654 52.482 21.758C52.53 21.858 52.594 21.942 52.674 22.01C52.758 22.074 52.854 22.122 52.962 22.154C53.074 22.182 53.196 22.196 53.328 22.196C53.664 22.196 53.952 22.134 54.192 22.01C54.436 21.882 54.672 21.698 54.9 21.458V20.324ZM51.48 17.732C52.172 17.088 52.996 16.766 53.952 16.766C54.304 16.766 54.616 16.824 54.888 16.94C55.164 17.052 55.394 17.212 55.578 17.42C55.766 17.628 55.908 17.876 56.004 18.164C56.104 18.448 56.154 18.764 56.154 19.112V23H55.578C55.454 23 55.36 22.982 55.296 22.946C55.232 22.906 55.178 22.828 55.134 22.712L55.008 22.214C54.852 22.354 54.698 22.48 54.546 22.592C54.394 22.7 54.236 22.792 54.072 22.868C53.912 22.944 53.738 23 53.55 23.036C53.366 23.076 53.162 23.096 52.938 23.096C52.69 23.096 52.458 23.062 52.242 22.994C52.03 22.926 51.846 22.824 51.69 22.688C51.534 22.548 51.41 22.376 51.318 22.172C51.23 21.968 51.186 21.728 51.186 21.452C51.186 21.216 51.248 20.986 51.372 20.762C51.5 20.538 51.708 20.338 51.996 20.162C52.288 19.982 52.67 19.834 53.142 19.718C53.618 19.602 54.204 19.536 54.9 19.52V19.112C54.9 18.672 54.806 18.344 54.618 18.128C54.43 17.912 54.154 17.804 53.79 17.804C53.542 17.804 53.334 17.836 53.166 17.9C52.998 17.96 52.852 18.026 52.728 18.098C52.604 18.17 52.494 18.238 52.398 18.302C52.302 18.362 52.2 18.392 52.092 18.392C52.004 18.392 51.928 18.37 51.864 18.326C51.804 18.278 51.754 18.22 51.714 18.152L51.48 17.732ZM59.1232 18.014C59.3152 17.626 59.5472 17.322 59.8192 17.102C60.0912 16.878 60.4172 16.766 60.7972 16.766C60.9292 16.766 61.0532 16.782 61.1692 16.814C61.2852 16.842 61.3892 16.886 61.4812 16.946L61.3912 17.918C61.3752 17.986 61.3492 18.034 61.3132 18.062C61.2812 18.086 61.2372 18.098 61.1812 18.098C61.1212 18.098 61.0352 18.088 60.9232 18.068C60.8112 18.044 60.6932 18.032 60.5692 18.032C60.3892 18.032 60.2292 18.058 60.0892 18.11C59.9532 18.162 59.8292 18.238 59.7172 18.338C59.6092 18.438 59.5132 18.56 59.4292 18.704C59.3452 18.848 59.2672 19.012 59.1952 19.196V23H57.9052V16.88H58.6552C58.7912 16.88 58.8852 16.906 58.9372 16.958C58.9892 17.006 59.0252 17.092 59.0452 17.216L59.1232 18.014ZM64.5369 23.096C64.0289 23.096 63.6369 22.954 63.3609 22.67C63.0889 22.382 62.9529 21.978 62.9529 21.458V17.894H62.2809C62.2089 17.894 62.1469 17.872 62.0949 17.828C62.0429 17.78 62.0169 17.71 62.0169 17.618V17.096L63.0069 16.952L63.2889 15.182C63.3089 15.114 63.3429 15.06 63.3909 15.02C63.4389 14.976 63.5029 14.954 63.5829 14.954H64.2429V16.964H65.9409V17.894H64.2429V21.368C64.2429 21.588 64.2969 21.756 64.4049 21.872C64.5129 21.988 64.6569 22.046 64.8369 22.046C64.9369 22.046 65.0229 22.034 65.0949 22.01C65.1669 21.982 65.2289 21.954 65.2809 21.926C65.3329 21.894 65.3769 21.866 65.4129 21.842C65.4529 21.814 65.4909 21.8 65.5269 21.8C65.5989 21.8 65.6569 21.84 65.7009 21.92L66.0849 22.55C65.8849 22.726 65.6489 22.862 65.3769 22.958C65.1049 23.05 64.8249 23.096 64.5369 23.096ZM67.1257 18.842H70.1677V19.934H67.1257V18.842ZM77.0625 16.88V23H76.2825C76.1105 23 76.0005 22.918 75.9525 22.754L75.8565 22.184C75.7285 22.32 75.5925 22.444 75.4485 22.556C75.3085 22.668 75.1585 22.764 74.9985 22.844C74.8385 22.924 74.6665 22.986 74.4825 23.03C74.3025 23.074 74.1085 23.096 73.9005 23.096C73.5645 23.096 73.2685 23.04 73.0125 22.928C72.7565 22.816 72.5405 22.658 72.3645 22.454C72.1925 22.25 72.0625 22.006 71.9745 21.722C71.8865 21.434 71.8425 21.118 71.8425 20.774V16.88H73.1325V20.774C73.1325 21.186 73.2265 21.506 73.4145 21.734C73.6065 21.962 73.8965 22.076 74.2845 22.076C74.5685 22.076 74.8325 22.012 75.0765 21.884C75.3245 21.752 75.5565 21.572 75.7725 21.344V16.88H77.0625ZM80.1591 21.464C80.3391 21.696 80.5351 21.86 80.7471 21.956C80.9631 22.048 81.2011 22.094 81.4611 22.094C81.9651 22.094 82.3571 21.91 82.6371 21.542C82.9211 21.174 83.0631 20.626 83.0631 19.898C83.0631 19.522 83.0311 19.202 82.9671 18.938C82.9031 18.67 82.8111 18.452 82.6911 18.284C82.5711 18.116 82.4251 17.994 82.2531 17.918C82.0811 17.842 81.8871 17.804 81.6711 17.804C81.3431 17.804 81.0591 17.876 80.8191 18.02C80.5831 18.16 80.3631 18.362 80.1591 18.626V21.464ZM80.0931 17.768C80.3491 17.468 80.6391 17.226 80.9631 17.042C81.2911 16.858 81.6711 16.766 82.1031 16.766C82.4471 16.766 82.7591 16.836 83.0391 16.976C83.3191 17.112 83.5591 17.312 83.7591 17.576C83.9591 17.84 84.1131 18.168 84.2211 18.56C84.3331 18.948 84.3891 19.394 84.3891 19.898C84.3891 20.35 84.3271 20.772 84.2031 21.164C84.0831 21.552 83.9091 21.89 83.6811 22.178C83.4531 22.462 83.1771 22.686 82.8531 22.85C82.5291 23.01 82.1631 23.09 81.7551 23.09C81.3951 23.09 81.0891 23.032 80.8371 22.916C80.5891 22.8 80.3631 22.64 80.1591 22.436V25.034H78.8691V16.88H79.6491C79.8251 16.88 79.9371 16.962 79.9851 17.126L80.0931 17.768Z" fill="#BD7F0D"/>
</svg>
