<svg width="40" height="40" viewBox="0 0 40 40" fill="none" xmlns="http://www.w3.org/2000/svg">
<path d="M0 8C0 4.22876 0 2.34315 1.17157 1.17157C2.34315 0 4.22876 0 8 0H32C35.7712 0 37.6569 0 38.8284 1.17157C40 2.34315 40 4.22876 40 8V32C40 35.7712 40 37.6569 38.8284 38.8284C37.6569 40 35.7712 40 32 40H8C4.22876 40 2.34315 40 1.17157 38.8284C0 37.6569 0 35.7712 0 32V8Z" fill="#EBF5FD"/>
<path d="M20 14C20.5523 14 21 13.5523 21 13C21 12.4477 20.5523 12 20 12C19.4477 12 19 12.4477 19 13C19 13.5523 19.4477 14 20 14Z" stroke="#3882B7" stroke-width="1.4" stroke-linecap="round" stroke-linejoin="round"/>
<path d="M17 28L20 22L23 28" stroke="#3882B7" stroke-width="1.4" stroke-linecap="round" stroke-linejoin="round"/>
<path d="M14 16L20 18L26 16" stroke="#3882B7" stroke-width="1.4" stroke-linecap="round" stroke-linejoin="round"/>
<path d="M20 18V22" stroke="#3882B7" stroke-width="1.4" stroke-linecap="round" stroke-linejoin="round"/>
</svg>
