<svg width="142" height="32" viewBox="0 0 142 32" fill="none" xmlns="http://www.w3.org/2000/svg">
<rect x="0.5" y="1" width="141" height="30" rx="15" fill="#FFEDCD"/>
<rect x="0.5" y="1" width="141" height="30" rx="15" stroke="#BD7F0D"/>
<path d="M15.8808 19.074C15.9568 19.074 16.0228 19.104 16.0788 19.164L16.6368 19.77C16.2848 20.194 15.8528 20.522 15.3408 20.754C14.8288 20.982 14.2168 21.096 13.5048 21.096C12.8728 21.096 12.3008 20.988 11.7888 20.772C11.2808 20.552 10.8468 20.248 10.4868 19.86C10.1268 19.468 9.84877 19.002 9.65277 18.462C9.46077 17.922 9.36477 17.328 9.36477 16.68C9.36477 16.032 9.46677 15.438 9.67077 14.898C9.87877 14.354 10.1688 13.888 10.5408 13.5C10.9168 13.108 11.3648 12.804 11.8848 12.588C12.4088 12.372 12.9848 12.264 13.6128 12.264C14.2368 12.264 14.7868 12.366 15.2628 12.57C15.7428 12.77 16.1588 13.038 16.5108 13.374L16.0488 14.028C16.0168 14.072 15.9788 14.11 15.9348 14.142C15.8908 14.174 15.8308 14.19 15.7548 14.19C15.6748 14.19 15.5828 14.154 15.4788 14.082C15.3788 14.006 15.2488 13.924 15.0888 13.836C14.9328 13.744 14.7348 13.662 14.4948 13.59C14.2588 13.514 13.9628 13.476 13.6068 13.476C13.1948 13.476 12.8168 13.548 12.4728 13.692C12.1288 13.836 11.8328 14.046 11.5848 14.322C11.3368 14.598 11.1428 14.934 11.0028 15.33C10.8668 15.726 10.7988 16.176 10.7988 16.68C10.7988 17.188 10.8708 17.642 11.0148 18.042C11.1588 18.438 11.3568 18.774 11.6088 19.05C11.8608 19.322 12.1568 19.53 12.4968 19.674C12.8368 19.818 13.2028 19.89 13.5948 19.89C13.8348 19.89 14.0488 19.878 14.2368 19.854C14.4288 19.826 14.6048 19.784 14.7648 19.728C14.9248 19.668 15.0748 19.594 15.2148 19.506C15.3588 19.418 15.5008 19.31 15.6408 19.182C15.7208 19.11 15.8008 19.074 15.8808 19.074ZM22.9158 14.88V21H22.1358C21.9638 21 21.8538 20.918 21.8058 20.754L21.7098 20.184C21.5818 20.32 21.4458 20.444 21.3018 20.556C21.1618 20.668 21.0118 20.764 20.8518 20.844C20.6918 20.924 20.5198 20.986 20.3358 21.03C20.1558 21.074 19.9618 21.096 19.7538 21.096C19.4178 21.096 19.1218 21.04 18.8658 20.928C18.6098 20.816 18.3938 20.658 18.2178 20.454C18.0458 20.25 17.9158 20.006 17.8278 19.722C17.7398 19.434 17.6958 19.118 17.6958 18.774V14.88H18.9858V18.774C18.9858 19.186 19.0798 19.506 19.2678 19.734C19.4598 19.962 19.7498 20.076 20.1378 20.076C20.4218 20.076 20.6858 20.012 20.9298 19.884C21.1778 19.752 21.4098 19.572 21.6258 19.344V14.88H22.9158ZM28.3763 15.99C28.3443 16.046 28.3083 16.086 28.2683 16.11C28.2283 16.134 28.1783 16.146 28.1183 16.146C28.0503 16.146 27.9763 16.126 27.8963 16.086C27.8163 16.042 27.7223 15.994 27.6143 15.942C27.5063 15.89 27.3783 15.844 27.2303 15.804C27.0863 15.76 26.9163 15.738 26.7203 15.738C26.5603 15.738 26.4143 15.758 26.2823 15.798C26.1543 15.834 26.0443 15.888 25.9523 15.96C25.8643 16.028 25.7963 16.11 25.7483 16.206C25.7003 16.298 25.6763 16.398 25.6763 16.506C25.6763 16.65 25.7203 16.77 25.8083 16.866C25.8963 16.962 26.0123 17.046 26.1563 17.118C26.3003 17.186 26.4643 17.248 26.6483 17.304C26.8323 17.36 27.0203 17.42 27.2123 17.484C27.4043 17.548 27.5923 17.622 27.7763 17.706C27.9603 17.79 28.1243 17.894 28.2683 18.018C28.4123 18.138 28.5283 18.286 28.6163 18.462C28.7043 18.634 28.7483 18.844 28.7483 19.092C28.7483 19.38 28.6963 19.646 28.5923 19.89C28.4883 20.134 28.3363 20.346 28.1363 20.526C27.9363 20.706 27.6863 20.846 27.3863 20.946C27.0903 21.046 26.7503 21.096 26.3663 21.096C26.1543 21.096 25.9483 21.076 25.7483 21.036C25.5523 21 25.3643 20.95 25.1843 20.886C25.0083 20.818 24.8423 20.738 24.6863 20.646C24.5343 20.554 24.3983 20.454 24.2783 20.346L24.5783 19.854C24.6143 19.794 24.6583 19.748 24.7103 19.716C24.7663 19.68 24.8343 19.662 24.9143 19.662C24.9983 19.662 25.0803 19.69 25.1603 19.746C25.2443 19.798 25.3403 19.856 25.4483 19.92C25.5603 19.984 25.6943 20.044 25.8503 20.1C26.0063 20.152 26.2003 20.178 26.4323 20.178C26.6243 20.178 26.7903 20.156 26.9303 20.112C27.0703 20.064 27.1863 20 27.2783 19.92C27.3703 19.84 27.4383 19.75 27.4823 19.65C27.5263 19.546 27.5483 19.436 27.5483 19.32C27.5483 19.164 27.5043 19.036 27.4163 18.936C27.3283 18.836 27.2103 18.75 27.0623 18.678C26.9183 18.606 26.7523 18.542 26.5643 18.486C26.3803 18.43 26.1923 18.37 26.0003 18.306C25.8083 18.242 25.6183 18.168 25.4303 18.084C25.2463 18 25.0803 17.894 24.9323 17.766C24.7883 17.634 24.6723 17.476 24.5843 17.292C24.4963 17.104 24.4523 16.876 24.4523 16.608C24.4523 16.364 24.5003 16.132 24.5963 15.912C24.6963 15.692 24.8403 15.498 25.0283 15.33C25.2203 15.162 25.4543 15.03 25.7303 14.934C26.0103 14.834 26.3323 14.784 26.6963 14.784C27.1083 14.784 27.4823 14.85 27.8183 14.982C28.1543 15.114 28.4363 15.294 28.6643 15.522L28.3763 15.99ZM32.1626 21.096C31.6546 21.096 31.2626 20.954 30.9866 20.67C30.7146 20.382 30.5786 19.978 30.5786 19.458V15.894H29.9066C29.8346 15.894 29.7726 15.872 29.7206 15.828C29.6686 15.78 29.6426 15.71 29.6426 15.618V15.096L30.6326 14.952L30.9146 13.182C30.9346 13.114 30.9686 13.06 31.0166 13.02C31.0646 12.976 31.1286 12.954 31.2086 12.954H31.8686V14.964H33.5666V15.894H31.8686V19.368C31.8686 19.588 31.9226 19.756 32.0306 19.872C32.1386 19.988 32.2826 20.046 32.4626 20.046C32.5626 20.046 32.6486 20.034 32.7206 20.01C32.7926 19.982 32.8546 19.954 32.9066 19.926C32.9586 19.894 33.0026 19.866 33.0386 19.842C33.0786 19.814 33.1166 19.8 33.1526 19.8C33.2246 19.8 33.2826 19.84 33.3266 19.92L33.7106 20.55C33.5106 20.726 33.2746 20.862 33.0026 20.958C32.7306 21.05 32.4506 21.096 32.1626 21.096ZM37.4225 14.784C37.8745 14.784 38.2825 14.858 38.6465 15.006C39.0145 15.154 39.3265 15.364 39.5825 15.636C39.8425 15.908 40.0425 16.238 40.1825 16.626C40.3225 17.014 40.3925 17.45 40.3925 17.934C40.3925 18.418 40.3225 18.854 40.1825 19.242C40.0425 19.63 39.8425 19.962 39.5825 20.238C39.3265 20.51 39.0145 20.72 38.6465 20.868C38.2825 21.016 37.8745 21.09 37.4225 21.09C36.9665 21.09 36.5545 21.016 36.1865 20.868C35.8225 20.72 35.5105 20.51 35.2505 20.238C34.9905 19.962 34.7905 19.63 34.6505 19.242C34.5105 18.854 34.4405 18.418 34.4405 17.934C34.4405 17.45 34.5105 17.014 34.6505 16.626C34.7905 16.238 34.9905 15.908 35.2505 15.636C35.5105 15.364 35.8225 15.154 36.1865 15.006C36.5545 14.858 36.9665 14.784 37.4225 14.784ZM37.4225 20.082C37.9745 20.082 38.3845 19.898 38.6525 19.53C38.9245 19.158 39.0605 18.628 39.0605 17.94C39.0605 17.252 38.9245 16.722 38.6525 16.35C38.3845 15.974 37.9745 15.786 37.4225 15.786C36.8625 15.786 36.4465 15.974 36.1745 16.35C35.9025 16.722 35.7665 17.252 35.7665 17.94C35.7665 18.628 35.9025 19.158 36.1745 19.53C36.4465 19.898 36.8625 20.082 37.4225 20.082ZM41.872 21V14.88H42.652C42.828 14.88 42.94 14.962 42.988 15.126L43.072 15.66C43.184 15.532 43.3 15.416 43.42 15.312C43.54 15.204 43.668 15.112 43.804 15.036C43.944 14.956 44.092 14.894 44.248 14.85C44.408 14.806 44.58 14.784 44.764 14.784C44.96 14.784 45.14 14.812 45.304 14.868C45.468 14.924 45.612 15.004 45.736 15.108C45.864 15.212 45.974 15.338 46.066 15.486C46.158 15.634 46.234 15.8 46.294 15.984C46.386 15.772 46.502 15.59 46.642 15.438C46.782 15.286 46.938 15.162 47.11 15.066C47.282 14.97 47.464 14.9 47.656 14.856C47.852 14.808 48.05 14.784 48.25 14.784C48.578 14.784 48.87 14.836 49.126 14.94C49.386 15.044 49.604 15.196 49.78 15.396C49.96 15.592 50.096 15.834 50.188 16.122C50.28 16.41 50.326 16.738 50.326 17.106V21H49.036V17.106C49.036 16.674 48.942 16.35 48.754 16.134C48.57 15.914 48.296 15.804 47.932 15.804C47.768 15.804 47.614 15.832 47.47 15.888C47.326 15.944 47.2 16.026 47.092 16.134C46.984 16.242 46.898 16.378 46.834 16.542C46.774 16.702 46.744 16.89 46.744 17.106V21H45.454V17.106C45.454 16.658 45.364 16.33 45.184 16.122C45.004 15.91 44.74 15.804 44.392 15.804C44.152 15.804 43.93 15.866 43.726 15.99C43.522 16.11 43.334 16.276 43.162 16.488V21H41.872ZM56.087 17.25C56.087 17.034 56.055 16.834 55.991 16.65C55.931 16.462 55.841 16.3 55.721 16.164C55.601 16.024 55.451 15.916 55.271 15.84C55.095 15.76 54.891 15.72 54.659 15.72C54.191 15.72 53.823 15.854 53.555 16.122C53.287 16.39 53.117 16.766 53.045 17.25H56.087ZM53.009 18.042C53.025 18.39 53.079 18.692 53.171 18.948C53.263 19.2 53.385 19.41 53.537 19.578C53.693 19.746 53.877 19.872 54.089 19.956C54.305 20.036 54.545 20.076 54.809 20.076C55.061 20.076 55.279 20.048 55.463 19.992C55.647 19.932 55.807 19.868 55.943 19.8C56.079 19.728 56.195 19.664 56.291 19.608C56.387 19.548 56.475 19.518 56.555 19.518C56.659 19.518 56.739 19.558 56.795 19.638L57.161 20.112C57.009 20.292 56.837 20.444 56.645 20.568C56.453 20.692 56.249 20.794 56.033 20.874C55.817 20.95 55.595 21.004 55.367 21.036C55.139 21.072 54.917 21.09 54.701 21.09C54.277 21.09 53.883 21.02 53.519 20.88C53.159 20.736 52.845 20.526 52.577 20.25C52.313 19.974 52.105 19.632 51.953 19.224C51.805 18.816 51.731 18.346 51.731 17.814C51.731 17.39 51.797 16.994 51.929 16.626C52.065 16.258 52.257 15.938 52.505 15.666C52.757 15.394 53.061 15.18 53.417 15.024C53.777 14.864 54.183 14.784 54.635 14.784C55.011 14.784 55.359 14.846 55.679 14.97C55.999 15.09 56.275 15.268 56.507 15.504C56.739 15.74 56.919 16.03 57.047 16.374C57.179 16.714 57.245 17.102 57.245 17.538C57.245 17.738 57.223 17.872 57.179 17.94C57.135 18.008 57.055 18.042 56.939 18.042H53.009ZM59.906 16.014C60.098 15.626 60.33 15.322 60.602 15.102C60.874 14.878 61.2 14.766 61.58 14.766C61.712 14.766 61.836 14.782 61.952 14.814C62.068 14.842 62.172 14.886 62.264 14.946L62.174 15.918C62.158 15.986 62.132 16.034 62.096 16.062C62.064 16.086 62.02 16.098 61.964 16.098C61.904 16.098 61.818 16.088 61.706 16.068C61.594 16.044 61.476 16.032 61.352 16.032C61.172 16.032 61.012 16.058 60.872 16.11C60.736 16.162 60.612 16.238 60.5 16.338C60.392 16.438 60.296 16.56 60.212 16.704C60.128 16.848 60.05 17.012 59.978 17.196V21H58.688V14.88H59.438C59.574 14.88 59.668 14.906 59.72 14.958C59.772 15.006 59.808 15.092 59.828 15.216L59.906 16.014ZM72.1508 13.53H69.4568V21H68.0588V13.53H65.3588V12.36H72.1508V13.53ZM75.9141 17.25C75.9141 17.034 75.8821 16.834 75.8181 16.65C75.7581 16.462 75.6681 16.3 75.5481 16.164C75.4281 16.024 75.2781 15.916 75.0981 15.84C74.9221 15.76 74.7181 15.72 74.4861 15.72C74.0181 15.72 73.6501 15.854 73.3821 16.122C73.1141 16.39 72.9441 16.766 72.8721 17.25H75.9141ZM72.8361 18.042C72.8521 18.39 72.9061 18.692 72.9981 18.948C73.0901 19.2 73.2121 19.41 73.3641 19.578C73.5201 19.746 73.7041 19.872 73.9161 19.956C74.1321 20.036 74.3721 20.076 74.6361 20.076C74.8881 20.076 75.1061 20.048 75.2901 19.992C75.4741 19.932 75.6341 19.868 75.7701 19.8C75.9061 19.728 76.0221 19.664 76.1181 19.608C76.2141 19.548 76.3021 19.518 76.3821 19.518C76.4861 19.518 76.5661 19.558 76.6221 19.638L76.9881 20.112C76.8361 20.292 76.6641 20.444 76.4721 20.568C76.2801 20.692 76.0761 20.794 75.8601 20.874C75.6441 20.95 75.4221 21.004 75.1941 21.036C74.9661 21.072 74.7441 21.09 74.5281 21.09C74.1041 21.09 73.7101 21.02 73.3461 20.88C72.9861 20.736 72.6721 20.526 72.4041 20.25C72.1401 19.974 71.9321 19.632 71.7801 19.224C71.6321 18.816 71.5581 18.346 71.5581 17.814C71.5581 17.39 71.6241 16.994 71.7561 16.626C71.8921 16.258 72.0841 15.938 72.3321 15.666C72.5841 15.394 72.8881 15.18 73.2441 15.024C73.6041 14.864 74.0101 14.784 74.4621 14.784C74.8381 14.784 75.1861 14.846 75.5061 14.97C75.8261 15.09 76.1021 15.268 76.3341 15.504C76.5661 15.74 76.7461 16.03 76.8741 16.374C77.0061 16.714 77.0721 17.102 77.0721 17.538C77.0721 17.738 77.0501 17.872 77.0061 17.94C76.9621 18.008 76.8821 18.042 76.7661 18.042H72.8361ZM82.1691 15.99C82.1371 16.046 82.1011 16.086 82.0611 16.11C82.0211 16.134 81.9711 16.146 81.9111 16.146C81.8431 16.146 81.7691 16.126 81.6891 16.086C81.6091 16.042 81.5151 15.994 81.4071 15.942C81.2991 15.89 81.1711 15.844 81.0231 15.804C80.8791 15.76 80.7091 15.738 80.5131 15.738C80.3531 15.738 80.2071 15.758 80.0751 15.798C79.9471 15.834 79.8371 15.888 79.7451 15.96C79.6571 16.028 79.5891 16.11 79.5411 16.206C79.4931 16.298 79.4691 16.398 79.4691 16.506C79.4691 16.65 79.5131 16.77 79.6011 16.866C79.6891 16.962 79.8051 17.046 79.9491 17.118C80.0931 17.186 80.2571 17.248 80.4411 17.304C80.6251 17.36 80.8131 17.42 81.0051 17.484C81.1971 17.548 81.3851 17.622 81.5691 17.706C81.7531 17.79 81.9171 17.894 82.0611 18.018C82.2051 18.138 82.3211 18.286 82.4091 18.462C82.4971 18.634 82.5411 18.844 82.5411 19.092C82.5411 19.38 82.4891 19.646 82.3851 19.89C82.2811 20.134 82.1291 20.346 81.9291 20.526C81.7291 20.706 81.4791 20.846 81.1791 20.946C80.8831 21.046 80.5431 21.096 80.1591 21.096C79.9471 21.096 79.7411 21.076 79.5411 21.036C79.3451 21 79.1571 20.95 78.9771 20.886C78.8011 20.818 78.6351 20.738 78.4791 20.646C78.3271 20.554 78.1911 20.454 78.0711 20.346L78.3711 19.854C78.4071 19.794 78.4511 19.748 78.5031 19.716C78.5591 19.68 78.6271 19.662 78.7071 19.662C78.7911 19.662 78.8731 19.69 78.9531 19.746C79.0371 19.798 79.1331 19.856 79.2411 19.92C79.3531 19.984 79.4871 20.044 79.6431 20.1C79.7991 20.152 79.9931 20.178 80.2251 20.178C80.4171 20.178 80.5831 20.156 80.7231 20.112C80.8631 20.064 80.9791 20 81.0711 19.92C81.1631 19.84 81.2311 19.75 81.2751 19.65C81.3191 19.546 81.3411 19.436 81.3411 19.32C81.3411 19.164 81.2971 19.036 81.2091 18.936C81.1211 18.836 81.0031 18.75 80.8551 18.678C80.7111 18.606 80.5451 18.542 80.3571 18.486C80.1731 18.43 79.9851 18.37 79.7931 18.306C79.6011 18.242 79.4111 18.168 79.2231 18.084C79.0391 18 78.8731 17.894 78.7251 17.766C78.5811 17.634 78.4651 17.476 78.3771 17.292C78.2891 17.104 78.2451 16.876 78.2451 16.608C78.2451 16.364 78.2931 16.132 78.3891 15.912C78.4891 15.692 78.6331 15.498 78.8211 15.33C79.0131 15.162 79.2471 15.03 79.5231 14.934C79.8031 14.834 80.1251 14.784 80.4891 14.784C80.9011 14.784 81.2751 14.85 81.6111 14.982C81.9471 15.114 82.2291 15.294 82.4571 15.522L82.1691 15.99ZM89.9334 21H88.6434V15.894H85.6614V19.368C85.6614 19.588 85.7154 19.756 85.8234 19.872C85.9314 19.988 86.0754 20.046 86.2554 20.046C86.3554 20.046 86.4414 20.034 86.5134 20.01C86.5854 19.982 86.6474 19.954 86.6994 19.926C86.7514 19.894 86.7954 19.866 86.8314 19.842C86.8714 19.814 86.9094 19.8 86.9454 19.8C87.0174 19.8 87.0754 19.84 87.1194 19.92L87.5034 20.55C87.3034 20.726 87.0674 20.862 86.7954 20.958C86.5234 21.05 86.2434 21.096 85.9554 21.096C85.4474 21.096 85.0554 20.954 84.7794 20.67C84.5074 20.382 84.3714 19.978 84.3714 19.458V15.894H83.6994C83.6274 15.894 83.5654 15.872 83.5134 15.828C83.4614 15.78 83.4354 15.71 83.4354 15.618V15.096L84.4254 14.952L84.7074 13.182C84.7274 13.114 84.7614 13.06 84.8094 13.02C84.8574 12.976 84.9214 12.954 85.0014 12.954H85.6614V14.964H89.9334V21ZM90.1974 13.002C90.1974 13.118 90.1734 13.228 90.1254 13.332C90.0814 13.432 90.0194 13.522 89.9394 13.602C89.8594 13.678 89.7654 13.74 89.6574 13.788C89.5534 13.832 89.4434 13.854 89.3274 13.854C89.2114 13.854 89.1014 13.832 88.9974 13.788C88.8974 13.74 88.8074 13.678 88.7274 13.602C88.6514 13.522 88.5894 13.432 88.5414 13.332C88.4974 13.228 88.4754 13.118 88.4754 13.002C88.4754 12.882 88.4974 12.77 88.5414 12.666C88.5894 12.558 88.6514 12.466 88.7274 12.39C88.8074 12.31 88.8974 12.248 88.9974 12.204C89.1014 12.156 89.2114 12.132 89.3274 12.132C89.4434 12.132 89.5534 12.156 89.6574 12.204C89.7654 12.248 89.8594 12.31 89.9394 12.39C90.0194 12.466 90.0814 12.558 90.1254 12.666C90.1734 12.77 90.1974 12.882 90.1974 13.002ZM91.8037 21V14.88H92.5837C92.7597 14.88 92.8717 14.962 92.9197 15.126L93.0037 15.66C93.1157 15.532 93.2317 15.416 93.3517 15.312C93.4717 15.204 93.5997 15.112 93.7357 15.036C93.8757 14.956 94.0237 14.894 94.1797 14.85C94.3397 14.806 94.5117 14.784 94.6957 14.784C94.8917 14.784 95.0717 14.812 95.2357 14.868C95.3997 14.924 95.5437 15.004 95.6677 15.108C95.7957 15.212 95.9057 15.338 95.9977 15.486C96.0897 15.634 96.1657 15.8 96.2257 15.984C96.3177 15.772 96.4337 15.59 96.5737 15.438C96.7137 15.286 96.8697 15.162 97.0417 15.066C97.2137 14.97 97.3957 14.9 97.5877 14.856C97.7837 14.808 97.9817 14.784 98.1817 14.784C98.5097 14.784 98.8017 14.836 99.0577 14.94C99.3177 15.044 99.5357 15.196 99.7117 15.396C99.8917 15.592 100.028 15.834 100.12 16.122C100.212 16.41 100.258 16.738 100.258 17.106V21H98.9677V17.106C98.9677 16.674 98.8737 16.35 98.6857 16.134C98.5017 15.914 98.2277 15.804 97.8637 15.804C97.6997 15.804 97.5457 15.832 97.4017 15.888C97.2577 15.944 97.1317 16.026 97.0237 16.134C96.9157 16.242 96.8297 16.378 96.7657 16.542C96.7057 16.702 96.6757 16.89 96.6757 17.106V21H95.3857V17.106C95.3857 16.658 95.2957 16.33 95.1157 16.122C94.9357 15.91 94.6717 15.804 94.3237 15.804C94.0837 15.804 93.8617 15.866 93.6577 15.99C93.4537 16.11 93.2657 16.276 93.0937 16.488V21H91.8037ZM104.651 14.784C105.103 14.784 105.511 14.858 105.875 15.006C106.243 15.154 106.555 15.364 106.811 15.636C107.071 15.908 107.271 16.238 107.411 16.626C107.551 17.014 107.621 17.45 107.621 17.934C107.621 18.418 107.551 18.854 107.411 19.242C107.271 19.63 107.071 19.962 106.811 20.238C106.555 20.51 106.243 20.72 105.875 20.868C105.511 21.016 105.103 21.09 104.651 21.09C104.195 21.09 103.783 21.016 103.415 20.868C103.051 20.72 102.739 20.51 102.479 20.238C102.219 19.962 102.019 19.63 101.879 19.242C101.739 18.854 101.669 18.418 101.669 17.934C101.669 17.45 101.739 17.014 101.879 16.626C102.019 16.238 102.219 15.908 102.479 15.636C102.739 15.364 103.051 15.154 103.415 15.006C103.783 14.858 104.195 14.784 104.651 14.784ZM104.651 20.082C105.203 20.082 105.613 19.898 105.881 19.53C106.153 19.158 106.289 18.628 106.289 17.94C106.289 17.252 106.153 16.722 105.881 16.35C105.613 15.974 105.203 15.786 104.651 15.786C104.091 15.786 103.675 15.974 103.403 16.35C103.131 16.722 102.995 17.252 102.995 17.94C102.995 18.628 103.131 19.158 103.403 19.53C103.675 19.898 104.091 20.082 104.651 20.082ZM110.306 15.69C110.438 15.554 110.574 15.432 110.714 15.324C110.858 15.212 111.01 15.116 111.17 15.036C111.33 14.956 111.5 14.894 111.68 14.85C111.86 14.806 112.056 14.784 112.268 14.784C112.604 14.784 112.898 14.84 113.15 14.952C113.406 15.064 113.62 15.222 113.792 15.426C113.968 15.63 114.1 15.876 114.188 16.164C114.276 16.448 114.32 16.762 114.32 17.106V21H113.036V17.106C113.036 16.694 112.94 16.374 112.748 16.146C112.56 15.918 112.272 15.804 111.884 15.804C111.596 15.804 111.328 15.87 111.08 16.002C110.836 16.134 110.606 16.314 110.39 16.542V21H109.1V14.88H109.88C110.056 14.88 110.168 14.962 110.216 15.126L110.306 15.69ZM117.411 14.88V21H116.121V14.88H117.411ZM117.627 13.032C117.627 13.148 117.603 13.258 117.555 13.362C117.511 13.466 117.449 13.558 117.369 13.638C117.289 13.714 117.195 13.776 117.087 13.824C116.983 13.868 116.871 13.89 116.751 13.89C116.635 13.89 116.525 13.868 116.421 13.824C116.321 13.776 116.233 13.714 116.157 13.638C116.081 13.558 116.019 13.466 115.971 13.362C115.927 13.258 115.905 13.148 115.905 13.032C115.905 12.912 115.927 12.8 115.971 12.696C116.019 12.592 116.081 12.502 116.157 12.426C116.233 12.346 116.321 12.284 116.421 12.24C116.525 12.192 116.635 12.168 116.751 12.168C116.871 12.168 116.983 12.192 117.087 12.24C117.195 12.284 117.289 12.346 117.369 12.426C117.449 12.502 117.511 12.592 117.555 12.696C117.603 12.8 117.627 12.912 117.627 13.032ZM122.542 18.324C122.082 18.34 121.694 18.378 121.378 18.438C121.062 18.494 120.806 18.568 120.61 18.66C120.414 18.748 120.272 18.854 120.184 18.978C120.1 19.102 120.058 19.238 120.058 19.386C120.058 19.53 120.08 19.654 120.124 19.758C120.172 19.858 120.236 19.942 120.316 20.01C120.4 20.074 120.496 20.122 120.604 20.154C120.716 20.182 120.838 20.196 120.97 20.196C121.306 20.196 121.594 20.134 121.834 20.01C122.078 19.882 122.314 19.698 122.542 19.458V18.324ZM119.122 15.732C119.814 15.088 120.638 14.766 121.594 14.766C121.946 14.766 122.258 14.824 122.53 14.94C122.806 15.052 123.036 15.212 123.22 15.42C123.408 15.628 123.55 15.876 123.646 16.164C123.746 16.448 123.796 16.764 123.796 17.112V21H123.22C123.096 21 123.002 20.982 122.938 20.946C122.874 20.906 122.82 20.828 122.776 20.712L122.65 20.214C122.494 20.354 122.34 20.48 122.188 20.592C122.036 20.7 121.878 20.792 121.714 20.868C121.554 20.944 121.38 21 121.192 21.036C121.008 21.076 120.804 21.096 120.58 21.096C120.332 21.096 120.1 21.062 119.884 20.994C119.672 20.926 119.488 20.824 119.332 20.688C119.176 20.548 119.052 20.376 118.96 20.172C118.872 19.968 118.828 19.728 118.828 19.452C118.828 19.216 118.89 18.986 119.014 18.762C119.142 18.538 119.35 18.338 119.638 18.162C119.93 17.982 120.312 17.834 120.784 17.718C121.26 17.602 121.846 17.536 122.542 17.52V17.112C122.542 16.672 122.448 16.344 122.26 16.128C122.072 15.912 121.796 15.804 121.432 15.804C121.184 15.804 120.976 15.836 120.808 15.9C120.64 15.96 120.494 16.026 120.37 16.098C120.246 16.17 120.136 16.238 120.04 16.302C119.944 16.362 119.842 16.392 119.734 16.392C119.646 16.392 119.57 16.37 119.506 16.326C119.446 16.278 119.396 16.22 119.356 16.152L119.122 15.732ZM126.861 12.12V21H125.571V12.12H126.861ZM132.347 15.99C132.315 16.046 132.279 16.086 132.239 16.11C132.199 16.134 132.149 16.146 132.089 16.146C132.021 16.146 131.947 16.126 131.867 16.086C131.787 16.042 131.693 15.994 131.585 15.942C131.477 15.89 131.349 15.844 131.201 15.804C131.057 15.76 130.887 15.738 130.691 15.738C130.531 15.738 130.385 15.758 130.253 15.798C130.125 15.834 130.015 15.888 129.923 15.96C129.835 16.028 129.767 16.11 129.719 16.206C129.671 16.298 129.647 16.398 129.647 16.506C129.647 16.65 129.691 16.77 129.779 16.866C129.867 16.962 129.983 17.046 130.127 17.118C130.271 17.186 130.435 17.248 130.619 17.304C130.803 17.36 130.991 17.42 131.183 17.484C131.375 17.548 131.563 17.622 131.747 17.706C131.931 17.79 132.095 17.894 132.239 18.018C132.383 18.138 132.499 18.286 132.587 18.462C132.675 18.634 132.719 18.844 132.719 19.092C132.719 19.38 132.667 19.646 132.563 19.89C132.459 20.134 132.307 20.346 132.107 20.526C131.907 20.706 131.657 20.846 131.357 20.946C131.061 21.046 130.721 21.096 130.337 21.096C130.125 21.096 129.919 21.076 129.719 21.036C129.523 21 129.335 20.95 129.155 20.886C128.979 20.818 128.813 20.738 128.657 20.646C128.505 20.554 128.369 20.454 128.249 20.346L128.549 19.854C128.585 19.794 128.629 19.748 128.681 19.716C128.737 19.68 128.805 19.662 128.885 19.662C128.969 19.662 129.051 19.69 129.131 19.746C129.215 19.798 129.311 19.856 129.419 19.92C129.531 19.984 129.665 20.044 129.821 20.1C129.977 20.152 130.171 20.178 130.403 20.178C130.595 20.178 130.761 20.156 130.901 20.112C131.041 20.064 131.157 20 131.249 19.92C131.341 19.84 131.409 19.75 131.453 19.65C131.497 19.546 131.519 19.436 131.519 19.32C131.519 19.164 131.475 19.036 131.387 18.936C131.299 18.836 131.181 18.75 131.033 18.678C130.889 18.606 130.723 18.542 130.535 18.486C130.351 18.43 130.163 18.37 129.971 18.306C129.779 18.242 129.589 18.168 129.401 18.084C129.217 18 129.051 17.894 128.903 17.766C128.759 17.634 128.643 17.476 128.555 17.292C128.467 17.104 128.423 16.876 128.423 16.608C128.423 16.364 128.471 16.132 128.567 15.912C128.667 15.692 128.811 15.498 128.999 15.33C129.191 15.162 129.425 15.03 129.701 14.934C129.981 14.834 130.303 14.784 130.667 14.784C131.079 14.784 131.453 14.85 131.789 14.982C132.125 15.114 132.407 15.294 132.635 15.522L132.347 15.99Z" fill="#BD7F0D"/>
</svg>
