<svg width="98" height="32" viewBox="0 0 98 32" fill="none" xmlns="http://www.w3.org/2000/svg">
<rect x="0.5" y="1" width="97" height="30" rx="15" fill="#E9EEFB"/>
<rect x="0.5" y="1" width="97" height="30" rx="15" stroke="#C7D4F4"/>
<path d="M18.0202 14.88L16.0582 21H15.0322C14.9122 21 14.8282 20.922 14.7802 20.766L13.5622 16.956C13.5302 16.848 13.5002 16.74 13.4722 16.632C13.4482 16.524 13.4262 16.418 13.4062 16.314C13.3622 16.53 13.3082 16.746 13.2442 16.962L12.0082 20.766C11.9642 20.922 11.8702 21 11.7262 21H10.7482L8.78617 14.88H9.80617C9.90617 14.88 9.98817 14.906 10.0522 14.958C10.1202 15.006 10.1642 15.064 10.1842 15.132L11.2042 18.696C11.2442 18.86 11.2782 19.02 11.3062 19.176C11.3382 19.328 11.3662 19.48 11.3902 19.632C11.4302 19.48 11.4722 19.328 11.5162 19.176C11.5602 19.02 11.6062 18.86 11.6542 18.696L12.8002 15.114C12.8202 15.042 12.8602 14.984 12.9202 14.94C12.9842 14.892 13.0602 14.868 13.1482 14.868H13.7122C13.8042 14.868 13.8822 14.892 13.9462 14.94C14.0102 14.984 14.0522 15.042 14.0722 15.114L15.1882 18.696C15.2362 18.86 15.2802 19.02 15.3202 19.176C15.3642 19.332 15.4042 19.488 15.4402 19.644C15.4682 19.492 15.4982 19.338 15.5302 19.182C15.5622 19.026 15.6002 18.864 15.6442 18.696L16.6822 15.132C16.7062 15.06 16.7502 15 16.8142 14.952C16.8782 14.904 16.9562 14.88 17.0482 14.88H18.0202ZM20.4912 15.606C20.7432 15.358 21.0192 15.16 21.3192 15.012C21.6192 14.86 21.9692 14.784 22.3692 14.784C22.7052 14.784 22.9992 14.84 23.2512 14.952C23.5072 15.064 23.7212 15.222 23.8932 15.426C24.0692 15.63 24.2012 15.876 24.2892 16.164C24.3772 16.448 24.4212 16.762 24.4212 17.106V21H23.1372V17.106C23.1372 16.694 23.0412 16.374 22.8492 16.146C22.6612 15.918 22.3732 15.804 21.9852 15.804C21.6972 15.804 21.4292 15.87 21.1812 16.002C20.9372 16.134 20.7072 16.314 20.4912 16.542V21H19.2012V12.12H20.4912V15.606ZM31.4455 14.88L28.0735 22.74C28.0295 22.832 27.9755 22.904 27.9115 22.956C27.8515 23.008 27.7575 23.034 27.6295 23.034H26.6755L27.8035 20.586L25.3075 14.88H26.4295C26.5375 14.88 26.6195 14.906 26.6755 14.958C26.7355 15.006 26.7795 15.064 26.8075 15.132L28.2655 18.606C28.3015 18.706 28.3335 18.806 28.3615 18.906C28.3935 19.002 28.4235 19.102 28.4515 19.206C28.4835 19.102 28.5155 19 28.5475 18.9C28.5795 18.8 28.6155 18.7 28.6555 18.6L30.0535 15.132C30.0815 15.06 30.1275 15 30.1915 14.952C30.2595 14.904 30.3335 14.88 30.4135 14.88H31.4455ZM39.7863 16.08C39.7463 16.132 39.7083 16.172 39.6723 16.2C39.6363 16.228 39.5843 16.242 39.5163 16.242C39.4483 16.242 39.3763 16.218 39.3003 16.17C39.2283 16.122 39.1403 16.07 39.0363 16.014C38.9363 15.954 38.8143 15.9 38.6703 15.852C38.5263 15.804 38.3463 15.78 38.1303 15.78C37.8503 15.78 37.6043 15.83 37.3923 15.93C37.1843 16.03 37.0083 16.174 36.8643 16.362C36.7243 16.546 36.6183 16.772 36.5463 17.04C36.4783 17.304 36.4443 17.602 36.4443 17.934C36.4443 18.278 36.4823 18.584 36.5583 18.852C36.6343 19.12 36.7423 19.346 36.8823 19.53C37.0263 19.714 37.1983 19.854 37.3983 19.95C37.6023 20.046 37.8303 20.094 38.0823 20.094C38.3303 20.094 38.5323 20.064 38.6883 20.004C38.8443 19.944 38.9743 19.878 39.0783 19.806C39.1823 19.734 39.2703 19.668 39.3423 19.608C39.4183 19.548 39.4983 19.518 39.5823 19.518C39.6863 19.518 39.7663 19.558 39.8223 19.638L40.1883 20.112C40.0403 20.292 39.8763 20.444 39.6963 20.568C39.5163 20.692 39.3263 20.794 39.1263 20.874C38.9263 20.95 38.7183 21.004 38.5023 21.036C38.2863 21.072 38.0683 21.09 37.8483 21.09C37.4683 21.09 37.1123 21.02 36.7803 20.88C36.4523 20.736 36.1643 20.53 35.9163 20.262C35.6723 19.99 35.4783 19.66 35.3343 19.272C35.1943 18.88 35.1243 18.434 35.1243 17.934C35.1243 17.482 35.1883 17.064 35.3163 16.68C35.4443 16.292 35.6303 15.958 35.8743 15.678C36.1223 15.398 36.4283 15.18 36.7923 15.024C37.1563 14.864 37.5763 14.784 38.0523 14.784C38.4963 14.784 38.8863 14.856 39.2223 15C39.5623 15.144 39.8643 15.348 40.1283 15.612L39.7863 16.08ZM42.7559 15.606C43.0079 15.358 43.2839 15.16 43.5839 15.012C43.8839 14.86 44.2339 14.784 44.6339 14.784C44.9699 14.784 45.2639 14.84 45.5159 14.952C45.7719 15.064 45.9859 15.222 46.1579 15.426C46.3339 15.63 46.4659 15.876 46.5539 16.164C46.6419 16.448 46.6859 16.762 46.6859 17.106V21H45.4019V17.106C45.4019 16.694 45.3059 16.374 45.1139 16.146C44.9259 15.918 44.6379 15.804 44.2499 15.804C43.9619 15.804 43.6939 15.87 43.4459 16.002C43.2019 16.134 42.9719 16.314 42.7559 16.542V21H41.4659V12.12H42.7559V15.606ZM51.0785 14.784C51.5305 14.784 51.9385 14.858 52.3025 15.006C52.6705 15.154 52.9825 15.364 53.2385 15.636C53.4985 15.908 53.6985 16.238 53.8385 16.626C53.9785 17.014 54.0485 17.45 54.0485 17.934C54.0485 18.418 53.9785 18.854 53.8385 19.242C53.6985 19.63 53.4985 19.962 53.2385 20.238C52.9825 20.51 52.6705 20.72 52.3025 20.868C51.9385 21.016 51.5305 21.09 51.0785 21.09C50.6225 21.09 50.2105 21.016 49.8425 20.868C49.4785 20.72 49.1665 20.51 48.9065 20.238C48.6465 19.962 48.4465 19.63 48.3065 19.242C48.1665 18.854 48.0965 18.418 48.0965 17.934C48.0965 17.45 48.1665 17.014 48.3065 16.626C48.4465 16.238 48.6465 15.908 48.9065 15.636C49.1665 15.364 49.4785 15.154 49.8425 15.006C50.2105 14.858 50.6225 14.784 51.0785 14.784ZM51.0785 20.082C51.6305 20.082 52.0405 19.898 52.3085 19.53C52.5805 19.158 52.7165 18.628 52.7165 17.94C52.7165 17.252 52.5805 16.722 52.3085 16.35C52.0405 15.974 51.6305 15.786 51.0785 15.786C50.5185 15.786 50.1025 15.974 49.8305 16.35C49.5585 16.722 49.4225 17.252 49.4225 17.94C49.4225 18.628 49.5585 19.158 49.8305 19.53C50.1025 19.898 50.5185 20.082 51.0785 20.082ZM58.174 14.784C58.626 14.784 59.034 14.858 59.398 15.006C59.766 15.154 60.078 15.364 60.334 15.636C60.594 15.908 60.794 16.238 60.934 16.626C61.074 17.014 61.144 17.45 61.144 17.934C61.144 18.418 61.074 18.854 60.934 19.242C60.794 19.63 60.594 19.962 60.334 20.238C60.078 20.51 59.766 20.72 59.398 20.868C59.034 21.016 58.626 21.09 58.174 21.09C57.718 21.09 57.306 21.016 56.938 20.868C56.574 20.72 56.262 20.51 56.002 20.238C55.742 19.962 55.542 19.63 55.402 19.242C55.262 18.854 55.192 18.418 55.192 17.934C55.192 17.45 55.262 17.014 55.402 16.626C55.542 16.238 55.742 15.908 56.002 15.636C56.262 15.364 56.574 15.154 56.938 15.006C57.306 14.858 57.718 14.784 58.174 14.784ZM58.174 20.082C58.726 20.082 59.136 19.898 59.404 19.53C59.676 19.158 59.812 18.628 59.812 17.94C59.812 17.252 59.676 16.722 59.404 16.35C59.136 15.974 58.726 15.786 58.174 15.786C57.614 15.786 57.198 15.974 56.926 16.35C56.654 16.722 56.518 17.252 56.518 17.94C56.518 18.628 56.654 19.158 56.926 19.53C57.198 19.898 57.614 20.082 58.174 20.082ZM66.2774 15.99C66.2454 16.046 66.2094 16.086 66.1694 16.11C66.1294 16.134 66.0794 16.146 66.0194 16.146C65.9514 16.146 65.8774 16.126 65.7974 16.086C65.7174 16.042 65.6234 15.994 65.5154 15.942C65.4074 15.89 65.2794 15.844 65.1314 15.804C64.9874 15.76 64.8174 15.738 64.6214 15.738C64.4614 15.738 64.3154 15.758 64.1834 15.798C64.0554 15.834 63.9454 15.888 63.8534 15.96C63.7654 16.028 63.6974 16.11 63.6494 16.206C63.6014 16.298 63.5774 16.398 63.5774 16.506C63.5774 16.65 63.6214 16.77 63.7094 16.866C63.7974 16.962 63.9134 17.046 64.0574 17.118C64.2014 17.186 64.3654 17.248 64.5494 17.304C64.7334 17.36 64.9214 17.42 65.1134 17.484C65.3054 17.548 65.4934 17.622 65.6774 17.706C65.8614 17.79 66.0254 17.894 66.1694 18.018C66.3134 18.138 66.4294 18.286 66.5174 18.462C66.6054 18.634 66.6494 18.844 66.6494 19.092C66.6494 19.38 66.5974 19.646 66.4934 19.89C66.3894 20.134 66.2374 20.346 66.0374 20.526C65.8374 20.706 65.5874 20.846 65.2874 20.946C64.9914 21.046 64.6514 21.096 64.2674 21.096C64.0554 21.096 63.8494 21.076 63.6494 21.036C63.4534 21 63.2654 20.95 63.0854 20.886C62.9094 20.818 62.7434 20.738 62.5874 20.646C62.4354 20.554 62.2994 20.454 62.1794 20.346L62.4794 19.854C62.5154 19.794 62.5594 19.748 62.6114 19.716C62.6674 19.68 62.7354 19.662 62.8154 19.662C62.8994 19.662 62.9814 19.69 63.0614 19.746C63.1454 19.798 63.2414 19.856 63.3494 19.92C63.4614 19.984 63.5954 20.044 63.7514 20.1C63.9074 20.152 64.1014 20.178 64.3334 20.178C64.5254 20.178 64.6914 20.156 64.8314 20.112C64.9714 20.064 65.0874 20 65.1794 19.92C65.2714 19.84 65.3394 19.75 65.3834 19.65C65.4274 19.546 65.4494 19.436 65.4494 19.32C65.4494 19.164 65.4054 19.036 65.3174 18.936C65.2294 18.836 65.1114 18.75 64.9634 18.678C64.8194 18.606 64.6534 18.542 64.4654 18.486C64.2814 18.43 64.0934 18.37 63.9014 18.306C63.7094 18.242 63.5194 18.168 63.3314 18.084C63.1474 18 62.9814 17.894 62.8334 17.766C62.6894 17.634 62.5734 17.476 62.4854 17.292C62.3974 17.104 62.3534 16.876 62.3534 16.608C62.3534 16.364 62.4014 16.132 62.4974 15.912C62.5974 15.692 62.7414 15.498 62.9294 15.33C63.1214 15.162 63.3554 15.03 63.6314 14.934C63.9114 14.834 64.2334 14.784 64.5974 14.784C65.0094 14.784 65.3834 14.85 65.7194 14.982C66.0554 15.114 66.3374 15.294 66.5654 15.522L66.2774 15.99ZM72.1157 17.25C72.1157 17.034 72.0837 16.834 72.0197 16.65C71.9597 16.462 71.8697 16.3 71.7497 16.164C71.6297 16.024 71.4797 15.916 71.2997 15.84C71.1237 15.76 70.9197 15.72 70.6877 15.72C70.2197 15.72 69.8517 15.854 69.5837 16.122C69.3157 16.39 69.1457 16.766 69.0737 17.25H72.1157ZM69.0377 18.042C69.0537 18.39 69.1077 18.692 69.1997 18.948C69.2917 19.2 69.4137 19.41 69.5657 19.578C69.7217 19.746 69.9057 19.872 70.1177 19.956C70.3337 20.036 70.5737 20.076 70.8377 20.076C71.0897 20.076 71.3077 20.048 71.4917 19.992C71.6757 19.932 71.8357 19.868 71.9717 19.8C72.1077 19.728 72.2237 19.664 72.3197 19.608C72.4157 19.548 72.5037 19.518 72.5837 19.518C72.6877 19.518 72.7677 19.558 72.8237 19.638L73.1897 20.112C73.0377 20.292 72.8657 20.444 72.6737 20.568C72.4817 20.692 72.2777 20.794 72.0617 20.874C71.8457 20.95 71.6237 21.004 71.3957 21.036C71.1677 21.072 70.9457 21.09 70.7297 21.09C70.3057 21.09 69.9117 21.02 69.5477 20.88C69.1877 20.736 68.8737 20.526 68.6057 20.25C68.3417 19.974 68.1337 19.632 67.9817 19.224C67.8337 18.816 67.7597 18.346 67.7597 17.814C67.7597 17.39 67.8257 16.994 67.9577 16.626C68.0937 16.258 68.2857 15.938 68.5337 15.666C68.7857 15.394 69.0897 15.18 69.4457 15.024C69.8057 14.864 70.2117 14.784 70.6637 14.784C71.0397 14.784 71.3877 14.846 71.7077 14.97C72.0277 15.09 72.3037 15.268 72.5357 15.504C72.7677 15.74 72.9477 16.03 73.0757 16.374C73.2077 16.714 73.2737 17.102 73.2737 17.538C73.2737 17.738 73.2517 17.872 73.2077 17.94C73.1637 18.008 73.0837 18.042 72.9677 18.042H69.0377ZM83.105 14.88V21H82.325C82.153 21 82.043 20.918 81.995 20.754L81.899 20.184C81.771 20.32 81.635 20.444 81.491 20.556C81.351 20.668 81.201 20.764 81.041 20.844C80.881 20.924 80.709 20.986 80.525 21.03C80.345 21.074 80.151 21.096 79.943 21.096C79.607 21.096 79.311 21.04 79.055 20.928C78.799 20.816 78.583 20.658 78.407 20.454C78.235 20.25 78.105 20.006 78.017 19.722C77.929 19.434 77.885 19.118 77.885 18.774V14.88H79.175V18.774C79.175 19.186 79.269 19.506 79.457 19.734C79.649 19.962 79.939 20.076 80.327 20.076C80.611 20.076 80.875 20.012 81.119 19.884C81.367 19.752 81.599 19.572 81.815 19.344V14.88H83.105ZM88.5655 15.99C88.5335 16.046 88.4975 16.086 88.4575 16.11C88.4175 16.134 88.3675 16.146 88.3075 16.146C88.2395 16.146 88.1655 16.126 88.0855 16.086C88.0055 16.042 87.9115 15.994 87.8035 15.942C87.6955 15.89 87.5675 15.844 87.4195 15.804C87.2755 15.76 87.1055 15.738 86.9095 15.738C86.7495 15.738 86.6035 15.758 86.4715 15.798C86.3435 15.834 86.2335 15.888 86.1415 15.96C86.0535 16.028 85.9855 16.11 85.9375 16.206C85.8895 16.298 85.8655 16.398 85.8655 16.506C85.8655 16.65 85.9095 16.77 85.9975 16.866C86.0855 16.962 86.2015 17.046 86.3455 17.118C86.4895 17.186 86.6535 17.248 86.8375 17.304C87.0215 17.36 87.2095 17.42 87.4015 17.484C87.5935 17.548 87.7815 17.622 87.9655 17.706C88.1495 17.79 88.3135 17.894 88.4575 18.018C88.6015 18.138 88.7175 18.286 88.8055 18.462C88.8935 18.634 88.9375 18.844 88.9375 19.092C88.9375 19.38 88.8855 19.646 88.7815 19.89C88.6775 20.134 88.5255 20.346 88.3255 20.526C88.1255 20.706 87.8755 20.846 87.5755 20.946C87.2795 21.046 86.9395 21.096 86.5555 21.096C86.3435 21.096 86.1375 21.076 85.9375 21.036C85.7415 21 85.5535 20.95 85.3735 20.886C85.1975 20.818 85.0315 20.738 84.8755 20.646C84.7235 20.554 84.5875 20.454 84.4675 20.346L84.7675 19.854C84.8035 19.794 84.8475 19.748 84.8995 19.716C84.9555 19.68 85.0235 19.662 85.1035 19.662C85.1875 19.662 85.2695 19.69 85.3495 19.746C85.4335 19.798 85.5295 19.856 85.6375 19.92C85.7495 19.984 85.8835 20.044 86.0395 20.1C86.1955 20.152 86.3895 20.178 86.6215 20.178C86.8135 20.178 86.9795 20.156 87.1195 20.112C87.2595 20.064 87.3755 20 87.4675 19.92C87.5595 19.84 87.6275 19.75 87.6715 19.65C87.7155 19.546 87.7375 19.436 87.7375 19.32C87.7375 19.164 87.6935 19.036 87.6055 18.936C87.5175 18.836 87.3995 18.75 87.2515 18.678C87.1075 18.606 86.9415 18.542 86.7535 18.486C86.5695 18.43 86.3815 18.37 86.1895 18.306C85.9975 18.242 85.8075 18.168 85.6195 18.084C85.4355 18 85.2695 17.894 85.1215 17.766C84.9775 17.634 84.8615 17.476 84.7735 17.292C84.6855 17.104 84.6415 16.876 84.6415 16.608C84.6415 16.364 84.6895 16.132 84.7855 15.912C84.8855 15.692 85.0295 15.498 85.2175 15.33C85.4095 15.162 85.6435 15.03 85.9195 14.934C86.1995 14.834 86.5215 14.784 86.8855 14.784C87.2975 14.784 87.6715 14.85 88.0075 14.982C88.3435 15.114 88.6255 15.294 88.8535 15.522L88.5655 15.99Z" fill="#2054D2"/>
</svg>
