<svg width="19" height="18" viewBox="0 0 19 18" fill="none" xmlns="http://www.w3.org/2000/svg">
<path d="M14 1.5H5C4.17157 1.5 3.5 2.17157 3.5 3V15C3.5 15.8284 4.17157 16.5 5 16.5H14C14.8284 16.5 15.5 15.8284 15.5 15V3C15.5 2.17157 14.8284 1.5 14 1.5Z" stroke="#121212" stroke-width="1.4" stroke-linecap="round" stroke-linejoin="round"/>
<path d="M7.25 16.5V13.5H11.75V16.5" stroke="#121212" stroke-width="1.4" stroke-linecap="round" stroke-linejoin="round"/>
<path d="M6.5 4.5H6.5075" stroke="#1B1B1B" stroke-width="1.4" stroke-linecap="round" stroke-linejoin="round"/>
<path d="M12.5 4.5H12.5075" stroke="#1B1B1B" stroke-width="1.4" stroke-linecap="round" stroke-linejoin="round"/>
<path d="M9.5 4.5H9.5075" stroke="#1B1B1B" stroke-width="1.4" stroke-linecap="round" stroke-linejoin="round"/>
<path d="M9.5 7.5H9.5075" stroke="#1B1B1B" stroke-width="1.4" stroke-linecap="round" stroke-linejoin="round"/>
<path d="M9.5 10.5H9.5075" stroke="#1B1B1B" stroke-width="1.4" stroke-linecap="round" stroke-linejoin="round"/>
<path d="M12.5 7.5H12.5075" stroke="#1B1B1B" stroke-width="1.4" stroke-linecap="round" stroke-linejoin="round"/>
<path d="M12.5 10.5H12.5075" stroke="#1B1B1B" stroke-width="1.4" stroke-linecap="round" stroke-linejoin="round"/>
<path d="M6.5 7.5H6.5075" stroke="#1B1B1B" stroke-width="1.4" stroke-linecap="round" stroke-linejoin="round"/>
<path d="M6.5 10.5H6.5075" stroke="#1B1B1B" stroke-width="1.4" stroke-linecap="round" stroke-linejoin="round"/>
</svg>
