<svg width="92" height="32" viewBox="0 0 92 32" fill="none" xmlns="http://www.w3.org/2000/svg">
<rect x="1" y="1" width="90" height="30" rx="15" fill="#E9EEFB"/>
<rect x="1" y="1" width="90" height="30" rx="15" stroke="#C7D4F4"/>
<path d="M21.384 12.36L18.696 21H17.43L15.402 14.796C15.378 14.728 15.354 14.654 15.33 14.574C15.31 14.494 15.29 14.408 15.27 14.316C15.25 14.408 15.228 14.494 15.204 14.574C15.184 14.654 15.162 14.728 15.138 14.796L13.092 21H11.826L9.138 12.36H10.314C10.434 12.36 10.534 12.39 10.614 12.45C10.698 12.506 10.754 12.584 10.782 12.684L12.402 18.222C12.434 18.342 12.464 18.472 12.492 18.612C12.52 18.752 12.548 18.898 12.576 19.05C12.604 18.898 12.634 18.752 12.666 18.612C12.702 18.468 12.74 18.338 12.78 18.222L14.634 12.684C14.662 12.604 14.718 12.53 14.802 12.462C14.886 12.394 14.986 12.36 15.102 12.36H15.51C15.634 12.36 15.734 12.392 15.81 12.456C15.886 12.516 15.944 12.592 15.984 12.684L17.832 18.222C17.872 18.338 17.908 18.464 17.94 18.6C17.976 18.732 18.008 18.872 18.036 19.02C18.064 18.872 18.09 18.732 18.114 18.6C18.142 18.464 18.172 18.338 18.204 18.222L19.818 12.684C19.842 12.596 19.896 12.52 19.98 12.456C20.068 12.392 20.17 12.36 20.286 12.36H21.384ZM24.4962 14.784C24.9482 14.784 25.3562 14.858 25.7202 15.006C26.0882 15.154 26.4002 15.364 26.6562 15.636C26.9162 15.908 27.1162 16.238 27.2562 16.626C27.3962 17.014 27.4662 17.45 27.4662 17.934C27.4662 18.418 27.3962 18.854 27.2562 19.242C27.1162 19.63 26.9162 19.962 26.6562 20.238C26.4002 20.51 26.0882 20.72 25.7202 20.868C25.3562 21.016 24.9482 21.09 24.4962 21.09C24.0402 21.09 23.6282 21.016 23.2602 20.868C22.8962 20.72 22.5842 20.51 22.3242 20.238C22.0642 19.962 21.8642 19.63 21.7242 19.242C21.5842 18.854 21.5142 18.418 21.5142 17.934C21.5142 17.45 21.5842 17.014 21.7242 16.626C21.8642 16.238 22.0642 15.908 22.3242 15.636C22.5842 15.364 22.8962 15.154 23.2602 15.006C23.6282 14.858 24.0402 14.784 24.4962 14.784ZM24.4962 20.082C25.0482 20.082 25.4582 19.898 25.7262 19.53C25.9982 19.158 26.1342 18.628 26.1342 17.94C26.1342 17.252 25.9982 16.722 25.7262 16.35C25.4582 15.974 25.0482 15.786 24.4962 15.786C23.9362 15.786 23.5202 15.974 23.2482 16.35C22.9762 16.722 22.8402 17.252 22.8402 17.94C22.8402 18.628 22.9762 19.158 23.2482 19.53C23.5202 19.898 23.9362 20.082 24.4962 20.082ZM30.1637 16.014C30.3557 15.626 30.5877 15.322 30.8597 15.102C31.1317 14.878 31.4577 14.766 31.8377 14.766C31.9697 14.766 32.0937 14.782 32.2097 14.814C32.3257 14.842 32.4297 14.886 32.5217 14.946L32.4317 15.918C32.4157 15.986 32.3897 16.034 32.3537 16.062C32.3217 16.086 32.2777 16.098 32.2217 16.098C32.1617 16.098 32.0757 16.088 31.9637 16.068C31.8517 16.044 31.7337 16.032 31.6097 16.032C31.4297 16.032 31.2697 16.058 31.1297 16.11C30.9937 16.162 30.8697 16.238 30.7577 16.338C30.6497 16.438 30.5537 16.56 30.4697 16.704C30.3857 16.848 30.3077 17.012 30.2357 17.196V21H28.9457V14.88H29.6957C29.8317 14.88 29.9257 14.906 29.9777 14.958C30.0297 15.006 30.0657 15.092 30.0857 15.216L30.1637 16.014ZM34.9054 12.12V17.268H35.1814C35.2694 17.268 35.3414 17.256 35.3974 17.232C35.4534 17.208 35.5114 17.158 35.5714 17.082L37.2874 15.12C37.3474 15.04 37.4134 14.98 37.4854 14.94C37.5574 14.9 37.6494 14.88 37.7614 14.88H38.9314L36.8674 17.208C36.7474 17.364 36.6154 17.488 36.4714 17.58C36.5514 17.636 36.6214 17.7 36.6814 17.772C36.7414 17.84 36.7994 17.918 36.8554 18.006L39.0574 21H37.9054C37.8014 21 37.7114 20.984 37.6354 20.952C37.5634 20.916 37.4994 20.852 37.4434 20.76L35.6734 18.36C35.6134 18.268 35.5534 18.21 35.4934 18.186C35.4334 18.158 35.3434 18.144 35.2234 18.144H34.9054V21H33.6154V12.12H34.9054ZM51.7051 14.88L49.7431 21H48.7171C48.5971 21 48.5131 20.922 48.4651 20.766L47.2471 16.956C47.2151 16.848 47.1851 16.74 47.1571 16.632C47.1331 16.524 47.1111 16.418 47.0911 16.314C47.0471 16.53 46.9931 16.746 46.9291 16.962L45.6931 20.766C45.6491 20.922 45.5551 21 45.4111 21H44.4331L42.4711 14.88H43.4911C43.5911 14.88 43.6731 14.906 43.7371 14.958C43.8051 15.006 43.8491 15.064 43.8691 15.132L44.8891 18.696C44.9291 18.86 44.9631 19.02 44.9911 19.176C45.0231 19.328 45.0511 19.48 45.0751 19.632C45.1151 19.48 45.1571 19.328 45.2011 19.176C45.2451 19.02 45.2911 18.86 45.3391 18.696L46.4851 15.114C46.5051 15.042 46.5451 14.984 46.6051 14.94C46.6691 14.892 46.7451 14.868 46.8331 14.868H47.3971C47.4891 14.868 47.5671 14.892 47.6311 14.94C47.6951 14.984 47.7371 15.042 47.7571 15.114L48.8731 18.696C48.9211 18.86 48.9651 19.02 49.0051 19.176C49.0491 19.332 49.0891 19.488 49.1251 19.644C49.1531 19.492 49.1831 19.338 49.2151 19.182C49.2471 19.026 49.2851 18.864 49.3291 18.696L50.3671 15.132C50.3911 15.06 50.4351 15 50.4991 14.952C50.5631 14.904 50.6411 14.88 50.7331 14.88H51.7051ZM54.2302 14.88V21H52.9402V14.88H54.2302ZM54.4462 13.032C54.4462 13.148 54.4222 13.258 54.3742 13.362C54.3302 13.466 54.2682 13.558 54.1882 13.638C54.1082 13.714 54.0142 13.776 53.9062 13.824C53.8022 13.868 53.6902 13.89 53.5702 13.89C53.4542 13.89 53.3442 13.868 53.2402 13.824C53.1402 13.776 53.0522 13.714 52.9762 13.638C52.9002 13.558 52.8382 13.466 52.7902 13.362C52.7462 13.258 52.7242 13.148 52.7242 13.032C52.7242 12.912 52.7462 12.8 52.7902 12.696C52.8382 12.592 52.9002 12.502 52.9762 12.426C53.0522 12.346 53.1402 12.284 53.2402 12.24C53.3442 12.192 53.4542 12.168 53.5702 12.168C53.6902 12.168 53.8022 12.192 53.9062 12.24C54.0142 12.284 54.1082 12.346 54.1882 12.426C54.2682 12.502 54.3302 12.592 54.3742 12.696C54.4222 12.8 54.4462 12.912 54.4462 13.032ZM58.053 21.096C57.545 21.096 57.153 20.954 56.877 20.67C56.605 20.382 56.469 19.978 56.469 19.458V15.894H55.797C55.725 15.894 55.663 15.872 55.611 15.828C55.559 15.78 55.533 15.71 55.533 15.618V15.096L56.523 14.952L56.805 13.182C56.825 13.114 56.859 13.06 56.907 13.02C56.955 12.976 57.019 12.954 57.099 12.954H57.759V14.964H59.457V15.894H57.759V19.368C57.759 19.588 57.813 19.756 57.921 19.872C58.029 19.988 58.173 20.046 58.353 20.046C58.453 20.046 58.539 20.034 58.611 20.01C58.683 19.982 58.745 19.954 58.797 19.926C58.849 19.894 58.893 19.866 58.929 19.842C58.969 19.814 59.007 19.8 59.043 19.8C59.115 19.8 59.173 19.84 59.217 19.92L59.601 20.55C59.401 20.726 59.165 20.862 58.893 20.958C58.621 21.05 58.341 21.096 58.053 21.096ZM62.0038 15.606C62.2558 15.358 62.5318 15.16 62.8318 15.012C63.1318 14.86 63.4818 14.784 63.8818 14.784C64.2178 14.784 64.5118 14.84 64.7638 14.952C65.0198 15.064 65.2338 15.222 65.4058 15.426C65.5818 15.63 65.7138 15.876 65.8018 16.164C65.8898 16.448 65.9338 16.762 65.9338 17.106V21H64.6498V17.106C64.6498 16.694 64.5538 16.374 64.3618 16.146C64.1738 15.918 63.8858 15.804 63.4978 15.804C63.2098 15.804 62.9418 15.87 62.6938 16.002C62.4498 16.134 62.2198 16.314 62.0038 16.542V21H60.7138V12.12H62.0038V15.606ZM76.0687 14.88V21H75.2887C75.1167 21 75.0067 20.918 74.9587 20.754L74.8627 20.184C74.7347 20.32 74.5987 20.444 74.4547 20.556C74.3147 20.668 74.1647 20.764 74.0047 20.844C73.8447 20.924 73.6727 20.986 73.4887 21.03C73.3087 21.074 73.1147 21.096 72.9067 21.096C72.5707 21.096 72.2747 21.04 72.0187 20.928C71.7627 20.816 71.5467 20.658 71.3707 20.454C71.1987 20.25 71.0687 20.006 70.9807 19.722C70.8927 19.434 70.8487 19.118 70.8487 18.774V14.88H72.1387V18.774C72.1387 19.186 72.2327 19.506 72.4207 19.734C72.6127 19.962 72.9027 20.076 73.2907 20.076C73.5747 20.076 73.8387 20.012 74.0827 19.884C74.3307 19.752 74.5627 19.572 74.7787 19.344V14.88H76.0687ZM81.5292 15.99C81.4972 16.046 81.4612 16.086 81.4212 16.11C81.3812 16.134 81.3312 16.146 81.2712 16.146C81.2032 16.146 81.1292 16.126 81.0492 16.086C80.9692 16.042 80.8752 15.994 80.7672 15.942C80.6592 15.89 80.5312 15.844 80.3832 15.804C80.2392 15.76 80.0692 15.738 79.8732 15.738C79.7132 15.738 79.5672 15.758 79.4352 15.798C79.3072 15.834 79.1972 15.888 79.1052 15.96C79.0172 16.028 78.9492 16.11 78.9012 16.206C78.8532 16.298 78.8292 16.398 78.8292 16.506C78.8292 16.65 78.8732 16.77 78.9612 16.866C79.0492 16.962 79.1652 17.046 79.3092 17.118C79.4532 17.186 79.6172 17.248 79.8012 17.304C79.9852 17.36 80.1732 17.42 80.3652 17.484C80.5572 17.548 80.7452 17.622 80.9292 17.706C81.1132 17.79 81.2772 17.894 81.4212 18.018C81.5652 18.138 81.6812 18.286 81.7692 18.462C81.8572 18.634 81.9012 18.844 81.9012 19.092C81.9012 19.38 81.8492 19.646 81.7452 19.89C81.6412 20.134 81.4892 20.346 81.2892 20.526C81.0892 20.706 80.8392 20.846 80.5392 20.946C80.2432 21.046 79.9032 21.096 79.5192 21.096C79.3072 21.096 79.1012 21.076 78.9012 21.036C78.7052 21 78.5172 20.95 78.3372 20.886C78.1612 20.818 77.9952 20.738 77.8392 20.646C77.6872 20.554 77.5512 20.454 77.4312 20.346L77.7312 19.854C77.7672 19.794 77.8112 19.748 77.8632 19.716C77.9192 19.68 77.9872 19.662 78.0672 19.662C78.1512 19.662 78.2332 19.69 78.3132 19.746C78.3972 19.798 78.4932 19.856 78.6012 19.92C78.7132 19.984 78.8472 20.044 79.0032 20.1C79.1592 20.152 79.3532 20.178 79.5852 20.178C79.7772 20.178 79.9432 20.156 80.0832 20.112C80.2232 20.064 80.3392 20 80.4312 19.92C80.5232 19.84 80.5912 19.75 80.6352 19.65C80.6792 19.546 80.7012 19.436 80.7012 19.32C80.7012 19.164 80.6572 19.036 80.5692 18.936C80.4812 18.836 80.3632 18.75 80.2152 18.678C80.0712 18.606 79.9052 18.542 79.7172 18.486C79.5332 18.43 79.3452 18.37 79.1532 18.306C78.9612 18.242 78.7712 18.168 78.5832 18.084C78.3992 18 78.2332 17.894 78.0852 17.766C77.9412 17.634 77.8252 17.476 77.7372 17.292C77.6492 17.104 77.6052 16.876 77.6052 16.608C77.6052 16.364 77.6532 16.132 77.7492 15.912C77.8492 15.692 77.9932 15.498 78.1812 15.33C78.3732 15.162 78.6072 15.03 78.8832 14.934C79.1632 14.834 79.4852 14.784 79.8492 14.784C80.2612 14.784 80.6352 14.85 80.9712 14.982C81.3072 15.114 81.5892 15.294 81.8172 15.522L81.5292 15.99Z" fill="#2054D2"/>
</svg>
