<svg width="198" height="161" viewBox="0 0 198 161" fill="none" xmlns="http://www.w3.org/2000/svg">
<path d="M164.257 125.608L169.546 125.498L172.152 125.453C173.018 125.435 173.88 125.439 174.744 125.432L174.567 125.608L174.546 121.177L174.744 121.375L169.501 121.35C167.753 121.348 166.005 121.305 164.257 121.285L164.366 121.177C164.358 121.902 164.332 122.631 164.314 123.369L164.257 125.608ZM164.257 125.608L164.201 123.416C164.183 122.677 164.157 121.929 164.149 121.177L164.148 121.07L164.257 121.069C166.005 121.049 167.753 121.006 169.501 121.004L174.744 120.979L174.942 120.978L174.942 121.177L174.92 125.608L174.919 125.786L174.744 125.785C173.86 125.778 172.974 125.781 172.092 125.763L169.455 125.718L164.257 125.608Z" fill="#EBEBEB"/>
<path d="M170.107 131.196L175.396 131.085L178.002 131.041C178.868 131.022 179.73 131.026 180.594 131.019L180.417 131.196L180.396 126.764L180.593 126.962L175.35 126.937C173.603 126.935 171.855 126.893 170.107 126.872L170.215 126.764C170.208 127.489 170.181 128.219 170.164 128.956L170.107 131.196ZM170.107 131.196L170.051 129.003C170.033 128.264 170.007 127.516 169.999 126.764L169.998 126.658L170.107 126.656C171.855 126.636 173.603 126.593 175.35 126.591L180.593 126.566L180.792 126.566L180.791 126.764L180.77 131.196L180.769 131.374L180.593 131.372C179.71 131.365 178.824 131.369 177.942 131.35L175.304 131.306L170.107 131.196Z" fill="#EBEBEB"/>
<path d="M158.408 131.196L163.697 131.085L166.303 131.041C167.169 131.022 168.031 131.026 168.895 131.019L168.718 131.196L168.697 126.764L168.894 126.962L163.651 126.937C161.904 126.935 160.156 126.893 158.408 126.872L158.516 126.764C158.509 127.489 158.482 128.219 158.465 128.956L158.408 131.196ZM158.408 131.196L158.352 129.003C158.334 128.264 158.308 127.516 158.3 126.764L158.299 126.658L158.408 126.656C160.156 126.636 161.904 126.593 163.651 126.591L168.894 126.566L169.093 126.566L169.092 126.764L169.071 131.196L169.07 131.374L168.894 131.372C168.011 131.365 167.125 131.369 166.243 131.35L163.605 131.306L158.408 131.196Z" fill="#EBEBEB"/>
<path d="M83.0811 26.3366L88.3701 26.2261L90.9754 26.1817C91.8418 26.1631 92.7035 26.1671 93.5676 26.16L93.391 26.3366L93.3696 21.9053L93.5672 22.1029L88.3241 22.078C86.5766 22.076 84.8286 22.0332 83.0811 22.013L83.1892 21.9049C83.1817 22.63 83.1551 23.3594 83.1373 24.0972L83.0811 26.3366ZM83.0811 26.3366L83.0249 24.1443C83.007 23.405 82.9805 22.6573 82.973 21.9053L82.9718 21.7984L83.0811 21.7972C84.8286 21.777 86.5766 21.7343 88.3241 21.7323L93.5672 21.7073L93.766 21.7065L93.7652 21.9053L93.7438 26.3366L93.743 26.5144L93.5672 26.5128C92.6833 26.5057 91.7975 26.5096 90.916 26.491L88.2782 26.4467L83.0811 26.3366Z" fill="#EBEBEB"/>
<path d="M23.2558 131.196L28.5448 131.085L31.15 131.041C32.0165 131.022 32.8782 131.026 33.7423 131.019L33.5656 131.196L33.5443 126.764L33.7419 126.962L28.4988 126.937C26.7513 126.935 25.0033 126.893 23.2558 126.872L23.3639 126.765C23.3564 127.49 23.3298 128.219 23.312 128.957L23.2558 131.196ZM23.2558 131.196L23.1995 129.003C23.1817 128.264 23.1552 127.516 23.1477 126.764L23.1465 126.658L23.2558 126.656C25.0033 126.636 26.7513 126.593 28.4988 126.591L33.7419 126.566L33.9407 126.566L33.9399 126.764L33.9185 131.196L33.9177 131.374L33.7419 131.372C32.858 131.365 31.9721 131.369 31.0906 131.35L28.4529 131.306L23.2558 131.196Z" fill="#EBEBEB"/>
<path d="M23.2558 4.90786L28.5448 4.79738L31.15 4.75303C32.0165 4.73442 32.8782 4.73838 33.7423 4.73125L33.5656 4.90786L33.5443 0.476625L33.7419 0.674229L28.4988 0.649281C26.7513 0.647301 25.0033 0.604929 23.2558 0.584337L23.3639 0.476625C23.3564 1.2017 23.3298 1.93113 23.312 2.66888L23.2558 4.90786ZM23.2558 4.90786L23.1995 2.71561C23.1817 1.97628 23.1552 1.22863 23.1477 0.476625L23.1465 0.369705L23.2558 0.368516C25.0033 0.34832 26.7513 0.305553 28.4988 0.303573L33.7419 0.278625L33.9407 0.277832L33.9399 0.476625L33.9185 4.90786L33.9177 5.08567L33.7419 5.08448C32.858 5.07735 31.9721 5.08131 31.0906 5.0627L28.4529 5.01835L23.2558 4.90786Z" fill="#EBEBEB"/>
<path d="M17.4062 10.495L22.6951 10.3845L25.3004 10.3402C26.1669 10.3216 27.0286 10.3255 27.8926 10.3184L27.716 10.495L27.6946 6.06378L27.8922 6.26139L22.6492 6.23644C20.9017 6.23446 19.1537 6.19209 17.4062 6.1715L17.5143 6.06339C17.5068 6.78846 17.4802 7.5179 17.4624 8.25564L17.4062 10.495ZM17.4062 10.495L17.3499 8.30277C17.3321 7.56343 17.3056 6.81579 17.2981 6.06378L17.2969 5.95686L17.4062 5.95567C19.1537 5.93548 20.9017 5.89271 22.6492 5.89073L27.8922 5.86578L28.091 5.86499L28.0902 6.06378L28.0689 10.495L28.0681 10.6728L27.8922 10.6712C27.0084 10.6641 26.1225 10.6681 25.241 10.6495L22.6033 10.6051L17.4062 10.495Z" fill="#EBEBEB"/>
<path d="M170.107 4.9125L175.396 4.80202L178.002 4.75767C178.868 4.73906 179.73 4.74302 180.594 4.73589L180.417 4.9125L180.396 0.481262L180.593 0.678866L175.35 0.653919C173.603 0.651939 171.855 0.609568 170.107 0.588976L170.215 0.480866C170.208 1.20594 170.181 1.93538 170.164 2.67312L170.107 4.9125ZM170.107 4.9125L170.051 2.72025C170.033 1.98092 170.007 1.23327 169.999 0.481262L169.998 0.374344L170.107 0.373155C171.855 0.352959 173.603 0.310192 175.35 0.308212L180.593 0.283262L180.792 0.282471L180.791 0.481262L180.77 4.9125L180.769 5.09031L180.593 5.08912C179.71 5.08199 178.824 5.08595 177.942 5.06734L175.304 5.02299L170.107 4.9125Z" fill="#EBEBEB"/>
<path d="M76.7392 96.5646L71.4502 96.6751L68.8449 96.7195C67.9785 96.7381 67.1168 96.7341 66.2527 96.7412L66.4293 96.565L66.4507 100.996L66.2531 100.798L71.4962 100.823C73.2437 100.825 74.9916 100.868 76.7392 100.888L76.6311 100.996C76.6386 100.271 76.6651 99.5417 76.683 98.804L76.7392 96.5646ZM76.7392 96.5646L76.7954 98.7569C76.8132 99.4962 76.8398 100.244 76.8473 100.996L76.8485 101.103L76.7392 101.104C74.9916 101.124 73.2437 101.167 71.4962 101.169L66.2531 101.194L66.0543 101.195L66.0551 100.996L66.0765 96.565L66.0773 96.3872L66.2531 96.3884C67.137 96.3955 68.0228 96.3916 68.9043 96.4102L71.5421 96.4545L76.7392 96.5646Z" fill="#EBEBEB"/>
<path d="M70.8895 90.9771L65.6005 91.0876L62.9952 91.132C62.1288 91.1506 61.2671 91.1466 60.403 91.1537L60.5796 90.9771L60.601 95.4084L60.4034 95.2108L65.6464 95.2357C67.394 95.2377 69.1419 95.2801 70.8895 95.3007L70.7814 95.4088C70.7889 94.6837 70.8154 93.9543 70.8332 93.2165L70.8895 90.9771ZM70.8895 90.9771L70.9457 93.1694C70.9635 93.9087 70.99 94.6564 70.9976 95.4084L70.9988 95.5153L70.8895 95.5165C69.1419 95.5367 67.394 95.5794 65.6464 95.5814L60.4034 95.6064L60.2046 95.6071L60.2054 95.4084L60.2268 90.9771L60.2276 90.7993L60.4034 90.8005C61.2873 90.8076 62.1731 90.8037 63.0546 90.8223L65.6924 90.8666L70.8895 90.9771Z" fill="#EBEBEB"/>
<path d="M55.9567 22.8016C58.5926 16.02 55.2319 8.3855 48.4503 5.74953C41.6687 3.11356 34.0342 6.47429 31.3982 13.2559C28.7622 20.0376 32.123 27.672 38.9046 30.308C45.6862 32.944 53.3207 29.5832 55.9567 22.8016Z" fill="#EBEBEB"/>
<path d="M44.2791 30.8936C51.2214 30.8936 56.8493 25.2657 56.8493 18.3234C56.8493 11.3811 51.2214 5.75317 44.2791 5.75317C37.3367 5.75317 31.7089 11.3811 31.7089 18.3234C31.7089 25.2657 37.3367 30.8936 44.2791 30.8936Z" fill="#DBDBDB"/>
<path d="M55.9674 19.7303C56.7446 13.2731 52.1402 7.40844 45.6832 6.63123C39.2262 5.85402 33.3617 10.4586 32.5844 16.9158C31.8072 23.373 36.4116 29.2377 42.8686 30.0149C49.3256 30.7921 55.1901 26.1876 55.9674 19.7303Z" fill="white"/>
<path opacity="0.5" d="M55.7888 15.8243C50.4262 19.0735 41.6124 24.4037 36.6862 27.3257C35.3041 26.1591 34.1953 24.6813 33.4683 22.999L49.7609 7.89917C52.7946 9.49624 55.0447 12.3803 55.7888 15.8243Z" fill="#EBEBEB"/>
<path opacity="0.5" d="M56.047 18.7344C56.0022 20.0796 55.7302 21.3674 55.2688 22.5613L40.5808 29.5076C39.9365 29.2941 39.316 29.0272 38.726 28.7104C43.1627 26.1463 51.2704 21.4814 56.047 18.7344Z" fill="#EBEBEB"/>
<path d="M44.3931 7.40186H44.1654V9.18702H44.3931V7.40186Z" fill="#C7C7C7"/>
<path d="M38.9202 8.80754L38.723 8.92139L39.6156 10.4675L39.8128 10.3537L38.9202 8.80754Z" fill="#C7C7C7"/>
<path d="M34.8795 12.7647L34.7656 12.9619L36.3116 13.8547L36.4255 13.6575L34.8795 12.7647Z" fill="#C7C7C7"/>
<path d="M35.1426 18.21H33.3578V18.4377H35.1426V18.21Z" fill="#C7C7C7"/>
<path d="M36.3087 22.793L34.7627 23.6855L34.8765 23.8827L36.4225 22.9902L36.3087 22.793Z" fill="#C7C7C7"/>
<path d="M39.6112 26.1804L38.7197 27.7266L38.917 27.8403L39.8085 26.2942L39.6112 26.1804Z" fill="#C7C7C7"/>
<path d="M44.3931 27.46H44.1654V29.2451H44.3931V27.46Z" fill="#C7C7C7"/>
<path d="M48.9445 26.1784L48.7473 26.2922L49.6397 27.8379L49.8369 27.724L48.9445 26.1784Z" fill="#C7C7C7"/>
<path d="M52.2467 22.7921L52.1328 22.9893L53.6788 23.8818L53.7926 23.6847L52.2467 22.7921Z" fill="#C7C7C7"/>
<path d="M55.2008 18.21H53.416V18.4377H55.2008V18.21Z" fill="#C7C7C7"/>
<path d="M53.6797 12.7639L52.1338 13.6565L52.2476 13.8537L53.7936 12.9611L53.6797 12.7639Z" fill="#C7C7C7"/>
<path d="M49.639 8.80605L48.7473 10.3525L48.9446 10.4663L49.8363 8.91978L49.639 8.80605Z" fill="#C7C7C7"/>
<path d="M44.4504 8.2105L44.8377 19.1183L43.7202 19.1045L44.1471 8.20654L44.4504 8.2105Z" fill="#C7C7C7"/>
<path d="M51.2448 14.5197L43.9061 19.204L43.3727 18.2223L51.0998 14.2532L51.2448 14.5197Z" fill="#A6A6A6"/>
<path d="M44.6604 18.3235C44.6604 18.5342 44.4897 18.7048 44.2791 18.7048C44.0684 18.7048 43.8977 18.5342 43.8977 18.3235C43.8977 18.1128 44.0684 17.9421 44.2791 17.9421C44.4897 17.9421 44.6604 18.1128 44.6604 18.3235Z" fill="#C7C7C7"/>
<path d="M164.694 0.476562H114.885V65.1556H164.694V0.476562Z" fill="#DBDBDB"/>
<path d="M138.448 3.7019H118.03V31.5965H138.448V3.7019Z" fill="white"/>
<path d="M161.548 3.7019H141.13V31.5965H161.548V3.7019Z" fill="white"/>
<path d="M138.448 34.0359H118.03V61.9305H138.448V34.0359Z" fill="white"/>
<path d="M161.548 34.0359H141.13V61.9305H161.548V34.0359Z" fill="white"/>
<path d="M116.678 0.476562H103.005V87.9526H116.678V0.476562Z" fill="#EBEBEB"/>
<path d="M114.085 5.95312L114.191 18.4085L114.229 22.9439L114.302 47.8547L114.23 64.8451L114.192 65.4204L114.085 77.8758L113.979 65.4204L113.941 64.8451L113.869 47.8547L113.942 22.9439L113.98 18.4085L114.085 5.95312Z" fill="white"/>
<path d="M107.807 8.8418L107.913 12.0431L107.973 23.1647L108.024 45.4076L107.974 59.731L107.913 66.8922L107.807 70.0939L107.701 66.8922L107.64 59.731L107.59 45.4076L107.641 23.1647L107.701 12.0431L107.807 8.8418Z" fill="white"/>
<path d="M110.946 11.4673L111.052 16.5697L111.09 29.5926L111.163 47.7175L111.09 65.8424L111.052 74.9049L110.946 87.9274L110.84 74.9049L110.802 65.8424L110.73 47.7175L110.803 29.5926L110.841 16.5697L110.946 11.4673Z" fill="white"/>
<path d="M105.472 6.60986L105.577 12.3194L105.616 25.9493L105.688 53.2088L105.616 64.6278L105.578 74.2977L105.472 87.9273L105.366 74.2977L105.328 64.6278L105.255 53.2088L105.328 25.9493L105.366 12.3194L105.472 6.60986Z" fill="white"/>
<path d="M162.901 87.9521H176.574V0.476143H162.901V87.9521Z" fill="#EBEBEB"/>
<path d="M165.493 5.95312L165.599 18.4085L165.637 22.9439L165.709 47.8547L165.637 64.8451L165.599 65.4204L165.493 77.8758L165.387 65.4204L165.349 64.8451L165.277 47.8547L165.349 22.9439L165.387 18.4085L165.493 5.95312Z" fill="white"/>
<path d="M171.772 8.8418L171.877 12.0431L171.938 23.1647L171.988 45.4076L171.938 59.731L171.878 66.8922L171.772 70.0939L171.665 66.8922L171.605 59.731L171.555 45.4076L171.605 23.1647L171.666 12.0431L171.772 8.8418Z" fill="white"/>
<path d="M168.632 11.4673L168.738 16.5697L168.776 29.5926L168.849 47.7175L168.776 65.8424L168.738 74.9049L168.632 87.9274L168.526 74.9049L168.488 65.8424L168.416 47.7175L168.489 29.5926L168.527 16.5697L168.632 11.4673Z" fill="white"/>
<path d="M174.107 6.60986L174.212 12.3194L174.25 25.9493L174.323 53.2088L174.251 64.6278L174.213 74.2977L174.107 87.9273L174 74.2977L173.962 64.6278L173.89 53.2088L173.963 25.9493L174.001 12.3194L174.107 6.60986Z" fill="white"/>
<path d="M77.191 145.105H36.0664L34.408 112.386H78.8498L77.191 145.105Z" fill="#EBEBEB"/>
<path d="M39.2834 116.004H73.9742L73.3493 127.363H40.0133L39.2834 116.004ZM73.5485 116.407H39.7123L40.3899 126.961H72.9676L73.5485 116.407Z" fill="#DBDBDB"/>
<path d="M39.9872 130.178H72.5534L72.0434 140.431H40.6279L39.9872 130.178ZM72.1305 130.58H40.4157L41.0061 140.028H71.6605L72.1305 130.58Z" fill="#DBDBDB"/>
<path d="M53.1177 120.176H59.426L59.0727 122.915H53.4713L53.1177 120.176ZM58.9682 120.579H53.5751L53.8245 122.513H58.7187L58.9682 120.579Z" fill="#DBDBDB"/>
<path d="M53.1177 133.934H59.426L59.0727 136.674H53.4713L53.1177 133.934ZM58.9682 134.337H53.5751L53.8245 136.271H58.7187L58.9682 134.337Z" fill="#DBDBDB"/>
<path d="M70.0404 145.104L70.541 148.669L71.548 155.831H73.5173V145.104H70.0404Z" fill="#EBEBEB"/>
<path d="M70.0404 145.104L70.541 148.669H73.5173V145.104H70.0404Z" fill="#DBDBDB"/>
<path d="M43.2173 145.104L42.7163 148.669L41.7093 155.831H39.74V145.104H43.2173Z" fill="#EBEBEB"/>
<path d="M43.2173 145.104L42.7163 148.669H39.74V145.104H43.2173Z" fill="#DBDBDB"/>
<path d="M17.5626 155.83L37.9218 155.734L58.2813 155.699L99 155.633L139.719 155.699L160.078 155.733L180.437 155.83L160.078 155.927L139.719 155.962L99 156.028L58.2813 155.961L37.9218 155.927L17.5626 155.83Z" fill="#192F5D"/>
<path d="M165.685 79.7495H32.3145V84.4924H165.685V79.7495Z" fill="#37474F"/>
<path d="M160.911 84.4939H37.0881V89.2356H160.911V84.4939Z" fill="#455A64"/>
<path d="M37.0984 155.785H35.1814L40.761 89.2354H45.654L37.0984 155.785Z" fill="#455A64"/>
<path d="M45.6533 89.2366L45.0803 93.6892H40.3896L40.7615 89.2366H45.6533Z" fill="#192F5D"/>
<path d="M160.902 155.785H162.819L157.239 89.2354H152.346L160.902 155.785Z" fill="#455A64"/>
<path d="M152.347 89.2368L152.92 93.6894H157.611L157.239 89.2368H152.347Z" fill="#192F5D"/>
<path d="M52.0966 113.927C50.6857 112.544 48.8617 110.874 46.7047 111.47C44.6752 112.031 43.8982 114.246 43.5347 116.092C43.0662 118.471 42.7019 120.873 42.3241 123.268C41.9424 125.687 41.5844 128.109 41.2363 130.533C41.0399 131.9 40.8451 133.268 40.6542 134.636C40.5588 135.321 40.4637 136.005 40.3691 136.689C40.276 137.361 40.164 138.031 40.1271 138.708C40.1153 138.924 40.4538 138.955 40.501 138.749C40.7623 137.608 40.8704 136.422 41.0383 135.263C41.207 134.099 41.3753 132.934 41.5456 131.769C41.8842 129.455 42.2339 127.143 42.5823 124.831C42.9312 122.518 43.292 120.206 43.661 117.896C43.9739 115.937 44.1216 113.503 45.8584 112.211C46.8112 111.503 48.0265 111.494 49.1064 111.906C50.2493 112.342 51.1621 113.161 52.0562 113.97C52.084 113.996 52.124 113.954 52.0966 113.927Z" fill="#192F5D"/>
<path d="M50.1654 112.515C50.1654 112.515 47.2809 111.476 45.8577 113.581C44.4345 115.687 46.1357 121.04 59.269 124.062C59.269 124.062 58.9249 118.329 56.1093 112.189C53.2934 106.049 48.2769 108.374 50.1654 112.515Z" fill="#2054D2" fill-opacity="0.4"/>
<path d="M58.5138 123.185C58.3333 122.813 58.0782 122.467 57.8533 122.12C57.6339 121.781 57.4122 121.444 57.1872 121.109C57.0185 120.857 56.8459 120.607 56.6732 120.357C56.6855 120.296 56.6891 120.233 56.6978 120.169C56.7128 120.056 56.7279 119.942 56.7425 119.828C56.7746 119.582 56.8106 119.336 56.8471 119.091C56.8831 118.845 56.9243 118.601 56.971 118.358C57.0189 118.109 57.0435 117.816 57.1429 117.584C57.1591 117.546 57.0906 117.527 57.0855 117.572C57.0692 117.718 57.0075 117.866 56.9683 118.007C56.9378 118.118 56.9085 118.228 56.8803 118.339C56.8166 118.588 56.756 118.838 56.6998 119.089C56.6479 119.32 56.6043 119.553 56.5647 119.786C56.5457 119.898 56.5291 120.01 56.514 120.123C56.28 119.789 56.0412 119.458 55.7949 119.134C55.0975 118.215 54.3598 117.332 53.5967 116.469C53.5999 116.46 53.6078 116.456 53.6082 116.445C53.6763 115.065 53.6434 113.7 53.9492 112.342C53.9575 112.305 53.9016 112.285 53.8933 112.322C53.6062 113.595 53.3199 114.932 53.4027 116.248C53.129 115.942 52.8518 115.638 52.5723 115.337C51.9327 114.649 51.2813 113.972 50.6156 113.31C50.5887 113.283 50.5463 113.322 50.5721 113.35C51.6789 114.541 52.7299 115.782 53.7535 117.046C52.956 117.019 52.1458 117.076 51.3526 117.134C50.462 117.2 49.5773 117.314 48.693 117.436C48.6554 117.442 48.6669 117.5 48.7045 117.495C49.5836 117.363 50.4719 117.294 51.3601 117.257C52.2167 117.221 53.0688 117.259 53.925 117.257C54.4778 117.943 55.0255 118.634 55.5644 119.331C55.526 119.329 55.486 119.329 55.4425 119.328C55.2413 119.324 55.0397 119.321 54.8386 119.325C54.4394 119.332 54.0398 119.359 53.6423 119.394C52.8269 119.463 52.0159 119.577 51.2171 119.756C51.1795 119.765 51.191 119.819 51.2286 119.814C52.0353 119.723 52.8443 119.648 53.6561 119.619C54.0434 119.606 54.4307 119.606 54.818 119.605C55.0191 119.605 55.2207 119.604 55.4219 119.607C55.543 119.609 55.6523 119.622 55.7533 119.576C56.1066 120.035 56.4602 120.494 56.8103 120.955C57.089 121.322 57.3639 121.692 57.6339 122.065C57.9095 122.446 58.1594 122.863 58.4663 123.22C58.4889 123.246 58.5281 123.215 58.5138 123.185Z" fill="#192F5D"/>
<path d="M51.4215 115.498C50.9609 115.422 50.4826 115.43 50.0169 115.429C49.5484 115.429 49.0792 115.443 48.6111 115.46C48.5683 115.461 48.5711 115.521 48.6146 115.518C49.0898 115.484 49.5646 115.476 50.0406 115.483C50.5 115.49 50.9609 115.534 51.4199 115.521C51.435 115.521 51.4365 115.5 51.4215 115.498Z" fill="#192F5D"/>
<path d="M55.5435 116.556C55.5974 116.108 55.6536 115.657 55.749 115.215C55.7581 115.173 55.698 115.16 55.6916 115.203C55.6243 115.644 55.5384 116.083 55.473 116.525C55.4406 116.746 55.4105 116.967 55.3831 117.189C55.3582 117.391 55.3111 117.611 55.3293 117.815C55.3328 117.854 55.3962 117.858 55.4061 117.821C55.4596 117.622 55.4544 117.4 55.4742 117.196C55.4952 116.982 55.5182 116.769 55.5435 116.556Z" fill="#192F5D"/>
<path d="M54.6797 111.586C54.5649 112.023 54.4509 112.465 54.3705 112.909C54.3297 113.134 54.2952 113.361 54.2647 113.588C54.2354 113.805 54.1958 114.033 54.2208 114.251C54.2228 114.269 54.2501 114.27 54.2548 114.254C54.3186 114.051 54.3305 113.831 54.3586 113.621C54.3879 113.403 54.4212 113.185 54.4588 112.968C54.5384 112.511 54.6195 112.057 54.7356 111.607C54.7451 111.57 54.6892 111.55 54.6797 111.586Z" fill="#192F5D"/>
<path d="M37.7738 138.377C37.7013 137.55 37.621 136.724 37.5338 135.899C37.3612 134.262 37.1616 132.63 36.9422 130.999C36.7236 129.374 36.5145 127.745 36.2532 126.125C36.1332 125.383 36.0096 124.622 35.7522 123.912C35.5309 123.302 35.1654 122.75 34.5266 122.529C32.9814 121.996 31.9388 123.598 31.3151 124.732C31.296 124.766 31.3455 124.791 31.3669 124.76C31.7404 124.224 32.7731 122.716 33.9453 122.786C34.7341 122.834 35.3649 123.392 35.7435 125.359C36.6868 130.259 37.5374 140.203 37.6364 140.854C37.6891 141.199 37.9326 141.184 37.9346 140.814C37.9393 140.001 37.8447 139.187 37.7738 138.377Z" fill="#192F5D"/>
<path d="M31.7316 124.122C31.7316 124.122 33.082 119.353 30.0965 121.738C25.1263 125.707 24.9497 134.341 24.9497 134.341C24.9497 134.341 33.7845 129.21 34.883 125.825C36.5196 120.784 31.7316 124.122 31.7316 124.122Z" fill="#2054D2" fill-opacity="0.4"/>
<path d="M33.4035 126.463C32.7101 126.604 32.0072 126.696 31.3071 126.797C30.9757 126.844 30.6442 126.891 30.3127 126.936C30.089 126.967 29.8621 126.989 29.6368 127.016C30.2949 126.109 30.9582 125.207 31.5895 124.282C31.6136 124.246 31.559 124.209 31.5301 124.238C31.0057 124.772 30.5199 125.349 30.0538 125.942C29.9243 125.572 29.792 125.204 29.6621 124.835C29.512 124.408 29.3505 123.983 29.242 123.543C29.2329 123.506 29.175 123.523 29.1853 123.56C29.3061 123.997 29.3917 124.443 29.5085 124.881C29.6213 125.305 29.7496 125.723 29.8997 126.134C29.5762 126.555 29.2657 126.985 28.964 127.42C28.8119 126.989 28.6234 126.572 28.49 126.134C28.4789 126.098 28.4211 126.115 28.4333 126.151C28.5917 126.635 28.6769 127.139 28.8258 127.626C28.623 127.922 28.4203 128.218 28.2266 128.517C27.8698 129.068 27.5336 129.63 27.2045 130.195C27.1531 130.224 27.1202 130.266 27.1273 130.328C26.5694 131.294 26.0383 132.274 25.5144 133.262C25.4966 133.296 25.5485 133.325 25.5663 133.291C26.0906 132.314 26.6739 131.364 27.281 130.43C27.283 130.429 27.2857 130.43 27.2873 130.429C27.3515 130.394 27.4968 130.39 27.5764 130.374C27.6782 130.353 27.7799 130.33 27.8813 130.307C28.1098 130.258 28.3359 130.199 28.5628 130.142C29.0111 130.031 29.4542 129.926 29.9092 129.847C29.9464 129.841 29.9294 129.783 29.8922 129.79C29.3572 129.892 28.821 129.953 28.2805 130.015C28.0255 130.045 27.7708 130.077 27.5174 130.118C27.5067 130.119 27.4932 130.121 27.4806 130.123C27.7981 129.641 28.1201 129.161 28.4464 128.688C28.7676 128.222 29.097 127.762 29.4285 127.303C29.735 127.261 30.0387 127.18 30.3424 127.122C30.6846 127.056 31.0263 126.99 31.3681 126.922C32.052 126.787 32.7331 126.633 33.4206 126.52C33.4578 126.514 33.4411 126.456 33.4035 126.463Z" fill="#192F5D"/>
<path d="M28.0944 126.933C28.0532 126.807 28.0152 126.68 27.9752 126.554C27.8913 126.291 27.8271 126.025 27.7725 125.754C27.7649 125.717 27.7079 125.734 27.7158 125.771C27.7737 126.04 27.8366 126.309 27.898 126.577C27.9586 126.841 28.0255 127.119 28.1281 127.37C28.1534 127.433 28.2489 127.407 28.2302 127.339C28.1926 127.202 28.1384 127.069 28.0944 126.933Z" fill="#192F5D"/>
<path d="M34.3076 125.359C33.9048 125.42 33.4981 125.448 33.0926 125.483C32.6848 125.519 32.2832 125.575 31.8785 125.636C31.8563 125.639 31.8559 125.673 31.8793 125.672C32.2864 125.644 32.6899 125.612 33.0946 125.559C33.4989 125.506 33.9025 125.446 34.3091 125.418C34.3476 125.416 34.3444 125.354 34.3076 125.359Z" fill="#192F5D"/>
<path d="M42.0113 132.339C41.8545 128.828 41.6319 125.323 41.2787 121.826C41.1029 120.084 40.906 118.344 40.6609 116.61C40.4209 114.912 40.1275 113.213 39.6551 111.563C39.2935 110.299 38.8191 109.03 37.9745 108.003C37.1413 106.99 35.9129 106.356 34.5795 106.521C33.0427 106.712 31.8056 107.679 30.7352 108.732C29.5345 109.912 28.4352 111.2 27.3228 112.462C27.0417 112.781 26.7625 113.103 26.4857 113.426C26.4608 113.455 26.5035 113.496 26.5285 113.467C27.6159 112.218 28.7457 111.004 29.9277 109.843C31.0199 108.771 32.1453 107.599 33.6584 107.156C34.3594 106.951 35.1193 106.894 35.8262 107.105C36.3972 107.275 36.8961 107.616 37.3068 108.042C38.1586 108.928 38.637 110.128 38.9767 111.29C39.9212 114.517 40.2594 117.901 40.6098 121.234C40.9662 124.621 41.2066 128.016 41.3769 131.416C41.548 134.835 41.6814 138.258 42.0109 141.666C42.0517 142.086 42.1063 142.506 42.1594 142.925C42.1954 143.207 42.633 143.207 42.61 142.914C42.3312 139.393 42.1689 135.868 42.0113 132.339Z" fill="#192F5D"/>
<path d="M30.5423 109.111C30.5423 109.111 32.5473 105.4 30.178 104.21C27.8087 103.02 19.8792 111.871 17.5626 124.814C17.5626 124.814 30.3697 119.148 34.7185 113.501C39.0678 107.855 34.1372 106.612 30.5423 109.111Z" fill="#2054D2" fill-opacity="0.4"/>
<path d="M32.4249 112.13C30.9854 112.133 29.5499 112.021 28.1101 112.031C28.3798 111.721 28.6486 111.412 28.9211 111.104C29.2977 110.68 29.7273 110.267 30.0461 109.797C30.0663 109.767 30.0232 109.725 29.9942 109.748C29.5947 110.061 29.2529 110.471 28.9048 110.84C28.5441 111.223 28.1857 111.608 27.8285 111.994C27.2785 112.589 26.7395 113.194 26.2014 113.8C26.2002 113.741 26.199 113.683 26.1994 113.626C26.201 113.374 26.199 113.121 26.2006 112.87C26.2037 112.381 26.2113 111.893 26.216 111.405C26.2255 110.416 26.2231 109.421 26.2916 108.433C26.2944 108.395 26.235 108.397 26.2322 108.435C26.1633 109.428 26.0608 110.416 26.0121 111.41C25.9879 111.899 25.9764 112.387 25.9705 112.876C25.9673 113.127 25.9634 113.38 25.9653 113.632C25.9665 113.769 25.961 113.914 25.9717 114.056C25.8877 114.151 25.8006 114.243 25.7174 114.338C24.5687 115.651 23.4765 117.008 22.4132 118.39C22.4116 118.314 22.4013 118.235 22.3942 118.161C22.3796 118.008 22.3613 117.856 22.3439 117.704C22.3067 117.373 22.2616 117.045 22.2121 116.716C22.1657 116.407 22.117 116.099 22.0651 115.791C22.0069 115.445 21.9222 115.094 21.896 114.745C21.8929 114.702 21.8287 114.711 21.8378 114.754C21.9115 115.097 21.9254 115.46 21.9582 115.808C21.9879 116.125 22.0176 116.442 22.0461 116.758C22.0746 117.076 22.1032 117.392 22.136 117.709C22.1515 117.861 22.1653 118.014 22.1816 118.166C22.1899 118.242 22.199 118.318 22.2093 118.394C22.2231 118.495 22.2386 118.507 22.2711 118.575C22.0885 118.814 21.9048 119.051 21.7234 119.29C20.9971 120.251 20.2843 121.223 19.5711 122.194C19.549 122.224 19.5905 122.266 19.6139 122.235C20.2891 121.354 20.9841 120.49 21.6881 119.633C22.2152 119.656 22.7526 119.617 23.2793 119.608C23.8349 119.599 24.3901 119.596 24.9456 119.594C24.9837 119.594 24.9825 119.534 24.9441 119.535C24.3885 119.544 23.8333 119.553 23.2777 119.555C22.7716 119.557 22.2548 119.532 21.7483 119.559C22.3677 118.806 22.9934 118.059 23.6206 117.313C23.8495 117.041 24.0796 116.769 24.3085 116.497C24.5164 116.541 24.7405 116.519 24.9516 116.519C25.2038 116.518 25.4565 116.518 25.7087 116.518C26.182 116.516 26.6552 116.505 27.128 116.498C28.1057 116.483 29.0834 116.45 30.0612 116.448C30.0992 116.448 30.098 116.389 30.0596 116.388C29.0807 116.377 28.1022 116.334 27.1232 116.31C26.6496 116.298 26.176 116.282 25.7024 116.276C25.4497 116.272 25.1975 116.27 24.9448 116.267C24.8011 116.265 24.653 116.255 24.5073 116.261C25.0446 115.623 25.5812 114.985 26.1206 114.348C26.1336 114.341 26.1435 114.329 26.1503 114.313C26.6754 113.695 27.2001 113.075 27.7307 112.461C27.8032 112.377 27.8772 112.295 27.9501 112.211C29.4426 112.257 30.9324 112.159 32.4241 112.188C32.4645 112.189 32.4633 112.129 32.4249 112.13Z" fill="#192F5D"/>
<path d="M31.6889 114.674C31.5729 114.675 31.4564 114.676 31.3404 114.677C31.306 114.678 31.3075 114.73 31.3416 114.731C31.458 114.731 31.5741 114.733 31.6905 114.733C31.7285 114.733 31.7269 114.674 31.6889 114.674Z" fill="#192F5D"/>
<path d="M30.9138 114.679C30.4529 114.672 29.9915 114.663 29.5306 114.65C29.3001 114.643 29.0696 114.635 28.8392 114.627C28.6332 114.62 28.3976 114.588 28.1957 114.635C28.1731 114.64 28.177 114.672 28.1968 114.678C28.396 114.738 28.6344 114.719 28.8415 114.723C29.072 114.728 29.3025 114.731 29.5329 114.733C29.9939 114.738 30.4548 114.74 30.9158 114.738C30.9534 114.738 30.9518 114.679 30.9138 114.679Z" fill="#192F5D"/>
<path d="M26.8872 119.001C25.9499 118.869 25.0035 118.737 24.0551 118.745C24.0412 118.745 24.0428 118.764 24.0554 118.766C24.9963 118.855 25.9388 118.906 26.873 119.058C26.9106 119.065 26.9249 119.006 26.8872 119.001Z" fill="#192F5D"/>
<path d="M23.0374 114.88C23.0279 114.798 23.0188 114.715 23.0081 114.633C22.984 114.448 22.9547 114.263 22.9258 114.079C22.8703 113.727 22.8089 113.376 22.742 113.026C22.7357 112.994 22.6798 113.003 22.6842 113.036C22.7286 113.398 22.7674 113.76 22.801 114.123C22.8177 114.301 22.8307 114.48 22.847 114.658C22.8616 114.819 22.847 115.019 22.919 115.166C22.946 115.221 23.0291 115.199 23.0434 115.146C23.0671 115.058 23.0481 114.97 23.0374 114.88Z" fill="#192F5D"/>
<path d="M42.6944 105.349C42.2358 104.496 41.6529 103.368 40.5085 103.44C39.564 103.499 39.1383 104.463 38.9364 105.26C38.3123 107.725 38.2683 110.324 38.1471 112.85C37.8901 118.188 37.6593 123.532 37.6256 128.877C37.6161 130.359 37.6216 131.841 37.6351 133.322C37.649 134.833 37.645 139.04 37.7408 140.548C37.7499 140.691 37.9622 140.686 37.963 140.543C37.9713 139.25 37.9258 135.27 37.9202 133.977C37.9151 132.716 37.925 131.455 37.9452 130.194C37.9864 127.639 38.0549 125.085 38.1495 122.532C38.2434 119.994 38.3554 117.457 38.4627 114.92C38.5166 113.652 38.5701 112.384 38.6271 111.116C38.6825 109.888 38.7356 108.659 38.8762 107.436C38.955 106.752 39.056 106.067 39.1989 105.393C39.3007 104.913 39.4472 104.393 39.7897 104.024C40.2416 103.537 40.9239 103.572 41.4597 103.903C42.0145 104.246 42.3515 104.815 42.6437 105.38C42.6615 105.413 42.7126 105.382 42.6944 105.349Z" fill="#192F5D"/>
<path d="M42.3848 104.941C42.3848 104.941 41.4443 101.619 43.5237 103.28C46.9855 106.046 47.1087 112.06 47.1087 112.06C47.1087 112.06 40.9544 108.485 40.1894 106.128C39.0493 102.616 42.3848 104.941 42.3848 104.941Z" fill="#2054D2" fill-opacity="0.4"/>
<path d="M45.814 109.594C45.7574 109.502 45.6972 109.413 45.6394 109.322C45.6541 109.23 45.6394 109.127 45.639 109.038C45.6382 108.895 45.637 108.752 45.6402 108.609C45.6469 108.328 45.6572 108.048 45.6711 107.768C45.6731 107.73 45.6137 107.731 45.6117 107.769C45.5974 108.044 45.5859 108.32 45.5784 108.595C45.5749 108.733 45.5681 108.871 45.5642 109.008C45.5626 109.062 45.5555 109.124 45.5523 109.186C45.3107 108.81 45.0628 108.439 44.8062 108.074C44.7318 107.968 44.6538 107.865 44.5781 107.761C44.5219 107.405 44.5552 107.033 44.5595 106.676C44.5643 106.289 44.5698 105.904 44.5833 105.518C44.5845 105.48 44.5251 105.481 44.5239 105.519C44.5128 105.921 44.4926 106.322 44.4724 106.723C44.4581 107.007 44.4316 107.297 44.4486 107.582C43.8538 106.774 43.2242 105.995 42.5855 105.22C42.5641 105.194 42.5189 105.231 42.5399 105.257C42.9351 105.758 43.3141 106.271 43.6851 106.79C42.9609 106.621 42.2243 106.524 41.4885 106.418C41.4513 106.412 41.4363 106.47 41.4743 106.475C42.2532 106.593 43.0179 106.788 43.7869 106.958C43.7933 106.959 43.7964 106.955 43.802 106.955C44.097 107.37 44.388 107.788 44.6779 108.206C44.7959 108.377 44.9104 108.549 45.0268 108.721C45.0157 108.72 45.0046 108.718 44.9939 108.717C44.9143 108.705 44.8343 108.694 44.7547 108.684C44.5845 108.664 44.4134 108.65 44.2427 108.637C43.8879 108.609 43.5323 108.59 43.1771 108.571C43.1391 108.569 43.1403 108.629 43.1787 108.63C43.5287 108.638 43.8764 108.665 44.2245 108.702C44.4082 108.722 44.5912 108.747 44.7749 108.769C44.8549 108.778 44.9353 108.787 45.0153 108.798C45.0391 108.8 45.0624 108.804 45.0858 108.808C45.2826 109.098 45.4806 109.389 45.6774 109.68C46.0247 110.193 46.3352 110.744 46.7062 111.24C46.7284 111.27 46.7692 111.243 46.7541 111.211C46.4948 110.65 46.1368 110.119 45.814 109.594Z" fill="#192F5D"/>
<path d="M44.2812 105.842C44.2808 105.712 44.284 105.583 44.2836 105.454C44.2832 105.184 44.2796 104.908 44.3164 104.64C44.3224 104.597 44.2582 104.591 44.2578 104.634C44.257 104.902 44.2285 105.171 44.2155 105.44C44.2091 105.574 44.2087 105.709 44.2083 105.843C44.2083 105.906 44.2083 105.968 44.2087 106.029C44.2091 106.092 44.2004 106.163 44.223 106.223C44.2325 106.248 44.2661 106.247 44.2745 106.222C44.2931 106.165 44.2832 106.102 44.2824 106.043C44.282 105.976 44.2816 105.909 44.2812 105.842Z" fill="#192F5D"/>
<path d="M43.5205 107.218C43.2916 107.179 43.0571 107.167 42.8259 107.147C42.5717 107.126 42.3186 107.103 42.066 107.071C42.0236 107.065 42.0165 107.126 42.0596 107.129C42.5455 107.16 43.029 107.247 43.5153 107.264C43.5419 107.266 43.547 107.222 43.5205 107.218Z" fill="#192F5D"/>
<path d="M45.4542 107.238C45.472 107.263 45.4601 107.336 45.4601 107.366V107.473C45.4601 107.551 45.4593 107.628 45.4586 107.706C45.4582 107.783 45.4574 107.861 45.4566 107.938C45.4562 108 45.4399 108.085 45.4677 108.141C45.472 108.15 45.4867 108.149 45.4906 108.141C45.5057 108.111 45.5025 108.078 45.5025 108.045C45.5021 108.009 45.5017 107.973 45.5017 107.937C45.5009 107.86 45.5005 107.783 45.4997 107.705C45.4989 107.628 45.4982 107.55 45.4982 107.473V107.366C45.4982 107.333 45.4855 107.265 45.5049 107.237C45.5433 107.183 45.4146 107.182 45.4542 107.238Z" fill="#192F5D"/>
<path d="M44.4985 124.823C43.204 123.851 42.0414 122.455 40.3005 122.387C38.8639 122.331 37.8568 123.412 37.281 124.616C36.9773 125.252 36.7694 125.926 36.5766 126.601C36.3168 127.51 36.0725 128.424 35.8432 129.341C35.3925 131.146 35.0044 132.968 34.6908 134.801C34.5158 135.823 34.353 136.849 34.2235 137.878C34.0932 138.916 33.9234 139.982 33.9214 141.028C33.921 141.21 34.2057 141.246 34.2425 141.064C34.418 140.203 34.4912 139.315 34.6179 138.445C34.7455 137.57 34.8777 136.696 35.0258 135.825C35.322 134.081 35.663 132.344 36.0566 130.62C36.4281 128.992 36.7928 127.339 37.3183 125.752C37.6945 124.616 38.2992 123.289 39.5264 122.881C41.3943 122.259 43.0904 123.84 44.4574 124.866C44.4879 124.889 44.529 124.846 44.4985 124.823Z" fill="#192F5D"/>
<path d="M43.159 123.894C43.159 123.894 41.9663 120.487 43.692 119.819C46.2779 118.818 53.0467 126.441 51.7217 138.122C51.7217 138.122 46.4917 135.241 42.6304 132C38.7686 128.759 37.7801 124.526 39.4814 123.431C41.1818 122.337 43.159 123.894 43.159 123.894Z" fill="#2054D2" fill-opacity="0.4"/>
<path d="M50.9398 135.619C50.7882 135.208 50.5228 134.824 50.311 134.441C50.09 134.041 49.8663 133.643 49.6354 133.248C49.186 132.479 48.7393 131.709 48.2791 130.947C48.2047 130.823 48.1274 130.701 48.0522 130.578C48.0625 130.532 48.0704 130.486 48.0807 130.441C48.1065 130.328 48.1318 130.216 48.1575 130.103C48.215 129.85 48.2593 129.593 48.3068 129.338C48.4003 128.838 48.4874 128.331 48.622 127.841C48.6319 127.805 48.5718 127.793 48.5638 127.831C48.4569 128.331 48.2997 128.822 48.1516 129.311C48.0787 129.552 48.0015 129.792 47.9378 130.035C47.916 130.119 47.8942 130.202 47.8724 130.285C47.316 129.374 46.7509 128.467 46.1411 127.59C46.1922 127.476 46.1878 127.347 46.2017 127.215C46.2199 127.044 46.2405 126.874 46.2607 126.703C46.3062 126.319 46.3502 125.935 46.4068 125.552C46.5177 124.799 46.6298 124.052 46.8167 123.314C46.8262 123.277 46.7676 123.267 46.7585 123.304C46.5724 124.039 46.3696 124.775 46.2298 125.521C46.1613 125.886 46.0964 126.254 46.0476 126.623C46.0231 126.807 46.0037 126.993 45.9847 127.178C45.9791 127.232 45.9704 127.289 45.9633 127.345C45.7756 127.081 45.5883 126.816 45.3919 126.557C44.7943 125.772 44.1758 125.004 43.5509 124.24C43.5267 124.211 43.478 124.245 43.5022 124.274C44.5991 125.616 45.5261 127.102 46.4433 128.57C46.6143 128.844 46.7818 129.12 46.9517 129.395C46.8947 129.388 46.8381 129.381 46.7838 129.374C46.5652 129.347 46.3439 129.333 46.1245 129.312C45.6845 129.271 45.2442 129.233 44.8038 129.198C43.9227 129.128 43.0396 129.074 42.1605 128.98C42.1229 128.976 42.1122 129.033 42.1502 129.038C43.0408 129.14 43.9271 129.283 44.8145 129.409C45.2509 129.471 45.6873 129.529 46.1245 129.585C46.4262 129.624 46.8044 129.713 47.1327 129.688C47.4788 130.251 47.8261 130.812 48.1714 131.375C48.0946 131.364 48.0146 131.367 47.9378 131.366C47.7908 131.364 47.6439 131.365 47.4974 131.365C47.2246 131.365 46.9517 131.364 46.6789 131.364C46.1114 131.365 45.5443 131.376 44.9769 131.375C44.9389 131.375 44.9448 131.434 44.9824 131.434C45.5574 131.441 46.1308 131.47 46.705 131.501C46.9775 131.515 47.2495 131.531 47.5216 131.55C47.6574 131.559 47.7936 131.57 47.9294 131.579C48.0486 131.587 48.1762 131.609 48.2886 131.565C48.5821 132.044 48.879 132.521 49.1721 133C49.4426 133.442 49.7162 133.882 49.9958 134.318C50.2769 134.756 50.5375 135.26 50.8828 135.649C50.9058 135.675 50.9537 135.656 50.9398 135.619Z" fill="#192F5D"/>
<path d="M48.4479 126.178C48.4063 126.551 48.3066 126.925 48.2143 127.289C48.1181 127.667 48.008 128.042 47.8852 128.413C47.8686 128.464 47.9391 128.487 47.9553 128.435C48.0713 128.067 48.1751 127.696 48.2658 127.321C48.3565 126.945 48.4151 126.563 48.5065 126.189C48.5152 126.151 48.4523 126.139 48.4479 126.178Z" fill="#192F5D"/>
<path d="M44.606 128.459C44.5244 128.377 44.4325 128.369 44.3208 128.353C44.1565 128.33 43.9918 128.308 43.827 128.285C43.5213 128.244 43.2144 128.21 42.9075 128.174C42.2704 128.099 41.632 128.037 40.9952 127.957C40.9576 127.952 40.9469 128.011 40.9849 128.016C41.5861 128.089 42.184 128.18 42.784 128.258C43.0782 128.297 43.372 128.339 43.6666 128.373C43.8084 128.389 43.9502 128.405 44.092 128.42C44.2488 128.438 44.4337 128.433 44.5771 128.504C44.6056 128.518 44.6262 128.48 44.606 128.459Z" fill="#192F5D"/>
<path d="M48.4387 133.596C48.1382 133.57 47.8348 133.561 47.5335 133.552C47.3814 133.547 47.2289 133.542 47.0769 133.538C47.004 133.535 46.9308 133.533 46.8579 133.531C46.7656 133.528 46.6623 133.537 46.5728 133.514C46.5308 133.504 46.5264 133.58 46.5704 133.573C46.6555 133.56 46.7518 133.576 46.8373 133.581C46.9165 133.586 46.9953 133.591 47.0745 133.596C47.2266 133.605 47.3786 133.614 47.5307 133.623C47.8317 133.641 48.135 133.659 48.4363 133.661C48.4724 133.661 48.4752 133.599 48.4387 133.596Z" fill="#192F5D"/>
<path d="M50.2825 132.289C50.317 132.118 50.3494 131.947 50.3807 131.775C50.4425 131.439 50.5043 131.102 50.5661 130.765C50.5732 130.727 50.5162 130.717 50.5078 130.755C50.4338 131.083 50.3597 131.41 50.2861 131.739C50.2493 131.903 50.2124 132.067 50.1784 132.231C50.1625 132.307 50.1471 132.383 50.1313 132.459C50.1146 132.539 50.0893 132.619 50.1043 132.7C50.1095 132.727 50.1503 132.75 50.1697 132.721C50.2485 132.601 50.2544 132.428 50.2825 132.289Z" fill="#192F5D"/>
<path d="M44.9844 140.906L44.7591 144.655L44.0914 155.725H32.7397L32.0724 144.655L31.8467 140.906H44.9844Z" fill="#37474F"/>
<path d="M44.9844 140.906L44.7591 144.655H32.0724L31.8467 140.906H44.9844Z" fill="#192F5D"/>
<path d="M46.0319 138.253H30.7993V142.005H46.0319V138.253Z" fill="#37474F"/>
<path d="M109.676 77.9656H88.3242V79.75H109.676V77.9656Z" fill="#C7C7C7"/>
<path d="M107.133 77.9666H90.8667L91.2801 74.8699L91.3003 74.7238L91.3387 74.4331L91.3577 74.2874L91.3973 73.9967L91.4029 73.9516L91.4163 73.851L91.4559 73.5604L91.475 73.4142L91.7644 71.2505H106.236L106.509 73.2915L106.522 73.3897L106.567 73.7283L106.58 73.8265L106.597 73.9516L106.626 74.1646L106.638 74.2629L106.683 74.6026L106.697 74.6993L107.133 77.9666Z" fill="#DBDBDB"/>
<path d="M106.597 73.9516L91.4749 73.4142L91.7643 71.2505H106.236L106.597 73.9516Z" fill="#C7C7C7"/>
<path d="M126.393 35.1204H71.6072V72.3737H126.393V35.1204Z" fill="#192F5D"/>
<path d="M126.393 66.8784H71.6072V72.3737H126.393V66.8784Z" fill="#DBDBDB"/>
<path d="M99.9077 69.2565C99.9077 69.7578 99.5014 70.1641 99 70.1641C98.4987 70.1641 98.0924 69.7578 98.0924 69.2565C98.0924 68.7552 98.4987 68.3489 99 68.3489C99.5014 68.3489 99.9077 68.7552 99.9077 69.2565Z" fill="#37474F"/>
<path d="M123.865 37.5422H74.1353V64.294H123.865V37.5422Z" fill="white"/>
<path d="M123.865 37.5422H74.1353V64.294H123.865V37.5422Z" fill="white"/>
<path d="M123.865 37.5422H74.1353V38.7528H123.865V37.5422Z" fill="#455A64"/>
<path d="M75.0243 38.1478C75.0243 38.2611 74.9329 38.3526 74.8196 38.3526C74.7063 38.3526 74.6149 38.2611 74.6149 38.1478C74.6149 38.035 74.7063 37.9431 74.8196 37.9431C74.9329 37.9431 75.0243 38.0346 75.0243 38.1478Z" fill="#C7C7C7"/>
<path d="M75.8603 38.1478C75.8603 38.2611 75.7688 38.3526 75.6555 38.3526C75.5423 38.3526 75.4508 38.2611 75.4508 38.1478C75.4508 38.035 75.5423 37.9431 75.6555 37.9431C75.7688 37.9431 75.8603 38.0346 75.8603 38.1478Z" fill="white"/>
<path d="M76.6963 38.1478C76.6963 38.2611 76.6049 38.3526 76.4916 38.3526C76.3787 38.3526 76.2869 38.2611 76.2869 38.1478C76.2869 38.035 76.3783 37.9431 76.4916 37.9431C76.6045 37.9431 76.6963 38.0346 76.6963 38.1478Z" fill="#2054D2" fill-opacity="0.4"/>
<path d="M95.8638 49.4708L94.9304 48.752C96.2277 47.0682 98.4608 46.3693 100.487 47.0136C102.186 47.5533 103.492 48.969 103.895 50.7075L102.747 50.9736C102.437 49.6383 101.435 48.5509 100.13 48.1366C98.5744 47.6416 96.8597 48.1782 95.8638 49.4708Z" fill="#2054D2" fill-opacity="0.4"/>
<path d="M101.573 50.3623L103.224 53.2067L104.863 50.3547L101.573 50.3623Z" fill="#2054D2" fill-opacity="0.4"/>
<g opacity="0.2">
<path d="M95.8638 49.4708L94.9304 48.752C96.2277 47.0682 98.4608 46.3693 100.487 47.0136C102.186 47.5533 103.492 48.969 103.895 50.7075L102.747 50.9736C102.437 49.6383 101.435 48.5509 100.13 48.1366C98.5744 47.6416 96.8597 48.1782 95.8638 49.4708Z" fill="black"/>
<path d="M101.573 50.3623L103.224 53.2067L104.863 50.3547L101.573 50.3623Z" fill="black"/>
</g>
<path d="M97.5132 56.4078C95.8143 55.8681 94.5083 54.4528 94.1056 52.7144L95.2532 52.4482C95.5629 53.7836 96.5655 54.8706 97.87 55.2852C99.5074 55.8055 101.321 55.1751 102.279 53.7519L103.256 54.41C102.007 56.2641 99.6456 57.0854 97.5132 56.4078Z" fill="#2054D2" fill-opacity="0.4"/>
<path d="M96.4269 53.0596L94.7759 50.2151L93.1377 53.0671L96.4269 53.0596Z" fill="#2054D2" fill-opacity="0.4"/>
<path d="M79.0154 57.2397H47.5255V78.3042H79.0154V57.2397Z" fill="#DBDBDB"/>
<path d="M78.7865 57.4966H47.7544V78.047H78.7865V57.4966Z" fill="#192F5D"/>
<path d="M83.1167 78.3037H43.4241V79.7495H83.1167V78.3037Z" fill="#C7C7C7"/>
<path d="M77.0327 59.0576H49.5083V76.4852H77.0327V59.0576Z" fill="white"/>
<path d="M77.0327 59.0576H49.5083V59.7284H77.0327V59.0576Z" fill="#455A64"/>
<path d="M50.1395 59.3931C50.1395 59.4632 50.0824 59.5202 50.0127 59.5202C49.9426 59.5202 49.8856 59.4632 49.8856 59.3931C49.8856 59.323 49.9426 59.2664 50.0127 59.2664C50.0828 59.2664 50.1395 59.323 50.1395 59.3931Z" fill="#C7C7C7"/>
<path d="M50.6577 59.3931C50.6577 59.4632 50.6011 59.5202 50.531 59.5202C50.4609 59.5202 50.4043 59.4632 50.4043 59.3931C50.4043 59.323 50.4609 59.2664 50.531 59.2664C50.6011 59.2664 50.6577 59.323 50.6577 59.3931Z" fill="white"/>
<path d="M51.1757 59.3931C51.1757 59.4632 51.1187 59.5202 51.0486 59.5202C50.9785 59.5202 50.9219 59.4632 50.9219 59.3931C50.9219 59.323 50.9785 59.2664 51.0486 59.2664C51.1191 59.2664 51.1757 59.323 51.1757 59.3931Z" fill="#2054D2" fill-opacity="0.4"/>
<path d="M61.1297 66.2432L60.4926 65.7525C61.378 64.603 62.9026 64.1262 64.2858 64.5657C65.4457 64.9344 66.3367 65.9002 66.6119 67.0871L65.8287 67.2688C65.6172 66.3572 64.9329 65.6151 64.0423 65.332C62.9798 64.9946 61.8093 65.3605 61.1297 66.2432Z" fill="#2054D2" fill-opacity="0.4"/>
<path d="M65.0271 66.8513L66.1541 68.7929L67.2724 66.8462L65.0271 66.8513Z" fill="#2054D2" fill-opacity="0.4"/>
<g opacity="0.2">
<path d="M61.1297 66.2432L60.4926 65.7525C61.378 64.603 62.9026 64.1262 64.2858 64.5657C65.4457 64.9344 66.3367 65.9002 66.6119 67.0871L65.8287 67.2688C65.6172 66.3572 64.9329 65.6151 64.0423 65.332C62.9798 64.9946 61.8093 65.3605 61.1297 66.2432Z" fill="black"/>
<path d="M65.0271 66.8513L66.1541 68.7929L67.2724 66.8462L65.0271 66.8513Z" fill="black"/>
</g>
<path d="M62.2554 70.9783C61.0955 70.6097 60.2041 69.6438 59.9293 68.457L60.7126 68.2756C60.9241 69.1872 61.6084 69.9293 62.499 70.2125C63.6169 70.5677 64.8548 70.1372 65.5094 69.1658L66.1762 69.6153C65.3232 70.8801 63.7111 71.4413 62.2554 70.9783Z" fill="#2054D2" fill-opacity="0.4"/>
<path d="M61.5142 68.6928L60.3872 66.7512L59.2689 68.698L61.5142 68.6928Z" fill="#2054D2" fill-opacity="0.4"/>
<path d="M118.351 63.98H140.694C141.033 63.98 141.356 64.2548 141.416 64.5938L143.98 79.1361C144.04 79.4751 143.813 79.7499 143.474 79.7499H121.131C120.792 79.7499 120.469 79.4751 120.409 79.1361L117.845 64.5938C117.786 64.2548 118.012 63.98 118.351 63.98Z" fill="#192F5D"/>
<path d="M140.695 63.98H118.352C118.013 63.98 117.69 64.2548 117.63 64.5938L115.066 79.1361C115.006 79.4751 115.232 79.7499 115.571 79.7499H137.915C138.254 79.7499 138.577 79.4751 138.636 79.1361L141.201 64.5938C141.26 64.2548 141.034 63.98 140.695 63.98Z" fill="#2054D2" fill-opacity="0.4"/>
<path opacity="0.2" d="M140.695 63.98H118.352C118.013 63.98 117.69 64.2548 117.63 64.5938L115.066 79.1361C115.006 79.4751 115.232 79.7499 115.571 79.7499H137.915C138.254 79.7499 138.577 79.4751 138.636 79.1361L141.201 64.5938C141.26 64.2548 141.034 63.98 140.695 63.98Z" fill="#192F5D"/>
<path d="M139.556 64.645L137.013 79.0658H116.728L119.27 64.645H139.556Z" fill="white"/>
<path opacity="0.2" d="M117.002 73.5806C116.934 73.5806 116.889 73.5255 116.901 73.4578L117.463 70.2712C117.475 70.2035 117.54 70.1484 117.607 70.1484C117.675 70.1484 117.72 70.2035 117.708 70.2712L117.146 73.4578C117.134 73.5259 117.07 73.5806 117.002 73.5806Z" fill="#192F5D"/>
<path opacity="0.2" d="M139.523 71.8646C139.48 72.1097 139.247 72.3085 139.002 72.3085C138.756 72.3085 138.593 72.1097 138.636 71.8646C138.679 71.6194 138.913 71.4207 139.158 71.4207C139.403 71.4207 139.567 71.6194 139.523 71.8646Z" fill="#192F5D"/>
<path d="M139.556 64.6453L137.013 79.066H116.728L119.27 64.6453H139.556Z" fill="white"/>
<path d="M139.468 65.1406H119.183L119.27 64.6448H139.556L139.468 65.1406Z" fill="#455A64"/>
<path d="M119.618 64.8926C119.608 64.9489 119.554 64.9944 119.498 64.9944C119.442 64.9944 119.405 64.9489 119.415 64.8926C119.424 64.8364 119.478 64.7913 119.534 64.7913C119.59 64.7913 119.628 64.8364 119.618 64.8926Z" fill="#C7C7C7"/>
<path d="M120.032 64.8926C120.022 64.9489 119.969 64.9944 119.913 64.9944C119.856 64.9944 119.819 64.9489 119.829 64.8926C119.839 64.8364 119.892 64.7913 119.949 64.7913C120.005 64.7913 120.042 64.8364 120.032 64.8926Z" fill="white"/>
<path d="M120.447 64.8926C120.437 64.9489 120.384 64.9944 120.327 64.9944C120.271 64.9944 120.234 64.9489 120.244 64.8926C120.254 64.8364 120.307 64.7913 120.363 64.7913C120.42 64.7913 120.457 64.8364 120.447 64.8926Z" fill="#2054D2" fill-opacity="0.4"/>
<path d="M126.644 70.6323L126.203 70.2394C127.074 69.3191 128.361 68.9374 129.407 69.2894C130.283 69.5844 130.86 70.3578 130.913 71.3078L130.26 71.4532C130.22 70.7233 129.777 70.1293 129.104 69.9028C128.301 69.6328 127.312 69.9258 126.644 70.6323Z" fill="#2054D2" fill-opacity="0.4"/>
<path d="M129.678 71.1193L130.306 72.6733L131.476 71.115L129.678 71.1193Z" fill="#2054D2" fill-opacity="0.4"/>
<g opacity="0.2">
<path d="M126.644 70.6323L126.203 70.2394C127.074 69.3191 128.361 68.9374 129.407 69.2894C130.283 69.5844 130.86 70.3578 130.913 71.3078L130.26 71.4532C130.22 70.7233 129.777 70.1293 129.104 69.9028C128.301 69.6328 127.312 69.9258 126.644 70.6323Z" fill="black"/>
<path d="M129.678 71.1193L130.306 72.6733L131.476 71.115L129.678 71.1193Z" fill="black"/>
</g>
<path d="M126.876 74.4228C126 74.1278 125.423 73.3544 125.37 72.4044L126.023 72.259C126.063 72.9889 126.507 73.5829 127.18 73.8094C128.024 74.0937 129.076 73.7492 129.737 72.9714L130.208 73.331C129.346 74.3444 127.977 74.793 126.876 74.4228Z" fill="#2054D2" fill-opacity="0.4"/>
<path d="M126.606 72.5927L125.978 71.0388L124.808 72.5971L126.606 72.5927Z" fill="#2054D2" fill-opacity="0.4"/>
<path d="M137.843 112.179L136.819 118.32L129.882 155.785H128.763L133.808 118.32L134.553 112.179H137.843Z" fill="#C7C7C7"/>
<path d="M134.553 112.179H137.843L136.819 118.32H133.808L134.553 112.179Z" fill="#A6A6A6"/>
<path d="M159.629 155.785H158.511L151.573 118.32L150.549 112.179H153.839L154.584 118.32L159.629 155.785Z" fill="#C7C7C7"/>
<path d="M153.839 112.179L154.584 118.32H151.573L150.549 112.179H153.839Z" fill="#A6A6A6"/>
<path d="M180.437 155.785H179.319L172.382 118.32L171.358 112.179H174.647L175.393 118.32L180.437 155.785Z" fill="#C7C7C7"/>
<path d="M175.393 118.32H172.382L171.358 112.179H174.647L175.393 118.32Z" fill="#A6A6A6"/>
<path d="M178.664 115.064H127.829V109.708H146.859L153.254 64.5767H176.726L178.664 115.064Z" fill="#C7C7C7"/>
<path d="M175.702 109.708H127.829V115.064H175.893L175.702 109.708Z" fill="#DBDBDB"/>
<path d="M178.664 115.064H175.893L174.087 64.5767H176.726L178.664 115.064Z" fill="#DBDBDB"/>
<path d="M126.951 163.32C127.936 163.412 154.732 157.001 155.575 156.131C155.678 156.034 155.149 153.599 154.371 150.278L154.356 150.212C153.871 148.107 146.046 131.081 146.046 131.081L128.679 135.942L136.587 151.739C136.587 151.739 133.32 154.103 130.52 156.347C130.516 156.351 130.513 156.352 130.514 156.356C128.784 157.734 127.293 158.972 126.976 159.373C126.157 160.419 125.968 163.235 126.951 163.32Z" fill="#A3A3A3"/>
<path d="M126.952 163.318C127.934 163.412 154.73 156.999 155.577 156.131C155.679 156.032 155.148 153.6 154.372 150.277L154.356 150.214C154.178 149.429 152.972 146.568 151.537 143.288C148.679 144.06 138.434 146.839 134.712 147.994L136.585 151.739C136.585 151.739 133.319 154.104 130.518 156.347C130.518 156.351 130.514 156.351 130.514 156.355C128.784 157.733 127.291 158.973 126.976 159.371C126.157 160.42 125.966 163.236 126.952 163.318Z" fill="white"/>
<path d="M126.863 163.447C127.876 163.534 154.69 157.049 155.557 156.155C155.887 155.818 155.289 151.586 153.816 147.104L136.534 151.305C136.534 151.305 127.712 158.303 126.867 159.385C126.028 160.466 125.851 163.36 126.863 163.447Z" fill="#2054D2" fill-opacity="0.4"/>
<path d="M126.989 162.281C131.457 161.084 149.592 156.675 154.099 155.832C154.136 155.824 154.142 155.849 154.106 155.86C149.703 157.143 131.533 161.404 127.006 162.355C126.911 162.375 126.894 162.307 126.989 162.281Z" fill="#192F5D"/>
<path d="M128.359 158.004C129.414 157.702 130.579 157.956 131.314 158.451C132.02 158.925 132.705 159.668 132.898 160.608C132.904 160.635 132.855 160.647 132.844 160.621C132.162 158.924 130.189 157.766 128.373 158.06C128.336 158.066 128.323 158.013 128.359 158.004Z" fill="#192F5D"/>
<path d="M135.233 152.097C137.026 151.637 139.266 151.767 140.74 152.968C140.797 153.015 140.73 153.095 140.67 153.081C138.84 152.636 137.143 152.385 135.256 152.326C135.123 152.322 135.105 152.13 135.233 152.097Z" fill="#192F5D"/>
<path d="M133.975 152.974C135.768 152.514 138.008 152.645 139.482 153.846C139.539 153.892 139.472 153.973 139.411 153.958C137.582 153.513 135.885 153.262 133.998 153.203C133.865 153.199 133.847 153.007 133.975 152.974Z" fill="#192F5D"/>
<path d="M132.717 153.851C134.51 153.391 136.75 153.522 138.224 154.723C138.281 154.769 138.214 154.85 138.154 154.835C136.325 154.39 134.628 154.14 132.74 154.081C132.607 154.076 132.589 153.885 132.717 153.851Z" fill="#192F5D"/>
<path d="M131.459 154.729C133.252 154.268 135.492 154.399 136.966 155.6C137.023 155.646 136.956 155.727 136.896 155.713C135.066 155.267 133.369 155.017 131.482 154.958C131.349 154.953 131.331 154.761 131.459 154.729Z" fill="#192F5D"/>
<path d="M151.922 151.839C153.942 151.357 154.695 154.495 152.671 154.978C150.652 155.46 149.899 152.322 151.922 151.839Z" fill="#192F5D"/>
<path d="M132.909 150.368C134.183 151.386 135.853 151.817 137.348 152.393C137.503 152.453 137.629 152.308 137.636 152.17C137.666 152.165 137.691 152.142 137.68 152.105C137.204 150.579 136.149 148.949 134.933 147.9C134.181 147.251 132.856 146.791 132.128 147.766C131.439 148.689 132.165 149.774 132.909 150.368ZM132.465 148.898C132.17 146.897 134.3 147.974 134.835 148.474C135.178 148.795 135.489 149.164 135.786 149.528C136.406 150.292 136.906 151.13 137.444 151.949C136.727 151.621 135.988 151.357 135.26 151.056C134.391 150.697 132.627 150.001 132.465 148.898Z" fill="#192F5D"/>
<path d="M143.792 149.412C143.366 148.271 141.965 148.342 141.062 148.753C139.599 149.419 138.13 150.687 137.245 152.018C137.223 152.051 137.241 152.08 137.269 152.093C137.237 152.228 137.317 152.403 137.483 152.389C139.08 152.255 140.803 152.31 142.312 151.691C143.192 151.329 144.193 150.491 143.792 149.412ZM139.862 151.691C139.078 151.776 138.295 151.822 137.515 151.935C138.261 151.3 138.976 150.636 139.786 150.077C140.172 149.81 140.574 149.544 140.995 149.332C141.648 149.002 143.994 148.566 143.15 150.404C142.684 151.417 140.796 151.59 139.862 151.691Z" fill="#192F5D"/>
<path d="M134.621 150.294L153.228 144.713C153.228 144.713 137.891 112.752 138.375 111.126C138.698 110.04 161.692 109.965 168.432 103.914C175.407 97.6503 169.976 85.3473 169.976 85.3473L150.643 85.2476C150.643 85.2476 150.976 89.2828 150.237 89.9105C149.75 90.3286 123.317 92.6547 118.255 102.373C113.661 111.195 134.621 150.294 134.621 150.294Z" fill="#192F5D"/>
<path d="M138.373 111.125C138.29 111.399 138.663 112.548 139.344 114.266L125.449 131.338C120.494 120.041 115.835 107.015 118.254 102.374C123.318 92.6564 149.747 90.3291 150.238 89.9113C150.973 89.2844 150.642 85.2468 150.642 85.2468L162.913 85.3102L142.518 110.36C140.062 110.632 138.457 110.843 138.373 111.125Z" fill="#192F5D"/>
<path d="M134.159 146.358C134.64 146.114 135.169 145.966 135.676 145.794C136.212 145.611 136.749 145.427 137.289 145.254C138.35 144.912 139.417 144.585 140.489 144.282C142.65 143.671 144.814 143.072 146.991 142.519C148.126 142.23 150.556 141.601 150.707 141.624C150.78 141.635 150.796 141.757 150.731 141.78C148.628 142.533 146.492 143.177 144.357 143.828C142.225 144.478 140.089 145.121 137.928 145.667C137.329 145.818 136.727 145.952 136.127 146.095C135.498 146.246 134.863 146.447 134.214 146.505C134.152 146.511 134.091 146.392 134.159 146.358Z" fill="#455A64"/>
<path d="M168.937 89.0302C168.878 88.3847 168.805 87.7408 168.732 87.0965C168.724 87.0221 168.607 87.0229 168.614 87.0989C168.872 89.7133 169.137 92.3898 168.656 94.9951C168.206 97.4321 167.012 99.5646 165.203 101.252C161.367 104.829 156.004 105.882 151.007 106.732C148.145 107.219 145.266 107.593 142.376 107.877C140.961 108.016 139.543 108.129 138.124 108.218C136.718 108.305 135.308 108.319 133.902 108.397C133.458 108.422 133.062 108.625 133.131 109.132C133.173 109.44 133.346 109.739 133.469 110.02C133.619 110.362 133.77 110.704 133.921 111.045C134.486 112.322 135.053 113.598 135.624 114.872C136.801 117.497 137.995 120.114 139.205 122.725C141.608 127.907 144.102 133.048 146.682 138.143C147.003 138.776 147.324 139.408 147.646 140.04C147.667 140.081 147.726 140.043 147.707 140.003C145.241 134.841 142.8 129.667 140.398 124.475C139.206 121.899 138.011 119.324 136.831 116.741C136.241 115.45 135.655 114.158 135.072 112.863C134.781 112.216 134.491 111.569 134.201 110.921C134.056 110.597 133.911 110.273 133.767 109.949C133.647 109.68 133.21 109.034 133.511 108.782C133.713 108.614 134.132 108.672 134.374 108.665C134.747 108.654 135.121 108.64 135.495 108.628C136.206 108.604 136.916 108.576 137.626 108.54C139.064 108.468 140.501 108.369 141.936 108.245C144.746 108.001 147.548 107.645 150.332 107.197C155.298 106.398 160.698 105.497 164.673 102.163C166.426 100.693 167.803 98.8003 168.485 96.6041C169.243 94.1615 169.17 91.5491 168.937 89.0302Z" fill="#455A64"/>
<path d="M86.0691 138.822C86.7684 139.521 111.497 151.671 112.701 151.539C112.842 151.53 113.988 149.317 115.507 146.263L115.537 146.203C116.506 144.272 125.303 128.025 125.303 128.025L109.918 120.235L100.877 136.046C100.877 136.046 96.8533 135.784 93.2648 135.726C93.2596 135.728 93.2561 135.726 93.2541 135.729C91.0428 135.688 89.1048 135.69 88.6054 135.797C87.3074 136.081 85.3666 138.129 86.0691 138.822Z" fill="#A3A3A3"/>
<path d="M86.0687 138.82C86.7684 139.519 111.497 151.671 112.703 151.538C112.843 151.532 113.989 149.316 115.508 146.265L115.537 146.205C115.605 146.07 115.674 145.933 115.747 145.798C115.795 145.698 115.846 145.6 115.901 145.504C115.974 145.36 116.053 145.214 116.131 145.068C116.801 143.798 117.901 141.743 119.113 139.492L103.426 131.586L100.876 136.047C100.876 136.047 96.8534 135.786 93.2644 135.726C93.2589 135.728 93.2557 135.726 93.2537 135.729C91.0429 135.689 89.1037 135.69 88.6071 135.797C87.309 136.082 85.365 138.128 86.0687 138.82Z" fill="white"/>
<path d="M85.9202 138.864C86.6449 139.577 111.434 151.682 112.672 151.546C113.141 151.497 115.38 147.857 117.104 143.464L101.113 135.679C101.113 135.679 89.8553 135.443 88.5144 135.738C87.1783 136.035 85.1959 138.151 85.9202 138.864Z" fill="#2054D2" fill-opacity="0.4"/>
<path d="M86.76 138.046C90.9652 139.973 107.745 148.143 111.756 150.368C111.788 150.385 111.777 150.408 111.743 150.394C107.533 148.574 90.8198 140.269 86.7264 138.114C86.6405 138.068 86.6713 138.005 86.76 138.046Z" fill="#192F5D"/>
<path d="M90.5439 135.625C91.5489 136.066 92.2835 137.004 92.5342 137.854C92.7749 138.67 92.8296 139.678 92.3793 140.526C92.3663 140.55 92.3203 140.528 92.3291 140.501C92.8858 138.759 92.1041 136.608 90.5177 135.677C90.4865 135.658 90.5098 135.609 90.5439 135.625Z" fill="#192F5D"/>
<path d="M99.6055 135.459C101.28 136.248 102.922 137.777 103.291 139.642C103.305 139.714 103.202 139.733 103.166 139.684C102.04 138.174 100.893 136.899 99.4768 135.65C99.377 135.561 99.4855 135.403 99.6055 135.459Z" fill="#192F5D"/>
<path d="M98.0773 135.332C99.752 136.122 101.393 137.65 101.763 139.515C101.777 139.587 101.674 139.607 101.637 139.557C100.512 138.048 99.3651 136.773 97.9486 135.523C97.8488 135.435 97.9573 135.276 98.0773 135.332Z" fill="#192F5D"/>
<path d="M96.5487 135.206C98.2234 135.995 99.8648 137.524 100.234 139.389C100.249 139.461 100.146 139.48 100.109 139.431C98.9837 137.922 97.8365 136.646 96.42 135.397C96.3202 135.309 96.4287 135.149 96.5487 135.206Z" fill="#192F5D"/>
<path d="M95.0202 135.079C96.6948 135.869 98.3363 137.397 98.7057 139.262C98.72 139.335 98.6174 139.354 98.5802 139.304C97.4552 137.795 96.308 136.519 94.8915 135.27C94.7917 135.182 94.9002 135.023 95.0202 135.079Z" fill="#192F5D"/>
<path d="M112.624 145.904C114.488 146.82 113.066 149.718 111.2 148.8C109.336 147.883 110.758 144.985 112.624 145.904Z" fill="#192F5D"/>
<path d="M98.9176 132.645C99.2494 134.242 100.261 135.638 101.045 137.036C101.126 137.181 101.316 137.15 101.41 137.048C101.436 137.063 101.47 137.062 101.485 137.026C102.092 135.547 102.318 133.619 102.051 132.034C101.886 131.056 101.158 129.856 99.9753 130.143C98.8566 130.414 98.7236 131.714 98.9176 132.645ZM99.5136 131.23C100.563 129.501 101.517 131.688 101.61 132.414C101.669 132.881 101.674 133.363 101.669 133.833C101.66 134.817 101.511 135.781 101.403 136.755C101.06 136.045 100.659 135.37 100.29 134.674C99.8502 133.844 98.935 132.183 99.5136 131.23Z" fill="#192F5D"/>
<path d="M107.91 138.849C108.309 137.7 107.185 136.86 106.227 136.601C104.676 136.182 102.736 136.22 101.205 136.682C101.167 136.693 101.163 136.727 101.176 136.754C101.065 136.838 101.016 137.024 101.152 137.119C102.467 138.034 103.76 139.176 105.316 139.66C106.225 139.943 107.531 139.936 107.91 138.849ZM103.43 138.099C102.772 137.664 102.139 137.2 101.466 136.79C102.445 136.777 103.42 136.721 104.4 136.807C104.868 136.848 105.348 136.899 105.806 137.004C106.52 137.166 108.605 138.327 106.783 139.204C105.778 139.688 104.214 138.617 103.43 138.099Z" fill="#192F5D"/>
<path d="M100.954 133.488L119.506 142.758C119.506 142.758 133.985 113.319 135.575 111.422C137.692 108.893 165.276 112.464 171.782 104.297C178.51 95.8508 172.745 85.362 172.745 85.362L151.748 85.3489C151.748 85.3489 151.686 87.6778 152.896 91.0826C152.896 91.0826 128.887 89.6538 122.093 96.2579C116.878 101.327 100.954 133.488 100.954 133.488Z" fill="#192F5D"/>
<path d="M156.723 93.2018C155.64 92.4684 154.541 91.7746 153.384 91.1612C152.799 90.8516 151.6 90.3201 150.854 90.1392C150.242 89.9907 149.973 89.9459 150.547 90.2172C150.876 90.3724 151.506 90.6722 152.092 90.951C151.981 90.9474 151.872 90.9438 151.766 90.9387C151.354 90.9173 150.941 90.903 150.528 90.8923C149.721 90.8714 148.913 90.8765 148.105 90.8722C146.466 90.8626 144.844 91.0175 143.21 91.0995C143.167 91.1014 143.168 91.1684 143.212 91.1668C144.843 91.1137 146.481 91.2004 148.113 91.1937C148.921 91.1905 149.728 91.2135 150.536 91.2285C150.93 91.2361 151.325 91.2432 151.72 91.2495C152.045 91.2547 152.392 91.2808 152.722 91.2511C152.897 91.3343 153.057 91.4099 153.172 91.4642C154.359 92.0241 155.544 92.6082 156.687 93.2525C156.721 93.2715 156.757 93.2248 156.723 93.2018Z" fill="#455A64"/>
<path d="M151.253 84.5637C151.466 85.5545 151.649 86.5516 151.897 87.5345C152.011 87.9851 152.123 88.4441 152.278 88.8832C152.408 89.2539 152.61 89.6784 153.03 89.7746C153.515 89.8851 153.668 89.4721 153.642 89.0682C153.612 88.6171 153.513 88.1625 153.439 87.717C153.354 87.2034 153.268 86.6902 153.192 86.1754C153.154 85.9176 153.114 85.6606 153.08 85.4024C153.071 85.3375 153.039 84.8456 153.009 84.7039C153.005 84.7153 152.997 84.7268 152.982 84.7241C152.976 84.7229 152.971 84.7221 152.965 84.7209C152.952 84.7185 152.937 84.7094 152.936 84.6947C152.932 84.6559 152.933 84.648 152.963 84.6219C152.976 84.6104 152.993 84.612 153.007 84.6199C153.099 84.6742 153.101 84.8025 153.128 84.8975C153.199 85.149 153.271 85.3996 153.336 85.6531C153.456 86.1263 153.572 86.6011 153.676 87.0787C153.779 87.5555 153.879 88.0334 153.98 88.511C154.055 88.8682 154.146 89.2448 154.038 89.6055C153.92 89.9996 153.596 90.1893 153.246 90.2079C153.262 90.2407 153.281 90.2716 153.294 90.3053C153.334 90.4035 153.362 90.5076 153.395 90.6078C153.429 90.7108 153.459 90.8129 153.485 90.9183C153.498 90.9682 153.505 91.0197 153.509 91.0707C153.513 91.1282 153.5 91.1832 153.505 91.2402C153.513 91.3285 153.392 91.3784 153.351 91.2897C153.327 91.2383 153.291 91.1987 153.264 91.1492C153.235 91.0977 153.216 91.0383 153.199 90.9824C153.169 90.883 153.144 90.784 153.122 90.6827C153.101 90.5825 153.073 90.4819 153.058 90.3805C153.05 90.3203 153.049 90.2593 153.046 90.1988C152.847 90.1718 152.65 90.0966 152.487 89.9643C152.201 89.7327 152.041 89.3889 151.93 89.0472C151.796 88.6334 151.695 88.2061 151.594 87.7828C151.344 86.7353 151.137 85.6729 151.074 84.5961C151.067 84.4825 151.227 84.4465 151.253 84.5637Z" fill="#455A64"/>
<path d="M161.376 87.3844C161.448 87.8747 161.488 88.3693 161.584 88.8564C161.679 89.3332 161.791 89.8103 161.931 90.2752C162.065 90.72 162.234 91.1702 162.488 91.5618C162.734 91.9416 163.065 92.2731 163.409 92.5649C164.083 93.1375 164.851 93.6009 165.673 93.9272C166.086 94.0915 166.511 94.2337 166.942 94.3457C167.166 94.4043 167.394 94.4511 167.623 94.4887C167.814 94.5196 168.003 94.533 168.171 94.6352C168.242 94.6788 168.226 94.7932 168.154 94.8261C167.855 94.9607 167.445 94.8673 167.132 94.8241C166.766 94.7738 166.404 94.6998 166.048 94.596C165.333 94.3869 164.644 94.0602 164.017 93.6583C163.402 93.2639 162.786 92.7764 162.342 92.1915C161.882 91.5848 161.637 90.8819 161.489 90.1414C161.313 89.254 161.203 88.2925 161.281 87.3888C161.286 87.3361 161.368 87.3302 161.376 87.3844Z" fill="#455A64"/>
<path d="M104.719 130.113C105.236 130.266 105.723 130.522 106.209 130.744C106.725 130.98 107.241 131.214 107.753 131.459C108.759 131.939 109.758 132.434 110.747 132.95C112.737 133.989 114.722 135.04 116.684 136.132C117.707 136.701 119.907 137.913 120 138.033C120.046 138.091 119.974 138.19 119.911 138.163C117.865 137.266 115.87 136.269 113.87 135.276C111.874 134.285 109.88 133.285 107.934 132.198C107.395 131.897 106.865 131.581 106.33 131.274C105.769 130.952 105.169 130.662 104.658 130.258C104.609 130.22 104.646 130.091 104.719 130.113Z" fill="#455A64"/>
<path d="M172.731 90.2441C172.729 90.1546 172.59 90.157 172.591 90.2469C172.631 94.806 171.927 99.9041 168.418 103.174C164.57 106.76 159.019 107.187 154.024 107.146C151.156 107.122 148.294 107.048 145.426 107.14C142.546 107.231 139.637 107.373 136.777 107.738C135.622 107.886 134.654 108.301 133.839 109.143C133.047 109.961 132.478 110.972 131.893 111.941C130.451 114.331 129.053 116.747 127.701 119.189C125.015 124.043 122.531 129.005 120.243 134.059C119.959 134.686 119.678 135.316 119.399 135.946C119.381 135.988 119.442 136.023 119.462 135.981C121.784 130.907 124.295 125.92 126.961 121.017C128.293 118.565 129.672 116.138 131.096 113.737C131.766 112.609 132.413 111.454 133.16 110.374C133.819 109.42 134.644 108.523 135.787 108.177C136.475 107.968 137.21 107.931 137.923 107.866C138.655 107.799 139.388 107.739 140.122 107.685C141.551 107.58 142.982 107.502 144.414 107.45C147.305 107.345 150.191 107.38 153.083 107.432C158.102 107.523 163.585 107.351 167.747 104.156C169.546 102.774 170.844 100.879 171.615 98.7538C172.4 96.5865 172.681 94.2603 172.733 91.9659C172.746 91.3921 172.744 90.8179 172.731 90.2441Z" fill="#455A64"/>
<path d="M142.682 110.213C141.658 110.232 140.634 110.274 139.611 110.309C138.759 110.337 137.903 110.329 137.069 110.536C136.295 110.729 135.679 110.822 135.045 111.689C134.253 112.771 129.943 121.098 128.133 124.785C127.631 125.807 127.135 126.832 126.649 127.862C126.147 128.925 125.702 130.015 125.202 131.079C125.184 131.118 125.241 131.151 125.261 131.112C125.704 130.222 126.198 129.356 126.655 128.473C127.113 127.59 127.558 126.699 128.003 125.809C128.901 124.012 129.799 122.214 130.702 120.419C131.598 118.64 132.686 116.906 133.595 115.134C134.358 113.644 135.401 111.611 136.128 111.31C136.985 110.955 138.38 110.604 139.298 110.54C140.426 110.461 141.556 110.392 142.683 110.295C142.735 110.29 142.734 110.212 142.682 110.213Z" fill="#455A64"/>
<path d="M160.936 64.0278C155.399 71.281 144.62 79.924 141.089 79.2085C139.408 78.8683 136.33 78.6216 134.548 76.2207C130.659 70.982 128.917 63.8595 127.718 60.3114C127.173 58.7008 137.352 53.7809 138.239 55.3677C140.316 59.0826 142.192 65.8965 142.687 65.9647C144.519 66.2177 152.767 61.7374 158.65 58.8038C165.242 55.5174 163.143 61.1374 160.936 64.0278Z" fill="#A3A3A3"/>
<path d="M128.788 62.1647C127.985 60.9838 124.779 55.2481 124.244 53.4527C123.709 51.6568 122.543 46.3777 123.877 45.8281C125.211 45.2788 125.675 46.7971 125.675 46.7971C125.675 46.7971 125.536 44.49 126.929 44.0592C128.322 43.6287 128.967 46.0142 128.967 46.0142C128.967 46.0142 128.997 43.6343 130.418 43.3044C131.838 42.9741 132.085 45.4816 132.085 45.4816C132.085 45.4816 132.011 43.3044 133.295 43.5246C134.84 43.7895 134.523 47.8184 135.263 49.7568C135.43 50.1972 139.301 58.4355 139.301 58.4355L128.788 62.1647Z" fill="#A3A3A3"/>
<path d="M132.059 45.2672C131.833 48.2308 132.247 49.5665 133.616 52.1524C133.643 52.2031 133.573 52.2542 133.541 52.2039C131.969 49.7939 131.209 48.1932 131.916 45.249C131.95 45.1048 132.07 45.1262 132.059 45.2672Z" fill="#192F5D"/>
<path d="M128.989 45.7792C129.023 48.8775 129.459 50.3304 130.694 53.144C130.712 53.184 130.646 53.2176 130.625 53.1788C129.183 50.5201 128.46 48.906 128.833 45.8053C128.85 45.6651 128.988 45.6374 128.989 45.7792Z" fill="#192F5D"/>
<path d="M125.743 46.938C125.992 49.9358 126.402 51.5491 127.951 54.1266C127.987 54.1872 127.902 54.2466 127.86 54.1892C126.024 51.7142 125.498 49.7049 125.652 46.9555C125.663 46.7682 125.727 46.7499 125.743 46.938Z" fill="#192F5D"/>
<path d="M132.391 42.4866L137.117 55.3835C137.248 55.7395 137.067 56.0349 136.715 56.0417L130.407 56.166C130.054 56.1727 129.663 55.8892 129.532 55.5328L124.805 42.6359C124.675 42.2791 124.854 41.9845 125.207 41.9777L131.515 41.8534C131.868 41.8467 132.26 42.1298 132.391 42.4866Z" fill="#37474F"/>
<path d="M131.904 41.8461L125.596 41.9704C125.244 41.9775 125.064 42.2718 125.195 42.6286L129.921 55.5255C130.052 55.8815 130.444 56.1654 130.796 56.1587L137.104 56.0343C137.456 56.0272 137.637 55.7322 137.507 55.3762L132.78 42.4793C132.649 42.1225 132.256 41.8393 131.904 41.8461ZM136.961 54.9853C137.086 55.3247 136.93 55.6047 136.615 55.6106L130.971 55.7219C130.655 55.7282 130.299 55.4586 130.174 55.1192L125.772 43.1097C125.519 42.4183 125.762 42.3795 126.079 42.3731L127.209 42.351C127.275 42.3498 127.356 42.4226 127.39 42.5145L127.404 42.5541C127.483 42.7695 127.602 42.768 127.748 42.7652L130.362 42.7137C130.508 42.7109 130.626 42.7078 130.547 42.4923L130.533 42.4527C130.499 42.3609 130.525 42.2856 130.592 42.2844L131.722 42.2623C132.037 42.2559 132.327 42.343 132.559 42.9762L136.961 54.9853Z" fill="#192F5D"/>
<path d="M132.56 42.9757L136.961 54.9851C137.086 55.3245 136.93 55.6045 136.615 55.6104L130.971 55.7217C130.655 55.728 130.299 55.4584 130.174 55.119L125.772 43.1095C125.519 42.4181 125.762 42.3793 126.079 42.3729L127.209 42.3508C127.275 42.3496 127.356 42.4224 127.39 42.5143L127.404 42.5539C127.483 42.7693 127.602 42.7678 127.748 42.765L130.362 42.7135C130.508 42.7107 130.626 42.7076 130.547 42.4921L130.533 42.4525C130.499 42.3607 130.525 42.2854 130.592 42.2842L131.722 42.2621C132.038 42.2553 132.327 42.3425 132.56 42.9757Z" fill="white"/>
<path d="M132.56 42.9757L132.952 44.0449L126.165 44.1787L125.773 43.1095C125.52 42.4181 125.763 42.3793 126.08 42.3729L127.21 42.3508C127.276 42.3496 127.357 42.4224 127.39 42.5143L127.405 42.5539C127.484 42.7693 127.603 42.7678 127.748 42.765L130.362 42.7135C130.509 42.7107 130.627 42.7076 130.548 42.4921L130.533 42.4525C130.5 42.3607 130.525 42.2854 130.592 42.2842L131.723 42.2621C132.038 42.2553 132.328 42.3425 132.56 42.9757Z" fill="#2054D2" fill-opacity="0.4"/>
<path d="M127.113 42.6242C127.111 42.6278 127.108 42.6318 127.106 42.6353C127.105 42.6373 127.103 42.6397 127.102 42.6417C127.062 42.6139 127.022 42.5997 126.981 42.6005C126.94 42.6013 126.91 42.6171 126.891 42.646C126.889 42.644 126.886 42.6421 126.883 42.6401C126.878 42.6365 126.873 42.633 126.868 42.6294H126.868V42.629L126.868 42.6282C126.872 42.6242 126.874 42.6199 126.878 42.6159C126.885 42.6076 126.893 42.6009 126.902 42.5949C126.914 42.5882 126.926 42.5831 126.94 42.5799C126.946 42.5783 126.953 42.5775 126.96 42.5767C126.962 42.5763 126.978 42.5759 126.979 42.5759C126.983 42.5763 126.988 42.5763 126.993 42.5767C127.007 42.5779 127.021 42.5807 127.036 42.585C127.046 42.5882 127.056 42.5922 127.066 42.5969C127.077 42.6017 127.088 42.6072 127.098 42.6139C127.103 42.6175 127.108 42.6207 127.113 42.6242Z" fill="white"/>
<path d="M126.939 42.6793C126.931 42.6737 126.924 42.6682 126.916 42.6626C126.928 42.6432 126.947 42.6306 126.973 42.6262C127.012 42.6199 127.051 42.6314 127.091 42.6591C127.088 42.665 127.084 42.6706 127.08 42.6765C127.054 42.6579 127.027 42.6484 126.999 42.6488C126.971 42.6492 126.952 42.6599 126.939 42.6793Z" fill="white"/>
<path d="M127.069 42.6937C127.066 42.6993 127.062 42.7052 127.058 42.7112C127.045 42.7017 127.031 42.6965 127.017 42.6969C127.002 42.6973 126.992 42.7029 126.986 42.7128C126.978 42.7072 126.97 42.7017 126.962 42.6961C126.979 42.6668 127.028 42.6636 127.069 42.6937Z" fill="white"/>
<path d="M127.044 42.7273C127.047 42.7358 127.042 42.743 127.034 42.7434C127.025 42.7434 127.015 42.7366 127.012 42.7281C127.009 42.7196 127.013 42.7123 127.022 42.7119C127.031 42.7115 127.041 42.7184 127.044 42.7273Z" fill="white"/>
<path d="M126.06 42.6779C126.051 42.6533 126.064 42.6327 126.089 42.6323C126.114 42.6319 126.141 42.6513 126.15 42.6763C126.159 42.7008 126.147 42.7214 126.122 42.7218C126.097 42.7222 126.069 42.7024 126.06 42.6779Z" fill="white"/>
<path d="M126.202 42.6752C126.193 42.6506 126.206 42.63 126.231 42.6296C126.256 42.6292 126.283 42.6487 126.292 42.6736C126.301 42.6982 126.288 42.7187 126.263 42.7191C126.238 42.7195 126.211 42.6997 126.202 42.6752Z" fill="white"/>
<path d="M126.343 42.6723C126.334 42.6477 126.347 42.6271 126.372 42.6267C126.397 42.6263 126.424 42.6457 126.433 42.6707C126.442 42.6952 126.429 42.7158 126.405 42.7162C126.38 42.7166 126.352 42.6968 126.343 42.6723Z" fill="white"/>
<path d="M126.485 42.6698C126.476 42.6453 126.489 42.6247 126.514 42.6243C126.539 42.6239 126.566 42.6433 126.575 42.6682C126.584 42.6928 126.571 42.7134 126.547 42.7138C126.522 42.7142 126.494 42.6944 126.485 42.6698Z" fill="white"/>
<path d="M126.627 42.6669C126.618 42.6423 126.63 42.6217 126.655 42.6213C126.68 42.6209 126.708 42.6404 126.717 42.6653C126.726 42.6899 126.713 42.7104 126.688 42.7108C126.663 42.7112 126.636 42.6914 126.627 42.6669Z" fill="white"/>
<path d="M131.931 42.6606L131.565 42.6678L131.503 42.4991L131.869 42.4919L131.931 42.6606ZM131.577 42.6492L131.906 42.6428L131.858 42.5113L131.529 42.5177L131.577 42.6492Z" fill="white"/>
<path d="M131.78 42.5227L131.544 42.5275L131.585 42.6387L131.821 42.634L131.78 42.5227Z" fill="white"/>
<path d="M131.95 42.6208L131.917 42.6212L131.884 42.5313L131.917 42.5305L131.95 42.6208Z" fill="white"/>
<path d="M129.313 42.4628L128.6 42.477C128.576 42.4774 128.549 42.4584 128.54 42.4343C128.531 42.4101 128.543 42.3903 128.568 42.3895L129.281 42.3753C129.305 42.3749 129.332 42.3939 129.341 42.418C129.35 42.4426 129.337 42.4624 129.313 42.4628Z" fill="white"/>
<path d="M130.114 47.8906L129.69 47.5885C129.874 47.0341 130.523 46.8784 131.305 47.2012C131.96 47.472 132.615 48.0435 133.014 48.6925L132.667 48.7388C132.361 48.2403 131.858 47.8015 131.354 47.5936C130.753 47.3453 130.255 47.4649 130.114 47.8906Z" fill="#2054D2" fill-opacity="0.4"/>
<path d="M132.177 48.4651L133.164 49.5707L133.287 48.6072L132.177 48.4651Z" fill="#2054D2" fill-opacity="0.4"/>
<g opacity="0.2">
<path d="M130.114 47.8906L129.69 47.5885C129.874 47.0341 130.523 46.8784 131.305 47.2012C131.96 47.472 132.615 48.0435 133.014 48.6925L132.667 48.7388C132.361 48.2403 131.858 47.8015 131.354 47.5936C130.753 47.3453 130.255 47.4649 130.114 47.8906Z" fill="black"/>
<path d="M132.177 48.4651L133.164 49.5707L133.287 48.6072L132.177 48.4651Z" fill="black"/>
</g>
<path d="M131.719 50.4822C131.064 50.2114 130.409 49.64 130.01 48.9909L130.357 48.9446C130.664 49.4431 131.167 49.8819 131.67 50.0898C132.301 50.3508 132.818 50.2015 132.928 49.7267L133.357 50.0086C133.216 50.6276 132.542 50.822 131.719 50.4822Z" fill="#2054D2" fill-opacity="0.4"/>
<path d="M130.846 49.2183L129.859 48.113L129.736 49.0765L130.846 49.2183Z" fill="#2054D2" fill-opacity="0.4"/>
<path d="M139.209 58.3922C139.209 58.3922 140.452 54.4635 140.103 52.7991C139.755 51.1351 137.163 49.207 135.83 48.4051C134.182 47.4143 133.746 48.9678 134.037 49.9657C134.531 51.6578 136.262 53.4945 136.374 53.5555C136.374 53.5555 132.773 55.3933 133.175 58.9165L139.209 58.3922Z" fill="#A3A3A3"/>
<path d="M139.945 58.332L128.285 64.8913C128.285 64.8913 132.378 75.8756 136.272 77.9498C140.166 80.0241 141.522 79.7667 142.705 79.7077C143.888 79.6487 153.49 74.0413 160.76 64.3417C167.628 55.1782 160.851 57.2572 155.64 60.0387C152.67 61.6239 143.349 65.513 143.033 65.3531C142.717 65.1927 139.945 58.332 139.945 58.332Z" fill="#2054D2" fill-opacity="0.4"/>
<path d="M145.514 78.3428C145.467 78.3744 145.419 78.4022 145.372 78.4299C144.96 77.7527 144.528 77.0914 144.053 76.4578C143.768 76.0776 143.463 75.7133 143.138 75.3649C143.055 75.2698 142.964 75.1787 142.873 75.0877C142.643 74.854 142.402 74.6322 142.148 74.4263C141.435 73.8323 140.608 73.4046 139.725 73.1512C138.838 72.8898 137.915 72.7592 136.988 72.7592C136.062 72.7512 135.131 72.8502 134.208 72.9849C133.793 73.0482 133.377 73.1156 132.961 73.1868C132.791 73.2146 132.62 73.2462 132.45 73.2779C132.391 73.2858 132.327 73.2977 132.268 73.3096C132.209 73.2106 132.149 73.1077 132.094 73.0087C132.114 73.0047 132.133 73.0007 132.149 72.9968C132.315 72.9651 132.482 72.9334 132.648 72.9057C133.147 72.8146 133.65 72.7235 134.157 72.6443C135.088 72.4978 136.038 72.4028 136.992 72.4186C137.943 72.4226 138.901 72.5651 139.816 72.8423C140.738 73.1156 141.602 73.5908 142.322 74.2164C142.612 74.462 142.881 74.7233 143.138 74.9966C143.225 75.0876 143.308 75.1827 143.392 75.2777C143.689 75.6143 143.966 75.9668 144.227 76.3311C144.694 76.9805 145.114 77.6537 145.514 78.3428ZM157.256 66.3915C156.273 65.5282 155.39 64.562 154.527 63.5759C154.456 63.4967 154.389 63.4175 154.321 63.3383H154.317C154.012 62.9898 153.711 62.6374 153.406 62.2889C153.165 62.0117 152.923 61.7345 152.674 61.4613C152.634 61.4811 152.595 61.5009 152.555 61.5167C152.809 61.8018 153.058 62.087 153.304 62.376C153.585 62.7008 153.862 63.0294 154.147 63.3581C154.21 63.4373 154.282 63.5165 154.349 63.5957C154.614 63.9046 154.88 64.2095 155.149 64.5144C155.771 65.2233 156.412 65.9123 157.109 66.5538C157.462 66.8786 157.826 67.1874 158.214 67.4726C158.273 67.4092 158.329 67.3498 158.376 67.2864C157.988 67.0132 157.612 66.7083 157.256 66.3915ZM159.849 64.3323C159.018 63.865 158.091 63.5838 157.161 63.4254C156.222 63.2591 155.268 63.2393 154.321 63.3383H154.317C154.262 63.3423 154.202 63.3502 154.147 63.3581C153.26 63.4611 152.389 63.6829 151.541 63.9561C150.638 64.2491 149.763 64.6055 148.896 64.9619C148.025 65.3144 147.158 65.6787 146.267 65.9282C145.38 66.1856 144.457 66.3202 143.55 66.237C143.099 66.1856 142.655 66.0905 142.219 65.9321C141.776 65.8094 141.36 65.6074 140.94 65.4213C140.113 65.0094 139.345 64.4867 138.612 63.9165C137.875 63.3502 137.178 62.7206 136.466 62.1028C136.038 61.7345 135.61 61.3702 135.163 61.0217L134.787 61.2356C135.27 61.6038 135.737 62.0038 136.2 62.4077C137.606 63.6393 139.028 64.9421 140.762 65.7896C141.202 65.9796 141.637 66.1856 142.101 66.3123C142.552 66.4707 143.031 66.5736 143.514 66.6212C144.485 66.7043 145.459 66.5538 146.37 66.2806C148.203 65.7341 149.866 64.8392 151.636 64.2412C152.519 63.9442 153.422 63.6987 154.345 63.5957H154.349C154.408 63.5878 154.468 63.5799 154.527 63.5759C155.39 63.4848 156.266 63.4967 157.125 63.6353C158.048 63.7779 158.95 64.0353 159.77 64.4788C159.98 64.5897 160.182 64.7085 160.38 64.8392C160.412 64.7996 160.443 64.756 160.471 64.7164C160.269 64.5778 160.063 64.4511 159.849 64.3323ZM148.793 73.6502C147.843 73.6858 146.9 73.868 145.985 74.0977C145.067 74.3392 144.172 74.6441 143.281 74.949C143.233 74.9649 143.186 74.9807 143.138 74.9966C143.051 75.0282 142.96 75.056 142.873 75.0877C142.12 75.3411 141.368 75.5906 140.604 75.7569C139.701 75.9588 138.774 76.042 137.875 75.8994C137.424 75.8242 136.988 75.7054 136.565 75.5193C136.129 75.3688 135.725 75.1431 135.313 74.9332C134.517 74.4738 133.781 73.9076 133.08 73.2938C133.04 73.2581 133.001 73.2225 132.961 73.1868C132.854 73.0958 132.751 73.0007 132.648 72.9057C132.201 72.4938 131.769 72.0622 131.329 71.6385C131.551 72.0503 131.781 72.4661 132.015 72.87C132.058 72.9136 132.102 72.9572 132.149 72.9968C132.248 73.0918 132.347 73.1868 132.45 73.2779C133.266 74.0303 134.133 74.7312 135.115 75.2896C135.543 75.5074 135.963 75.7371 136.418 75.8915C136.862 76.0777 137.337 76.2083 137.816 76.2836C138.778 76.4261 139.756 76.3311 140.683 76.1133C141.523 75.9153 142.334 75.646 143.138 75.3649C143.221 75.3332 143.308 75.3054 143.392 75.2777C144.279 74.957 145.158 74.6362 146.061 74.3907C146.96 74.1452 147.878 73.9551 148.805 73.9076C149.676 73.8521 150.559 73.9036 151.415 74.0818C151.486 74.0264 151.553 73.967 151.624 73.9036C150.702 73.6818 149.743 73.6066 148.793 73.6502Z" fill="white"/>
<path opacity="0.1" d="M144.775 78.7758C148.247 76.8049 155.187 71.7737 160.762 64.342C164.416 59.4648 164.203 57.7727 162.42 57.6733C160.545 59.8711 150.327 72.1123 144.775 78.7758Z" fill="#192F5D"/>
<path d="M140.342 61.5838C139.608 62.1421 138.778 62.5979 137.991 63.0783C137.17 63.5792 136.334 64.0532 135.501 64.532C134.668 65.01 131.271 66.8126 130.423 67.262C130.385 67.2822 130.354 67.226 130.391 67.2034C131.211 66.7005 134.462 64.709 135.281 64.2437C136.101 63.778 136.918 63.3064 137.751 62.8629C138.593 62.4146 139.435 61.9124 140.319 61.5517C140.337 61.5442 140.362 61.5687 140.342 61.5838Z" fill="#192F5D"/>
<path d="M146.998 90.4683L175.596 93.4855C175.73 93.3461 174.086 65.3021 165.99 58.409C164.712 57.3208 161.301 55.6861 157.61 60.3997C153.786 65.2839 146.998 90.4683 146.998 90.4683Z" fill="#2054D2" fill-opacity="0.4"/>
<path d="M175.507 91.5021C175.487 91.4823 175.468 91.4625 175.448 91.4427C174.913 90.9239 174.39 90.3933 173.844 89.8943C173.741 89.7993 173.638 89.7042 173.531 89.6131C173.492 89.5775 173.452 89.5419 173.412 89.5062C172.711 88.8924 171.979 88.3261 171.179 87.8668C170.767 87.6569 170.363 87.4312 169.928 87.2807C169.504 87.0946 169.068 86.9758 168.621 86.9005C167.718 86.758 166.791 86.8411 165.888 87.0431C165.124 87.2094 164.372 87.4589 163.623 87.7163C163.532 87.744 163.445 87.7717 163.354 87.8034C163.306 87.8193 163.259 87.8351 163.211 87.8509C162.32 88.1559 161.425 88.4608 160.507 88.6984C159.592 88.932 158.653 89.1142 157.699 89.1498C156.749 89.1934 155.79 89.1142 154.868 88.8964C153.945 88.6825 153.038 88.3459 152.238 87.8311C151.434 87.3203 150.729 86.6748 150.108 85.962C149.621 85.4037 149.181 84.8136 148.773 84.1998C148.789 84.1483 148.801 84.0969 148.817 84.0454C149.244 84.6829 149.704 85.2967 150.211 85.8709C150.828 86.5758 151.529 87.2055 152.325 87.6886C153.117 88.1796 154.004 88.4885 154.915 88.6865C155.822 88.8885 156.761 88.9479 157.687 88.8924C158.614 88.8409 159.533 88.6548 160.431 88.4093C161.334 88.1638 162.213 87.843 163.1 87.5223C163.184 87.4945 163.271 87.4668 163.354 87.4351C164.158 87.154 164.97 86.8847 165.809 86.6867C166.736 86.4689 167.714 86.3739 168.676 86.5164C169.155 86.5917 169.631 86.7223 170.074 86.9085C170.529 87.0629 170.949 87.2926 171.377 87.5104C172.359 88.0687 173.226 88.7697 174.046 89.5221C174.145 89.6131 174.248 89.7082 174.347 89.8032C174.727 90.1596 175.095 90.5279 175.464 90.8883C175.479 91.1061 175.495 91.312 175.507 91.5021ZM170.842 66.558C169.753 66.9738 168.68 67.4173 167.595 67.8133C166.716 68.1341 165.829 68.4192 164.918 68.5974C164.684 68.6449 164.451 68.6845 164.217 68.7123C164.17 68.7202 164.126 68.7281 164.083 68.7281C163.445 68.8073 162.8 68.8192 162.158 68.7598C161.239 68.6925 160.344 68.439 159.525 67.9995C158.705 67.5718 157.952 67.0095 157.256 66.3917C156.602 65.8135 155.988 65.1918 155.398 64.5503L155.327 64.7166C155.893 65.3542 156.479 65.9759 157.109 66.5541C157.806 67.1956 158.558 67.7817 159.398 68.241C160.229 68.7083 161.172 69.0013 162.13 69.0845C162.851 69.1518 163.58 69.136 164.296 69.0409C164.344 69.037 164.391 69.033 164.435 69.0251C164.617 69.0013 164.799 68.9697 164.981 68.934C165.92 68.7558 166.831 68.4707 167.714 68.1381C168.803 67.7302 169.872 67.2748 170.949 66.855C170.918 66.756 170.882 66.657 170.842 66.558ZM173.856 78.3628C173.642 78.3311 173.428 78.2915 173.214 78.24C172.315 78.042 171.464 77.6619 170.716 77.1114C169.963 76.5689 169.302 75.9076 168.696 75.1948C167.484 73.7692 166.494 72.1654 165.473 70.5853C165.132 70.0587 164.791 69.5399 164.435 69.0251C164.364 68.9221 164.292 68.8192 164.217 68.7123C164.11 68.5578 163.999 68.4034 163.889 68.2489C163.338 67.4847 162.748 66.7441 162.087 66.0709C161.425 65.3977 160.681 64.7919 159.849 64.3325C159.018 63.8652 158.091 63.5841 157.16 63.4257C156.764 63.3544 156.365 63.3108 155.965 63.291C155.929 63.3663 155.893 63.4455 155.858 63.5207C156.281 63.5286 156.705 63.5682 157.125 63.6355C158.048 63.7781 158.95 64.0355 159.77 64.479C160.59 64.9146 161.33 65.5007 161.988 66.166C162.764 66.9501 163.449 67.8213 164.083 68.7281C164.158 68.8311 164.229 68.934 164.296 69.0409C164.665 69.5716 165.013 70.1181 165.358 70.6606C165.865 71.4526 166.36 72.2485 166.878 73.0366C167.393 73.8246 167.932 74.6008 168.53 75.3373C169.128 76.066 169.789 76.759 170.553 77.3332C171.314 77.9113 172.205 78.339 173.139 78.5568C173.396 78.6162 173.654 78.6677 173.915 78.7073C173.899 78.5925 173.876 78.4776 173.856 78.3628ZM175.325 89.3043C174.897 89.3755 174.474 89.4508 174.046 89.5221C173.876 89.5537 173.705 89.5854 173.531 89.6131C173.115 89.6844 172.703 89.7517 172.288 89.8151C171.361 89.9497 170.434 90.0487 169.504 90.0408C168.577 90.0408 167.654 89.9101 166.767 89.6488C165.884 89.3953 165.057 88.9637 164.344 88.3737C164.094 88.1677 163.853 87.9499 163.623 87.7163C163.528 87.6252 163.441 87.5302 163.354 87.4351C163.029 87.0867 162.728 86.7223 162.443 86.3422C161.318 84.8453 160.424 83.1821 159.497 81.5466C159.038 80.7269 158.558 79.9151 158.055 79.1191C157.553 78.3232 157.006 77.551 156.384 76.8382C155.763 76.1254 155.058 75.4799 154.254 74.9691C153.541 74.5097 152.745 74.1929 151.929 73.983C151.91 74.0464 151.886 74.1137 151.866 74.181C152.674 74.379 153.458 74.6721 154.167 75.1116C154.963 75.5947 155.664 76.2244 156.281 76.9293C157.521 78.3351 158.471 79.9705 159.378 81.6139C159.837 82.4337 160.285 83.2613 160.756 84.0771C161.223 84.8928 161.711 85.7007 162.265 86.4689C162.526 86.8332 162.803 87.1857 163.1 87.5223C163.184 87.6173 163.267 87.7123 163.354 87.8034C163.611 88.0767 163.881 88.338 164.17 88.5835C164.89 89.2092 165.758 89.6844 166.676 89.9577C167.591 90.2349 168.549 90.3774 169.5 90.3814C170.454 90.3972 171.405 90.3022 172.335 90.1517C172.842 90.0725 173.345 89.9854 173.844 89.8943C174.014 89.8626 174.181 89.8309 174.347 89.8032C174.683 89.7399 175.02 89.6805 175.357 89.6171C175.345 89.5141 175.337 89.4112 175.325 89.3043Z" fill="white"/>
<path d="M169.934 64.0995C171.453 67.5915 176.314 82.7987 175.679 85.8332C174.529 91.3269 157.122 94.1104 153.396 95.3804C151.841 95.9102 147.812 84.4848 149.111 83.304C149.987 82.5072 163.369 80.6108 163.976 79.4465C164.583 78.2827 164.718 70.4534 164.141 64.1692C163.591 58.1841 166.715 56.6983 169.934 64.0995Z" fill="#A3A3A3"/>
<path d="M145.693 82.8162C141.859 83.1623 140.928 83.8399 137.537 82.4135C135.311 81.4777 133.759 82.4967 135.355 84.4347C137.965 87.6047 143.005 88.1971 144.812 87.8993L145.693 82.8162Z" fill="#A3A3A3"/>
<path d="M156.389 84.0979C156.389 84.0979 151.678 82.7507 147.555 82.7155C144.704 82.6909 138.496 83.3293 134.109 90.6208C133.069 92.3502 132.813 95.5526 135.538 93.3449C137.474 91.7768 138.228 90.1975 139.52 89.4907C139.52 89.4907 139.678 93.6027 141.451 94.5773C142.243 95.0129 144.434 96.1514 146.266 96.7941C146.266 96.7941 146.514 96.4325 146.762 95.93C146.762 95.93 149.367 97.3196 153.395 95.38L156.389 84.0979Z" fill="#A3A3A3"/>
<path d="M144.831 83.1265C143.696 84.0994 141.328 86.2018 139.988 88.5956C138.5 91.2544 136.349 96.7774 138.324 97.8557C139.771 98.6465 140.778 96.6099 140.778 96.6099C140.778 96.6099 140.37 99.0801 141.834 99.5082C143.168 99.8983 143.852 98.2762 143.852 98.2762C143.852 98.2762 143.862 99.8171 145.22 99.9454C146.853 100.1 146.563 96.8451 148.351 95.5727C148.753 95.2876 144.831 83.1265 144.831 83.1265Z" fill="#A3A3A3"/>
<path d="M143.059 89.6995C142.142 90.7893 140.696 93.7985 140.743 96.5563C140.745 96.6188 140.792 96.6513 140.804 96.5943C141.396 93.5471 142.533 90.8353 143.084 89.7134C143.092 89.6987 143.07 89.6872 143.059 89.6995Z" fill="#192F5D"/>
<path d="M145.7 91.2797C145.006 92.3013 143.653 95.4697 143.797 98.2623C143.801 98.3249 143.851 98.3542 143.86 98.2968C144.347 95.0872 145.242 92.4451 145.726 91.2923C145.732 91.2765 145.709 91.2662 145.7 91.2797Z" fill="#192F5D"/>
<path d="M150.605 82.0139L155.884 95.7821C155.884 95.7821 174.072 93.1193 176.396 85.7866C177.355 82.7628 172.938 68.938 170.077 63.5235C167.217 58.109 163.398 55.8565 163.889 65.0829C164.381 74.3093 164.146 78.7414 163.678 79.1596C163.21 79.5781 150.605 82.0139 150.605 82.0139Z" fill="#2054D2" fill-opacity="0.4"/>
<path d="M173.796 89.3001C173.689 89.3911 173.583 89.4783 173.472 89.5614C173.452 89.5416 173.432 89.5218 173.412 89.506C172.711 88.8922 171.979 88.3259 171.179 87.8665C170.767 87.6567 170.363 87.4309 169.927 87.2805C169.504 87.0943 169.068 86.9755 168.621 86.9003C167.718 86.7577 166.791 86.8409 165.888 87.0429C165.124 87.2092 164.372 87.4587 163.623 87.7161C163.532 87.7438 163.445 87.7715 163.354 87.8032C163.306 87.819 163.259 87.8349 163.211 87.8507C162.32 88.1556 161.425 88.4605 160.507 88.6981C159.592 88.9318 158.653 89.1139 157.699 89.1496C156.749 89.1931 155.79 89.1139 154.868 88.8961C154.226 88.7457 153.592 88.5397 152.995 88.2507L152.903 88.0091C153.541 88.318 154.222 88.5358 154.915 88.6863C155.822 88.8882 156.76 88.9476 157.687 88.8922C158.614 88.8407 159.532 88.6546 160.431 88.4091C161.334 88.1635 162.213 87.8428 163.1 87.522C163.184 87.4943 163.271 87.4666 163.354 87.4349C164.158 87.1537 164.97 86.8845 165.809 86.6865C166.736 86.4687 167.714 86.3736 168.676 86.5162C169.155 86.5914 169.63 86.7221 170.074 86.9082C170.529 87.0627 170.949 87.2923 171.377 87.5101C172.26 88.0091 173.052 88.6308 173.796 89.3001ZM171.397 66.3479C170.118 66.8191 168.866 67.3498 167.595 67.8131C166.716 68.1339 165.829 68.419 164.918 68.5972C164.684 68.6447 164.451 68.6843 164.217 68.712C164.17 68.7199 164.126 68.7279 164.083 68.7279C164.071 68.7318 164.063 68.7318 164.055 68.7318C164.059 68.8467 164.063 68.9575 164.067 69.0684C164.142 69.0605 164.221 69.0526 164.296 69.0407C164.344 69.0367 164.391 69.0328 164.435 69.0249C164.617 69.0011 164.799 68.9694 164.981 68.9338C165.92 68.7556 166.831 68.4705 167.714 68.1378C168.997 67.6547 170.248 67.1161 171.519 66.637C171.48 66.538 171.436 66.4429 171.397 66.3479ZM175.483 78.4853C174.719 78.4932 173.955 78.414 173.214 78.2398C172.315 78.0418 171.464 77.6616 170.716 77.1112C169.963 76.5687 169.302 75.9073 168.696 75.1945C167.484 73.7689 166.494 72.1651 165.472 70.5851C165.132 70.0584 164.791 69.5397 164.435 69.0249C164.364 68.9219 164.292 68.8189 164.217 68.712C164.162 68.6289 164.102 68.5497 164.043 68.4665C164.047 68.5417 164.051 68.613 164.055 68.6883C164.067 68.7001 164.075 68.716 164.083 68.7279C164.158 68.8308 164.229 68.9338 164.296 69.0407C164.665 69.5713 165.013 70.1178 165.358 70.6603C165.865 71.4523 166.36 72.2483 166.878 73.0363C167.393 73.8244 167.932 74.6005 168.53 75.3371C169.128 76.0657 169.789 76.7587 170.553 77.3329C171.313 77.9111 172.204 78.3388 173.139 78.5566C173.935 78.7467 174.755 78.8338 175.57 78.8259C175.539 78.711 175.511 78.6001 175.483 78.4853ZM172.288 89.8149C171.361 89.9495 170.434 90.0485 169.504 90.0406C168.577 90.0406 167.654 89.9099 166.767 89.6485C165.884 89.3951 165.057 88.9635 164.344 88.3734C164.094 88.1675 163.853 87.9497 163.623 87.7161C163.528 87.625 163.441 87.5299 163.354 87.4349C163.029 87.0864 162.728 86.7221 162.443 86.3419C161.318 84.8451 160.423 83.1819 159.497 81.5464C159.275 81.1504 159.045 80.7544 158.812 80.3584C158.768 80.3663 158.729 80.3742 158.685 80.3861C158.923 80.794 159.152 81.2019 159.378 81.6137C159.837 82.4334 160.285 83.2611 160.756 84.0768C161.223 84.8926 161.71 85.7004 162.265 86.4687C162.526 86.833 162.803 87.1854 163.1 87.522C163.184 87.6171 163.267 87.7121 163.354 87.8032C163.611 88.0764 163.881 88.3378 164.17 88.5833C164.89 89.209 165.758 89.6842 166.676 89.9574C167.591 90.2346 168.549 90.3772 169.5 90.3811C170.454 90.397 171.405 90.3019 172.335 90.1515C172.474 90.1277 172.616 90.1079 172.755 90.0841C172.965 89.9416 173.171 89.7911 173.369 89.6406C173.008 89.7 172.648 89.7594 172.288 89.8149Z" fill="white"/>
<path d="M166.395 93.1709C170.267 91.3069 173.381 89.5812 174.966 88.0415C175.569 87.4559 175.338 87.9425 174.527 88.6866C173.054 90.0374 171.099 91.3212 166.452 93.2082C166.415 93.2228 166.359 93.1883 166.395 93.1709Z" fill="#192F5D"/>
<path d="M154.545 82.3991C155.03 83.2841 155.388 84.2563 155.78 85.1853C156.188 86.1543 156.565 87.1352 156.947 88.1149C157.329 89.0931 158.728 93.0602 159.076 94.0506C159.092 94.0953 159.026 94.1191 159.007 94.0759C158.597 93.1073 156.97 89.2677 156.6 88.3058C156.23 87.3431 155.852 86.3832 155.508 85.4106C155.16 84.427 154.753 83.4342 154.507 82.4197C154.501 82.3975 154.532 82.3749 154.545 82.3991Z" fill="#192F5D"/>
<path d="M150.733 82.3488L150.59 82.0194L150.583 82.0031L150.602 81.9988C152.489 81.5557 154.382 81.1478 156.272 80.7272C158.166 80.3261 160.058 79.9127 161.939 79.4739C162.407 79.3626 162.881 79.2517 163.328 79.1104C163.383 79.0925 163.438 79.0735 163.487 79.0537C163.538 79.0347 163.584 79.0078 163.564 79.0181C163.595 78.9777 163.635 78.8526 163.658 78.7476C163.71 78.5255 163.742 78.2875 163.77 78.0515C163.871 77.0995 163.916 76.1316 163.963 75.167C164.039 73.2345 164.077 71.2981 164.124 69.3608C164.223 71.2965 164.266 73.2345 164.246 75.1745C164.238 76.1451 164.218 77.1149 164.118 78.0899C164.091 78.3342 164.062 78.5777 164.007 78.8284C163.973 78.9567 163.959 79.0743 163.853 79.2359C163.763 79.3487 163.684 79.3598 163.627 79.3903C163.564 79.4173 163.504 79.4382 163.445 79.4584C162.97 79.6149 162.501 79.7301 162.029 79.8493C160.14 80.3051 158.238 80.6714 156.337 81.048C154.431 81.3988 152.524 81.741 150.607 82.0297L150.619 82.0091L150.733 82.3488Z" fill="#192F5D"/>
<path d="M164.14 72.6491C163.96 72.2773 163.842 71.8868 163.744 71.4916C163.7 71.2928 163.656 71.094 163.632 70.8909C163.606 70.6881 163.584 70.4842 163.592 70.2771C163.736 70.664 163.84 71.0525 163.936 71.4461C164.026 71.8409 164.109 72.2373 164.14 72.6491Z" fill="#192F5D"/>
<path d="M159.59 62.3747C161.043 62.8641 163.803 60.8315 164.981 59.0855C165.061 58.9655 164.992 57.6179 164.985 55.9769C164.984 54.981 165.007 53.8722 165.101 52.8616L158.621 53.8116C158.621 53.8116 159.046 55.9876 158.872 57.7482C158.855 57.8951 158.828 58.031 158.79 58.1589C158.786 58.1779 158.778 58.2 158.774 58.2266C158.573 59.0023 158.186 61.9007 159.59 62.3747Z" fill="#A3A3A3"/>
<path d="M158.619 53.8106C158.619 53.8106 159.047 55.9858 158.871 57.75C158.855 57.8945 158.83 58.0315 158.789 58.159C158.784 58.1773 158.777 58.2002 158.775 58.2248C158.97 58.2755 159.184 58.3067 159.424 58.3206C163.118 58.5804 164.583 54.1119 164.913 52.8887L158.619 53.8106Z" fill="#192F5D"/>
<path d="M166.546 45.4857C166.961 47.8086 164.999 54.1391 163.232 55.3904C160.671 57.2049 156.864 56.9503 155.42 53.9597C154.021 51.0606 156.722 42.8559 158.66 41.7581C161.514 40.1417 165.934 42.0548 166.546 45.4857Z" fill="#A3A3A3"/>
<path d="M159.59 48.745C159.598 48.7304 159.616 48.7759 159.61 48.793C159.457 49.2092 159.351 49.7117 159.685 49.9778C159.695 49.9861 159.687 50.0067 159.674 50C159.231 49.7802 159.377 49.1145 159.59 48.745Z" fill="#192F5D"/>
<path d="M160.111 48.4307C160.805 48.6046 160.406 49.9791 159.764 49.8179C159.131 49.6595 159.53 48.285 160.111 48.4307Z" fill="#192F5D"/>
<path d="M157.09 48.0153C157.092 47.9979 157.051 48.0256 157.047 48.0434C156.936 48.4731 156.738 48.9467 156.312 48.9764C156.299 48.9772 156.294 48.999 156.309 49.0013C156.798 49.071 157.055 48.4398 157.09 48.0153Z" fill="#192F5D"/>
<path d="M156.839 47.4604C156.169 47.2098 155.717 48.5676 156.337 48.7997C156.948 49.0282 157.4 47.6703 156.839 47.4604Z" fill="#192F5D"/>
<path d="M160.886 47.5141C160.712 47.4128 160.569 47.2904 160.408 47.1724C160.226 47.0393 160.067 46.9518 159.987 46.7308C159.944 46.6124 160.024 46.4453 160.136 46.3927C160.395 46.2699 160.658 46.3776 160.884 46.5293C161.128 46.6936 161.275 46.8825 161.361 47.1641C161.444 47.4365 161.115 47.6476 160.886 47.5141Z" fill="#192F5D"/>
<path d="M156.685 46.2469C156.885 46.271 157.073 46.2599 157.273 46.2635C157.498 46.2675 157.677 46.294 157.875 46.1665C157.981 46.098 158.018 45.9162 157.961 45.8069C157.829 45.5527 157.554 45.479 157.283 45.4632C156.989 45.4461 156.757 45.5079 156.519 45.6802C156.288 45.8477 156.422 46.2152 156.685 46.2469Z" fill="#192F5D"/>
<path d="M158.949 52.6371C158.834 52.7314 158.716 52.8644 158.555 52.8636C158.4 52.8633 158.226 52.7777 158.09 52.7112C158.076 52.7045 158.061 52.7183 158.069 52.7322C158.169 52.9116 158.401 53.0391 158.608 53.0209C158.811 53.0034 158.925 52.8395 158.99 52.6609C158.999 52.6355 158.966 52.6233 158.949 52.6371Z" fill="#192F5D"/>
<path d="M158.768 51.2578C158.423 51.5583 158.014 51.6585 157.613 51.6221C157.434 51.607 157.255 51.5611 157.085 51.4946C157.051 51.4839 156.932 51.4296 156.9 51.413C156.852 51.3912 156.837 51.3425 156.842 51.293L156.843 51.2898C156.848 51.2744 157.134 50.3874 157.134 50.3874C156.997 50.4127 156.307 50.5101 156.366 50.3418C156.862 48.9487 157.413 47.3995 158.201 46.1177C158.225 46.0741 158.293 46.1058 158.276 46.1513C157.852 47.5092 157.193 48.7832 156.746 50.1402C156.962 50.1228 157.319 50.0777 157.49 50.1311C157.513 50.1442 157.104 51.2285 157.104 51.2388C157.634 51.4688 158.097 51.4229 158.739 51.2079C158.778 51.1924 158.803 51.2312 158.768 51.2578Z" fill="#192F5D"/>
<path d="M157.29 51.3867C157.29 51.3867 157.465 51.8694 157.824 52.1316C157.956 52.2286 158.109 52.2971 158.289 52.3023C158.659 52.3146 158.761 52.0021 158.778 51.7146C158.793 51.4782 158.747 51.2568 158.747 51.2568C158.747 51.2568 158.108 51.576 157.29 51.3867Z" fill="#192F5D"/>
<path d="M157.825 52.1318C157.956 52.2289 158.11 52.2974 158.289 52.3025C158.659 52.3148 158.762 52.0023 158.779 51.7148C158.4 51.6428 157.962 51.7838 157.825 52.1318Z" fill="#FF9CBD"/>
<path d="M166.255 51.9928C164.446 51.7144 163.997 49.3804 164.801 47.7663C164.801 47.7663 159.923 47.322 160.557 43.4689C160.557 43.4689 159.03 44.9297 156.87 44.4997L156.246 45.7593C155.792 45.5091 155.588 44.0114 157.021 43.1976C157.021 43.1976 157.532 41.3214 159.187 40.5001C160.841 39.6792 162.06 40.7412 162.06 40.7412C162.06 40.7412 163.38 40.0656 165.075 40.6842C166.769 41.3028 167.126 43.0562 167.126 43.0562C167.126 43.0562 169.37 44.0359 169.393 45.7926C169.414 47.5493 168.3 48.4715 168.3 48.4715C168.3 48.4715 168.741 49.2596 168.12 50.6135C167.721 51.4843 166.798 52.0763 166.255 51.9928Z" fill="#192F5D"/>
<path d="M160.739 43.1548C160.637 43.4577 160.555 43.7662 160.518 44.0806C160.466 44.3923 160.462 44.7079 160.487 45.0176C160.548 45.6357 160.812 46.2242 161.274 46.6301C161.711 47.0736 162.33 47.268 162.92 47.4637C163.229 47.5239 163.537 47.6066 163.851 47.6498C164.166 47.6886 164.483 47.7199 164.801 47.7654C164.482 47.7706 164.161 47.7611 163.839 47.7595C163.519 47.7381 163.201 47.6735 162.88 47.632C162.261 47.4648 161.612 47.2625 161.122 46.7952C160.632 46.3418 160.34 45.6868 160.315 45.0298C160.292 44.3737 160.45 43.7262 160.739 43.1548Z" fill="#192F5D"/>
<path d="M157.8 44.7989C158.371 44.7261 158.918 44.595 159.412 44.3507C159.662 44.2358 159.887 44.0755 160.097 43.898C160.315 43.7234 160.478 43.4961 160.658 43.2688C160.562 43.5389 160.425 43.8074 160.219 44.0212C160.022 44.2422 159.778 44.4239 159.511 44.5522C159.244 44.6798 158.96 44.7704 158.669 44.8088C158.379 44.8484 158.085 44.8564 157.8 44.7989Z" fill="#192F5D"/>
<path d="M164.224 50.9546C164.224 50.9546 165.977 49.072 166.851 49.7258C167.725 50.3796 166.202 53.2514 165.032 53.5092C163.862 53.767 163.602 52.6883 163.602 52.6883L164.224 50.9546Z" fill="#A3A3A3"/>
<path d="M166.394 50.5385C166.413 50.5393 166.412 50.5651 166.396 50.569C165.572 50.7753 165.06 51.4406 164.667 52.1498C164.939 51.894 165.277 51.7804 165.625 52.1106C165.643 52.1281 165.62 52.157 165.598 52.1495C165.288 52.0362 165.05 52.0592 164.798 52.2845C164.62 52.4441 164.483 52.6583 164.344 52.8524C164.298 52.9169 164.178 52.8619 164.215 52.7854C164.218 52.7799 164.221 52.7739 164.224 52.7684C164.344 51.7713 165.313 50.4886 166.394 50.5385Z" fill="#192F5D"/>
<path d="M135.034 35.063C135.548 39.9821 139.956 43.5544 144.875 43.04C146.863 42.8321 148.63 41.9882 149.998 40.7281L154.479 41.3859L152.237 37.5122C152.782 36.1888 153.01 34.7161 152.852 33.1994C152.338 28.2803 147.93 24.708 143.011 25.2224C138.092 25.7368 134.52 30.1438 135.034 35.063Z" fill="white"/>
<path d="M137.715 27.6658C138.688 26.7166 139.874 25.9836 141.169 25.548C142.465 25.1172 143.862 24.9936 145.219 25.1738C146.575 25.3576 147.9 25.8391 149.042 26.6081C150.185 27.3748 151.153 28.4024 151.847 29.5952C153.24 31.9771 153.485 35.0215 152.399 37.5781L152.388 37.4249L154.617 41.3061L154.781 41.5924L154.457 41.5425L149.98 40.855L150.086 40.8226C148.847 41.9464 147.294 42.7135 145.655 43.0105C145.246 43.0857 144.832 43.13 144.416 43.1396C144.001 43.176 143.586 43.1384 143.171 43.1158C142.35 43.0168 141.526 42.8631 140.76 42.5408C139.991 42.2379 139.255 41.8427 138.6 41.3378C138.256 41.1057 137.966 40.8087 137.654 40.5374C137.38 40.229 137.077 39.9442 136.843 39.6029C135.82 38.3004 135.222 36.6978 135.035 35.0627C134.743 32.366 135.737 29.5457 137.715 27.6658ZM136.869 39.5823C137.105 39.9205 137.408 40.2024 137.683 40.5073C137.995 40.775 138.286 41.0689 138.629 41.297C139.282 41.7979 140.023 42.1741 140.79 42.4612C141.553 42.7673 142.371 42.9043 143.182 42.9879C143.591 43.0025 144 43.033 144.408 42.9899C144.816 42.9736 145.222 42.9229 145.623 42.8422C147.226 42.523 148.726 41.746 149.911 40.6329L149.955 40.5913L150.017 40.6L154.502 41.2281L154.342 41.4645L152.087 37.5983L152.044 37.5251L152.076 37.4451C152.574 36.2131 152.791 34.8703 152.707 33.5433C152.6 32.2206 152.249 30.9031 151.57 29.7536C150.904 28.6012 149.983 27.5977 148.89 26.8307C147.795 26.0648 146.514 25.5726 145.191 25.3694C143.867 25.1699 142.493 25.2661 141.207 25.668C139.924 26.0755 138.735 26.7784 137.753 27.7058C135.775 29.5603 134.762 32.3632 135.034 35.0623C135.232 36.697 135.841 38.2917 136.869 39.5823Z" fill="#192F5D"/>
<path d="M142.602 39.2389L138.776 35.3664L140.062 34.0968L142.296 36.3588L146.939 29.0803L148.462 30.0517L142.602 39.2389Z" fill="#2054D2" fill-opacity="0.4"/>
</svg>
